<?xml version="1.0" encoding="utf-8" standalone="no"?>
<!DOCTYPE svg PUBLIC "-//W3C//DTD SVG 1.1//EN"
  "http://www.w3.org/Graphics/SVG/1.1/DTD/svg11.dtd">
<svg xmlns:xlink="http://www.w3.org/1999/xlink" width="504pt" height="216pt" viewBox="0 0 504 216" xmlns="http://www.w3.org/2000/svg" version="1.1">
 <metadata>
  <rdf:RDF xmlns:dc="http://purl.org/dc/elements/1.1/" xmlns:cc="http://creativecommons.org/ns#" xmlns:rdf="http://www.w3.org/1999/02/22-rdf-syntax-ns#">
   <cc:Work>
    <dc:type rdf:resource="http://purl.org/dc/dcmitype/StillImage"/>
    <dc:date>2026-01-27T10:57:43.346424</dc:date>
    <dc:format>image/svg+xml</dc:format>
    <dc:creator>
     <cc:Agent>
      <dc:title>Matplotlib v3.10.8, https://matplotlib.org/</dc:title>
     </cc:Agent>
    </dc:creator>
   </cc:Work>
  </rdf:RDF>
 </metadata>
 <defs>
  <style type="text/css">*{stroke-linejoin: round; stroke-linecap: butt}</style>
 </defs>
 <g id="figure_1">
  <g id="patch_1">
   <path d="M 0 216 
L 504 216 
L 504 0 
L 0 0 
z
" style="fill: #ffffff"/>
  </g>
  <g id="axes_1">
   <g id="patch_2">
    <path d="M 52.553209 167.848 
L 246.384 167.848 
L 246.384 10.8 
L 52.553209 10.8 
z
" style="fill: #ffffff"/>
   </g>
   <g id="PathCollection_1">
    <defs>
     <path id="C0_0_a9e1d19574" d="M 0 3 
C 0.795609 3 1.55874 2.683901 2.12132 2.12132 
C 2.683901 1.55874 3 0.795609 3 -0 
C 3 -0.795609 2.683901 -1.55874 2.12132 -2.12132 
C 1.55874 -2.683901 0.795609 -3 0 -3 
C -0.795609 -3 -1.55874 -2.683901 -2.12132 -2.12132 
C -2.683901 -1.55874 -3 -0.795609 -3 0 
C -3 0.795609 -2.683901 1.55874 -2.12132 2.12132 
C -1.55874 2.683901 -0.795609 3 0 3 
z
"/>
    </defs>
    <g clip-path="url(#p23a69de7de)">
     <use xlink:href="#C0_0_a9e1d19574" x="127.34115" y="56.226873" style="fill: #c80000; stroke: #000000; stroke-width: 0.5"/>
    </g>
    <g clip-path="url(#p23a69de7de)">
     <use xlink:href="#C0_0_a9e1d19574" x="78.621528" y="135.971314" style="fill: #ff1a00; stroke: #000000; stroke-width: 0.5"/>
    </g>
    <g clip-path="url(#p23a69de7de)">
     <use xlink:href="#C0_0_a9e1d19574" x="167.204824" y="22.451848" style="fill: #810000; stroke: #000000; stroke-width: 0.5"/>
    </g>
    <g clip-path="url(#p23a69de7de)">
     <use xlink:href="#C0_0_a9e1d19574" x="94.515931" y="108.235258" style="fill: #ff0000; stroke: #000000; stroke-width: 0.5"/>
    </g>
    <g clip-path="url(#p23a69de7de)">
     <use xlink:href="#C0_0_a9e1d19574" x="106.619772" y="87.315761" style="fill: #ea0000; stroke: #000000; stroke-width: 0.5"/>
    </g>
    <g clip-path="url(#p23a69de7de)">
     <use xlink:href="#C0_0_a9e1d19574" x="211.30011" y="20.851848" style="fill: #370000; stroke: #000000; stroke-width: 0.5"/>
    </g>
    <g clip-path="url(#p23a69de7de)">
     <use xlink:href="#C0_0_a9e1d19574" x="66.359457" y="154.487796" style="fill: #ff2f00; stroke: #000000; stroke-width: 0.5"/>
    </g>
    <g clip-path="url(#p23a69de7de)">
     <use xlink:href="#C0_0_a9e1d19574" x="98.022876" y="102.099357" style="fill: #f90000; stroke: #000000; stroke-width: 0.5"/>
    </g>
    <g clip-path="url(#p23a69de7de)">
     <use xlink:href="#C0_0_a9e1d19574" x="209.819937" y="20.467617" style="fill: #3a0000; stroke: #000000; stroke-width: 0.5"/>
    </g>
    <g clip-path="url(#p23a69de7de)">
     <use xlink:href="#C0_0_a9e1d19574" x="237.57351" y="31.088041" style="fill: #0b0000; stroke: #000000; stroke-width: 0.5"/>
    </g>
    <g clip-path="url(#p23a69de7de)">
     <use xlink:href="#C0_0_a9e1d19574" x="86.303137" y="122.736459" style="fill: #ff0d00; stroke: #000000; stroke-width: 0.5"/>
    </g>
    <g clip-path="url(#p23a69de7de)">
     <use xlink:href="#C0_0_a9e1d19574" x="75.285306" y="141.394735" style="fill: #ff2200; stroke: #000000; stroke-width: 0.5"/>
    </g>
    <g clip-path="url(#p23a69de7de)">
     <use xlink:href="#C0_0_a9e1d19574" x="221.050316" y="23.958436" style="fill: #250000; stroke: #000000; stroke-width: 0.5"/>
    </g>
    <g clip-path="url(#p23a69de7de)">
     <use xlink:href="#C0_0_a9e1d19574" x="107.666039" y="85.56992" style="fill: #e70000; stroke: #000000; stroke-width: 0.5"/>
    </g>
    <g clip-path="url(#p23a69de7de)">
     <use xlink:href="#C0_0_a9e1d19574" x="61.3637" y="160.709455" style="fill: #ff3a00; stroke: #000000; stroke-width: 0.5"/>
    </g>
    <g clip-path="url(#p23a69de7de)">
     <use xlink:href="#C0_0_a9e1d19574" x="121.859448" y="63.642688" style="fill: #cf0000; stroke: #000000; stroke-width: 0.5"/>
    </g>
    <g clip-path="url(#p23a69de7de)">
     <use xlink:href="#C0_0_a9e1d19574" x="226.335577" y="26.005187" style="fill: #1d0000; stroke: #000000; stroke-width: 0.5"/>
    </g>
    <g clip-path="url(#p23a69de7de)">
     <use xlink:href="#C0_0_a9e1d19574" x="63.567954" y="158.072246" style="fill: #ff3400; stroke: #000000; stroke-width: 0.5"/>
    </g>
    <g clip-path="url(#p23a69de7de)">
     <use xlink:href="#C0_0_a9e1d19574" x="180.095179" y="18.779607" style="fill: #6c0000; stroke: #000000; stroke-width: 0.5"/>
    </g>
    <g clip-path="url(#p23a69de7de)">
     <use xlink:href="#C0_0_a9e1d19574" x="145.205667" y="36.711505" style="fill: #a80000; stroke: #000000; stroke-width: 0.5"/>
    </g>
    <g clip-path="url(#p23a69de7de)">
     <use xlink:href="#C0_0_a9e1d19574" x="108.090507" y="84.865946" style="fill: #e70000; stroke: #000000; stroke-width: 0.5"/>
    </g>
    <g clip-path="url(#p23a69de7de)">
     <use xlink:href="#C0_0_a9e1d19574" x="84.926502" y="125.166744" style="fill: #ff1000; stroke: #000000; stroke-width: 0.5"/>
    </g>
    <g clip-path="url(#p23a69de7de)">
     <use xlink:href="#C0_0_a9e1d19574" x="97.014376" y="103.866348" style="fill: #f90000; stroke: #000000; stroke-width: 0.5"/>
    </g>
    <g clip-path="url(#p23a69de7de)">
     <use xlink:href="#C0_0_a9e1d19574" x="141.516818" y="40.146882" style="fill: #ad0000; stroke: #000000; stroke-width: 0.5"/>
    </g>
    <g clip-path="url(#p23a69de7de)">
     <use xlink:href="#C0_0_a9e1d19574" x="123.080204" y="61.936493" style="fill: #cd0000; stroke: #000000; stroke-width: 0.5"/>
    </g>
    <g clip-path="url(#p23a69de7de)">
     <use xlink:href="#C0_0_a9e1d19574" x="134.993647" y="46.979344" style="fill: #ba0000; stroke: #000000; stroke-width: 0.5"/>
    </g>
    <g clip-path="url(#p23a69de7de)">
     <use xlink:href="#C0_0_a9e1d19574" x="95.108547" y="107.203151" style="fill: #ff0000; stroke: #000000; stroke-width: 0.5"/>
    </g>
    <g clip-path="url(#p23a69de7de)">
     <use xlink:href="#C0_0_a9e1d19574" x="149.26288" y="33.286086" style="fill: #a00000; stroke: #000000; stroke-width: 0.5"/>
    </g>
    <g clip-path="url(#p23a69de7de)">
     <use xlink:href="#C0_0_a9e1d19574" x="182.672237" y="18.405139" style="fill: #660000; stroke: #000000; stroke-width: 0.5"/>
    </g>
    <g clip-path="url(#p23a69de7de)">
     <use xlink:href="#C0_0_a9e1d19574" x="174.192871" y="20.06641" style="fill: #760000; stroke: #000000; stroke-width: 0.5"/>
    </g>
    <g clip-path="url(#p23a69de7de)">
     <use xlink:href="#C0_0_a9e1d19574" x="109.883191" y="81.918691" style="fill: #e40000; stroke: #000000; stroke-width: 0.5"/>
    </g>
    <g clip-path="url(#p23a69de7de)">
     <use xlink:href="#C0_0_a9e1d19574" x="123.119785" y="61.881325" style="fill: #cd0000; stroke: #000000; stroke-width: 0.5"/>
    </g>
    <g clip-path="url(#p23a69de7de)">
     <use xlink:href="#C0_0_a9e1d19574" x="148.308508" y="34.058267" style="fill: #a30000; stroke: #000000; stroke-width: 0.5"/>
    </g>
    <g clip-path="url(#p23a69de7de)">
     <use xlink:href="#C0_0_a9e1d19574" x="127.881174" y="55.532073" style="fill: #c50000; stroke: #000000; stroke-width: 0.5"/>
    </g>
    <g clip-path="url(#p23a69de7de)">
     <use xlink:href="#C0_0_a9e1d19574" x="123.741931" y="61.024227" style="fill: #cd0000; stroke: #000000; stroke-width: 0.5"/>
    </g>
    <g clip-path="url(#p23a69de7de)">
     <use xlink:href="#C0_0_a9e1d19574" x="73.825903" y="143.686706" style="fill: #ff2500; stroke: #000000; stroke-width: 0.5"/>
    </g>
    <g clip-path="url(#p23a69de7de)">
     <use xlink:href="#C0_0_a9e1d19574" x="107.322401" y="86.142118" style="fill: #ea0000; stroke: #000000; stroke-width: 0.5"/>
    </g>
    <g clip-path="url(#p23a69de7de)">
     <use xlink:href="#C0_0_a9e1d19574" x="159.762914" y="26.108145" style="fill: #8e0000; stroke: #000000; stroke-width: 0.5"/>
    </g>
    <g clip-path="url(#p23a69de7de)">
     <use xlink:href="#C0_0_a9e1d19574" x="96.428014" y="104.894534" style="fill: #fc0000; stroke: #000000; stroke-width: 0.5"/>
    </g>
    <g clip-path="url(#p23a69de7de)">
     <use xlink:href="#C0_0_a9e1d19574" x="118.918101" y="67.879996" style="fill: #d50000; stroke: #000000; stroke-width: 0.5"/>
    </g>
    <g clip-path="url(#p23a69de7de)">
     <use xlink:href="#C0_0_a9e1d19574" x="156.437363" y="28.122033" style="fill: #960000; stroke: #000000; stroke-width: 0.5"/>
    </g>
    <g clip-path="url(#p23a69de7de)">
     <use xlink:href="#C0_0_a9e1d19574" x="159.075055" y="26.505985" style="fill: #900000; stroke: #000000; stroke-width: 0.5"/>
    </g>
    <g clip-path="url(#p23a69de7de)">
     <use xlink:href="#C0_0_a9e1d19574" x="69.023876" y="150.825324" style="fill: #ff2c00; stroke: #000000; stroke-width: 0.5"/>
    </g>
    <g clip-path="url(#p23a69de7de)">
     <use xlink:href="#C0_0_a9e1d19574" x="73.573902" y="144.077068" style="fill: #ff2500; stroke: #000000; stroke-width: 0.5"/>
    </g>
    <g clip-path="url(#p23a69de7de)">
     <use xlink:href="#C0_0_a9e1d19574" x="192.091131" y="17.938545" style="fill: #570000; stroke: #000000; stroke-width: 0.5"/>
    </g>
    <g clip-path="url(#p23a69de7de)">
     <use xlink:href="#C0_0_a9e1d19574" x="95.785503" y="106.019737" style="fill: #fc0000; stroke: #000000; stroke-width: 0.5"/>
    </g>
    <g clip-path="url(#p23a69de7de)">
     <use xlink:href="#C0_0_a9e1d19574" x="64.172239" y="157.319085" style="fill: #ff3400; stroke: #000000; stroke-width: 0.5"/>
    </g>
   </g>
   <g id="matplotlib.axis_1">
    <g id="xtick_1">
     <g id="line2d_1">
      <defs>
       <path id="m869df92529" d="M 0 0 
L 0 3.5 
" style="stroke: #000000; stroke-width: 0.8"/>
      </defs>
      <g>
       <use xlink:href="#m869df92529" x="121.971872" y="167.848" style="stroke: #000000; stroke-width: 0.8"/>
      </g>
     </g>
     <g id="text_1">
      <!-- $\mathdefault{10^{-1}}$ -->
      <g transform="translate(110.221872 182.446438) scale(0.1 -0.1)">
       <defs>
        <path id="DejaVuSans-31" d="M 794 531 
L 1825 531 
L 1825 4091 
L 703 3866 
L 703 4441 
L 1819 4666 
L 2450 4666 
L 2450 531 
L 3481 531 
L 3481 0 
L 794 0 
L 794 531 
z
" transform="scale(0.015625)"/>
        <path id="DejaVuSans-30" d="M 2034 4250 
Q 1547 4250 1301 3770 
Q 1056 3291 1056 2328 
Q 1056 1369 1301 889 
Q 1547 409 2034 409 
Q 2525 409 2770 889 
Q 3016 1369 3016 2328 
Q 3016 3291 2770 3770 
Q 2525 4250 2034 4250 
z
M 2034 4750 
Q 2819 4750 3233 4129 
Q 3647 3509 3647 2328 
Q 3647 1150 3233 529 
Q 2819 -91 2034 -91 
Q 1250 -91 836 529 
Q 422 1150 422 2328 
Q 422 3509 836 4129 
Q 1250 4750 2034 4750 
z
" transform="scale(0.015625)"/>
        <path id="DejaVuSans-2212" d="M 678 2272 
L 4684 2272 
L 4684 1741 
L 678 1741 
L 678 2272 
z
" transform="scale(0.015625)"/>
       </defs>
       <use xlink:href="#DejaVuSans-31" transform="translate(0 0.684375)"/>
       <use xlink:href="#DejaVuSans-30" transform="translate(63.623047 0.684375)"/>
       <use xlink:href="#DejaVuSans-2212" transform="translate(128.203125 38.965625) scale(0.7)"/>
       <use xlink:href="#DejaVuSans-31" transform="translate(186.855469 38.965625) scale(0.7)"/>
      </g>
     </g>
    </g>
    <g id="xtick_2">
     <g id="line2d_2">
      <g>
       <use xlink:href="#m869df92529" x="214.320199" y="167.848" style="stroke: #000000; stroke-width: 0.8"/>
      </g>
     </g>
     <g id="text_2">
      <!-- $\mathdefault{10^{0}}$ -->
      <g transform="translate(205.520199 182.446438) scale(0.1 -0.1)">
       <use xlink:href="#DejaVuSans-31" transform="translate(0 0.765625)"/>
       <use xlink:href="#DejaVuSans-30" transform="translate(63.623047 0.765625)"/>
       <use xlink:href="#DejaVuSans-30" transform="translate(128.203125 39.046875) scale(0.7)"/>
      </g>
     </g>
    </g>
    <g id="xtick_3">
     <g id="line2d_3">
      <defs>
       <path id="m53fc035712" d="M 0 0 
L 0 2 
" style="stroke: #000000; stroke-width: 0.6"/>
      </defs>
      <g>
       <use xlink:href="#m53fc035712" x="57.423161" y="167.848" style="stroke: #000000; stroke-width: 0.6"/>
      </g>
     </g>
    </g>
    <g id="xtick_4">
     <g id="line2d_4">
      <g>
       <use xlink:href="#m53fc035712" x="73.684894" y="167.848" style="stroke: #000000; stroke-width: 0.6"/>
      </g>
     </g>
    </g>
    <g id="xtick_5">
     <g id="line2d_5">
      <g>
       <use xlink:href="#m53fc035712" x="85.222778" y="167.848" style="stroke: #000000; stroke-width: 0.6"/>
      </g>
     </g>
    </g>
    <g id="xtick_6">
     <g id="line2d_6">
      <g>
       <use xlink:href="#m53fc035712" x="94.172255" y="167.848" style="stroke: #000000; stroke-width: 0.6"/>
      </g>
     </g>
    </g>
    <g id="xtick_7">
     <g id="line2d_7">
      <g>
       <use xlink:href="#m53fc035712" x="101.484511" y="167.848" style="stroke: #000000; stroke-width: 0.6"/>
      </g>
     </g>
    </g>
    <g id="xtick_8">
     <g id="line2d_8">
      <g>
       <use xlink:href="#m53fc035712" x="107.666935" y="167.848" style="stroke: #000000; stroke-width: 0.6"/>
      </g>
     </g>
    </g>
    <g id="xtick_9">
     <g id="line2d_9">
      <g>
       <use xlink:href="#m53fc035712" x="113.022394" y="167.848" style="stroke: #000000; stroke-width: 0.6"/>
      </g>
     </g>
    </g>
    <g id="xtick_10">
     <g id="line2d_10">
      <g>
       <use xlink:href="#m53fc035712" x="117.746244" y="167.848" style="stroke: #000000; stroke-width: 0.6"/>
      </g>
     </g>
    </g>
    <g id="xtick_11">
     <g id="line2d_11">
      <g>
       <use xlink:href="#m53fc035712" x="149.771488" y="167.848" style="stroke: #000000; stroke-width: 0.6"/>
      </g>
     </g>
    </g>
    <g id="xtick_12">
     <g id="line2d_12">
      <g>
       <use xlink:href="#m53fc035712" x="166.033222" y="167.848" style="stroke: #000000; stroke-width: 0.6"/>
      </g>
     </g>
    </g>
    <g id="xtick_13">
     <g id="line2d_13">
      <g>
       <use xlink:href="#m53fc035712" x="177.571105" y="167.848" style="stroke: #000000; stroke-width: 0.6"/>
      </g>
     </g>
    </g>
    <g id="xtick_14">
     <g id="line2d_14">
      <g>
       <use xlink:href="#m53fc035712" x="186.520582" y="167.848" style="stroke: #000000; stroke-width: 0.6"/>
      </g>
     </g>
    </g>
    <g id="xtick_15">
     <g id="line2d_15">
      <g>
       <use xlink:href="#m53fc035712" x="193.832838" y="167.848" style="stroke: #000000; stroke-width: 0.6"/>
      </g>
     </g>
    </g>
    <g id="xtick_16">
     <g id="line2d_16">
      <g>
       <use xlink:href="#m53fc035712" x="200.015262" y="167.848" style="stroke: #000000; stroke-width: 0.6"/>
      </g>
     </g>
    </g>
    <g id="xtick_17">
     <g id="line2d_17">
      <g>
       <use xlink:href="#m53fc035712" x="205.370721" y="167.848" style="stroke: #000000; stroke-width: 0.6"/>
      </g>
     </g>
    </g>
    <g id="xtick_18">
     <g id="line2d_18">
      <g>
       <use xlink:href="#m53fc035712" x="210.094571" y="167.848" style="stroke: #000000; stroke-width: 0.6"/>
      </g>
     </g>
    </g>
    <g id="xtick_19">
     <g id="line2d_19">
      <g>
       <use xlink:href="#m53fc035712" x="242.119815" y="167.848" style="stroke: #000000; stroke-width: 0.6"/>
      </g>
     </g>
    </g>
    <g id="text_3">
     <!-- avidity, $\log_{10} \tau_i$ -->
     <g transform="translate(112.168605 196.126125) scale(0.1 -0.1)">
      <defs>
       <path id="DejaVuSans-61" d="M 2194 1759 
Q 1497 1759 1228 1600 
Q 959 1441 959 1056 
Q 959 750 1161 570 
Q 1363 391 1709 391 
Q 2188 391 2477 730 
Q 2766 1069 2766 1631 
L 2766 1759 
L 2194 1759 
z
M 3341 1997 
L 3341 0 
L 2766 0 
L 2766 531 
Q 2569 213 2275 61 
Q 1981 -91 1556 -91 
Q 1019 -91 701 211 
Q 384 513 384 1019 
Q 384 1609 779 1909 
Q 1175 2209 1959 2209 
L 2766 2209 
L 2766 2266 
Q 2766 2663 2505 2880 
Q 2244 3097 1772 3097 
Q 1472 3097 1187 3025 
Q 903 2953 641 2809 
L 641 3341 
Q 956 3463 1253 3523 
Q 1550 3584 1831 3584 
Q 2591 3584 2966 3190 
Q 3341 2797 3341 1997 
z
" transform="scale(0.015625)"/>
       <path id="DejaVuSans-76" d="M 191 3500 
L 800 3500 
L 1894 563 
L 2988 3500 
L 3597 3500 
L 2284 0 
L 1503 0 
L 191 3500 
z
" transform="scale(0.015625)"/>
       <path id="DejaVuSans-69" d="M 603 3500 
L 1178 3500 
L 1178 0 
L 603 0 
L 603 3500 
z
M 603 4863 
L 1178 4863 
L 1178 4134 
L 603 4134 
L 603 4863 
z
" transform="scale(0.015625)"/>
       <path id="DejaVuSans-64" d="M 2906 2969 
L 2906 4863 
L 3481 4863 
L 3481 0 
L 2906 0 
L 2906 525 
Q 2725 213 2448 61 
Q 2172 -91 1784 -91 
Q 1150 -91 751 415 
Q 353 922 353 1747 
Q 353 2572 751 3078 
Q 1150 3584 1784 3584 
Q 2172 3584 2448 3432 
Q 2725 3281 2906 2969 
z
M 947 1747 
Q 947 1113 1208 752 
Q 1469 391 1925 391 
Q 2381 391 2643 752 
Q 2906 1113 2906 1747 
Q 2906 2381 2643 2742 
Q 2381 3103 1925 3103 
Q 1469 3103 1208 2742 
Q 947 2381 947 1747 
z
" transform="scale(0.015625)"/>
       <path id="DejaVuSans-74" d="M 1172 4494 
L 1172 3500 
L 2356 3500 
L 2356 3053 
L 1172 3053 
L 1172 1153 
Q 1172 725 1289 603 
Q 1406 481 1766 481 
L 2356 481 
L 2356 0 
L 1766 0 
Q 1100 0 847 248 
Q 594 497 594 1153 
L 594 3053 
L 172 3053 
L 172 3500 
L 594 3500 
L 594 4494 
L 1172 4494 
z
" transform="scale(0.015625)"/>
       <path id="DejaVuSans-79" d="M 2059 -325 
Q 1816 -950 1584 -1140 
Q 1353 -1331 966 -1331 
L 506 -1331 
L 506 -850 
L 844 -850 
Q 1081 -850 1212 -737 
Q 1344 -625 1503 -206 
L 1606 56 
L 191 3500 
L 800 3500 
L 1894 763 
L 2988 3500 
L 3597 3500 
L 2059 -325 
z
" transform="scale(0.015625)"/>
       <path id="DejaVuSans-2c" d="M 750 794 
L 1409 794 
L 1409 256 
L 897 -744 
L 494 -744 
L 750 256 
L 750 794 
z
" transform="scale(0.015625)"/>
       <path id="DejaVuSans-20" transform="scale(0.015625)"/>
       <path id="DejaVuSans-6c" d="M 603 4863 
L 1178 4863 
L 1178 0 
L 603 0 
L 603 4863 
z
" transform="scale(0.015625)"/>
       <path id="DejaVuSans-6f" d="M 1959 3097 
Q 1497 3097 1228 2736 
Q 959 2375 959 1747 
Q 959 1119 1226 758 
Q 1494 397 1959 397 
Q 2419 397 2687 759 
Q 2956 1122 2956 1747 
Q 2956 2369 2687 2733 
Q 2419 3097 1959 3097 
z
M 1959 3584 
Q 2709 3584 3137 3096 
Q 3566 2609 3566 1747 
Q 3566 888 3137 398 
Q 2709 -91 1959 -91 
Q 1206 -91 779 398 
Q 353 888 353 1747 
Q 353 2609 779 3096 
Q 1206 3584 1959 3584 
z
" transform="scale(0.015625)"/>
       <path id="DejaVuSans-67" d="M 2906 1791 
Q 2906 2416 2648 2759 
Q 2391 3103 1925 3103 
Q 1463 3103 1205 2759 
Q 947 2416 947 1791 
Q 947 1169 1205 825 
Q 1463 481 1925 481 
Q 2391 481 2648 825 
Q 2906 1169 2906 1791 
z
M 3481 434 
Q 3481 -459 3084 -895 
Q 2688 -1331 1869 -1331 
Q 1566 -1331 1297 -1286 
Q 1028 -1241 775 -1147 
L 775 -588 
Q 1028 -725 1275 -790 
Q 1522 -856 1778 -856 
Q 2344 -856 2625 -561 
Q 2906 -266 2906 331 
L 2906 616 
Q 2728 306 2450 153 
Q 2172 0 1784 0 
Q 1141 0 747 490 
Q 353 981 353 1791 
Q 353 2603 747 3093 
Q 1141 3584 1784 3584 
Q 2172 3584 2450 3431 
Q 2728 3278 2906 2969 
L 2906 3500 
L 3481 3500 
L 3481 434 
z
" transform="scale(0.015625)"/>
       <path id="DejaVuSans-Oblique-3c4" d="M 2103 638 
Q 2188 488 2525 488 
L 2800 488 
L 2706 0 
L 2363 0 
Q 1800 0 1600 300 
Q 1403 606 1534 1269 
L 1856 2925 
L 541 2925 
L 653 3500 
L 3881 3500 
L 3769 2925 
L 2444 2925 
L 2113 1234 
Q 2025 781 2103 638 
z
" transform="scale(0.015625)"/>
       <path id="DejaVuSans-Oblique-69" d="M 1172 4863 
L 1747 4863 
L 1606 4134 
L 1031 4134 
L 1172 4863 
z
M 909 3500 
L 1484 3500 
L 800 0 
L 225 0 
L 909 3500 
z
" transform="scale(0.015625)"/>
      </defs>
      <use xlink:href="#DejaVuSans-61" transform="translate(0 0.015625)"/>
      <use xlink:href="#DejaVuSans-76" transform="translate(61.279297 0.015625)"/>
      <use xlink:href="#DejaVuSans-69" transform="translate(120.458984 0.015625)"/>
      <use xlink:href="#DejaVuSans-64" transform="translate(148.242188 0.015625)"/>
      <use xlink:href="#DejaVuSans-69" transform="translate(211.71875 0.015625)"/>
      <use xlink:href="#DejaVuSans-74" transform="translate(239.501953 0.015625)"/>
      <use xlink:href="#DejaVuSans-79" transform="translate(278.710938 0.015625)"/>
      <use xlink:href="#DejaVuSans-2c" transform="translate(337.890625 0.015625)"/>
      <use xlink:href="#DejaVuSans-20" transform="translate(369.677734 0.015625)"/>
      <use xlink:href="#DejaVuSans-6c" transform="translate(401.464844 0.015625)"/>
      <use xlink:href="#DejaVuSans-6f" transform="translate(429.248047 0.015625)"/>
      <use xlink:href="#DejaVuSans-67" transform="translate(490.429688 0.015625)"/>
      <use xlink:href="#DejaVuSans-31" transform="translate(554.863281 -16.390625) scale(0.7)"/>
      <use xlink:href="#DejaVuSans-30" transform="translate(599.399414 -16.390625) scale(0.7)"/>
      <use xlink:href="#DejaVuSans-Oblique-3c4" transform="translate(662.905598 0.015625)"/>
      <use xlink:href="#DejaVuSans-Oblique-69" transform="translate(723.110676 -16.390625) scale(0.7)"/>
     </g>
    </g>
   </g>
   <g id="matplotlib.axis_2">
    <g id="ytick_1">
     <g id="line2d_20">
      <defs>
       <path id="md13a6aeb1f" d="M 0 0 
L -3.5 0 
" style="stroke: #000000; stroke-width: 0.8"/>
      </defs>
      <g>
       <use xlink:href="#md13a6aeb1f" x="52.553209" y="160.74679" style="stroke: #000000; stroke-width: 0.8"/>
      </g>
     </g>
     <g id="text_4">
      <!-- $\mathdefault{10^{0}}$ -->
      <g transform="translate(27.953209 164.546009) scale(0.1 -0.1)">
       <use xlink:href="#DejaVuSans-31" transform="translate(0 0.765625)"/>
       <use xlink:href="#DejaVuSans-30" transform="translate(63.623047 0.765625)"/>
       <use xlink:href="#DejaVuSans-30" transform="translate(128.203125 39.046875) scale(0.7)"/>
      </g>
     </g>
    </g>
    <g id="ytick_2">
     <g id="line2d_21">
      <g>
       <use xlink:href="#md13a6aeb1f" x="52.553209" y="66.424295" style="stroke: #000000; stroke-width: 0.8"/>
      </g>
     </g>
     <g id="text_5">
      <!-- $\mathdefault{10^{1}}$ -->
      <g transform="translate(27.953209 70.223514) scale(0.1 -0.1)">
       <use xlink:href="#DejaVuSans-31" transform="translate(0 0.684375)"/>
       <use xlink:href="#DejaVuSans-30" transform="translate(63.623047 0.684375)"/>
       <use xlink:href="#DejaVuSans-31" transform="translate(128.203125 38.965625) scale(0.7)"/>
      </g>
     </g>
    </g>
    <g id="ytick_3">
     <g id="line2d_22">
      <defs>
       <path id="m45b018ac3e" d="M 0 0 
L -2 0 
" style="stroke: #000000; stroke-width: 0.6"/>
      </defs>
      <g>
       <use xlink:href="#m45b018ac3e" x="52.553209" y="165.062751" style="stroke: #000000; stroke-width: 0.6"/>
      </g>
     </g>
    </g>
    <g id="ytick_4">
     <g id="line2d_23">
      <g>
       <use xlink:href="#m45b018ac3e" x="52.553209" y="132.35289" style="stroke: #000000; stroke-width: 0.6"/>
      </g>
     </g>
    </g>
    <g id="ytick_5">
     <g id="line2d_24">
      <g>
       <use xlink:href="#m45b018ac3e" x="52.553209" y="115.743523" style="stroke: #000000; stroke-width: 0.6"/>
      </g>
     </g>
    </g>
    <g id="ytick_6">
     <g id="line2d_25">
      <g>
       <use xlink:href="#m45b018ac3e" x="52.553209" y="103.95899" style="stroke: #000000; stroke-width: 0.6"/>
      </g>
     </g>
    </g>
    <g id="ytick_7">
     <g id="line2d_26">
      <g>
       <use xlink:href="#m45b018ac3e" x="52.553209" y="94.818196" style="stroke: #000000; stroke-width: 0.6"/>
      </g>
     </g>
    </g>
    <g id="ytick_8">
     <g id="line2d_27">
      <g>
       <use xlink:href="#m45b018ac3e" x="52.553209" y="87.349623" style="stroke: #000000; stroke-width: 0.6"/>
      </g>
     </g>
    </g>
    <g id="ytick_9">
     <g id="line2d_28">
      <g>
       <use xlink:href="#m45b018ac3e" x="52.553209" y="81.035035" style="stroke: #000000; stroke-width: 0.6"/>
      </g>
     </g>
    </g>
    <g id="ytick_10">
     <g id="line2d_29">
      <g>
       <use xlink:href="#m45b018ac3e" x="52.553209" y="75.56509" style="stroke: #000000; stroke-width: 0.6"/>
      </g>
     </g>
    </g>
    <g id="ytick_11">
     <g id="line2d_30">
      <g>
       <use xlink:href="#m45b018ac3e" x="52.553209" y="70.740256" style="stroke: #000000; stroke-width: 0.6"/>
      </g>
     </g>
    </g>
    <g id="ytick_12">
     <g id="line2d_31">
      <g>
       <use xlink:href="#m45b018ac3e" x="52.553209" y="38.030395" style="stroke: #000000; stroke-width: 0.6"/>
      </g>
     </g>
    </g>
    <g id="ytick_13">
     <g id="line2d_32">
      <g>
       <use xlink:href="#m45b018ac3e" x="52.553209" y="21.421028" style="stroke: #000000; stroke-width: 0.6"/>
      </g>
     </g>
    </g>
    <g id="text_6">
     <!-- clone abundance, $T_i$ -->
     <g transform="translate(21.873522 139.524) rotate(-90) scale(0.1 -0.1)">
      <defs>
       <path id="DejaVuSans-63" d="M 3122 3366 
L 3122 2828 
Q 2878 2963 2633 3030 
Q 2388 3097 2138 3097 
Q 1578 3097 1268 2742 
Q 959 2388 959 1747 
Q 959 1106 1268 751 
Q 1578 397 2138 397 
Q 2388 397 2633 464 
Q 2878 531 3122 666 
L 3122 134 
Q 2881 22 2623 -34 
Q 2366 -91 2075 -91 
Q 1284 -91 818 406 
Q 353 903 353 1747 
Q 353 2603 823 3093 
Q 1294 3584 2113 3584 
Q 2378 3584 2631 3529 
Q 2884 3475 3122 3366 
z
" transform="scale(0.015625)"/>
       <path id="DejaVuSans-6e" d="M 3513 2113 
L 3513 0 
L 2938 0 
L 2938 2094 
Q 2938 2591 2744 2837 
Q 2550 3084 2163 3084 
Q 1697 3084 1428 2787 
Q 1159 2491 1159 1978 
L 1159 0 
L 581 0 
L 581 3500 
L 1159 3500 
L 1159 2956 
Q 1366 3272 1645 3428 
Q 1925 3584 2291 3584 
Q 2894 3584 3203 3211 
Q 3513 2838 3513 2113 
z
" transform="scale(0.015625)"/>
       <path id="DejaVuSans-65" d="M 3597 1894 
L 3597 1613 
L 953 1613 
Q 991 1019 1311 708 
Q 1631 397 2203 397 
Q 2534 397 2845 478 
Q 3156 559 3463 722 
L 3463 178 
Q 3153 47 2828 -22 
Q 2503 -91 2169 -91 
Q 1331 -91 842 396 
Q 353 884 353 1716 
Q 353 2575 817 3079 
Q 1281 3584 2069 3584 
Q 2775 3584 3186 3129 
Q 3597 2675 3597 1894 
z
M 3022 2063 
Q 3016 2534 2758 2815 
Q 2500 3097 2075 3097 
Q 1594 3097 1305 2825 
Q 1016 2553 972 2059 
L 3022 2063 
z
" transform="scale(0.015625)"/>
       <path id="DejaVuSans-62" d="M 3116 1747 
Q 3116 2381 2855 2742 
Q 2594 3103 2138 3103 
Q 1681 3103 1420 2742 
Q 1159 2381 1159 1747 
Q 1159 1113 1420 752 
Q 1681 391 2138 391 
Q 2594 391 2855 752 
Q 3116 1113 3116 1747 
z
M 1159 2969 
Q 1341 3281 1617 3432 
Q 1894 3584 2278 3584 
Q 2916 3584 3314 3078 
Q 3713 2572 3713 1747 
Q 3713 922 3314 415 
Q 2916 -91 2278 -91 
Q 1894 -91 1617 61 
Q 1341 213 1159 525 
L 1159 0 
L 581 0 
L 581 4863 
L 1159 4863 
L 1159 2969 
z
" transform="scale(0.015625)"/>
       <path id="DejaVuSans-75" d="M 544 1381 
L 544 3500 
L 1119 3500 
L 1119 1403 
Q 1119 906 1312 657 
Q 1506 409 1894 409 
Q 2359 409 2629 706 
Q 2900 1003 2900 1516 
L 2900 3500 
L 3475 3500 
L 3475 0 
L 2900 0 
L 2900 538 
Q 2691 219 2414 64 
Q 2138 -91 1772 -91 
Q 1169 -91 856 284 
Q 544 659 544 1381 
z
M 1991 3584 
L 1991 3584 
z
" transform="scale(0.015625)"/>
       <path id="DejaVuSans-Oblique-54" d="M 378 4666 
L 4325 4666 
L 4225 4134 
L 2559 4134 
L 1759 0 
L 1125 0 
L 1925 4134 
L 275 4134 
L 378 4666 
z
" transform="scale(0.015625)"/>
      </defs>
      <use xlink:href="#DejaVuSans-63" transform="translate(0 0.015625)"/>
      <use xlink:href="#DejaVuSans-6c" transform="translate(54.980469 0.015625)"/>
      <use xlink:href="#DejaVuSans-6f" transform="translate(82.763672 0.015625)"/>
      <use xlink:href="#DejaVuSans-6e" transform="translate(143.945312 0.015625)"/>
      <use xlink:href="#DejaVuSans-65" transform="translate(207.324219 0.015625)"/>
      <use xlink:href="#DejaVuSans-20" transform="translate(268.847656 0.015625)"/>
      <use xlink:href="#DejaVuSans-61" transform="translate(300.634766 0.015625)"/>
      <use xlink:href="#DejaVuSans-62" transform="translate(361.914062 0.015625)"/>
      <use xlink:href="#DejaVuSans-75" transform="translate(425.390625 0.015625)"/>
      <use xlink:href="#DejaVuSans-6e" transform="translate(488.769531 0.015625)"/>
      <use xlink:href="#DejaVuSans-64" transform="translate(552.148438 0.015625)"/>
      <use xlink:href="#DejaVuSans-61" transform="translate(615.625 0.015625)"/>
      <use xlink:href="#DejaVuSans-6e" transform="translate(676.904297 0.015625)"/>
      <use xlink:href="#DejaVuSans-63" transform="translate(740.283203 0.015625)"/>
      <use xlink:href="#DejaVuSans-65" transform="translate(795.263672 0.015625)"/>
      <use xlink:href="#DejaVuSans-2c" transform="translate(856.787109 0.015625)"/>
      <use xlink:href="#DejaVuSans-20" transform="translate(888.574219 0.015625)"/>
      <use xlink:href="#DejaVuSans-Oblique-54" transform="translate(920.361328 0.015625)"/>
      <use xlink:href="#DejaVuSans-Oblique-69" transform="translate(981.445312 -16.390625) scale(0.7)"/>
     </g>
    </g>
   </g>
   <g id="patch_3">
    <path d="M 52.553209 167.848 
L 52.553209 10.8 
" style="fill: none; stroke: #000000; stroke-width: 0.8; stroke-linejoin: miter; stroke-linecap: square"/>
   </g>
   <g id="patch_4">
    <path d="M 246.384 167.848 
L 246.384 10.8 
" style="fill: none; stroke: #000000; stroke-width: 0.8; stroke-linejoin: miter; stroke-linecap: square"/>
   </g>
   <g id="patch_5">
    <path d="M 52.553209 167.848 
L 246.384 167.848 
" style="fill: none; stroke: #000000; stroke-width: 0.8; stroke-linejoin: miter; stroke-linecap: square"/>
   </g>
   <g id="patch_6">
    <path d="M 52.553209 10.8 
L 246.384 10.8 
" style="fill: none; stroke: #000000; stroke-width: 0.8; stroke-linejoin: miter; stroke-linecap: square"/>
   </g>
  </g>
  <g id="axes_2">
   <g id="patch_7">
    <path d="M 299.369209 167.848 
L 493.2 167.848 
L 493.2 10.8 
L 299.369209 10.8 
z
" style="fill: #ffffff"/>
   </g>
   <g id="PathCollection_2">
    <defs>
     <path id="C1_0_fb20f25144" d="M 0 3 
C 0.795609 3 1.55874 2.683901 2.12132 2.12132 
C 2.683901 1.55874 3 0.795609 3 -0 
C 3 -0.795609 2.683901 -1.55874 2.12132 -2.12132 
C 1.55874 -2.683901 0.795609 -3 0 -3 
C -0.795609 -3 -1.55874 -2.683901 -2.12132 -2.12132 
C -2.683901 -1.55874 -3 -0.795609 -3 0 
C -3 0.795609 -2.683901 1.55874 -2.12132 2.12132 
C -1.55874 2.683901 -0.795609 3 0 3 
z
"/>
    </defs>
    <g clip-path="url(#p1afa34c383)">
     <use xlink:href="#C1_0_fb20f25144" x="308.1797" y="18.405139" style="fill: #660000; stroke: #000000; stroke-width: 0.5"/>
    </g>
    <g clip-path="url(#p1afa34c383)">
     <use xlink:href="#C1_0_fb20f25144" x="340.081181" y="18.779607" style="fill: #6c0000; stroke: #000000; stroke-width: 0.5"/>
    </g>
    <g clip-path="url(#p1afa34c383)">
     <use xlink:href="#C1_0_fb20f25144" x="358.742352" y="20.06641" style="fill: #760000; stroke: #000000; stroke-width: 0.5"/>
    </g>
    <g clip-path="url(#p1afa34c383)">
     <use xlink:href="#C1_0_fb20f25144" x="371.982663" y="20.467617" style="fill: #3a0000; stroke: #000000; stroke-width: 0.5"/>
    </g>
    <g clip-path="url(#p1afa34c383)">
     <use xlink:href="#C1_0_fb20f25144" x="382.252646" y="20.851848" style="fill: #370000; stroke: #000000; stroke-width: 0.5"/>
    </g>
    <g clip-path="url(#p1afa34c383)">
     <use xlink:href="#C1_0_fb20f25144" x="390.643833" y="22.451848" style="fill: #810000; stroke: #000000; stroke-width: 0.5"/>
    </g>
    <g clip-path="url(#p1afa34c383)">
     <use xlink:href="#C1_0_fb20f25144" x="397.738481" y="23.958436" style="fill: #250000; stroke: #000000; stroke-width: 0.5"/>
    </g>
    <g clip-path="url(#p1afa34c383)">
     <use xlink:href="#C1_0_fb20f25144" x="403.884144" y="26.005187" style="fill: #1d0000; stroke: #000000; stroke-width: 0.5"/>
    </g>
    <g clip-path="url(#p1afa34c383)">
     <use xlink:href="#C1_0_fb20f25144" x="409.305004" y="26.108145" style="fill: #8e0000; stroke: #000000; stroke-width: 0.5"/>
    </g>
    <g clip-path="url(#p1afa34c383)">
     <use xlink:href="#C1_0_fb20f25144" x="414.154128" y="26.505985" style="fill: #900000; stroke: #000000; stroke-width: 0.5"/>
    </g>
    <g clip-path="url(#p1afa34c383)">
     <use xlink:href="#C1_0_fb20f25144" x="418.540694" y="28.122033" style="fill: #960000; stroke: #000000; stroke-width: 0.5"/>
    </g>
    <g clip-path="url(#p1afa34c383)">
     <use xlink:href="#C1_0_fb20f25144" x="422.545315" y="31.088041" style="fill: #0b0000; stroke: #000000; stroke-width: 0.5"/>
    </g>
    <g clip-path="url(#p1afa34c383)">
     <use xlink:href="#C1_0_fb20f25144" x="426.229209" y="33.286086" style="fill: #a00000; stroke: #000000; stroke-width: 0.5"/>
    </g>
    <g clip-path="url(#p1afa34c383)">
     <use xlink:href="#C1_0_fb20f25144" x="429.639962" y="34.058267" style="fill: #a30000; stroke: #000000; stroke-width: 0.5"/>
    </g>
    <g clip-path="url(#p1afa34c383)">
     <use xlink:href="#C1_0_fb20f25144" x="432.815298" y="36.711505" style="fill: #a80000; stroke: #000000; stroke-width: 0.5"/>
    </g>
    <g clip-path="url(#p1afa34c383)">
     <use xlink:href="#C1_0_fb20f25144" x="435.785626" y="40.146882" style="fill: #ad0000; stroke: #000000; stroke-width: 0.5"/>
    </g>
    <g clip-path="url(#p1afa34c383)">
     <use xlink:href="#C1_0_fb20f25144" x="438.57582" y="46.979344" style="fill: #ba0000; stroke: #000000; stroke-width: 0.5"/>
    </g>
    <g clip-path="url(#p1afa34c383)">
     <use xlink:href="#C1_0_fb20f25144" x="441.206485" y="55.532073" style="fill: #c50000; stroke: #000000; stroke-width: 0.5"/>
    </g>
    <g clip-path="url(#p1afa34c383)">
     <use xlink:href="#C1_0_fb20f25144" x="443.694881" y="56.226873" style="fill: #c80000; stroke: #000000; stroke-width: 0.5"/>
    </g>
    <g clip-path="url(#p1afa34c383)">
     <use xlink:href="#C1_0_fb20f25144" x="446.055609" y="61.024227" style="fill: #cd0000; stroke: #000000; stroke-width: 0.5"/>
    </g>
    <g clip-path="url(#p1afa34c383)">
     <use xlink:href="#C1_0_fb20f25144" x="448.301133" y="61.881325" style="fill: #cd0000; stroke: #000000; stroke-width: 0.5"/>
    </g>
    <g clip-path="url(#p1afa34c383)">
     <use xlink:href="#C1_0_fb20f25144" x="450.442175" y="61.936493" style="fill: #cd0000; stroke: #000000; stroke-width: 0.5"/>
    </g>
    <g clip-path="url(#p1afa34c383)">
     <use xlink:href="#C1_0_fb20f25144" x="452.488028" y="63.642688" style="fill: #cf0000; stroke: #000000; stroke-width: 0.5"/>
    </g>
    <g clip-path="url(#p1afa34c383)">
     <use xlink:href="#C1_0_fb20f25144" x="454.446796" y="67.879996" style="fill: #d50000; stroke: #000000; stroke-width: 0.5"/>
    </g>
    <g clip-path="url(#p1afa34c383)">
     <use xlink:href="#C1_0_fb20f25144" x="456.325592" y="81.918691" style="fill: #e40000; stroke: #000000; stroke-width: 0.5"/>
    </g>
    <g clip-path="url(#p1afa34c383)">
     <use xlink:href="#C1_0_fb20f25144" x="458.130691" y="84.865946" style="fill: #e70000; stroke: #000000; stroke-width: 0.5"/>
    </g>
    <g clip-path="url(#p1afa34c383)">
     <use xlink:href="#C1_0_fb20f25144" x="459.867656" y="85.56992" style="fill: #e70000; stroke: #000000; stroke-width: 0.5"/>
    </g>
    <g clip-path="url(#p1afa34c383)">
     <use xlink:href="#C1_0_fb20f25144" x="461.541444" y="86.142118" style="fill: #ea0000; stroke: #000000; stroke-width: 0.5"/>
    </g>
    <g clip-path="url(#p1afa34c383)">
     <use xlink:href="#C1_0_fb20f25144" x="463.156491" y="87.315761" style="fill: #ea0000; stroke: #000000; stroke-width: 0.5"/>
    </g>
    <g clip-path="url(#p1afa34c383)">
     <use xlink:href="#C1_0_fb20f25144" x="464.716779" y="102.099357" style="fill: #f90000; stroke: #000000; stroke-width: 0.5"/>
    </g>
    <g clip-path="url(#p1afa34c383)">
     <use xlink:href="#C1_0_fb20f25144" x="466.225902" y="103.866348" style="fill: #f90000; stroke: #000000; stroke-width: 0.5"/>
    </g>
    <g clip-path="url(#p1afa34c383)">
     <use xlink:href="#C1_0_fb20f25144" x="467.687107" y="104.894534" style="fill: #fc0000; stroke: #000000; stroke-width: 0.5"/>
    </g>
    <g clip-path="url(#p1afa34c383)">
     <use xlink:href="#C1_0_fb20f25144" x="469.103346" y="106.019737" style="fill: #fc0000; stroke: #000000; stroke-width: 0.5"/>
    </g>
    <g clip-path="url(#p1afa34c383)">
     <use xlink:href="#C1_0_fb20f25144" x="470.477302" y="107.203151" style="fill: #ff0000; stroke: #000000; stroke-width: 0.5"/>
    </g>
    <g clip-path="url(#p1afa34c383)">
     <use xlink:href="#C1_0_fb20f25144" x="471.811427" y="108.235258" style="fill: #ff0000; stroke: #000000; stroke-width: 0.5"/>
    </g>
    <g clip-path="url(#p1afa34c383)">
     <use xlink:href="#C1_0_fb20f25144" x="473.107967" y="122.736459" style="fill: #ff0d00; stroke: #000000; stroke-width: 0.5"/>
    </g>
    <g clip-path="url(#p1afa34c383)">
     <use xlink:href="#C1_0_fb20f25144" x="474.36898" y="125.166744" style="fill: #ff1000; stroke: #000000; stroke-width: 0.5"/>
    </g>
    <g clip-path="url(#p1afa34c383)">
     <use xlink:href="#C1_0_fb20f25144" x="475.596362" y="135.971314" style="fill: #ff1a00; stroke: #000000; stroke-width: 0.5"/>
    </g>
    <g clip-path="url(#p1afa34c383)">
     <use xlink:href="#C1_0_fb20f25144" x="476.791861" y="141.394735" style="fill: #ff2200; stroke: #000000; stroke-width: 0.5"/>
    </g>
    <g clip-path="url(#p1afa34c383)">
     <use xlink:href="#C1_0_fb20f25144" x="477.957091" y="143.686706" style="fill: #ff2500; stroke: #000000; stroke-width: 0.5"/>
    </g>
    <g clip-path="url(#p1afa34c383)">
     <use xlink:href="#C1_0_fb20f25144" x="479.093546" y="144.077068" style="fill: #ff2500; stroke: #000000; stroke-width: 0.5"/>
    </g>
    <g clip-path="url(#p1afa34c383)">
     <use xlink:href="#C1_0_fb20f25144" x="480.202614" y="150.825324" style="fill: #ff2c00; stroke: #000000; stroke-width: 0.5"/>
    </g>
    <g clip-path="url(#p1afa34c383)">
     <use xlink:href="#C1_0_fb20f25144" x="481.285585" y="154.487796" style="fill: #ff2f00; stroke: #000000; stroke-width: 0.5"/>
    </g>
    <g clip-path="url(#p1afa34c383)">
     <use xlink:href="#C1_0_fb20f25144" x="482.343657" y="157.319085" style="fill: #ff3400; stroke: #000000; stroke-width: 0.5"/>
    </g>
    <g clip-path="url(#p1afa34c383)">
     <use xlink:href="#C1_0_fb20f25144" x="483.37795" y="158.072246" style="fill: #ff3400; stroke: #000000; stroke-width: 0.5"/>
    </g>
    <g clip-path="url(#p1afa34c383)">
     <use xlink:href="#C1_0_fb20f25144" x="484.38951" y="160.709455" style="fill: #ff3a00; stroke: #000000; stroke-width: 0.5"/>
    </g>
   </g>
   <g id="matplotlib.axis_3">
    <g id="xtick_20">
     <g id="line2d_33">
      <g>
       <use xlink:href="#m869df92529" x="308.1797" y="167.848" style="stroke: #000000; stroke-width: 0.8"/>
      </g>
     </g>
     <g id="text_7">
      <!-- $\mathdefault{10^{0}}$ -->
      <g transform="translate(299.3797 182.446438) scale(0.1 -0.1)">
       <use xlink:href="#DejaVuSans-31" transform="translate(0 0.765625)"/>
       <use xlink:href="#DejaVuSans-30" transform="translate(63.623047 0.765625)"/>
       <use xlink:href="#DejaVuSans-30" transform="translate(128.203125 39.046875) scale(0.7)"/>
      </g>
     </g>
    </g>
    <g id="xtick_21">
     <g id="line2d_34">
      <g>
       <use xlink:href="#m869df92529" x="414.154128" y="167.848" style="stroke: #000000; stroke-width: 0.8"/>
      </g>
     </g>
     <g id="text_8">
      <!-- $\mathdefault{10^{1}}$ -->
      <g transform="translate(405.354128 182.446438) scale(0.1 -0.1)">
       <use xlink:href="#DejaVuSans-31" transform="translate(0 0.684375)"/>
       <use xlink:href="#DejaVuSans-30" transform="translate(63.623047 0.684375)"/>
       <use xlink:href="#DejaVuSans-31" transform="translate(128.203125 38.965625) scale(0.7)"/>
      </g>
     </g>
    </g>
    <g id="xtick_22">
     <g id="line2d_35">
      <g>
       <use xlink:href="#m53fc035712" x="303.330576" y="167.848" style="stroke: #000000; stroke-width: 0.6"/>
      </g>
     </g>
    </g>
    <g id="xtick_23">
     <g id="line2d_36">
      <g>
       <use xlink:href="#m53fc035712" x="340.081181" y="167.848" style="stroke: #000000; stroke-width: 0.6"/>
      </g>
     </g>
    </g>
    <g id="xtick_24">
     <g id="line2d_37">
      <g>
       <use xlink:href="#m53fc035712" x="358.742352" y="167.848" style="stroke: #000000; stroke-width: 0.6"/>
      </g>
     </g>
    </g>
    <g id="xtick_25">
     <g id="line2d_38">
      <g>
       <use xlink:href="#m53fc035712" x="371.982663" y="167.848" style="stroke: #000000; stroke-width: 0.6"/>
      </g>
     </g>
    </g>
    <g id="xtick_26">
     <g id="line2d_39">
      <g>
       <use xlink:href="#m53fc035712" x="382.252646" y="167.848" style="stroke: #000000; stroke-width: 0.6"/>
      </g>
     </g>
    </g>
    <g id="xtick_27">
     <g id="line2d_40">
      <g>
       <use xlink:href="#m53fc035712" x="390.643833" y="167.848" style="stroke: #000000; stroke-width: 0.6"/>
      </g>
     </g>
    </g>
    <g id="xtick_28">
     <g id="line2d_41">
      <g>
       <use xlink:href="#m53fc035712" x="397.738481" y="167.848" style="stroke: #000000; stroke-width: 0.6"/>
      </g>
     </g>
    </g>
    <g id="xtick_29">
     <g id="line2d_42">
      <g>
       <use xlink:href="#m53fc035712" x="403.884144" y="167.848" style="stroke: #000000; stroke-width: 0.6"/>
      </g>
     </g>
    </g>
    <g id="xtick_30">
     <g id="line2d_43">
      <g>
       <use xlink:href="#m53fc035712" x="409.305004" y="167.848" style="stroke: #000000; stroke-width: 0.6"/>
      </g>
     </g>
    </g>
    <g id="xtick_31">
     <g id="line2d_44">
      <g>
       <use xlink:href="#m53fc035712" x="446.055609" y="167.848" style="stroke: #000000; stroke-width: 0.6"/>
      </g>
     </g>
    </g>
    <g id="xtick_32">
     <g id="line2d_45">
      <g>
       <use xlink:href="#m53fc035712" x="464.716779" y="167.848" style="stroke: #000000; stroke-width: 0.6"/>
      </g>
     </g>
    </g>
    <g id="xtick_33">
     <g id="line2d_46">
      <g>
       <use xlink:href="#m53fc035712" x="477.957091" y="167.848" style="stroke: #000000; stroke-width: 0.6"/>
      </g>
     </g>
    </g>
    <g id="xtick_34">
     <g id="line2d_47">
      <g>
       <use xlink:href="#m53fc035712" x="488.227074" y="167.848" style="stroke: #000000; stroke-width: 0.6"/>
      </g>
     </g>
    </g>
    <g id="text_9">
     <!-- rank -->
     <g transform="translate(385.101011 196.124562) scale(0.1 -0.1)">
      <defs>
       <path id="DejaVuSans-72" d="M 2631 2963 
Q 2534 3019 2420 3045 
Q 2306 3072 2169 3072 
Q 1681 3072 1420 2755 
Q 1159 2438 1159 1844 
L 1159 0 
L 581 0 
L 581 3500 
L 1159 3500 
L 1159 2956 
Q 1341 3275 1631 3429 
Q 1922 3584 2338 3584 
Q 2397 3584 2469 3576 
Q 2541 3569 2628 3553 
L 2631 2963 
z
" transform="scale(0.015625)"/>
       <path id="DejaVuSans-6b" d="M 581 4863 
L 1159 4863 
L 1159 1991 
L 2875 3500 
L 3609 3500 
L 1753 1863 
L 3688 0 
L 2938 0 
L 1159 1709 
L 1159 0 
L 581 0 
L 581 4863 
z
" transform="scale(0.015625)"/>
      </defs>
      <use xlink:href="#DejaVuSans-72"/>
      <use xlink:href="#DejaVuSans-61" transform="translate(41.113281 0)"/>
      <use xlink:href="#DejaVuSans-6e" transform="translate(102.392578 0)"/>
      <use xlink:href="#DejaVuSans-6b" transform="translate(165.771484 0)"/>
     </g>
    </g>
   </g>
   <g id="matplotlib.axis_4">
    <g id="ytick_14">
     <g id="line2d_48">
      <g>
       <use xlink:href="#md13a6aeb1f" x="299.369209" y="160.74679" style="stroke: #000000; stroke-width: 0.8"/>
      </g>
     </g>
     <g id="text_10">
      <!-- $\mathdefault{10^{0}}$ -->
      <g transform="translate(274.769209 164.546009) scale(0.1 -0.1)">
       <use xlink:href="#DejaVuSans-31" transform="translate(0 0.765625)"/>
       <use xlink:href="#DejaVuSans-30" transform="translate(63.623047 0.765625)"/>
       <use xlink:href="#DejaVuSans-30" transform="translate(128.203125 39.046875) scale(0.7)"/>
      </g>
     </g>
    </g>
    <g id="ytick_15">
     <g id="line2d_49">
      <g>
       <use xlink:href="#md13a6aeb1f" x="299.369209" y="66.424295" style="stroke: #000000; stroke-width: 0.8"/>
      </g>
     </g>
     <g id="text_11">
      <!-- $\mathdefault{10^{1}}$ -->
      <g transform="translate(274.769209 70.223514) scale(0.1 -0.1)">
       <use xlink:href="#DejaVuSans-31" transform="translate(0 0.684375)"/>
       <use xlink:href="#DejaVuSans-30" transform="translate(63.623047 0.684375)"/>
       <use xlink:href="#DejaVuSans-31" transform="translate(128.203125 38.965625) scale(0.7)"/>
      </g>
     </g>
    </g>
    <g id="ytick_16">
     <g id="line2d_50">
      <g>
       <use xlink:href="#m45b018ac3e" x="299.369209" y="165.062751" style="stroke: #000000; stroke-width: 0.6"/>
      </g>
     </g>
    </g>
    <g id="ytick_17">
     <g id="line2d_51">
      <g>
       <use xlink:href="#m45b018ac3e" x="299.369209" y="132.35289" style="stroke: #000000; stroke-width: 0.6"/>
      </g>
     </g>
    </g>
    <g id="ytick_18">
     <g id="line2d_52">
      <g>
       <use xlink:href="#m45b018ac3e" x="299.369209" y="115.743523" style="stroke: #000000; stroke-width: 0.6"/>
      </g>
     </g>
    </g>
    <g id="ytick_19">
     <g id="line2d_53">
      <g>
       <use xlink:href="#m45b018ac3e" x="299.369209" y="103.95899" style="stroke: #000000; stroke-width: 0.6"/>
      </g>
     </g>
    </g>
    <g id="ytick_20">
     <g id="line2d_54">
      <g>
       <use xlink:href="#m45b018ac3e" x="299.369209" y="94.818196" style="stroke: #000000; stroke-width: 0.6"/>
      </g>
     </g>
    </g>
    <g id="ytick_21">
     <g id="line2d_55">
      <g>
       <use xlink:href="#m45b018ac3e" x="299.369209" y="87.349623" style="stroke: #000000; stroke-width: 0.6"/>
      </g>
     </g>
    </g>
    <g id="ytick_22">
     <g id="line2d_56">
      <g>
       <use xlink:href="#m45b018ac3e" x="299.369209" y="81.035035" style="stroke: #000000; stroke-width: 0.6"/>
      </g>
     </g>
    </g>
    <g id="ytick_23">
     <g id="line2d_57">
      <g>
       <use xlink:href="#m45b018ac3e" x="299.369209" y="75.56509" style="stroke: #000000; stroke-width: 0.6"/>
      </g>
     </g>
    </g>
    <g id="ytick_24">
     <g id="line2d_58">
      <g>
       <use xlink:href="#m45b018ac3e" x="299.369209" y="70.740256" style="stroke: #000000; stroke-width: 0.6"/>
      </g>
     </g>
    </g>
    <g id="ytick_25">
     <g id="line2d_59">
      <g>
       <use xlink:href="#m45b018ac3e" x="299.369209" y="38.030395" style="stroke: #000000; stroke-width: 0.6"/>
      </g>
     </g>
    </g>
    <g id="ytick_26">
     <g id="line2d_60">
      <g>
       <use xlink:href="#m45b018ac3e" x="299.369209" y="21.421028" style="stroke: #000000; stroke-width: 0.6"/>
      </g>
     </g>
    </g>
    <g id="text_12">
     <!-- avidity, $\log_{10} \tau_i$ -->
     <g transform="translate(268.669209 126.624) rotate(-90) scale(0.1 -0.1)">
      <use xlink:href="#DejaVuSans-61" transform="translate(0 0.015625)"/>
      <use xlink:href="#DejaVuSans-76" transform="translate(61.279297 0.015625)"/>
      <use xlink:href="#DejaVuSans-69" transform="translate(120.458984 0.015625)"/>
      <use xlink:href="#DejaVuSans-64" transform="translate(148.242188 0.015625)"/>
      <use xlink:href="#DejaVuSans-69" transform="translate(211.71875 0.015625)"/>
      <use xlink:href="#DejaVuSans-74" transform="translate(239.501953 0.015625)"/>
      <use xlink:href="#DejaVuSans-79" transform="translate(278.710938 0.015625)"/>
      <use xlink:href="#DejaVuSans-2c" transform="translate(337.890625 0.015625)"/>
      <use xlink:href="#DejaVuSans-20" transform="translate(369.677734 0.015625)"/>
      <use xlink:href="#DejaVuSans-6c" transform="translate(401.464844 0.015625)"/>
      <use xlink:href="#DejaVuSans-6f" transform="translate(429.248047 0.015625)"/>
      <use xlink:href="#DejaVuSans-67" transform="translate(490.429688 0.015625)"/>
      <use xlink:href="#DejaVuSans-31" transform="translate(554.863281 -16.390625) scale(0.7)"/>
      <use xlink:href="#DejaVuSans-30" transform="translate(599.399414 -16.390625) scale(0.7)"/>
      <use xlink:href="#DejaVuSans-Oblique-3c4" transform="translate(662.905598 0.015625)"/>
      <use xlink:href="#DejaVuSans-Oblique-69" transform="translate(723.110676 -16.390625) scale(0.7)"/>
     </g>
    </g>
   </g>
   <g id="patch_8">
    <path d="M 299.369209 167.848 
L 299.369209 10.8 
" style="fill: none; stroke: #000000; stroke-width: 0.8; stroke-linejoin: miter; stroke-linecap: square"/>
   </g>
   <g id="patch_9">
    <path d="M 493.2 167.848 
L 493.2 10.8 
" style="fill: none; stroke: #000000; stroke-width: 0.8; stroke-linejoin: miter; stroke-linecap: square"/>
   </g>
   <g id="patch_10">
    <path d="M 299.369209 167.848 
L 493.2 167.848 
" style="fill: none; stroke: #000000; stroke-width: 0.8; stroke-linejoin: miter; stroke-linecap: square"/>
   </g>
   <g id="patch_11">
    <path d="M 299.369209 10.8 
L 493.2 10.8 
" style="fill: none; stroke: #000000; stroke-width: 0.8; stroke-linejoin: miter; stroke-linecap: square"/>
   </g>
  </g>
 </g>
 <defs>
  <clipPath id="p23a69de7de">
   <rect x="52.553209" y="10.8" width="193.830791" height="157.048"/>
  </clipPath>
  <clipPath id="p1afa34c383">
   <rect x="299.369209" y="10.8" width="193.830791" height="157.048"/>
  </clipPath>
 </defs>
</svg>
