<?xml version="1.0" encoding="utf-8" standalone="no"?>
<!DOCTYPE svg PUBLIC "-//W3C//DTD SVG 1.1//EN"
  "http://www.w3.org/Graphics/SVG/1.1/DTD/svg11.dtd">
<svg xmlns:xlink="http://www.w3.org/1999/xlink" width="864pt" height="252pt" viewBox="0 0 864 252" xmlns="http://www.w3.org/2000/svg" version="1.1">
 <metadata>
  <rdf:RDF xmlns:dc="http://purl.org/dc/elements/1.1/" xmlns:cc="http://creativecommons.org/ns#" xmlns:rdf="http://www.w3.org/1999/02/22-rdf-syntax-ns#">
   <cc:Work>
    <dc:type rdf:resource="http://purl.org/dc/dcmitype/StillImage"/>
    <dc:date>2026-01-09T15:20:28.336527</dc:date>
    <dc:format>image/svg+xml</dc:format>
    <dc:creator>
     <cc:Agent>
      <dc:title>Matplotlib v3.10.8, https://matplotlib.org/</dc:title>
     </cc:Agent>
    </dc:creator>
   </cc:Work>
  </rdf:RDF>
 </metadata>
 <defs>
  <style type="text/css">*{stroke-linejoin: round; stroke-linecap: butt}</style>
 </defs>
 <g id="figure_1">
  <g id="patch_1">
   <path d="M 0 252 
L 864 252 
L 864 0 
L 0 0 
z
" style="fill: #ffffff"/>
  </g>
  <g id="axes_1">
   <g id="patch_2">
    <path d="M 53.030209 209.32 
L 285.960139 209.32 
L 285.960139 14.3741 
L 53.030209 14.3741 
z
" style="fill: #ffffff"/>
   </g>
   <g id="matplotlib.axis_1">
    <g id="xtick_1">
     <g id="line2d_1">
      <defs>
       <path id="m2da38210d9" d="M 0 0 
L 0 3.5 
" style="stroke: #000000; stroke-width: 0.8"/>
      </defs>
      <g>
       <use xlink:href="#m2da38210d9" x="63.617933" y="209.32" style="stroke: #000000; stroke-width: 0.8"/>
      </g>
     </g>
     <g id="text_1">
      <!-- 0 -->
      <g transform="translate(60.436683 223.918437) scale(0.1 -0.1)">
       <defs>
        <path id="DejaVuSans-30" d="M 2034 4250 
Q 1547 4250 1301 3770 
Q 1056 3291 1056 2328 
Q 1056 1369 1301 889 
Q 1547 409 2034 409 
Q 2525 409 2770 889 
Q 3016 1369 3016 2328 
Q 3016 3291 2770 3770 
Q 2525 4250 2034 4250 
z
M 2034 4750 
Q 2819 4750 3233 4129 
Q 3647 3509 3647 2328 
Q 3647 1150 3233 529 
Q 2819 -91 2034 -91 
Q 1250 -91 836 529 
Q 422 1150 422 2328 
Q 422 3509 836 4129 
Q 1250 4750 2034 4750 
z
" transform="scale(0.015625)"/>
       </defs>
       <use xlink:href="#DejaVuSans-30"/>
      </g>
     </g>
    </g>
    <g id="xtick_2">
     <g id="line2d_2">
      <g>
       <use xlink:href="#m2da38210d9" x="116.556554" y="209.32" style="stroke: #000000; stroke-width: 0.8"/>
      </g>
     </g>
     <g id="text_2">
      <!-- 10 -->
      <g transform="translate(110.194054 223.918437) scale(0.1 -0.1)">
       <defs>
        <path id="DejaVuSans-31" d="M 794 531 
L 1825 531 
L 1825 4091 
L 703 3866 
L 703 4441 
L 1819 4666 
L 2450 4666 
L 2450 531 
L 3481 531 
L 3481 0 
L 794 0 
L 794 531 
z
" transform="scale(0.015625)"/>
       </defs>
       <use xlink:href="#DejaVuSans-31"/>
       <use xlink:href="#DejaVuSans-30" transform="translate(63.623047 0)"/>
      </g>
     </g>
    </g>
    <g id="xtick_3">
     <g id="line2d_3">
      <g>
       <use xlink:href="#m2da38210d9" x="169.495174" y="209.32" style="stroke: #000000; stroke-width: 0.8"/>
      </g>
     </g>
     <g id="text_3">
      <!-- 20 -->
      <g transform="translate(163.132674 223.918437) scale(0.1 -0.1)">
       <defs>
        <path id="DejaVuSans-32" d="M 1228 531 
L 3431 531 
L 3431 0 
L 469 0 
L 469 531 
Q 828 903 1448 1529 
Q 2069 2156 2228 2338 
Q 2531 2678 2651 2914 
Q 2772 3150 2772 3378 
Q 2772 3750 2511 3984 
Q 2250 4219 1831 4219 
Q 1534 4219 1204 4116 
Q 875 4013 500 3803 
L 500 4441 
Q 881 4594 1212 4672 
Q 1544 4750 1819 4750 
Q 2544 4750 2975 4387 
Q 3406 4025 3406 3419 
Q 3406 3131 3298 2873 
Q 3191 2616 2906 2266 
Q 2828 2175 2409 1742 
Q 1991 1309 1228 531 
z
" transform="scale(0.015625)"/>
       </defs>
       <use xlink:href="#DejaVuSans-32"/>
       <use xlink:href="#DejaVuSans-30" transform="translate(63.623047 0)"/>
      </g>
     </g>
    </g>
    <g id="xtick_4">
     <g id="line2d_4">
      <g>
       <use xlink:href="#m2da38210d9" x="222.433795" y="209.32" style="stroke: #000000; stroke-width: 0.8"/>
      </g>
     </g>
     <g id="text_4">
      <!-- 30 -->
      <g transform="translate(216.071295 223.918437) scale(0.1 -0.1)">
       <defs>
        <path id="DejaVuSans-33" d="M 2597 2516 
Q 3050 2419 3304 2112 
Q 3559 1806 3559 1356 
Q 3559 666 3084 287 
Q 2609 -91 1734 -91 
Q 1441 -91 1130 -33 
Q 819 25 488 141 
L 488 750 
Q 750 597 1062 519 
Q 1375 441 1716 441 
Q 2309 441 2620 675 
Q 2931 909 2931 1356 
Q 2931 1769 2642 2001 
Q 2353 2234 1838 2234 
L 1294 2234 
L 1294 2753 
L 1863 2753 
Q 2328 2753 2575 2939 
Q 2822 3125 2822 3475 
Q 2822 3834 2567 4026 
Q 2313 4219 1838 4219 
Q 1578 4219 1281 4162 
Q 984 4106 628 3988 
L 628 4550 
Q 988 4650 1302 4700 
Q 1616 4750 1894 4750 
Q 2613 4750 3031 4423 
Q 3450 4097 3450 3541 
Q 3450 3153 3228 2886 
Q 3006 2619 2597 2516 
z
" transform="scale(0.015625)"/>
       </defs>
       <use xlink:href="#DejaVuSans-33"/>
       <use xlink:href="#DejaVuSans-30" transform="translate(63.623047 0)"/>
      </g>
     </g>
    </g>
    <g id="xtick_5">
     <g id="line2d_5">
      <g>
       <use xlink:href="#m2da38210d9" x="275.372415" y="209.32" style="stroke: #000000; stroke-width: 0.8"/>
      </g>
     </g>
     <g id="text_5">
      <!-- 40 -->
      <g transform="translate(269.009915 223.918437) scale(0.1 -0.1)">
       <defs>
        <path id="DejaVuSans-34" d="M 2419 4116 
L 825 1625 
L 2419 1625 
L 2419 4116 
z
M 2253 4666 
L 3047 4666 
L 3047 1625 
L 3713 1625 
L 3713 1100 
L 3047 1100 
L 3047 0 
L 2419 0 
L 2419 1100 
L 313 1100 
L 313 1709 
L 2253 4666 
z
" transform="scale(0.015625)"/>
       </defs>
       <use xlink:href="#DejaVuSans-34"/>
       <use xlink:href="#DejaVuSans-30" transform="translate(63.623047 0)"/>
      </g>
     </g>
    </g>
    <g id="text_6">
     <!-- time -->
     <g transform="translate(155.939862 239.11625) scale(0.12 -0.12)">
      <defs>
       <path id="DejaVuSans-74" d="M 1172 4494 
L 1172 3500 
L 2356 3500 
L 2356 3053 
L 1172 3053 
L 1172 1153 
Q 1172 725 1289 603 
Q 1406 481 1766 481 
L 2356 481 
L 2356 0 
L 1766 0 
Q 1100 0 847 248 
Q 594 497 594 1153 
L 594 3053 
L 172 3053 
L 172 3500 
L 594 3500 
L 594 4494 
L 1172 4494 
z
" transform="scale(0.015625)"/>
       <path id="DejaVuSans-69" d="M 603 3500 
L 1178 3500 
L 1178 0 
L 603 0 
L 603 3500 
z
M 603 4863 
L 1178 4863 
L 1178 4134 
L 603 4134 
L 603 4863 
z
" transform="scale(0.015625)"/>
       <path id="DejaVuSans-6d" d="M 3328 2828 
Q 3544 3216 3844 3400 
Q 4144 3584 4550 3584 
Q 5097 3584 5394 3201 
Q 5691 2819 5691 2113 
L 5691 0 
L 5113 0 
L 5113 2094 
Q 5113 2597 4934 2840 
Q 4756 3084 4391 3084 
Q 3944 3084 3684 2787 
Q 3425 2491 3425 1978 
L 3425 0 
L 2847 0 
L 2847 2094 
Q 2847 2600 2669 2842 
Q 2491 3084 2119 3084 
Q 1678 3084 1418 2786 
Q 1159 2488 1159 1978 
L 1159 0 
L 581 0 
L 581 3500 
L 1159 3500 
L 1159 2956 
Q 1356 3278 1631 3431 
Q 1906 3584 2284 3584 
Q 2666 3584 2933 3390 
Q 3200 3197 3328 2828 
z
" transform="scale(0.015625)"/>
       <path id="DejaVuSans-65" d="M 3597 1894 
L 3597 1613 
L 953 1613 
Q 991 1019 1311 708 
Q 1631 397 2203 397 
Q 2534 397 2845 478 
Q 3156 559 3463 722 
L 3463 178 
Q 3153 47 2828 -22 
Q 2503 -91 2169 -91 
Q 1331 -91 842 396 
Q 353 884 353 1716 
Q 353 2575 817 3079 
Q 1281 3584 2069 3584 
Q 2775 3584 3186 3129 
Q 3597 2675 3597 1894 
z
M 3022 2063 
Q 3016 2534 2758 2815 
Q 2500 3097 2075 3097 
Q 1594 3097 1305 2825 
Q 1016 2553 972 2059 
L 3022 2063 
z
" transform="scale(0.015625)"/>
      </defs>
      <use xlink:href="#DejaVuSans-74"/>
      <use xlink:href="#DejaVuSans-69" transform="translate(39.208984 0)"/>
      <use xlink:href="#DejaVuSans-6d" transform="translate(66.992188 0)"/>
      <use xlink:href="#DejaVuSans-65" transform="translate(164.404297 0)"/>
     </g>
    </g>
   </g>
   <g id="matplotlib.axis_2">
    <g id="ytick_1">
     <g id="line2d_6">
      <defs>
       <path id="mbbf2f3e6ab" d="M 0 0 
L -3.5 0 
" style="stroke: #000000; stroke-width: 0.8"/>
      </defs>
      <g>
       <use xlink:href="#mbbf2f3e6ab" x="53.030209" y="200.835673" style="stroke: #000000; stroke-width: 0.8"/>
      </g>
     </g>
     <g id="text_7">
      <!-- $\mathdefault{10^{0}}$ -->
      <g transform="translate(28.430209 204.634892) scale(0.1 -0.1)">
       <use xlink:href="#DejaVuSans-31" transform="translate(0 0.765625)"/>
       <use xlink:href="#DejaVuSans-30" transform="translate(63.623047 0.765625)"/>
       <use xlink:href="#DejaVuSans-30" transform="translate(128.203125 39.046875) scale(0.7)"/>
      </g>
     </g>
    </g>
    <g id="ytick_2">
     <g id="line2d_7">
      <g>
       <use xlink:href="#mbbf2f3e6ab" x="53.030209" y="154.733138" style="stroke: #000000; stroke-width: 0.8"/>
      </g>
     </g>
     <g id="text_8">
      <!-- $\mathdefault{10^{1}}$ -->
      <g transform="translate(28.430209 158.532357) scale(0.1 -0.1)">
       <use xlink:href="#DejaVuSans-31" transform="translate(0 0.684375)"/>
       <use xlink:href="#DejaVuSans-30" transform="translate(63.623047 0.684375)"/>
       <use xlink:href="#DejaVuSans-31" transform="translate(128.203125 38.965625) scale(0.7)"/>
      </g>
     </g>
    </g>
    <g id="ytick_3">
     <g id="line2d_8">
      <g>
       <use xlink:href="#mbbf2f3e6ab" x="53.030209" y="108.630603" style="stroke: #000000; stroke-width: 0.8"/>
      </g>
     </g>
     <g id="text_9">
      <!-- $\mathdefault{10^{2}}$ -->
      <g transform="translate(28.430209 112.429822) scale(0.1 -0.1)">
       <use xlink:href="#DejaVuSans-31" transform="translate(0 0.765625)"/>
       <use xlink:href="#DejaVuSans-30" transform="translate(63.623047 0.765625)"/>
       <use xlink:href="#DejaVuSans-32" transform="translate(128.203125 39.046875) scale(0.7)"/>
      </g>
     </g>
    </g>
    <g id="ytick_4">
     <g id="line2d_9">
      <g>
       <use xlink:href="#mbbf2f3e6ab" x="53.030209" y="62.528068" style="stroke: #000000; stroke-width: 0.8"/>
      </g>
     </g>
     <g id="text_10">
      <!-- $\mathdefault{10^{3}}$ -->
      <g transform="translate(28.430209 66.327287) scale(0.1 -0.1)">
       <use xlink:href="#DejaVuSans-31" transform="translate(0 0.765625)"/>
       <use xlink:href="#DejaVuSans-30" transform="translate(63.623047 0.765625)"/>
       <use xlink:href="#DejaVuSans-33" transform="translate(128.203125 39.046875) scale(0.7)"/>
      </g>
     </g>
    </g>
    <g id="ytick_5">
     <g id="line2d_10">
      <g>
       <use xlink:href="#mbbf2f3e6ab" x="53.030209" y="16.425533" style="stroke: #000000; stroke-width: 0.8"/>
      </g>
     </g>
     <g id="text_11">
      <!-- $\mathdefault{10^{4}}$ -->
      <g transform="translate(28.430209 20.224752) scale(0.1 -0.1)">
       <use xlink:href="#DejaVuSans-31" transform="translate(0 0.684375)"/>
       <use xlink:href="#DejaVuSans-30" transform="translate(63.623047 0.684375)"/>
       <use xlink:href="#DejaVuSans-34" transform="translate(128.203125 38.965625) scale(0.7)"/>
      </g>
     </g>
    </g>
    <g id="ytick_6">
     <g id="line2d_11">
      <defs>
       <path id="m0c3057f074" d="M 0 0 
L -2 0 
" style="stroke: #000000; stroke-width: 0.6"/>
      </defs>
      <g>
       <use xlink:href="#m0c3057f074" x="53.030209" y="207.977046" style="stroke: #000000; stroke-width: 0.6"/>
      </g>
     </g>
    </g>
    <g id="ytick_7">
     <g id="line2d_12">
      <g>
       <use xlink:href="#m0c3057f074" x="53.030209" y="205.303471" style="stroke: #000000; stroke-width: 0.6"/>
      </g>
     </g>
    </g>
    <g id="ytick_8">
     <g id="line2d_13">
      <g>
       <use xlink:href="#m0c3057f074" x="53.030209" y="202.94521" style="stroke: #000000; stroke-width: 0.6"/>
      </g>
     </g>
    </g>
    <g id="ytick_9">
     <g id="line2d_14">
      <g>
       <use xlink:href="#m0c3057f074" x="53.030209" y="186.957427" style="stroke: #000000; stroke-width: 0.6"/>
      </g>
     </g>
    </g>
    <g id="ytick_10">
     <g id="line2d_15">
      <g>
       <use xlink:href="#m0c3057f074" x="53.030209" y="178.839174" style="stroke: #000000; stroke-width: 0.6"/>
      </g>
     </g>
    </g>
    <g id="ytick_11">
     <g id="line2d_16">
      <g>
       <use xlink:href="#m0c3057f074" x="53.030209" y="173.079181" style="stroke: #000000; stroke-width: 0.6"/>
      </g>
     </g>
    </g>
    <g id="ytick_12">
     <g id="line2d_17">
      <g>
       <use xlink:href="#m0c3057f074" x="53.030209" y="168.611384" style="stroke: #000000; stroke-width: 0.6"/>
      </g>
     </g>
    </g>
    <g id="ytick_13">
     <g id="line2d_18">
      <g>
       <use xlink:href="#m0c3057f074" x="53.030209" y="164.960928" style="stroke: #000000; stroke-width: 0.6"/>
      </g>
     </g>
    </g>
    <g id="ytick_14">
     <g id="line2d_19">
      <g>
       <use xlink:href="#m0c3057f074" x="53.030209" y="161.874511" style="stroke: #000000; stroke-width: 0.6"/>
      </g>
     </g>
    </g>
    <g id="ytick_15">
     <g id="line2d_20">
      <g>
       <use xlink:href="#m0c3057f074" x="53.030209" y="159.200935" style="stroke: #000000; stroke-width: 0.6"/>
      </g>
     </g>
    </g>
    <g id="ytick_16">
     <g id="line2d_21">
      <g>
       <use xlink:href="#m0c3057f074" x="53.030209" y="156.842675" style="stroke: #000000; stroke-width: 0.6"/>
      </g>
     </g>
    </g>
    <g id="ytick_17">
     <g id="line2d_22">
      <g>
       <use xlink:href="#m0c3057f074" x="53.030209" y="140.854892" style="stroke: #000000; stroke-width: 0.6"/>
      </g>
     </g>
    </g>
    <g id="ytick_18">
     <g id="line2d_23">
      <g>
       <use xlink:href="#m0c3057f074" x="53.030209" y="132.736639" style="stroke: #000000; stroke-width: 0.6"/>
      </g>
     </g>
    </g>
    <g id="ytick_19">
     <g id="line2d_24">
      <g>
       <use xlink:href="#m0c3057f074" x="53.030209" y="126.976646" style="stroke: #000000; stroke-width: 0.6"/>
      </g>
     </g>
    </g>
    <g id="ytick_20">
     <g id="line2d_25">
      <g>
       <use xlink:href="#m0c3057f074" x="53.030209" y="122.508849" style="stroke: #000000; stroke-width: 0.6"/>
      </g>
     </g>
    </g>
    <g id="ytick_21">
     <g id="line2d_26">
      <g>
       <use xlink:href="#m0c3057f074" x="53.030209" y="118.858393" style="stroke: #000000; stroke-width: 0.6"/>
      </g>
     </g>
    </g>
    <g id="ytick_22">
     <g id="line2d_27">
      <g>
       <use xlink:href="#m0c3057f074" x="53.030209" y="115.771976" style="stroke: #000000; stroke-width: 0.6"/>
      </g>
     </g>
    </g>
    <g id="ytick_23">
     <g id="line2d_28">
      <g>
       <use xlink:href="#m0c3057f074" x="53.030209" y="113.0984" style="stroke: #000000; stroke-width: 0.6"/>
      </g>
     </g>
    </g>
    <g id="ytick_24">
     <g id="line2d_29">
      <g>
       <use xlink:href="#m0c3057f074" x="53.030209" y="110.740139" style="stroke: #000000; stroke-width: 0.6"/>
      </g>
     </g>
    </g>
    <g id="ytick_25">
     <g id="line2d_30">
      <g>
       <use xlink:href="#m0c3057f074" x="53.030209" y="94.752357" style="stroke: #000000; stroke-width: 0.6"/>
      </g>
     </g>
    </g>
    <g id="ytick_26">
     <g id="line2d_31">
      <g>
       <use xlink:href="#m0c3057f074" x="53.030209" y="86.634104" style="stroke: #000000; stroke-width: 0.6"/>
      </g>
     </g>
    </g>
    <g id="ytick_27">
     <g id="line2d_32">
      <g>
       <use xlink:href="#m0c3057f074" x="53.030209" y="80.874111" style="stroke: #000000; stroke-width: 0.6"/>
      </g>
     </g>
    </g>
    <g id="ytick_28">
     <g id="line2d_33">
      <g>
       <use xlink:href="#m0c3057f074" x="53.030209" y="76.406314" style="stroke: #000000; stroke-width: 0.6"/>
      </g>
     </g>
    </g>
    <g id="ytick_29">
     <g id="line2d_34">
      <g>
       <use xlink:href="#m0c3057f074" x="53.030209" y="72.755858" style="stroke: #000000; stroke-width: 0.6"/>
      </g>
     </g>
    </g>
    <g id="ytick_30">
     <g id="line2d_35">
      <g>
       <use xlink:href="#m0c3057f074" x="53.030209" y="69.669441" style="stroke: #000000; stroke-width: 0.6"/>
      </g>
     </g>
    </g>
    <g id="ytick_31">
     <g id="line2d_36">
      <g>
       <use xlink:href="#m0c3057f074" x="53.030209" y="66.995865" style="stroke: #000000; stroke-width: 0.6"/>
      </g>
     </g>
    </g>
    <g id="ytick_32">
     <g id="line2d_37">
      <g>
       <use xlink:href="#m0c3057f074" x="53.030209" y="64.637604" style="stroke: #000000; stroke-width: 0.6"/>
      </g>
     </g>
    </g>
    <g id="ytick_33">
     <g id="line2d_38">
      <g>
       <use xlink:href="#m0c3057f074" x="53.030209" y="48.649822" style="stroke: #000000; stroke-width: 0.6"/>
      </g>
     </g>
    </g>
    <g id="ytick_34">
     <g id="line2d_39">
      <g>
       <use xlink:href="#m0c3057f074" x="53.030209" y="40.531569" style="stroke: #000000; stroke-width: 0.6"/>
      </g>
     </g>
    </g>
    <g id="ytick_35">
     <g id="line2d_40">
      <g>
       <use xlink:href="#m0c3057f074" x="53.030209" y="34.771576" style="stroke: #000000; stroke-width: 0.6"/>
      </g>
     </g>
    </g>
    <g id="ytick_36">
     <g id="line2d_41">
      <g>
       <use xlink:href="#m0c3057f074" x="53.030209" y="30.303779" style="stroke: #000000; stroke-width: 0.6"/>
      </g>
     </g>
    </g>
    <g id="ytick_37">
     <g id="line2d_42">
      <g>
       <use xlink:href="#m0c3057f074" x="53.030209" y="26.653323" style="stroke: #000000; stroke-width: 0.6"/>
      </g>
     </g>
    </g>
    <g id="ytick_38">
     <g id="line2d_43">
      <g>
       <use xlink:href="#m0c3057f074" x="53.030209" y="23.566906" style="stroke: #000000; stroke-width: 0.6"/>
      </g>
     </g>
    </g>
    <g id="ytick_39">
     <g id="line2d_44">
      <g>
       <use xlink:href="#m0c3057f074" x="53.030209" y="20.89333" style="stroke: #000000; stroke-width: 0.6"/>
      </g>
     </g>
    </g>
    <g id="ytick_40">
     <g id="line2d_45">
      <g>
       <use xlink:href="#m0c3057f074" x="53.030209" y="18.535069" style="stroke: #000000; stroke-width: 0.6"/>
      </g>
     </g>
    </g>
    <g id="text_12">
     <!-- T-cell abundance, $T$ -->
     <g transform="translate(21.934584 170.76705) rotate(-90) scale(0.12 -0.12)">
      <defs>
       <path id="DejaVuSans-54" d="M -19 4666 
L 3928 4666 
L 3928 4134 
L 2272 4134 
L 2272 0 
L 1638 0 
L 1638 4134 
L -19 4134 
L -19 4666 
z
" transform="scale(0.015625)"/>
       <path id="DejaVuSans-2d" d="M 313 2009 
L 1997 2009 
L 1997 1497 
L 313 1497 
L 313 2009 
z
" transform="scale(0.015625)"/>
       <path id="DejaVuSans-63" d="M 3122 3366 
L 3122 2828 
Q 2878 2963 2633 3030 
Q 2388 3097 2138 3097 
Q 1578 3097 1268 2742 
Q 959 2388 959 1747 
Q 959 1106 1268 751 
Q 1578 397 2138 397 
Q 2388 397 2633 464 
Q 2878 531 3122 666 
L 3122 134 
Q 2881 22 2623 -34 
Q 2366 -91 2075 -91 
Q 1284 -91 818 406 
Q 353 903 353 1747 
Q 353 2603 823 3093 
Q 1294 3584 2113 3584 
Q 2378 3584 2631 3529 
Q 2884 3475 3122 3366 
z
" transform="scale(0.015625)"/>
       <path id="DejaVuSans-6c" d="M 603 4863 
L 1178 4863 
L 1178 0 
L 603 0 
L 603 4863 
z
" transform="scale(0.015625)"/>
       <path id="DejaVuSans-20" transform="scale(0.015625)"/>
       <path id="DejaVuSans-61" d="M 2194 1759 
Q 1497 1759 1228 1600 
Q 959 1441 959 1056 
Q 959 750 1161 570 
Q 1363 391 1709 391 
Q 2188 391 2477 730 
Q 2766 1069 2766 1631 
L 2766 1759 
L 2194 1759 
z
M 3341 1997 
L 3341 0 
L 2766 0 
L 2766 531 
Q 2569 213 2275 61 
Q 1981 -91 1556 -91 
Q 1019 -91 701 211 
Q 384 513 384 1019 
Q 384 1609 779 1909 
Q 1175 2209 1959 2209 
L 2766 2209 
L 2766 2266 
Q 2766 2663 2505 2880 
Q 2244 3097 1772 3097 
Q 1472 3097 1187 3025 
Q 903 2953 641 2809 
L 641 3341 
Q 956 3463 1253 3523 
Q 1550 3584 1831 3584 
Q 2591 3584 2966 3190 
Q 3341 2797 3341 1997 
z
" transform="scale(0.015625)"/>
       <path id="DejaVuSans-62" d="M 3116 1747 
Q 3116 2381 2855 2742 
Q 2594 3103 2138 3103 
Q 1681 3103 1420 2742 
Q 1159 2381 1159 1747 
Q 1159 1113 1420 752 
Q 1681 391 2138 391 
Q 2594 391 2855 752 
Q 3116 1113 3116 1747 
z
M 1159 2969 
Q 1341 3281 1617 3432 
Q 1894 3584 2278 3584 
Q 2916 3584 3314 3078 
Q 3713 2572 3713 1747 
Q 3713 922 3314 415 
Q 2916 -91 2278 -91 
Q 1894 -91 1617 61 
Q 1341 213 1159 525 
L 1159 0 
L 581 0 
L 581 4863 
L 1159 4863 
L 1159 2969 
z
" transform="scale(0.015625)"/>
       <path id="DejaVuSans-75" d="M 544 1381 
L 544 3500 
L 1119 3500 
L 1119 1403 
Q 1119 906 1312 657 
Q 1506 409 1894 409 
Q 2359 409 2629 706 
Q 2900 1003 2900 1516 
L 2900 3500 
L 3475 3500 
L 3475 0 
L 2900 0 
L 2900 538 
Q 2691 219 2414 64 
Q 2138 -91 1772 -91 
Q 1169 -91 856 284 
Q 544 659 544 1381 
z
M 1991 3584 
L 1991 3584 
z
" transform="scale(0.015625)"/>
       <path id="DejaVuSans-6e" d="M 3513 2113 
L 3513 0 
L 2938 0 
L 2938 2094 
Q 2938 2591 2744 2837 
Q 2550 3084 2163 3084 
Q 1697 3084 1428 2787 
Q 1159 2491 1159 1978 
L 1159 0 
L 581 0 
L 581 3500 
L 1159 3500 
L 1159 2956 
Q 1366 3272 1645 3428 
Q 1925 3584 2291 3584 
Q 2894 3584 3203 3211 
Q 3513 2838 3513 2113 
z
" transform="scale(0.015625)"/>
       <path id="DejaVuSans-64" d="M 2906 2969 
L 2906 4863 
L 3481 4863 
L 3481 0 
L 2906 0 
L 2906 525 
Q 2725 213 2448 61 
Q 2172 -91 1784 -91 
Q 1150 -91 751 415 
Q 353 922 353 1747 
Q 353 2572 751 3078 
Q 1150 3584 1784 3584 
Q 2172 3584 2448 3432 
Q 2725 3281 2906 2969 
z
M 947 1747 
Q 947 1113 1208 752 
Q 1469 391 1925 391 
Q 2381 391 2643 752 
Q 2906 1113 2906 1747 
Q 2906 2381 2643 2742 
Q 2381 3103 1925 3103 
Q 1469 3103 1208 2742 
Q 947 2381 947 1747 
z
" transform="scale(0.015625)"/>
       <path id="DejaVuSans-2c" d="M 750 794 
L 1409 794 
L 1409 256 
L 897 -744 
L 494 -744 
L 750 256 
L 750 794 
z
" transform="scale(0.015625)"/>
       <path id="DejaVuSans-Oblique-54" d="M 378 4666 
L 4325 4666 
L 4225 4134 
L 2559 4134 
L 1759 0 
L 1125 0 
L 1925 4134 
L 275 4134 
L 378 4666 
z
" transform="scale(0.015625)"/>
      </defs>
      <use xlink:href="#DejaVuSans-54" transform="translate(0 0.015625)"/>
      <use xlink:href="#DejaVuSans-2d" transform="translate(61.083984 0.015625)"/>
      <use xlink:href="#DejaVuSans-63" transform="translate(97.167969 0.015625)"/>
      <use xlink:href="#DejaVuSans-65" transform="translate(152.148438 0.015625)"/>
      <use xlink:href="#DejaVuSans-6c" transform="translate(213.671875 0.015625)"/>
      <use xlink:href="#DejaVuSans-6c" transform="translate(241.455078 0.015625)"/>
      <use xlink:href="#DejaVuSans-20" transform="translate(269.238281 0.015625)"/>
      <use xlink:href="#DejaVuSans-61" transform="translate(301.025391 0.015625)"/>
      <use xlink:href="#DejaVuSans-62" transform="translate(362.304688 0.015625)"/>
      <use xlink:href="#DejaVuSans-75" transform="translate(425.78125 0.015625)"/>
      <use xlink:href="#DejaVuSans-6e" transform="translate(489.160156 0.015625)"/>
      <use xlink:href="#DejaVuSans-64" transform="translate(552.539062 0.015625)"/>
      <use xlink:href="#DejaVuSans-61" transform="translate(616.015625 0.015625)"/>
      <use xlink:href="#DejaVuSans-6e" transform="translate(677.294922 0.015625)"/>
      <use xlink:href="#DejaVuSans-63" transform="translate(740.673828 0.015625)"/>
      <use xlink:href="#DejaVuSans-65" transform="translate(795.654297 0.015625)"/>
      <use xlink:href="#DejaVuSans-2c" transform="translate(857.177734 0.015625)"/>
      <use xlink:href="#DejaVuSans-20" transform="translate(888.964844 0.015625)"/>
      <use xlink:href="#DejaVuSans-Oblique-54" transform="translate(920.751953 0.015625)"/>
     </g>
    </g>
   </g>
   <g id="line2d_46">
    <path d="M 63.617933 200.458823 
L 74.258862 163.176572 
L 84.899791 126.732214 
L 93.412534 98.364023 
L 98.732998 81.250698 
L 102.98937 68.191269 
L 106.181648 58.994083 
L 109.373927 50.548259 
L 111.502113 45.460693 
L 113.630298 40.893271 
L 115.758484 36.903606 
L 117.88667 33.523154 
L 120.014856 30.750541 
L 122.143041 28.551881 
L 124.271227 26.867939 
L 126.399413 25.625106 
L 128.527599 24.746318 
L 130.655784 24.159229 
L 132.78397 23.800813 
L 135.976249 23.580903 
L 139.168527 23.628096 
L 143.424899 23.955267 
L 148.745363 24.613361 
L 156.194013 25.769911 
L 168.963128 28.007003 
L 197.693635 33.327968 
L 275.372415 47.925711 
L 275.372415 47.925711 
" clip-path="url(#p94e3cf0f9f)" style="fill: none; stroke: #ff0000; stroke-width: 2.5; stroke-linecap: square"/>
   </g>
   <g id="line2d_47">
    <path d="M 63.617933 200.458823 
L 73.194769 166.928497 
L 80.643419 141.545364 
L 85.963884 124.098982 
L 90.220255 110.93085 
L 93.412534 101.841645 
L 95.54072 96.335855 
L 97.668905 91.417107 
L 99.797091 87.225768 
L 100.861184 85.448009 
L 101.925277 83.905307 
L 102.98937 82.613417 
L 104.053463 81.586126 
L 105.117555 80.834716 
L 106.181648 80.367497 
L 107.245741 80.189463 
L 109.373927 80.496737 
L 275.372415 111.746804 
L 275.372415 111.746804 
" clip-path="url(#p94e3cf0f9f)" style="fill: none; stroke: #008000; stroke-width: 2.5; stroke-linecap: square"/>
   </g>
   <g id="line2d_48">
    <path d="M 63.617933 200.458823 
L 74.258862 163.17617 
L 84.899791 126.728222 
L 93.412534 98.345836 
L 98.732998 81.206853 
L 102.98937 68.106384 
L 106.181648 58.859813 
L 109.373927 50.345317 
L 111.502113 45.202097 
L 113.630298 40.574172 
L 115.758484 36.523907 
L 117.88667 33.088757 
L 120.014856 30.273253 
L 122.143041 28.047817 
L 124.271227 26.354958 
L 126.399413 25.120193 
L 128.527599 24.263672 
L 130.655784 23.709336 
L 132.78397 23.390391 
L 134.912156 23.251444 
L 138.104435 23.286804 
L 142.360806 23.630976 
L 147.68127 24.32926 
L 156.194013 25.72676 
L 172.155407 28.633125 
L 236.000979 40.628872 
L 275.372415 48.04051 
L 275.372415 48.04051 
" clip-path="url(#p94e3cf0f9f)" style="fill: none; stroke-dasharray: 7.4,3.2; stroke-dashoffset: 0; stroke: #000000; stroke-width: 2"/>
   </g>
   <g id="line2d_49">
    <path d="M 63.617933 200.458823 
L 80.643419 140.523717 
L 87.027977 118.81472 
L 91.284348 105.219532 
L 94.476627 95.95828 
L 96.604812 90.487105 
L 98.732998 85.790579 
L 99.797091 83.797116 
L 100.861184 82.075279 
L 101.925277 80.65021 
L 102.98937 79.544692 
L 104.053463 78.777897 
L 105.117555 78.364206 
L 106.181648 78.312241 
L 124.271227 81.710961 
L 275.372415 110.156535 
L 275.372415 110.156535 
" clip-path="url(#p94e3cf0f9f)" style="fill: none; stroke-dasharray: 2,3.3; stroke-dashoffset: 0; stroke: #000000; stroke-width: 2"/>
   </g>
   <g id="patch_3">
    <path d="M 53.030209 209.32 
L 53.030209 14.3741 
" style="fill: none; stroke: #000000; stroke-width: 0.8; stroke-linejoin: miter; stroke-linecap: square"/>
   </g>
   <g id="patch_4">
    <path d="M 285.960139 209.32 
L 285.960139 14.3741 
" style="fill: none; stroke: #000000; stroke-width: 0.8; stroke-linejoin: miter; stroke-linecap: square"/>
   </g>
   <g id="patch_5">
    <path d="M 53.030209 209.32 
L 285.960139 209.32 
" style="fill: none; stroke: #000000; stroke-width: 0.8; stroke-linejoin: miter; stroke-linecap: square"/>
   </g>
   <g id="patch_6">
    <path d="M 53.030209 14.3741 
L 285.960139 14.3741 
" style="fill: none; stroke: #000000; stroke-width: 0.8; stroke-linejoin: miter; stroke-linecap: square"/>
   </g>
   <g id="legend_1">
    <g id="patch_7">
     <path d="M 126.130139 203.82 
L 278.260139 203.82 
Q 280.460139 203.82 280.460139 201.62 
L 280.460139 138.112188 
Q 280.460139 135.912187 278.260139 135.912187 
L 126.130139 135.912187 
Q 123.930139 135.912187 123.930139 138.112188 
L 123.930139 201.62 
Q 123.930139 203.82 126.130139 203.82 
z
" style="fill: #ffffff; opacity: 0.8; stroke: #cccccc; stroke-linejoin: miter"/>
    </g>
    <g id="line2d_50">
     <path d="M 128.330139 144.820469 
L 139.330139 144.820469 
L 150.330139 144.820469 
" style="fill: none; stroke: #ff0000; stroke-width: 2.5; stroke-linecap: square"/>
    </g>
    <g id="text_13">
     <!-- $\alpha=$5e-06 -->
     <g transform="translate(159.130139 148.670469) scale(0.11 -0.11)">
      <defs>
       <path id="DejaVuSans-Oblique-3b1" d="M 2619 1628 
L 2622 2350 
Q 2625 3088 2069 3091 
Q 1653 3094 1394 2747 
Q 1069 2319 959 1747 
Q 825 1059 994 731 
Q 1169 397 1547 397 
Q 1966 397 2319 1063 
L 2619 1628 
z
M 2166 3578 
Q 3141 3594 3128 2584 
Q 3128 2584 3616 3500 
L 4128 3500 
L 3119 1603 
L 3109 919 
Q 3109 766 3194 638 
Q 3291 488 3391 488 
L 3669 488 
L 3575 0 
L 3228 0 
Q 2934 0 2722 263 
Q 2622 394 2619 669 
Q 2416 334 2066 50 
Q 1900 -81 1453 -78 
Q 722 -72 456 397 
Q 184 884 353 1747 
Q 534 2675 1009 3097 
Q 1544 3569 2166 3578 
z
" transform="scale(0.015625)"/>
       <path id="DejaVuSans-3d" d="M 678 2906 
L 4684 2906 
L 4684 2381 
L 678 2381 
L 678 2906 
z
M 678 1631 
L 4684 1631 
L 4684 1100 
L 678 1100 
L 678 1631 
z
" transform="scale(0.015625)"/>
       <path id="DejaVuSans-35" d="M 691 4666 
L 3169 4666 
L 3169 4134 
L 1269 4134 
L 1269 2991 
Q 1406 3038 1543 3061 
Q 1681 3084 1819 3084 
Q 2600 3084 3056 2656 
Q 3513 2228 3513 1497 
Q 3513 744 3044 326 
Q 2575 -91 1722 -91 
Q 1428 -91 1123 -41 
Q 819 9 494 109 
L 494 744 
Q 775 591 1075 516 
Q 1375 441 1709 441 
Q 2250 441 2565 725 
Q 2881 1009 2881 1497 
Q 2881 1984 2565 2268 
Q 2250 2553 1709 2553 
Q 1456 2553 1204 2497 
Q 953 2441 691 2322 
L 691 4666 
z
" transform="scale(0.015625)"/>
       <path id="DejaVuSans-36" d="M 2113 2584 
Q 1688 2584 1439 2293 
Q 1191 2003 1191 1497 
Q 1191 994 1439 701 
Q 1688 409 2113 409 
Q 2538 409 2786 701 
Q 3034 994 3034 1497 
Q 3034 2003 2786 2293 
Q 2538 2584 2113 2584 
z
M 3366 4563 
L 3366 3988 
Q 3128 4100 2886 4159 
Q 2644 4219 2406 4219 
Q 1781 4219 1451 3797 
Q 1122 3375 1075 2522 
Q 1259 2794 1537 2939 
Q 1816 3084 2150 3084 
Q 2853 3084 3261 2657 
Q 3669 2231 3669 1497 
Q 3669 778 3244 343 
Q 2819 -91 2113 -91 
Q 1303 -91 875 529 
Q 447 1150 447 2328 
Q 447 3434 972 4092 
Q 1497 4750 2381 4750 
Q 2619 4750 2861 4703 
Q 3103 4656 3366 4563 
z
" transform="scale(0.015625)"/>
      </defs>
      <use xlink:href="#DejaVuSans-Oblique-3b1" transform="translate(0 0.78125)"/>
      <use xlink:href="#DejaVuSans-3d" transform="translate(85.400391 0.78125)"/>
      <use xlink:href="#DejaVuSans-35" transform="translate(188.671875 0.78125)"/>
      <use xlink:href="#DejaVuSans-65" transform="translate(252.294922 0.78125)"/>
      <use xlink:href="#DejaVuSans-2d" transform="translate(313.818359 0.78125)"/>
      <use xlink:href="#DejaVuSans-30" transform="translate(349.902344 0.78125)"/>
      <use xlink:href="#DejaVuSans-36" transform="translate(413.525391 0.78125)"/>
     </g>
    </g>
    <g id="line2d_51">
     <path d="M 128.330139 160.966406 
L 139.330139 160.966406 
L 150.330139 160.966406 
" style="fill: none; stroke: #008000; stroke-width: 2.5; stroke-linecap: square"/>
    </g>
    <g id="text_14">
     <!-- $\alpha=$0.001 -->
     <g transform="translate(159.130139 164.816406) scale(0.11 -0.11)">
      <defs>
       <path id="DejaVuSans-2e" d="M 684 794 
L 1344 794 
L 1344 0 
L 684 0 
L 684 794 
z
" transform="scale(0.015625)"/>
      </defs>
      <use xlink:href="#DejaVuSans-Oblique-3b1" transform="translate(0 0.78125)"/>
      <use xlink:href="#DejaVuSans-3d" transform="translate(85.400391 0.78125)"/>
      <use xlink:href="#DejaVuSans-30" transform="translate(188.671875 0.78125)"/>
      <use xlink:href="#DejaVuSans-2e" transform="translate(252.294922 0.78125)"/>
      <use xlink:href="#DejaVuSans-30" transform="translate(284.082031 0.78125)"/>
      <use xlink:href="#DejaVuSans-30" transform="translate(347.705078 0.78125)"/>
      <use xlink:href="#DejaVuSans-31" transform="translate(411.328125 0.78125)"/>
     </g>
    </g>
    <g id="line2d_52">
     <path d="M 128.330139 177.112344 
L 139.330139 177.112344 
L 150.330139 177.112344 
" style="fill: none; stroke-dasharray: 7.4,3.2; stroke-dashoffset: 0; stroke: #000000; stroke-width: 2"/>
    </g>
    <g id="text_15">
     <!-- no inhibition, $\alpha=0$ -->
     <g transform="translate(159.130139 180.962344) scale(0.11 -0.11)">
      <defs>
       <path id="DejaVuSans-6f" d="M 1959 3097 
Q 1497 3097 1228 2736 
Q 959 2375 959 1747 
Q 959 1119 1226 758 
Q 1494 397 1959 397 
Q 2419 397 2687 759 
Q 2956 1122 2956 1747 
Q 2956 2369 2687 2733 
Q 2419 3097 1959 3097 
z
M 1959 3584 
Q 2709 3584 3137 3096 
Q 3566 2609 3566 1747 
Q 3566 888 3137 398 
Q 2709 -91 1959 -91 
Q 1206 -91 779 398 
Q 353 888 353 1747 
Q 353 2609 779 3096 
Q 1206 3584 1959 3584 
z
" transform="scale(0.015625)"/>
       <path id="DejaVuSans-68" d="M 3513 2113 
L 3513 0 
L 2938 0 
L 2938 2094 
Q 2938 2591 2744 2837 
Q 2550 3084 2163 3084 
Q 1697 3084 1428 2787 
Q 1159 2491 1159 1978 
L 1159 0 
L 581 0 
L 581 4863 
L 1159 4863 
L 1159 2956 
Q 1366 3272 1645 3428 
Q 1925 3584 2291 3584 
Q 2894 3584 3203 3211 
Q 3513 2838 3513 2113 
z
" transform="scale(0.015625)"/>
      </defs>
      <use xlink:href="#DejaVuSans-6e" transform="translate(0 0.015625)"/>
      <use xlink:href="#DejaVuSans-6f" transform="translate(63.378906 0.015625)"/>
      <use xlink:href="#DejaVuSans-20" transform="translate(124.560547 0.015625)"/>
      <use xlink:href="#DejaVuSans-69" transform="translate(156.347656 0.015625)"/>
      <use xlink:href="#DejaVuSans-6e" transform="translate(184.130859 0.015625)"/>
      <use xlink:href="#DejaVuSans-68" transform="translate(247.509766 0.015625)"/>
      <use xlink:href="#DejaVuSans-69" transform="translate(310.888672 0.015625)"/>
      <use xlink:href="#DejaVuSans-62" transform="translate(338.671875 0.015625)"/>
      <use xlink:href="#DejaVuSans-69" transform="translate(402.148438 0.015625)"/>
      <use xlink:href="#DejaVuSans-74" transform="translate(429.931641 0.015625)"/>
      <use xlink:href="#DejaVuSans-69" transform="translate(469.140625 0.015625)"/>
      <use xlink:href="#DejaVuSans-6f" transform="translate(496.923828 0.015625)"/>
      <use xlink:href="#DejaVuSans-6e" transform="translate(558.105469 0.015625)"/>
      <use xlink:href="#DejaVuSans-2c" transform="translate(621.484375 0.015625)"/>
      <use xlink:href="#DejaVuSans-20" transform="translate(653.271484 0.015625)"/>
      <use xlink:href="#DejaVuSans-Oblique-3b1" transform="translate(685.058594 0.015625)"/>
      <use xlink:href="#DejaVuSans-3d" transform="translate(770.458984 0.015625)"/>
      <use xlink:href="#DejaVuSans-30" transform="translate(873.730469 0.015625)"/>
     </g>
    </g>
    <g id="line2d_53">
     <path d="M 128.330139 193.26 
L 139.330139 193.26 
L 150.330139 193.26 
" style="fill: none; stroke-dasharray: 2,3.3; stroke-dashoffset: 0; stroke: #000000; stroke-width: 2"/>
    </g>
    <g id="text_16">
     <!-- no antigen depl $P=1$ -->
     <g transform="translate(159.130139 197.11) scale(0.11 -0.11)">
      <defs>
       <path id="DejaVuSans-67" d="M 2906 1791 
Q 2906 2416 2648 2759 
Q 2391 3103 1925 3103 
Q 1463 3103 1205 2759 
Q 947 2416 947 1791 
Q 947 1169 1205 825 
Q 1463 481 1925 481 
Q 2391 481 2648 825 
Q 2906 1169 2906 1791 
z
M 3481 434 
Q 3481 -459 3084 -895 
Q 2688 -1331 1869 -1331 
Q 1566 -1331 1297 -1286 
Q 1028 -1241 775 -1147 
L 775 -588 
Q 1028 -725 1275 -790 
Q 1522 -856 1778 -856 
Q 2344 -856 2625 -561 
Q 2906 -266 2906 331 
L 2906 616 
Q 2728 306 2450 153 
Q 2172 0 1784 0 
Q 1141 0 747 490 
Q 353 981 353 1791 
Q 353 2603 747 3093 
Q 1141 3584 1784 3584 
Q 2172 3584 2450 3431 
Q 2728 3278 2906 2969 
L 2906 3500 
L 3481 3500 
L 3481 434 
z
" transform="scale(0.015625)"/>
       <path id="DejaVuSans-70" d="M 1159 525 
L 1159 -1331 
L 581 -1331 
L 581 3500 
L 1159 3500 
L 1159 2969 
Q 1341 3281 1617 3432 
Q 1894 3584 2278 3584 
Q 2916 3584 3314 3078 
Q 3713 2572 3713 1747 
Q 3713 922 3314 415 
Q 2916 -91 2278 -91 
Q 1894 -91 1617 61 
Q 1341 213 1159 525 
z
M 3116 1747 
Q 3116 2381 2855 2742 
Q 2594 3103 2138 3103 
Q 1681 3103 1420 2742 
Q 1159 2381 1159 1747 
Q 1159 1113 1420 752 
Q 1681 391 2138 391 
Q 2594 391 2855 752 
Q 3116 1113 3116 1747 
z
" transform="scale(0.015625)"/>
       <path id="DejaVuSans-Oblique-50" d="M 1081 4666 
L 2541 4666 
Q 3178 4666 3512 4369 
Q 3847 4072 3847 3500 
Q 3847 2731 3353 2303 
Q 2859 1875 1966 1875 
L 1172 1875 
L 806 0 
L 172 0 
L 1081 4666 
z
M 1613 4147 
L 1275 2394 
L 2069 2394 
Q 2606 2394 2893 2669 
Q 3181 2944 3181 3456 
Q 3181 3784 2986 3965 
Q 2791 4147 2438 4147 
L 1613 4147 
z
" transform="scale(0.015625)"/>
      </defs>
      <use xlink:href="#DejaVuSans-6e" transform="translate(0 0.015625)"/>
      <use xlink:href="#DejaVuSans-6f" transform="translate(63.378906 0.015625)"/>
      <use xlink:href="#DejaVuSans-20" transform="translate(124.560547 0.015625)"/>
      <use xlink:href="#DejaVuSans-61" transform="translate(156.347656 0.015625)"/>
      <use xlink:href="#DejaVuSans-6e" transform="translate(217.626953 0.015625)"/>
      <use xlink:href="#DejaVuSans-74" transform="translate(281.005859 0.015625)"/>
      <use xlink:href="#DejaVuSans-69" transform="translate(320.214844 0.015625)"/>
      <use xlink:href="#DejaVuSans-67" transform="translate(347.998047 0.015625)"/>
      <use xlink:href="#DejaVuSans-65" transform="translate(411.474609 0.015625)"/>
      <use xlink:href="#DejaVuSans-6e" transform="translate(472.998047 0.015625)"/>
      <use xlink:href="#DejaVuSans-20" transform="translate(536.376953 0.015625)"/>
      <use xlink:href="#DejaVuSans-64" transform="translate(568.164062 0.015625)"/>
      <use xlink:href="#DejaVuSans-65" transform="translate(631.640625 0.015625)"/>
      <use xlink:href="#DejaVuSans-70" transform="translate(693.164062 0.015625)"/>
      <use xlink:href="#DejaVuSans-6c" transform="translate(756.640625 0.015625)"/>
      <use xlink:href="#DejaVuSans-20" transform="translate(784.423828 0.015625)"/>
      <use xlink:href="#DejaVuSans-Oblique-50" transform="translate(816.210938 0.015625)"/>
      <use xlink:href="#DejaVuSans-3d" transform="translate(895.996094 0.015625)"/>
      <use xlink:href="#DejaVuSans-31" transform="translate(999.267578 0.015625)"/>
     </g>
    </g>
   </g>
  </g>
  <g id="axes_2">
   <g id="patch_8">
    <path d="M 336.650139 209.32 
L 569.58007 209.32 
L 569.58007 14.3741 
L 336.650139 14.3741 
z
" style="fill: #ffffff"/>
   </g>
   <g id="matplotlib.axis_3">
    <g id="xtick_6">
     <g id="line2d_54">
      <g>
       <use xlink:href="#m2da38210d9" x="347.237864" y="209.32" style="stroke: #000000; stroke-width: 0.8"/>
      </g>
     </g>
     <g id="text_17">
      <!-- 0 -->
      <g transform="translate(344.056614 223.918437) scale(0.1 -0.1)">
       <use xlink:href="#DejaVuSans-30"/>
      </g>
     </g>
    </g>
    <g id="xtick_7">
     <g id="line2d_55">
      <g>
       <use xlink:href="#m2da38210d9" x="400.176484" y="209.32" style="stroke: #000000; stroke-width: 0.8"/>
      </g>
     </g>
     <g id="text_18">
      <!-- 10 -->
      <g transform="translate(393.813984 223.918437) scale(0.1 -0.1)">
       <use xlink:href="#DejaVuSans-31"/>
       <use xlink:href="#DejaVuSans-30" transform="translate(63.623047 0)"/>
      </g>
     </g>
    </g>
    <g id="xtick_8">
     <g id="line2d_56">
      <g>
       <use xlink:href="#m2da38210d9" x="453.115105" y="209.32" style="stroke: #000000; stroke-width: 0.8"/>
      </g>
     </g>
     <g id="text_19">
      <!-- 20 -->
      <g transform="translate(446.752605 223.918437) scale(0.1 -0.1)">
       <use xlink:href="#DejaVuSans-32"/>
       <use xlink:href="#DejaVuSans-30" transform="translate(63.623047 0)"/>
      </g>
     </g>
    </g>
    <g id="xtick_9">
     <g id="line2d_57">
      <g>
       <use xlink:href="#m2da38210d9" x="506.053725" y="209.32" style="stroke: #000000; stroke-width: 0.8"/>
      </g>
     </g>
     <g id="text_20">
      <!-- 30 -->
      <g transform="translate(499.691225 223.918437) scale(0.1 -0.1)">
       <use xlink:href="#DejaVuSans-33"/>
       <use xlink:href="#DejaVuSans-30" transform="translate(63.623047 0)"/>
      </g>
     </g>
    </g>
    <g id="xtick_10">
     <g id="line2d_58">
      <g>
       <use xlink:href="#m2da38210d9" x="558.992346" y="209.32" style="stroke: #000000; stroke-width: 0.8"/>
      </g>
     </g>
     <g id="text_21">
      <!-- 40 -->
      <g transform="translate(552.629846 223.918437) scale(0.1 -0.1)">
       <use xlink:href="#DejaVuSans-34"/>
       <use xlink:href="#DejaVuSans-30" transform="translate(63.623047 0)"/>
      </g>
     </g>
    </g>
    <g id="text_22">
     <!-- time -->
     <g transform="translate(439.559792 239.11625) scale(0.12 -0.12)">
      <use xlink:href="#DejaVuSans-74"/>
      <use xlink:href="#DejaVuSans-69" transform="translate(39.208984 0)"/>
      <use xlink:href="#DejaVuSans-6d" transform="translate(66.992188 0)"/>
      <use xlink:href="#DejaVuSans-65" transform="translate(164.404297 0)"/>
     </g>
    </g>
   </g>
   <g id="matplotlib.axis_4">
    <g id="ytick_41">
     <g id="line2d_59">
      <g>
       <use xlink:href="#mbbf2f3e6ab" x="336.650139" y="200.458921" style="stroke: #000000; stroke-width: 0.8"/>
      </g>
     </g>
     <g id="text_23">
      <!-- 0.0 -->
      <g transform="translate(313.747014 204.258139) scale(0.1 -0.1)">
       <use xlink:href="#DejaVuSans-30"/>
       <use xlink:href="#DejaVuSans-2e" transform="translate(63.623047 0)"/>
       <use xlink:href="#DejaVuSans-30" transform="translate(95.410156 0)"/>
      </g>
     </g>
    </g>
    <g id="ytick_42">
     <g id="line2d_60">
      <g>
       <use xlink:href="#mbbf2f3e6ab" x="336.650139" y="165.014192" style="stroke: #000000; stroke-width: 0.8"/>
      </g>
     </g>
     <g id="text_24">
      <!-- 0.2 -->
      <g transform="translate(313.747014 168.813411) scale(0.1 -0.1)">
       <use xlink:href="#DejaVuSans-30"/>
       <use xlink:href="#DejaVuSans-2e" transform="translate(63.623047 0)"/>
       <use xlink:href="#DejaVuSans-32" transform="translate(95.410156 0)"/>
      </g>
     </g>
    </g>
    <g id="ytick_43">
     <g id="line2d_61">
      <g>
       <use xlink:href="#mbbf2f3e6ab" x="336.650139" y="129.569463" style="stroke: #000000; stroke-width: 0.8"/>
      </g>
     </g>
     <g id="text_25">
      <!-- 0.4 -->
      <g transform="translate(313.747014 133.368682) scale(0.1 -0.1)">
       <use xlink:href="#DejaVuSans-30"/>
       <use xlink:href="#DejaVuSans-2e" transform="translate(63.623047 0)"/>
       <use xlink:href="#DejaVuSans-34" transform="translate(95.410156 0)"/>
      </g>
     </g>
    </g>
    <g id="ytick_44">
     <g id="line2d_62">
      <g>
       <use xlink:href="#mbbf2f3e6ab" x="336.650139" y="94.124735" style="stroke: #000000; stroke-width: 0.8"/>
      </g>
     </g>
     <g id="text_26">
      <!-- 0.6 -->
      <g transform="translate(313.747014 97.923953) scale(0.1 -0.1)">
       <use xlink:href="#DejaVuSans-30"/>
       <use xlink:href="#DejaVuSans-2e" transform="translate(63.623047 0)"/>
       <use xlink:href="#DejaVuSans-36" transform="translate(95.410156 0)"/>
      </g>
     </g>
    </g>
    <g id="ytick_45">
     <g id="line2d_63">
      <g>
       <use xlink:href="#mbbf2f3e6ab" x="336.650139" y="58.680006" style="stroke: #000000; stroke-width: 0.8"/>
      </g>
     </g>
     <g id="text_27">
      <!-- 0.8 -->
      <g transform="translate(313.747014 62.479225) scale(0.1 -0.1)">
       <defs>
        <path id="DejaVuSans-38" d="M 2034 2216 
Q 1584 2216 1326 1975 
Q 1069 1734 1069 1313 
Q 1069 891 1326 650 
Q 1584 409 2034 409 
Q 2484 409 2743 651 
Q 3003 894 3003 1313 
Q 3003 1734 2745 1975 
Q 2488 2216 2034 2216 
z
M 1403 2484 
Q 997 2584 770 2862 
Q 544 3141 544 3541 
Q 544 4100 942 4425 
Q 1341 4750 2034 4750 
Q 2731 4750 3128 4425 
Q 3525 4100 3525 3541 
Q 3525 3141 3298 2862 
Q 3072 2584 2669 2484 
Q 3125 2378 3379 2068 
Q 3634 1759 3634 1313 
Q 3634 634 3220 271 
Q 2806 -91 2034 -91 
Q 1263 -91 848 271 
Q 434 634 434 1313 
Q 434 1759 690 2068 
Q 947 2378 1403 2484 
z
M 1172 3481 
Q 1172 3119 1398 2916 
Q 1625 2713 2034 2713 
Q 2441 2713 2670 2916 
Q 2900 3119 2900 3481 
Q 2900 3844 2670 4047 
Q 2441 4250 2034 4250 
Q 1625 4250 1398 4047 
Q 1172 3844 1172 3481 
z
" transform="scale(0.015625)"/>
       </defs>
       <use xlink:href="#DejaVuSans-30"/>
       <use xlink:href="#DejaVuSans-2e" transform="translate(63.623047 0)"/>
       <use xlink:href="#DejaVuSans-38" transform="translate(95.410156 0)"/>
      </g>
     </g>
    </g>
    <g id="ytick_46">
     <g id="line2d_64">
      <g>
       <use xlink:href="#mbbf2f3e6ab" x="336.650139" y="23.235277" style="stroke: #000000; stroke-width: 0.8"/>
      </g>
     </g>
     <g id="text_28">
      <!-- 1.0 -->
      <g transform="translate(313.747014 27.034496) scale(0.1 -0.1)">
       <use xlink:href="#DejaVuSans-31"/>
       <use xlink:href="#DejaVuSans-2e" transform="translate(63.623047 0)"/>
       <use xlink:href="#DejaVuSans-30" transform="translate(95.410156 0)"/>
      </g>
     </g>
    </g>
    <g id="text_29">
     <!-- APC concentration, $P$ -->
     <g transform="translate(307.251389 174.66705) rotate(-90) scale(0.12 -0.12)">
      <defs>
       <path id="DejaVuSans-41" d="M 2188 4044 
L 1331 1722 
L 3047 1722 
L 2188 4044 
z
M 1831 4666 
L 2547 4666 
L 4325 0 
L 3669 0 
L 3244 1197 
L 1141 1197 
L 716 0 
L 50 0 
L 1831 4666 
z
" transform="scale(0.015625)"/>
       <path id="DejaVuSans-50" d="M 1259 4147 
L 1259 2394 
L 2053 2394 
Q 2494 2394 2734 2622 
Q 2975 2850 2975 3272 
Q 2975 3691 2734 3919 
Q 2494 4147 2053 4147 
L 1259 4147 
z
M 628 4666 
L 2053 4666 
Q 2838 4666 3239 4311 
Q 3641 3956 3641 3272 
Q 3641 2581 3239 2228 
Q 2838 1875 2053 1875 
L 1259 1875 
L 1259 0 
L 628 0 
L 628 4666 
z
" transform="scale(0.015625)"/>
       <path id="DejaVuSans-43" d="M 4122 4306 
L 4122 3641 
Q 3803 3938 3442 4084 
Q 3081 4231 2675 4231 
Q 1875 4231 1450 3742 
Q 1025 3253 1025 2328 
Q 1025 1406 1450 917 
Q 1875 428 2675 428 
Q 3081 428 3442 575 
Q 3803 722 4122 1019 
L 4122 359 
Q 3791 134 3420 21 
Q 3050 -91 2638 -91 
Q 1578 -91 968 557 
Q 359 1206 359 2328 
Q 359 3453 968 4101 
Q 1578 4750 2638 4750 
Q 3056 4750 3426 4639 
Q 3797 4528 4122 4306 
z
" transform="scale(0.015625)"/>
       <path id="DejaVuSans-72" d="M 2631 2963 
Q 2534 3019 2420 3045 
Q 2306 3072 2169 3072 
Q 1681 3072 1420 2755 
Q 1159 2438 1159 1844 
L 1159 0 
L 581 0 
L 581 3500 
L 1159 3500 
L 1159 2956 
Q 1341 3275 1631 3429 
Q 1922 3584 2338 3584 
Q 2397 3584 2469 3576 
Q 2541 3569 2628 3553 
L 2631 2963 
z
" transform="scale(0.015625)"/>
      </defs>
      <use xlink:href="#DejaVuSans-41" transform="translate(0 0.015625)"/>
      <use xlink:href="#DejaVuSans-50" transform="translate(68.408203 0.015625)"/>
      <use xlink:href="#DejaVuSans-43" transform="translate(128.710938 0.015625)"/>
      <use xlink:href="#DejaVuSans-20" transform="translate(198.535156 0.015625)"/>
      <use xlink:href="#DejaVuSans-63" transform="translate(230.322266 0.015625)"/>
      <use xlink:href="#DejaVuSans-6f" transform="translate(285.302734 0.015625)"/>
      <use xlink:href="#DejaVuSans-6e" transform="translate(346.484375 0.015625)"/>
      <use xlink:href="#DejaVuSans-63" transform="translate(409.863281 0.015625)"/>
      <use xlink:href="#DejaVuSans-65" transform="translate(464.84375 0.015625)"/>
      <use xlink:href="#DejaVuSans-6e" transform="translate(526.367188 0.015625)"/>
      <use xlink:href="#DejaVuSans-74" transform="translate(589.746094 0.015625)"/>
      <use xlink:href="#DejaVuSans-72" transform="translate(628.955078 0.015625)"/>
      <use xlink:href="#DejaVuSans-61" transform="translate(670.068359 0.015625)"/>
      <use xlink:href="#DejaVuSans-74" transform="translate(731.347656 0.015625)"/>
      <use xlink:href="#DejaVuSans-69" transform="translate(770.556641 0.015625)"/>
      <use xlink:href="#DejaVuSans-6f" transform="translate(798.339844 0.015625)"/>
      <use xlink:href="#DejaVuSans-6e" transform="translate(859.521484 0.015625)"/>
      <use xlink:href="#DejaVuSans-2c" transform="translate(922.900391 0.015625)"/>
      <use xlink:href="#DejaVuSans-20" transform="translate(954.6875 0.015625)"/>
      <use xlink:href="#DejaVuSans-Oblique-50" transform="translate(986.474609 0.015625)"/>
     </g>
    </g>
   </g>
   <g id="line2d_65">
    <path d="M 347.237864 23.271076 
L 362.135164 28.398046 
L 367.455628 30.485623 
L 370.647907 31.95222 
L 373.840185 33.721005 
L 375.968371 35.163534 
L 378.096557 36.914699 
L 380.224743 39.090643 
L 382.352928 41.842723 
L 383.417021 43.49275 
L 384.481114 45.361192 
L 385.545207 47.477527 
L 386.6093 49.872762 
L 387.673393 52.578592 
L 388.737486 55.62619 
L 389.801579 59.044618 
L 390.865671 62.858824 
L 392.993857 71.739463 
L 395.122043 82.292236 
L 397.250229 94.323442 
L 400.442507 114.113835 
L 403.634786 133.96051 
L 405.762972 146.092099 
L 407.891157 156.792408 
L 410.019343 165.857297 
L 412.147529 173.292708 
L 414.275715 179.244533 
L 415.339808 181.729985 
L 416.4039 183.926961 
L 417.467993 185.864145 
L 419.596179 189.067476 
L 421.724365 191.53804 
L 423.852551 193.440694 
L 425.980736 194.907338 
L 428.108922 196.040889 
L 430.237108 196.920401 
L 432.365294 197.606044 
L 435.557572 198.367587 
L 438.749851 198.902706 
L 443.006222 199.385423 
L 448.326687 199.760128 
L 455.775337 200.052086 
L 467.480358 200.261984 
L 489.826309 200.390006 
L 552.607788 200.44446 
L 558.992346 200.445733 
L 558.992346 200.445733 
" clip-path="url(#p4ab82cac97)" style="fill: none; stroke: #ff0000; stroke-width: 2.5; stroke-linecap: square"/>
   </g>
   <g id="line2d_66">
    <path d="M 347.237864 23.271076 
L 362.135164 28.395354 
L 367.455628 30.466255 
L 370.647907 31.893109 
L 373.840185 33.548198 
L 377.032464 35.511586 
L 380.224743 37.817019 
L 387.673393 43.550472 
L 389.801579 44.74656 
L 391.929764 45.539965 
L 412.147529 51.317004 
L 433.429386 57.165516 
L 454.711244 62.784681 
L 477.057194 68.447808 
L 499.403145 73.877985 
L 521.749095 79.084797 
L 545.159138 84.309984 
L 558.992346 87.29123 
L 558.992346 87.29123 
" clip-path="url(#p4ab82cac97)" style="fill: none; stroke: #008000; stroke-width: 2.5; stroke-linecap: square"/>
   </g>
   <g id="line2d_67">
    <path d="M 347.237864 23.271076 
L 362.135164 28.39806 
L 367.455628 30.485723 
L 370.647907 31.95253 
L 372.776093 33.087998 
L 374.904278 34.411075 
L 377.032464 35.996785 
L 379.16065 37.946557 
L 381.288836 40.394796 
L 382.352928 41.858317 
L 383.417021 43.514575 
L 384.481114 45.391598 
L 385.545207 47.519672 
L 386.6093 49.930845 
L 387.673393 52.658125 
L 388.737486 55.734313 
L 389.801579 59.190422 
L 390.865671 63.053668 
L 392.993857 72.076701 
L 395.122043 82.848071 
L 397.250229 95.188516 
L 400.442507 115.600221 
L 403.634786 136.145467 
L 405.762972 148.688222 
L 407.891157 159.693971 
L 410.019343 168.931507 
L 412.147529 176.406789 
L 413.211622 179.531509 
L 414.275715 182.285633 
L 415.339808 184.701348 
L 416.4039 186.811607 
L 417.467993 188.648815 
L 418.532086 190.243907 
L 419.596179 191.62575 
L 421.724365 193.853005 
L 423.852551 195.511884 
L 425.980736 196.745073 
L 428.108922 197.661812 
L 430.237108 198.344263 
L 433.429386 199.057828 
L 436.621665 199.521156 
L 440.878037 199.90083 
L 447.262594 200.19348 
L 456.83943 200.364853 
L 477.057194 200.445019 
L 558.992346 200.458823 
L 558.992346 200.458823 
" clip-path="url(#p4ab82cac97)" style="fill: none; stroke-dasharray: 7.4,3.2; stroke-dashoffset: 0; stroke: #000000; stroke-width: 2"/>
   </g>
   <g id="line2d_68">
    <path d="M 347.237864 23.235277 
L 558.992346 23.235277 
L 558.992346 23.235277 
" clip-path="url(#p4ab82cac97)" style="fill: none; stroke-dasharray: 2,3.3; stroke-dashoffset: 0; stroke: #000000; stroke-width: 2"/>
   </g>
   <g id="patch_9">
    <path d="M 336.650139 209.32 
L 336.650139 14.3741 
" style="fill: none; stroke: #000000; stroke-width: 0.8; stroke-linejoin: miter; stroke-linecap: square"/>
   </g>
   <g id="patch_10">
    <path d="M 569.58007 209.32 
L 569.58007 14.3741 
" style="fill: none; stroke: #000000; stroke-width: 0.8; stroke-linejoin: miter; stroke-linecap: square"/>
   </g>
   <g id="patch_11">
    <path d="M 336.650139 209.32 
L 569.58007 209.32 
" style="fill: none; stroke: #000000; stroke-width: 0.8; stroke-linejoin: miter; stroke-linecap: square"/>
   </g>
   <g id="patch_12">
    <path d="M 336.650139 14.3741 
L 569.58007 14.3741 
" style="fill: none; stroke: #000000; stroke-width: 0.8; stroke-linejoin: miter; stroke-linecap: square"/>
   </g>
  </g>
  <g id="axes_3">
   <g id="patch_13">
    <path d="M 620.27007 209.32 
L 853.2 209.32 
L 853.2 14.3741 
L 620.27007 14.3741 
z
" style="fill: #ffffff"/>
   </g>
   <g id="matplotlib.axis_5">
    <g id="xtick_11">
     <g id="line2d_69">
      <g>
       <use xlink:href="#m2da38210d9" x="630.857794" y="209.32" style="stroke: #000000; stroke-width: 0.8"/>
      </g>
     </g>
     <g id="text_30">
      <!-- 0 -->
      <g transform="translate(627.676544 223.918437) scale(0.1 -0.1)">
       <use xlink:href="#DejaVuSans-30"/>
      </g>
     </g>
    </g>
    <g id="xtick_12">
     <g id="line2d_70">
      <g>
       <use xlink:href="#m2da38210d9" x="683.796414" y="209.32" style="stroke: #000000; stroke-width: 0.8"/>
      </g>
     </g>
     <g id="text_31">
      <!-- 10 -->
      <g transform="translate(677.433914 223.918437) scale(0.1 -0.1)">
       <use xlink:href="#DejaVuSans-31"/>
       <use xlink:href="#DejaVuSans-30" transform="translate(63.623047 0)"/>
      </g>
     </g>
    </g>
    <g id="xtick_13">
     <g id="line2d_71">
      <g>
       <use xlink:href="#m2da38210d9" x="736.735035" y="209.32" style="stroke: #000000; stroke-width: 0.8"/>
      </g>
     </g>
     <g id="text_32">
      <!-- 20 -->
      <g transform="translate(730.372535 223.918437) scale(0.1 -0.1)">
       <use xlink:href="#DejaVuSans-32"/>
       <use xlink:href="#DejaVuSans-30" transform="translate(63.623047 0)"/>
      </g>
     </g>
    </g>
    <g id="xtick_14">
     <g id="line2d_72">
      <g>
       <use xlink:href="#m2da38210d9" x="789.673655" y="209.32" style="stroke: #000000; stroke-width: 0.8"/>
      </g>
     </g>
     <g id="text_33">
      <!-- 30 -->
      <g transform="translate(783.311155 223.918437) scale(0.1 -0.1)">
       <use xlink:href="#DejaVuSans-33"/>
       <use xlink:href="#DejaVuSans-30" transform="translate(63.623047 0)"/>
      </g>
     </g>
    </g>
    <g id="xtick_15">
     <g id="line2d_73">
      <g>
       <use xlink:href="#m2da38210d9" x="842.612276" y="209.32" style="stroke: #000000; stroke-width: 0.8"/>
      </g>
     </g>
     <g id="text_34">
      <!-- 40 -->
      <g transform="translate(836.249776 223.918437) scale(0.1 -0.1)">
       <use xlink:href="#DejaVuSans-34"/>
       <use xlink:href="#DejaVuSans-30" transform="translate(63.623047 0)"/>
      </g>
     </g>
    </g>
    <g id="text_35">
     <!-- time -->
     <g transform="translate(723.179722 239.11625) scale(0.12 -0.12)">
      <use xlink:href="#DejaVuSans-74"/>
      <use xlink:href="#DejaVuSans-69" transform="translate(39.208984 0)"/>
      <use xlink:href="#DejaVuSans-6d" transform="translate(66.992188 0)"/>
      <use xlink:href="#DejaVuSans-65" transform="translate(164.404297 0)"/>
     </g>
    </g>
   </g>
   <g id="matplotlib.axis_6">
    <g id="ytick_47">
     <g id="line2d_74">
      <g>
       <use xlink:href="#mbbf2f3e6ab" x="620.27007" y="200.458823" style="stroke: #000000; stroke-width: 0.8"/>
      </g>
     </g>
     <g id="text_36">
      <!-- 0.0 -->
      <g transform="translate(597.366945 204.258041) scale(0.1 -0.1)">
       <use xlink:href="#DejaVuSans-30"/>
       <use xlink:href="#DejaVuSans-2e" transform="translate(63.623047 0)"/>
       <use xlink:href="#DejaVuSans-30" transform="translate(95.410156 0)"/>
      </g>
     </g>
    </g>
    <g id="ytick_48">
     <g id="line2d_75">
      <g>
       <use xlink:href="#mbbf2f3e6ab" x="620.27007" y="165.198451" style="stroke: #000000; stroke-width: 0.8"/>
      </g>
     </g>
     <g id="text_37">
      <!-- 0.2 -->
      <g transform="translate(597.366945 168.997669) scale(0.1 -0.1)">
       <use xlink:href="#DejaVuSans-30"/>
       <use xlink:href="#DejaVuSans-2e" transform="translate(63.623047 0)"/>
       <use xlink:href="#DejaVuSans-32" transform="translate(95.410156 0)"/>
      </g>
     </g>
    </g>
    <g id="ytick_49">
     <g id="line2d_76">
      <g>
       <use xlink:href="#mbbf2f3e6ab" x="620.27007" y="129.938079" style="stroke: #000000; stroke-width: 0.8"/>
      </g>
     </g>
     <g id="text_38">
      <!-- 0.4 -->
      <g transform="translate(597.366945 133.737297) scale(0.1 -0.1)">
       <use xlink:href="#DejaVuSans-30"/>
       <use xlink:href="#DejaVuSans-2e" transform="translate(63.623047 0)"/>
       <use xlink:href="#DejaVuSans-34" transform="translate(95.410156 0)"/>
      </g>
     </g>
    </g>
    <g id="ytick_50">
     <g id="line2d_77">
      <g>
       <use xlink:href="#mbbf2f3e6ab" x="620.27007" y="94.677707" style="stroke: #000000; stroke-width: 0.8"/>
      </g>
     </g>
     <g id="text_39">
      <!-- 0.6 -->
      <g transform="translate(597.366945 98.476925) scale(0.1 -0.1)">
       <use xlink:href="#DejaVuSans-30"/>
       <use xlink:href="#DejaVuSans-2e" transform="translate(63.623047 0)"/>
       <use xlink:href="#DejaVuSans-36" transform="translate(95.410156 0)"/>
      </g>
     </g>
    </g>
    <g id="ytick_51">
     <g id="line2d_78">
      <g>
       <use xlink:href="#mbbf2f3e6ab" x="620.27007" y="59.417335" style="stroke: #000000; stroke-width: 0.8"/>
      </g>
     </g>
     <g id="text_40">
      <!-- 0.8 -->
      <g transform="translate(597.366945 63.216553) scale(0.1 -0.1)">
       <use xlink:href="#DejaVuSans-30"/>
       <use xlink:href="#DejaVuSans-2e" transform="translate(63.623047 0)"/>
       <use xlink:href="#DejaVuSans-38" transform="translate(95.410156 0)"/>
      </g>
     </g>
    </g>
    <g id="ytick_52">
     <g id="line2d_79">
      <g>
       <use xlink:href="#mbbf2f3e6ab" x="620.27007" y="24.156962" style="stroke: #000000; stroke-width: 0.8"/>
      </g>
     </g>
     <g id="text_41">
      <!-- 1.0 -->
      <g transform="translate(597.366945 27.956181) scale(0.1 -0.1)">
       <use xlink:href="#DejaVuSans-31"/>
       <use xlink:href="#DejaVuSans-2e" transform="translate(63.623047 0)"/>
       <use xlink:href="#DejaVuSans-30" transform="translate(95.410156 0)"/>
      </g>
     </g>
    </g>
    <g id="text_42">
     <!-- Inhibition factor, $S$ -->
     <g transform="translate(590.87132 166.98705) rotate(-90) scale(0.12 -0.12)">
      <defs>
       <path id="DejaVuSans-49" d="M 628 4666 
L 1259 4666 
L 1259 0 
L 628 0 
L 628 4666 
z
" transform="scale(0.015625)"/>
       <path id="DejaVuSans-66" d="M 2375 4863 
L 2375 4384 
L 1825 4384 
Q 1516 4384 1395 4259 
Q 1275 4134 1275 3809 
L 1275 3500 
L 2222 3500 
L 2222 3053 
L 1275 3053 
L 1275 0 
L 697 0 
L 697 3053 
L 147 3053 
L 147 3500 
L 697 3500 
L 697 3744 
Q 697 4328 969 4595 
Q 1241 4863 1831 4863 
L 2375 4863 
z
" transform="scale(0.015625)"/>
       <path id="DejaVuSans-Oblique-53" d="M 3859 4513 
L 3738 3897 
Q 3422 4066 3111 4152 
Q 2800 4238 2509 4238 
Q 1944 4238 1609 3991 
Q 1275 3744 1275 3334 
Q 1275 3109 1398 2989 
Q 1522 2869 2034 2731 
L 2413 2638 
Q 3053 2472 3303 2217 
Q 3553 1963 3553 1503 
Q 3553 797 2998 353 
Q 2444 -91 1538 -91 
Q 1166 -91 791 -17 
Q 416 56 38 206 
L 166 856 
Q 513 641 861 531 
Q 1209 422 1556 422 
Q 2147 422 2503 684 
Q 2859 947 2859 1369 
Q 2859 1650 2717 1795 
Q 2575 1941 2106 2059 
L 1728 2156 
Q 1081 2325 845 2545 
Q 609 2766 609 3163 
Q 609 3859 1145 4304 
Q 1681 4750 2541 4750 
Q 2875 4750 3203 4690 
Q 3531 4631 3859 4513 
z
" transform="scale(0.015625)"/>
      </defs>
      <use xlink:href="#DejaVuSans-49" transform="translate(0 0.015625)"/>
      <use xlink:href="#DejaVuSans-6e" transform="translate(29.492188 0.015625)"/>
      <use xlink:href="#DejaVuSans-68" transform="translate(92.871094 0.015625)"/>
      <use xlink:href="#DejaVuSans-69" transform="translate(156.25 0.015625)"/>
      <use xlink:href="#DejaVuSans-62" transform="translate(184.033203 0.015625)"/>
      <use xlink:href="#DejaVuSans-69" transform="translate(247.509766 0.015625)"/>
      <use xlink:href="#DejaVuSans-74" transform="translate(275.292969 0.015625)"/>
      <use xlink:href="#DejaVuSans-69" transform="translate(314.501953 0.015625)"/>
      <use xlink:href="#DejaVuSans-6f" transform="translate(342.285156 0.015625)"/>
      <use xlink:href="#DejaVuSans-6e" transform="translate(403.466797 0.015625)"/>
      <use xlink:href="#DejaVuSans-20" transform="translate(466.845703 0.015625)"/>
      <use xlink:href="#DejaVuSans-66" transform="translate(498.632812 0.015625)"/>
      <use xlink:href="#DejaVuSans-61" transform="translate(533.837891 0.015625)"/>
      <use xlink:href="#DejaVuSans-63" transform="translate(595.117188 0.015625)"/>
      <use xlink:href="#DejaVuSans-74" transform="translate(650.097656 0.015625)"/>
      <use xlink:href="#DejaVuSans-6f" transform="translate(689.306641 0.015625)"/>
      <use xlink:href="#DejaVuSans-72" transform="translate(750.488281 0.015625)"/>
      <use xlink:href="#DejaVuSans-2c" transform="translate(791.601562 0.015625)"/>
      <use xlink:href="#DejaVuSans-20" transform="translate(823.388672 0.015625)"/>
      <use xlink:href="#DejaVuSans-Oblique-53" transform="translate(855.175781 0.015625)"/>
     </g>
    </g>
   </g>
   <g id="line2d_80">
    <path d="M 630.857794 200.458805 
L 658.524209 200.344897 
L 664.908766 200.127521 
L 669.165137 199.797788 
L 672.357416 199.366487 
L 675.549695 198.688209 
L 677.67788 198.049761 
L 679.806066 197.226659 
L 681.934252 196.192602 
L 684.062438 194.9303 
L 686.190623 193.435324 
L 688.318809 191.7175 
L 691.511088 188.774383 
L 694.703366 185.488667 
L 698.959738 180.771225 
L 719.177502 157.851191 
L 725.56206 151.157351 
L 731.946617 144.815477 
L 738.331174 138.822904 
L 744.715731 133.16819 
L 751.100289 127.836325 
L 757.484846 122.811067 
L 763.869403 118.076025 
L 770.25396 113.615171 
L 776.638518 109.413072 
L 783.023075 105.454999 
L 789.407632 101.726962 
L 796.856282 97.650692 
L 804.304932 93.849728 
L 811.753583 90.305558 
L 819.202233 87.000889 
L 826.650883 83.919574 
L 835.163626 80.652284 
L 842.612276 78.000135 
L 842.612276 78.000135 
" clip-path="url(#pa50ff75df0)" style="fill: none; stroke: #ff0000; stroke-width: 2.5; stroke-linecap: square"/>
   </g>
   <g id="line2d_81">
    <path d="M 630.857794 200.455297 
L 636.178258 200.160447 
L 639.370537 199.796451 
L 642.562815 199.163877 
L 644.691001 198.502832 
L 646.819187 197.553789 
L 648.947373 196.196394 
L 650.011466 195.314684 
L 651.075558 194.264044 
L 652.139651 193.014086 
L 653.203744 191.529676 
L 654.267837 189.77047 
L 655.33193 187.690522 
L 656.396023 185.238026 
L 657.460116 182.35526 
L 658.524209 178.978857 
L 659.588301 175.040505 
L 660.652394 170.468214 
L 661.716487 165.188314 
L 662.78058 159.12827 
L 663.844673 152.220426 
L 664.908766 144.406636 
L 665.972859 135.643663 
L 668.101044 115.206755 
L 670.22923 91.077269 
L 672.357416 63.968285 
L 674.485602 35.128887 
L 675.549695 23.461232 
L 842.612276 23.461232 
L 842.612276 23.461232 
" clip-path="url(#pa50ff75df0)" style="fill: none; stroke: #008000; stroke-width: 2.5; stroke-linecap: square"/>
   </g>
   <g id="line2d_82">
    <path d="M 630.857794 200.458823 
L 842.612276 200.458823 
L 842.612276 200.458823 
" clip-path="url(#pa50ff75df0)" style="fill: none; stroke-dasharray: 7.4,3.2; stroke-dashoffset: 0; stroke: #000000; stroke-width: 2"/>
   </g>
   <g id="line2d_83">
    <path d="M 630.857794 200.455297 
L 636.178258 200.159844 
L 639.370537 199.792601 
L 641.498723 199.404195 
L 643.626908 198.83959 
L 645.755094 198.01989 
L 647.88328 196.83202 
L 648.947373 196.052087 
L 650.011466 195.11518 
L 651.075558 193.990863 
L 652.139651 192.643317 
L 653.203744 191.030612 
L 654.267837 189.103993 
L 655.33193 186.807231 
L 656.396023 184.076125 
L 657.460116 180.838287 
L 658.524209 177.013359 
L 659.588301 172.513894 
L 660.652394 167.247126 
L 661.716487 161.117918 
L 662.78058 154.033151 
L 663.844673 145.907716 
L 664.908766 136.672144 
L 665.972859 126.28161 
L 668.101044 102.037611 
L 670.22923 73.658639 
L 673.421509 26.439959 
L 674.485602 23.235277 
L 842.612276 23.235277 
L 842.612276 23.235277 
" clip-path="url(#pa50ff75df0)" style="fill: none; stroke-dasharray: 2,3.3; stroke-dashoffset: 0; stroke: #000000; stroke-width: 2"/>
   </g>
   <g id="patch_14">
    <path d="M 620.27007 209.32 
L 620.27007 14.3741 
" style="fill: none; stroke: #000000; stroke-width: 0.8; stroke-linejoin: miter; stroke-linecap: square"/>
   </g>
   <g id="patch_15">
    <path d="M 853.2 209.32 
L 853.2 14.3741 
" style="fill: none; stroke: #000000; stroke-width: 0.8; stroke-linejoin: miter; stroke-linecap: square"/>
   </g>
   <g id="patch_16">
    <path d="M 620.27007 209.32 
L 853.2 209.32 
" style="fill: none; stroke: #000000; stroke-width: 0.8; stroke-linejoin: miter; stroke-linecap: square"/>
   </g>
   <g id="patch_17">
    <path d="M 620.27007 14.3741 
L 853.2 14.3741 
" style="fill: none; stroke: #000000; stroke-width: 0.8; stroke-linejoin: miter; stroke-linecap: square"/>
   </g>
  </g>
 </g>
 <defs>
  <clipPath id="p94e3cf0f9f">
   <rect x="53.030209" y="14.3741" width="232.92993" height="194.9459"/>
  </clipPath>
  <clipPath id="p4ab82cac97">
   <rect x="336.650139" y="14.3741" width="232.92993" height="194.9459"/>
  </clipPath>
  <clipPath id="pa50ff75df0">
   <rect x="620.27007" y="14.3741" width="232.92993" height="194.9459"/>
  </clipPath>
 </defs>
</svg>
