<?xml version="1.0" encoding="utf-8" standalone="no"?>
<!DOCTYPE svg PUBLIC "-//W3C//DTD SVG 1.1//EN"
  "http://www.w3.org/Graphics/SVG/1.1/DTD/svg11.dtd">
<svg xmlns:xlink="http://www.w3.org/1999/xlink" width="504pt" height="432pt" viewBox="0 0 504 432" xmlns="http://www.w3.org/2000/svg" version="1.1">
 <metadata>
  <rdf:RDF xmlns:dc="http://purl.org/dc/elements/1.1/" xmlns:cc="http://creativecommons.org/ns#" xmlns:rdf="http://www.w3.org/1999/02/22-rdf-syntax-ns#">
   <cc:Work>
    <dc:type rdf:resource="http://purl.org/dc/dcmitype/StillImage"/>
    <dc:date>2026-02-12T17:28:09.097670</dc:date>
    <dc:format>image/svg+xml</dc:format>
    <dc:creator>
     <cc:Agent>
      <dc:title>Matplotlib v3.10.8, https://matplotlib.org/</dc:title>
     </cc:Agent>
    </dc:creator>
   </cc:Work>
  </rdf:RDF>
 </metadata>
 <defs>
  <style type="text/css">*{stroke-linejoin: round; stroke-linecap: butt}</style>
 </defs>
 <g id="figure_1">
  <g id="patch_1">
   <path d="M 0 432 
L 504 432 
L 504 0 
L 0 0 
z
" style="fill: #ffffff"/>
  </g>
  <g id="axes_1">
   <g id="patch_2">
    <path d="M 70.619 386.62675 
L 249.060075 386.62675 
L 249.060075 10.8 
L 70.619 10.8 
z
" style="fill: #ffffff"/>
   </g>
   <g id="matplotlib.axis_1">
    <g id="xtick_1">
     <g id="line2d_1">
      <defs>
       <path id="m8b831c29a9" d="M 0 0 
L 0 3.5 
" style="stroke: #000000; stroke-width: 0.8"/>
      </defs>
      <g>
       <use xlink:href="#m8b831c29a9" x="111.17379" y="386.62675" style="stroke: #000000; stroke-width: 0.8"/>
      </g>
     </g>
     <g id="text_1">
      <!-- $\mathdefault{10^{-5}}$ -->
      <g transform="translate(99.42379 401.225188) scale(0.1 -0.1)">
       <defs>
        <path id="DejaVuSans-31" d="M 794 531 
L 1825 531 
L 1825 4091 
L 703 3866 
L 703 4441 
L 1819 4666 
L 2450 4666 
L 2450 531 
L 3481 531 
L 3481 0 
L 794 0 
L 794 531 
z
" transform="scale(0.015625)"/>
        <path id="DejaVuSans-30" d="M 2034 4250 
Q 1547 4250 1301 3770 
Q 1056 3291 1056 2328 
Q 1056 1369 1301 889 
Q 1547 409 2034 409 
Q 2525 409 2770 889 
Q 3016 1369 3016 2328 
Q 3016 3291 2770 3770 
Q 2525 4250 2034 4250 
z
M 2034 4750 
Q 2819 4750 3233 4129 
Q 3647 3509 3647 2328 
Q 3647 1150 3233 529 
Q 2819 -91 2034 -91 
Q 1250 -91 836 529 
Q 422 1150 422 2328 
Q 422 3509 836 4129 
Q 1250 4750 2034 4750 
z
" transform="scale(0.015625)"/>
        <path id="DejaVuSans-2212" d="M 678 2272 
L 4684 2272 
L 4684 1741 
L 678 1741 
L 678 2272 
z
" transform="scale(0.015625)"/>
        <path id="DejaVuSans-35" d="M 691 4666 
L 3169 4666 
L 3169 4134 
L 1269 4134 
L 1269 2991 
Q 1406 3038 1543 3061 
Q 1681 3084 1819 3084 
Q 2600 3084 3056 2656 
Q 3513 2228 3513 1497 
Q 3513 744 3044 326 
Q 2575 -91 1722 -91 
Q 1428 -91 1123 -41 
Q 819 9 494 109 
L 494 744 
Q 775 591 1075 516 
Q 1375 441 1709 441 
Q 2250 441 2565 725 
Q 2881 1009 2881 1497 
Q 2881 1984 2565 2268 
Q 2250 2553 1709 2553 
Q 1456 2553 1204 2497 
Q 953 2441 691 2322 
L 691 4666 
z
" transform="scale(0.015625)"/>
       </defs>
       <use xlink:href="#DejaVuSans-31" transform="translate(0 0.684375)"/>
       <use xlink:href="#DejaVuSans-30" transform="translate(63.623047 0.684375)"/>
       <use xlink:href="#DejaVuSans-2212" transform="translate(128.203125 38.965625) scale(0.7)"/>
       <use xlink:href="#DejaVuSans-35" transform="translate(186.855469 38.965625) scale(0.7)"/>
      </g>
     </g>
    </g>
    <g id="xtick_2">
     <g id="line2d_2">
      <g>
       <use xlink:href="#m8b831c29a9" x="176.061453" y="386.62675" style="stroke: #000000; stroke-width: 0.8"/>
      </g>
     </g>
     <g id="text_2">
      <!-- $\mathdefault{10^{-4}}$ -->
      <g transform="translate(164.311453 401.225188) scale(0.1 -0.1)">
       <defs>
        <path id="DejaVuSans-34" d="M 2419 4116 
L 825 1625 
L 2419 1625 
L 2419 4116 
z
M 2253 4666 
L 3047 4666 
L 3047 1625 
L 3713 1625 
L 3713 1100 
L 3047 1100 
L 3047 0 
L 2419 0 
L 2419 1100 
L 313 1100 
L 313 1709 
L 2253 4666 
z
" transform="scale(0.015625)"/>
       </defs>
       <use xlink:href="#DejaVuSans-31" transform="translate(0 0.684375)"/>
       <use xlink:href="#DejaVuSans-30" transform="translate(63.623047 0.684375)"/>
       <use xlink:href="#DejaVuSans-2212" transform="translate(128.203125 38.965625) scale(0.7)"/>
       <use xlink:href="#DejaVuSans-34" transform="translate(186.855469 38.965625) scale(0.7)"/>
      </g>
     </g>
    </g>
    <g id="xtick_3">
     <g id="line2d_3">
      <g>
       <use xlink:href="#m8b831c29a9" x="240.949117" y="386.62675" style="stroke: #000000; stroke-width: 0.8"/>
      </g>
     </g>
     <g id="text_3">
      <!-- $\mathdefault{10^{-3}}$ -->
      <g transform="translate(229.199117 401.225188) scale(0.1 -0.1)">
       <defs>
        <path id="DejaVuSans-33" d="M 2597 2516 
Q 3050 2419 3304 2112 
Q 3559 1806 3559 1356 
Q 3559 666 3084 287 
Q 2609 -91 1734 -91 
Q 1441 -91 1130 -33 
Q 819 25 488 141 
L 488 750 
Q 750 597 1062 519 
Q 1375 441 1716 441 
Q 2309 441 2620 675 
Q 2931 909 2931 1356 
Q 2931 1769 2642 2001 
Q 2353 2234 1838 2234 
L 1294 2234 
L 1294 2753 
L 1863 2753 
Q 2328 2753 2575 2939 
Q 2822 3125 2822 3475 
Q 2822 3834 2567 4026 
Q 2313 4219 1838 4219 
Q 1578 4219 1281 4162 
Q 984 4106 628 3988 
L 628 4550 
Q 988 4650 1302 4700 
Q 1616 4750 1894 4750 
Q 2613 4750 3031 4423 
Q 3450 4097 3450 3541 
Q 3450 3153 3228 2886 
Q 3006 2619 2597 2516 
z
" transform="scale(0.015625)"/>
       </defs>
       <use xlink:href="#DejaVuSans-31" transform="translate(0 0.765625)"/>
       <use xlink:href="#DejaVuSans-30" transform="translate(63.623047 0.765625)"/>
       <use xlink:href="#DejaVuSans-2212" transform="translate(128.203125 39.046875) scale(0.7)"/>
       <use xlink:href="#DejaVuSans-33" transform="translate(186.855469 39.046875) scale(0.7)"/>
      </g>
     </g>
    </g>
    <g id="xtick_4">
     <g id="line2d_4">
      <defs>
       <path id="mf7346437a2" d="M 0 0 
L 0 2 
" style="stroke: #000000; stroke-width: 0.6"/>
      </defs>
      <g>
       <use xlink:href="#mf7346437a2" x="77.24541" y="386.62675" style="stroke: #000000; stroke-width: 0.6"/>
      </g>
     </g>
    </g>
    <g id="xtick_5">
     <g id="line2d_5">
      <g>
       <use xlink:href="#mf7346437a2" x="85.352392" y="386.62675" style="stroke: #000000; stroke-width: 0.6"/>
      </g>
     </g>
    </g>
    <g id="xtick_6">
     <g id="line2d_6">
      <g>
       <use xlink:href="#mf7346437a2" x="91.640657" y="386.62675" style="stroke: #000000; stroke-width: 0.6"/>
      </g>
     </g>
    </g>
    <g id="xtick_7">
     <g id="line2d_7">
      <g>
       <use xlink:href="#mf7346437a2" x="96.778543" y="386.62675" style="stroke: #000000; stroke-width: 0.6"/>
      </g>
     </g>
    </g>
    <g id="xtick_8">
     <g id="line2d_8">
      <g>
       <use xlink:href="#mf7346437a2" x="101.122563" y="386.62675" style="stroke: #000000; stroke-width: 0.6"/>
      </g>
     </g>
    </g>
    <g id="xtick_9">
     <g id="line2d_9">
      <g>
       <use xlink:href="#mf7346437a2" x="104.885525" y="386.62675" style="stroke: #000000; stroke-width: 0.6"/>
      </g>
     </g>
    </g>
    <g id="xtick_10">
     <g id="line2d_10">
      <g>
       <use xlink:href="#mf7346437a2" x="108.204693" y="386.62675" style="stroke: #000000; stroke-width: 0.6"/>
      </g>
     </g>
    </g>
    <g id="xtick_11">
     <g id="line2d_11">
      <g>
       <use xlink:href="#mf7346437a2" x="130.706923" y="386.62675" style="stroke: #000000; stroke-width: 0.6"/>
      </g>
     </g>
    </g>
    <g id="xtick_12">
     <g id="line2d_12">
      <g>
       <use xlink:href="#mf7346437a2" x="142.133073" y="386.62675" style="stroke: #000000; stroke-width: 0.6"/>
      </g>
     </g>
    </g>
    <g id="xtick_13">
     <g id="line2d_13">
      <g>
       <use xlink:href="#mf7346437a2" x="150.240056" y="386.62675" style="stroke: #000000; stroke-width: 0.6"/>
      </g>
     </g>
    </g>
    <g id="xtick_14">
     <g id="line2d_14">
      <g>
       <use xlink:href="#mf7346437a2" x="156.52832" y="386.62675" style="stroke: #000000; stroke-width: 0.6"/>
      </g>
     </g>
    </g>
    <g id="xtick_15">
     <g id="line2d_15">
      <g>
       <use xlink:href="#mf7346437a2" x="161.666206" y="386.62675" style="stroke: #000000; stroke-width: 0.6"/>
      </g>
     </g>
    </g>
    <g id="xtick_16">
     <g id="line2d_16">
      <g>
       <use xlink:href="#mf7346437a2" x="166.010227" y="386.62675" style="stroke: #000000; stroke-width: 0.6"/>
      </g>
     </g>
    </g>
    <g id="xtick_17">
     <g id="line2d_17">
      <g>
       <use xlink:href="#mf7346437a2" x="169.773189" y="386.62675" style="stroke: #000000; stroke-width: 0.6"/>
      </g>
     </g>
    </g>
    <g id="xtick_18">
     <g id="line2d_18">
      <g>
       <use xlink:href="#mf7346437a2" x="173.092357" y="386.62675" style="stroke: #000000; stroke-width: 0.6"/>
      </g>
     </g>
    </g>
    <g id="xtick_19">
     <g id="line2d_19">
      <g>
       <use xlink:href="#mf7346437a2" x="195.594586" y="386.62675" style="stroke: #000000; stroke-width: 0.6"/>
      </g>
     </g>
    </g>
    <g id="xtick_20">
     <g id="line2d_20">
      <g>
       <use xlink:href="#mf7346437a2" x="207.020737" y="386.62675" style="stroke: #000000; stroke-width: 0.6"/>
      </g>
     </g>
    </g>
    <g id="xtick_21">
     <g id="line2d_21">
      <g>
       <use xlink:href="#mf7346437a2" x="215.12772" y="386.62675" style="stroke: #000000; stroke-width: 0.6"/>
      </g>
     </g>
    </g>
    <g id="xtick_22">
     <g id="line2d_22">
      <g>
       <use xlink:href="#mf7346437a2" x="221.415984" y="386.62675" style="stroke: #000000; stroke-width: 0.6"/>
      </g>
     </g>
    </g>
    <g id="xtick_23">
     <g id="line2d_23">
      <g>
       <use xlink:href="#mf7346437a2" x="226.55387" y="386.62675" style="stroke: #000000; stroke-width: 0.6"/>
      </g>
     </g>
    </g>
    <g id="xtick_24">
     <g id="line2d_24">
      <g>
       <use xlink:href="#mf7346437a2" x="230.897891" y="386.62675" style="stroke: #000000; stroke-width: 0.6"/>
      </g>
     </g>
    </g>
    <g id="xtick_25">
     <g id="line2d_25">
      <g>
       <use xlink:href="#mf7346437a2" x="234.660853" y="386.62675" style="stroke: #000000; stroke-width: 0.6"/>
      </g>
     </g>
    </g>
    <g id="xtick_26">
     <g id="line2d_26">
      <g>
       <use xlink:href="#mf7346437a2" x="237.98002" y="386.62675" style="stroke: #000000; stroke-width: 0.6"/>
      </g>
     </g>
    </g>
    <g id="text_4">
     <!-- alpha_0 -->
     <g transform="translate(140.298131 414.903313) scale(0.1 -0.1)">
      <defs>
       <path id="DejaVuSans-61" d="M 2194 1759 
Q 1497 1759 1228 1600 
Q 959 1441 959 1056 
Q 959 750 1161 570 
Q 1363 391 1709 391 
Q 2188 391 2477 730 
Q 2766 1069 2766 1631 
L 2766 1759 
L 2194 1759 
z
M 3341 1997 
L 3341 0 
L 2766 0 
L 2766 531 
Q 2569 213 2275 61 
Q 1981 -91 1556 -91 
Q 1019 -91 701 211 
Q 384 513 384 1019 
Q 384 1609 779 1909 
Q 1175 2209 1959 2209 
L 2766 2209 
L 2766 2266 
Q 2766 2663 2505 2880 
Q 2244 3097 1772 3097 
Q 1472 3097 1187 3025 
Q 903 2953 641 2809 
L 641 3341 
Q 956 3463 1253 3523 
Q 1550 3584 1831 3584 
Q 2591 3584 2966 3190 
Q 3341 2797 3341 1997 
z
" transform="scale(0.015625)"/>
       <path id="DejaVuSans-6c" d="M 603 4863 
L 1178 4863 
L 1178 0 
L 603 0 
L 603 4863 
z
" transform="scale(0.015625)"/>
       <path id="DejaVuSans-70" d="M 1159 525 
L 1159 -1331 
L 581 -1331 
L 581 3500 
L 1159 3500 
L 1159 2969 
Q 1341 3281 1617 3432 
Q 1894 3584 2278 3584 
Q 2916 3584 3314 3078 
Q 3713 2572 3713 1747 
Q 3713 922 3314 415 
Q 2916 -91 2278 -91 
Q 1894 -91 1617 61 
Q 1341 213 1159 525 
z
M 3116 1747 
Q 3116 2381 2855 2742 
Q 2594 3103 2138 3103 
Q 1681 3103 1420 2742 
Q 1159 2381 1159 1747 
Q 1159 1113 1420 752 
Q 1681 391 2138 391 
Q 2594 391 2855 752 
Q 3116 1113 3116 1747 
z
" transform="scale(0.015625)"/>
       <path id="DejaVuSans-68" d="M 3513 2113 
L 3513 0 
L 2938 0 
L 2938 2094 
Q 2938 2591 2744 2837 
Q 2550 3084 2163 3084 
Q 1697 3084 1428 2787 
Q 1159 2491 1159 1978 
L 1159 0 
L 581 0 
L 581 4863 
L 1159 4863 
L 1159 2956 
Q 1366 3272 1645 3428 
Q 1925 3584 2291 3584 
Q 2894 3584 3203 3211 
Q 3513 2838 3513 2113 
z
" transform="scale(0.015625)"/>
       <path id="DejaVuSans-5f" d="M 3263 -1063 
L 3263 -1509 
L -63 -1509 
L -63 -1063 
L 3263 -1063 
z
" transform="scale(0.015625)"/>
      </defs>
      <use xlink:href="#DejaVuSans-61"/>
      <use xlink:href="#DejaVuSans-6c" transform="translate(61.279297 0)"/>
      <use xlink:href="#DejaVuSans-70" transform="translate(89.0625 0)"/>
      <use xlink:href="#DejaVuSans-68" transform="translate(152.539062 0)"/>
      <use xlink:href="#DejaVuSans-61" transform="translate(215.917969 0)"/>
      <use xlink:href="#DejaVuSans-5f" transform="translate(277.197266 0)"/>
      <use xlink:href="#DejaVuSans-30" transform="translate(327.197266 0)"/>
     </g>
    </g>
   </g>
   <g id="matplotlib.axis_2">
    <g id="ytick_1">
     <g id="line2d_27">
      <defs>
       <path id="mb715955341" d="M 0 0 
L -3.5 0 
" style="stroke: #000000; stroke-width: 0.8"/>
      </defs>
      <g>
       <use xlink:href="#mb715955341" x="70.619" y="334.734389" style="stroke: #000000; stroke-width: 0.8"/>
      </g>
     </g>
     <g id="text_5">
      <!-- 1000 -->
      <g transform="translate(38.169 338.533608) scale(0.1 -0.1)">
       <use xlink:href="#DejaVuSans-31"/>
       <use xlink:href="#DejaVuSans-30" transform="translate(63.623047 0)"/>
       <use xlink:href="#DejaVuSans-30" transform="translate(127.246094 0)"/>
       <use xlink:href="#DejaVuSans-30" transform="translate(190.869141 0)"/>
      </g>
     </g>
    </g>
    <g id="ytick_2">
     <g id="line2d_28">
      <g>
       <use xlink:href="#mb715955341" x="70.619" y="278.274189" style="stroke: #000000; stroke-width: 0.8"/>
      </g>
     </g>
     <g id="text_6">
      <!-- 2000 -->
      <g transform="translate(38.169 282.073408) scale(0.1 -0.1)">
       <defs>
        <path id="DejaVuSans-32" d="M 1228 531 
L 3431 531 
L 3431 0 
L 469 0 
L 469 531 
Q 828 903 1448 1529 
Q 2069 2156 2228 2338 
Q 2531 2678 2651 2914 
Q 2772 3150 2772 3378 
Q 2772 3750 2511 3984 
Q 2250 4219 1831 4219 
Q 1534 4219 1204 4116 
Q 875 4013 500 3803 
L 500 4441 
Q 881 4594 1212 4672 
Q 1544 4750 1819 4750 
Q 2544 4750 2975 4387 
Q 3406 4025 3406 3419 
Q 3406 3131 3298 2873 
Q 3191 2616 2906 2266 
Q 2828 2175 2409 1742 
Q 1991 1309 1228 531 
z
" transform="scale(0.015625)"/>
       </defs>
       <use xlink:href="#DejaVuSans-32"/>
       <use xlink:href="#DejaVuSans-30" transform="translate(63.623047 0)"/>
       <use xlink:href="#DejaVuSans-30" transform="translate(127.246094 0)"/>
       <use xlink:href="#DejaVuSans-30" transform="translate(190.869141 0)"/>
      </g>
     </g>
    </g>
    <g id="ytick_3">
     <g id="line2d_29">
      <g>
       <use xlink:href="#mb715955341" x="70.619" y="221.813989" style="stroke: #000000; stroke-width: 0.8"/>
      </g>
     </g>
     <g id="text_7">
      <!-- 3000 -->
      <g transform="translate(38.169 225.613208) scale(0.1 -0.1)">
       <use xlink:href="#DejaVuSans-33"/>
       <use xlink:href="#DejaVuSans-30" transform="translate(63.623047 0)"/>
       <use xlink:href="#DejaVuSans-30" transform="translate(127.246094 0)"/>
       <use xlink:href="#DejaVuSans-30" transform="translate(190.869141 0)"/>
      </g>
     </g>
    </g>
    <g id="ytick_4">
     <g id="line2d_30">
      <g>
       <use xlink:href="#mb715955341" x="70.619" y="165.353789" style="stroke: #000000; stroke-width: 0.8"/>
      </g>
     </g>
     <g id="text_8">
      <!-- 4000 -->
      <g transform="translate(38.169 169.153008) scale(0.1 -0.1)">
       <use xlink:href="#DejaVuSans-34"/>
       <use xlink:href="#DejaVuSans-30" transform="translate(63.623047 0)"/>
       <use xlink:href="#DejaVuSans-30" transform="translate(127.246094 0)"/>
       <use xlink:href="#DejaVuSans-30" transform="translate(190.869141 0)"/>
      </g>
     </g>
    </g>
    <g id="ytick_5">
     <g id="line2d_31">
      <g>
       <use xlink:href="#mb715955341" x="70.619" y="108.893589" style="stroke: #000000; stroke-width: 0.8"/>
      </g>
     </g>
     <g id="text_9">
      <!-- 5000 -->
      <g transform="translate(38.169 112.692808) scale(0.1 -0.1)">
       <use xlink:href="#DejaVuSans-35"/>
       <use xlink:href="#DejaVuSans-30" transform="translate(63.623047 0)"/>
       <use xlink:href="#DejaVuSans-30" transform="translate(127.246094 0)"/>
       <use xlink:href="#DejaVuSans-30" transform="translate(190.869141 0)"/>
      </g>
     </g>
    </g>
    <g id="ytick_6">
     <g id="line2d_32">
      <g>
       <use xlink:href="#mb715955341" x="70.619" y="52.433389" style="stroke: #000000; stroke-width: 0.8"/>
      </g>
     </g>
     <g id="text_10">
      <!-- 6000 -->
      <g transform="translate(38.169 56.232608) scale(0.1 -0.1)">
       <defs>
        <path id="DejaVuSans-36" d="M 2113 2584 
Q 1688 2584 1439 2293 
Q 1191 2003 1191 1497 
Q 1191 994 1439 701 
Q 1688 409 2113 409 
Q 2538 409 2786 701 
Q 3034 994 3034 1497 
Q 3034 2003 2786 2293 
Q 2538 2584 2113 2584 
z
M 3366 4563 
L 3366 3988 
Q 3128 4100 2886 4159 
Q 2644 4219 2406 4219 
Q 1781 4219 1451 3797 
Q 1122 3375 1075 2522 
Q 1259 2794 1537 2939 
Q 1816 3084 2150 3084 
Q 2853 3084 3261 2657 
Q 3669 2231 3669 1497 
Q 3669 778 3244 343 
Q 2819 -91 2113 -91 
Q 1303 -91 875 529 
Q 447 1150 447 2328 
Q 447 3434 972 4092 
Q 1497 4750 2381 4750 
Q 2619 4750 2861 4703 
Q 3103 4656 3366 4563 
z
" transform="scale(0.015625)"/>
       </defs>
       <use xlink:href="#DejaVuSans-36"/>
       <use xlink:href="#DejaVuSans-30" transform="translate(63.623047 0)"/>
       <use xlink:href="#DejaVuSans-30" transform="translate(127.246094 0)"/>
       <use xlink:href="#DejaVuSans-30" transform="translate(190.869141 0)"/>
      </g>
     </g>
    </g>
    <g id="text_11">
     <!-- coverage $\sum_i H_i T_i$ -->
     <g transform="translate(24.169 237.113375) rotate(-90) scale(0.1 -0.1)">
      <defs>
       <path id="DejaVuSans-63" d="M 3122 3366 
L 3122 2828 
Q 2878 2963 2633 3030 
Q 2388 3097 2138 3097 
Q 1578 3097 1268 2742 
Q 959 2388 959 1747 
Q 959 1106 1268 751 
Q 1578 397 2138 397 
Q 2388 397 2633 464 
Q 2878 531 3122 666 
L 3122 134 
Q 2881 22 2623 -34 
Q 2366 -91 2075 -91 
Q 1284 -91 818 406 
Q 353 903 353 1747 
Q 353 2603 823 3093 
Q 1294 3584 2113 3584 
Q 2378 3584 2631 3529 
Q 2884 3475 3122 3366 
z
" transform="scale(0.015625)"/>
       <path id="DejaVuSans-6f" d="M 1959 3097 
Q 1497 3097 1228 2736 
Q 959 2375 959 1747 
Q 959 1119 1226 758 
Q 1494 397 1959 397 
Q 2419 397 2687 759 
Q 2956 1122 2956 1747 
Q 2956 2369 2687 2733 
Q 2419 3097 1959 3097 
z
M 1959 3584 
Q 2709 3584 3137 3096 
Q 3566 2609 3566 1747 
Q 3566 888 3137 398 
Q 2709 -91 1959 -91 
Q 1206 -91 779 398 
Q 353 888 353 1747 
Q 353 2609 779 3096 
Q 1206 3584 1959 3584 
z
" transform="scale(0.015625)"/>
       <path id="DejaVuSans-76" d="M 191 3500 
L 800 3500 
L 1894 563 
L 2988 3500 
L 3597 3500 
L 2284 0 
L 1503 0 
L 191 3500 
z
" transform="scale(0.015625)"/>
       <path id="DejaVuSans-65" d="M 3597 1894 
L 3597 1613 
L 953 1613 
Q 991 1019 1311 708 
Q 1631 397 2203 397 
Q 2534 397 2845 478 
Q 3156 559 3463 722 
L 3463 178 
Q 3153 47 2828 -22 
Q 2503 -91 2169 -91 
Q 1331 -91 842 396 
Q 353 884 353 1716 
Q 353 2575 817 3079 
Q 1281 3584 2069 3584 
Q 2775 3584 3186 3129 
Q 3597 2675 3597 1894 
z
M 3022 2063 
Q 3016 2534 2758 2815 
Q 2500 3097 2075 3097 
Q 1594 3097 1305 2825 
Q 1016 2553 972 2059 
L 3022 2063 
z
" transform="scale(0.015625)"/>
       <path id="DejaVuSans-72" d="M 2631 2963 
Q 2534 3019 2420 3045 
Q 2306 3072 2169 3072 
Q 1681 3072 1420 2755 
Q 1159 2438 1159 1844 
L 1159 0 
L 581 0 
L 581 3500 
L 1159 3500 
L 1159 2956 
Q 1341 3275 1631 3429 
Q 1922 3584 2338 3584 
Q 2397 3584 2469 3576 
Q 2541 3569 2628 3553 
L 2631 2963 
z
" transform="scale(0.015625)"/>
       <path id="DejaVuSans-67" d="M 2906 1791 
Q 2906 2416 2648 2759 
Q 2391 3103 1925 3103 
Q 1463 3103 1205 2759 
Q 947 2416 947 1791 
Q 947 1169 1205 825 
Q 1463 481 1925 481 
Q 2391 481 2648 825 
Q 2906 1169 2906 1791 
z
M 3481 434 
Q 3481 -459 3084 -895 
Q 2688 -1331 1869 -1331 
Q 1566 -1331 1297 -1286 
Q 1028 -1241 775 -1147 
L 775 -588 
Q 1028 -725 1275 -790 
Q 1522 -856 1778 -856 
Q 2344 -856 2625 -561 
Q 2906 -266 2906 331 
L 2906 616 
Q 2728 306 2450 153 
Q 2172 0 1784 0 
Q 1141 0 747 490 
Q 353 981 353 1791 
Q 353 2603 747 3093 
Q 1141 3584 1784 3584 
Q 2172 3584 2450 3431 
Q 2728 3278 2906 2969 
L 2906 3500 
L 3481 3500 
L 3481 434 
z
" transform="scale(0.015625)"/>
       <path id="DejaVuSans-20" transform="scale(0.015625)"/>
       <path id="DejaVuSansDisplay-2211" d="M 244 6509 
L 5803 6509 
L 5803 5656 
L 1566 5656 
L 4534 2488 
L 1469 -888 
L 5919 -888 
L 5919 -1738 
L 109 -1738 
L 109 -1078 
L 3316 2463 
L 244 5728 
L 244 6509 
z
" transform="scale(0.015625)"/>
       <path id="DejaVuSans-Oblique-69" d="M 1172 4863 
L 1747 4863 
L 1606 4134 
L 1031 4134 
L 1172 4863 
z
M 909 3500 
L 1484 3500 
L 800 0 
L 225 0 
L 909 3500 
z
" transform="scale(0.015625)"/>
       <path id="DejaVuSans-Oblique-48" d="M 1081 4666 
L 1716 4666 
L 1344 2753 
L 3634 2753 
L 4006 4666 
L 4641 4666 
L 3731 0 
L 3097 0 
L 3531 2222 
L 1241 2222 
L 806 0 
L 172 0 
L 1081 4666 
z
" transform="scale(0.015625)"/>
       <path id="DejaVuSans-Oblique-54" d="M 378 4666 
L 4325 4666 
L 4225 4134 
L 2559 4134 
L 1759 0 
L 1125 0 
L 1925 4134 
L 275 4134 
L 378 4666 
z
" transform="scale(0.015625)"/>
      </defs>
      <use xlink:href="#DejaVuSans-63" transform="translate(0 0.296875)"/>
      <use xlink:href="#DejaVuSans-6f" transform="translate(54.980469 0.296875)"/>
      <use xlink:href="#DejaVuSans-76" transform="translate(116.162109 0.296875)"/>
      <use xlink:href="#DejaVuSans-65" transform="translate(175.341797 0.296875)"/>
      <use xlink:href="#DejaVuSans-72" transform="translate(236.865234 0.296875)"/>
      <use xlink:href="#DejaVuSans-61" transform="translate(277.978516 0.296875)"/>
      <use xlink:href="#DejaVuSans-67" transform="translate(339.257812 0.296875)"/>
      <use xlink:href="#DejaVuSans-65" transform="translate(402.734375 0.296875)"/>
      <use xlink:href="#DejaVuSans-20" transform="translate(464.257812 0.296875)"/>
      <use xlink:href="#DejaVuSansDisplay-2211" transform="translate(496.044922 0.296875)"/>
      <use xlink:href="#DejaVuSans-Oblique-69" transform="translate(533.044922 -98.798438) scale(0.7)"/>
      <use xlink:href="#DejaVuSans-Oblique-48" transform="translate(586.810547 0.296875)"/>
      <use xlink:href="#DejaVuSans-Oblique-69" transform="translate(662.005859 -16.109375) scale(0.7)"/>
      <use xlink:href="#DejaVuSans-Oblique-54" transform="translate(684.188477 0.296875)"/>
      <use xlink:href="#DejaVuSans-Oblique-69" transform="translate(745.272461 -16.109375) scale(0.7)"/>
     </g>
    </g>
   </g>
   <g id="line2d_33">
    <path d="M 78.729958 29.396534 
L 82.040553 28.391915 
L 85.351148 28.393616 
L 88.661743 27.883034 
L 91.972338 28.949156 
L 95.282933 28.703868 
L 98.593528 29.350151 
L 101.904124 29.10121 
L 105.214719 29.363315 
L 108.525314 28.911318 
L 111.835909 30.091796 
L 115.146504 30.300458 
L 118.457099 30.57502 
L 121.767694 31.011157 
L 125.078289 32.352969 
L 128.388884 32.919958 
L 131.699479 34.234221 
L 135.010074 35.03468 
L 138.320669 37.284149 
L 141.631264 39.587794 
L 144.94186 40.340906 
L 148.252455 43.313287 
L 151.56305 49.05714 
L 154.873645 54.372618 
L 158.18424 60.041916 
L 161.494835 67.192974 
L 164.80543 69.4159 
L 168.116025 78.6521 
L 171.42662 92.819705 
L 174.737215 102.131151 
L 178.04781 113.167893 
L 181.358405 126.208759 
L 184.669001 138.345762 
L 187.979596 154.954 
L 191.290191 165.740475 
L 194.600786 178.499928 
L 197.911381 197.91087 
L 201.221976 202.702664 
L 204.532571 219.432559 
L 207.843166 236.809806 
L 211.153761 240.984243 
L 214.464356 253.079904 
L 217.774951 262.892512 
L 221.085546 275.027914 
L 224.396142 282.454963 
L 227.706737 288.282275 
L 231.017332 294.684474 
L 234.327927 298.376419 
L 237.638522 303.820988 
L 240.949117 307.95767 
" clip-path="url(#p4c58b82b81)" style="fill: none; stroke: #440154; stroke-width: 2; stroke-linecap: square"/>
   </g>
   <g id="line2d_34">
    <path d="M 78.729958 49.655536 
L 82.040553 48.415177 
L 85.351148 48.538854 
L 88.661743 48.605091 
L 91.972338 49.94006 
L 95.282933 49.227425 
L 98.593528 49.751044 
L 101.904124 49.827424 
L 105.214719 49.459708 
L 108.525314 49.193578 
L 111.835909 49.98659 
L 115.146504 50.912426 
L 118.457099 50.966937 
L 121.767694 50.88195 
L 125.078289 52.457604 
L 128.388884 53.536207 
L 131.699479 54.156543 
L 135.010074 54.682752 
L 138.320669 57.098749 
L 141.631264 59.008411 
L 144.94186 59.934881 
L 148.252455 63.263072 
L 151.56305 68.290137 
L 154.873645 72.880491 
L 158.18424 78.479106 
L 161.494835 84.800799 
L 164.80543 87.084458 
L 168.116025 95.859007 
L 171.42662 109.385896 
L 174.737215 117.883997 
L 178.04781 128.454023 
L 181.358405 140.585709 
L 184.669001 152.08094 
L 187.979596 167.764109 
L 191.290191 177.858108 
L 194.600786 189.972616 
L 197.911381 208.160344 
L 201.221976 212.700759 
L 204.532571 228.556281 
L 207.843166 244.951429 
L 211.153761 248.781342 
L 214.464356 260.291853 
L 217.774951 269.484245 
L 221.085546 280.96267 
L 224.396142 288.000008 
L 227.706737 293.520858 
L 231.017332 299.603202 
L 234.327927 303.056828 
L 237.638522 308.178688 
L 240.949117 312.02134 
" clip-path="url(#p4c58b82b81)" style="fill: none; stroke: #481a6c; stroke-width: 2; stroke-linecap: square"/>
   </g>
   <g id="line2d_35">
    <path d="M 78.729958 99.597247 
L 82.040553 99.708585 
L 85.351148 99.195001 
L 88.661743 99.359917 
L 91.972338 100.756205 
L 95.282933 100.177998 
L 98.593528 100.192457 
L 101.904124 101.079912 
L 105.214719 100.091375 
L 108.525314 99.934467 
L 111.835909 100.771366 
L 115.146504 100.989813 
L 118.457099 101.266303 
L 121.767694 101.016626 
L 125.078289 102.39937 
L 128.388884 102.654727 
L 131.699479 103.688792 
L 135.010074 104.683594 
L 138.320669 106.40777 
L 141.631264 107.460384 
L 144.94186 108.080915 
L 148.252455 111.152681 
L 151.56305 115.429805 
L 154.873645 119.272751 
L 158.18424 123.867313 
L 161.494835 129.436314 
L 164.80543 130.927062 
L 168.116025 138.503401 
L 171.42662 149.336589 
L 174.737215 157.085369 
L 178.04781 166.164574 
L 181.358405 176.269246 
L 184.669001 185.570459 
L 187.979596 199.132127 
L 191.290191 207.742744 
L 194.600786 218.094286 
L 197.911381 233.206196 
L 201.221976 237.334445 
L 204.532571 250.826349 
L 207.843166 264.924049 
L 211.153761 268.310914 
L 214.464356 278.122905 
L 217.774951 285.949768 
L 221.085546 295.696293 
L 224.396142 301.699849 
L 227.706737 306.498368 
L 231.017332 311.720692 
L 234.327927 314.638939 
L 237.638522 318.824524 
L 240.949117 322.226151 
" clip-path="url(#p4c58b82b81)" style="fill: none; stroke: #3d4d8a; stroke-width: 2; stroke-linecap: square"/>
   </g>
   <g id="line2d_36">
    <path d="M 78.729958 180.975229 
L 82.040553 180.825699 
L 85.351148 180.179853 
L 88.661743 181.146161 
L 91.972338 181.909287 
L 95.282933 181.768939 
L 98.593528 181.027393 
L 101.904124 182.728237 
L 105.214719 181.695042 
L 108.525314 181.591165 
L 111.835909 181.479443 
L 115.146504 182.128611 
L 118.457099 181.492167 
L 121.767694 182.110575 
L 125.078289 182.471732 
L 128.388884 182.597121 
L 131.699479 183.309687 
L 135.010074 183.269869 
L 138.320669 185.4526 
L 141.631264 185.766291 
L 144.94186 186.429659 
L 148.252455 187.934777 
L 151.56305 190.644513 
L 154.873645 194.115218 
L 158.18424 196.202293 
L 161.494835 200.255965 
L 164.80543 201.557048 
L 168.116025 206.293249 
L 171.42662 214.328936 
L 174.737215 219.414484 
L 178.04781 225.727528 
L 181.358405 232.911802 
L 184.669001 239.650663 
L 187.979596 249.666688 
L 191.290191 255.77915 
L 194.600786 263.065989 
L 197.911381 274.191561 
L 201.221976 276.865445 
L 204.532571 286.782554 
L 207.843166 296.853919 
L 211.153761 299.297799 
L 214.464356 306.575053 
L 217.774951 312.233631 
L 221.085546 319.337814 
L 224.396142 323.750189 
L 227.706737 327.346361 
L 231.017332 331.216548 
L 234.327927 333.158697 
L 237.638522 336.192041 
L 240.949117 338.689836 
" clip-path="url(#p4c58b82b81)" style="fill: none; stroke: #21918c; stroke-width: 2; stroke-linecap: square"/>
   </g>
   <g id="line2d_37">
    <path d="M 78.729958 251.704921 
L 82.040553 252.128614 
L 85.351148 251.627948 
L 88.661743 252.174301 
L 91.972338 252.120126 
L 95.282933 252.482795 
L 98.593528 251.357065 
L 101.904124 252.524008 
L 105.214719 252.46869 
L 108.525314 252.100879 
L 111.835909 251.695953 
L 115.146504 252.244561 
L 118.457099 251.497486 
L 121.767694 252.268479 
L 125.078289 251.973271 
L 128.388884 252.067364 
L 131.699479 252.18917 
L 135.010074 252.097441 
L 138.320669 253.92216 
L 141.631264 253.535809 
L 144.94186 253.96661 
L 148.252455 254.15127 
L 151.56305 255.832903 
L 154.873645 258.219037 
L 158.18424 259.554426 
L 161.494835 262.232728 
L 164.80543 262.916732 
L 168.116025 265.714806 
L 171.42662 270.737548 
L 174.737215 274.287005 
L 178.04781 277.659683 
L 181.358405 282.329761 
L 184.669001 286.797146 
L 187.979596 293.753856 
L 191.290191 297.49999 
L 194.600786 302.302751 
L 197.911381 309.611299 
L 201.221976 311.396421 
L 204.532571 318.147079 
L 207.843166 324.847805 
L 211.153761 326.588367 
L 214.464356 331.506465 
L 217.774951 335.288292 
L 221.085546 340.068814 
L 224.396142 343.092412 
L 227.706737 345.522873 
L 231.017332 348.053486 
L 234.327927 349.264004 
L 237.638522 351.452974 
L 240.949117 353.005964 
" clip-path="url(#p4c58b82b81)" style="fill: none; stroke: #54c568; stroke-width: 2; stroke-linecap: square"/>
   </g>
   <g id="line2d_38">
    <path d="M 78.729958 332.601103 
L 82.040553 333.394697 
L 85.351148 333.492226 
L 88.661743 333.592079 
L 91.972338 332.799638 
L 95.282933 333.298747 
L 98.593528 332.843781 
L 101.904124 332.902982 
L 105.214719 333.043018 
L 108.525314 333.281628 
L 111.835909 332.083951 
L 115.146504 332.07264 
L 118.457099 332.063187 
L 121.767694 332.151057 
L 125.078289 331.829416 
L 128.388884 331.451272 
L 131.699479 331.341852 
L 135.010074 331.096078 
L 138.320669 331.479188 
L 141.631264 330.732315 
L 144.94186 330.869573 
L 148.252455 330.660337 
L 151.56305 330.859892 
L 154.873645 331.503086 
L 158.18424 331.710138 
L 161.494835 332.544262 
L 164.80543 332.265959 
L 168.116025 333.622734 
L 171.42662 334.987084 
L 174.737215 336.075448 
L 178.04781 337.528814 
L 181.358405 339.169075 
L 184.669001 341.092354 
L 187.979596 343.725581 
L 191.290191 345.271971 
L 194.600786 347.332872 
L 197.911381 350.486327 
L 201.221976 351.154916 
L 204.532571 354.096545 
L 207.843166 357.06168 
L 211.153761 357.614586 
L 214.464356 359.888744 
L 217.774951 361.641637 
L 221.085546 363.738409 
L 224.396142 365.100314 
L 227.706737 366.239617 
L 231.017332 367.318242 
L 234.327927 367.889161 
L 237.638522 368.794006 
L 240.949117 369.543716 
" clip-path="url(#p4c58b82b81)" style="fill: none; stroke: #fde725; stroke-width: 2; stroke-linecap: square"/>
   </g>
   <g id="patch_3">
    <path d="M 70.619 386.62675 
L 70.619 10.8 
" style="fill: none; stroke: #000000; stroke-width: 0.8; stroke-linejoin: miter; stroke-linecap: square"/>
   </g>
   <g id="patch_4">
    <path d="M 249.060075 386.62675 
L 249.060075 10.8 
" style="fill: none; stroke: #000000; stroke-width: 0.8; stroke-linejoin: miter; stroke-linecap: square"/>
   </g>
   <g id="patch_5">
    <path d="M 70.619 386.62675 
L 249.060075 386.62675 
" style="fill: none; stroke: #000000; stroke-width: 0.8; stroke-linejoin: miter; stroke-linecap: square"/>
   </g>
   <g id="patch_6">
    <path d="M 70.619 10.8 
L 249.060075 10.8 
" style="fill: none; stroke: #000000; stroke-width: 0.8; stroke-linejoin: miter; stroke-linecap: square"/>
   </g>
   <g id="legend_1">
    <g id="patch_7">
     <path d="M 121.449137 106.86875 
L 242.060075 106.86875 
Q 244.060075 106.86875 244.060075 104.86875 
L 244.060075 17.8 
Q 244.060075 15.8 242.060075 15.8 
L 121.449137 15.8 
Q 119.449137 15.8 119.449137 17.8 
L 119.449137 104.86875 
Q 119.449137 106.86875 121.449137 106.86875 
z
" style="fill: #ffffff; opacity: 0.8; stroke: #cccccc; stroke-linejoin: miter"/>
    </g>
    <g id="line2d_39">
     <path d="M 123.449137 23.898438 
L 133.449137 23.898438 
L 143.449137 23.898438 
" style="fill: none; stroke: #440154; stroke-width: 2; stroke-linecap: square"/>
    </g>
    <g id="text_12">
     <!-- N mutations = 0 -->
     <g transform="translate(151.449137 27.398438) scale(0.1 -0.1)">
      <defs>
       <path id="DejaVuSans-4e" d="M 628 4666 
L 1478 4666 
L 3547 763 
L 3547 4666 
L 4159 4666 
L 4159 0 
L 3309 0 
L 1241 3903 
L 1241 0 
L 628 0 
L 628 4666 
z
" transform="scale(0.015625)"/>
       <path id="DejaVuSans-6d" d="M 3328 2828 
Q 3544 3216 3844 3400 
Q 4144 3584 4550 3584 
Q 5097 3584 5394 3201 
Q 5691 2819 5691 2113 
L 5691 0 
L 5113 0 
L 5113 2094 
Q 5113 2597 4934 2840 
Q 4756 3084 4391 3084 
Q 3944 3084 3684 2787 
Q 3425 2491 3425 1978 
L 3425 0 
L 2847 0 
L 2847 2094 
Q 2847 2600 2669 2842 
Q 2491 3084 2119 3084 
Q 1678 3084 1418 2786 
Q 1159 2488 1159 1978 
L 1159 0 
L 581 0 
L 581 3500 
L 1159 3500 
L 1159 2956 
Q 1356 3278 1631 3431 
Q 1906 3584 2284 3584 
Q 2666 3584 2933 3390 
Q 3200 3197 3328 2828 
z
" transform="scale(0.015625)"/>
       <path id="DejaVuSans-75" d="M 544 1381 
L 544 3500 
L 1119 3500 
L 1119 1403 
Q 1119 906 1312 657 
Q 1506 409 1894 409 
Q 2359 409 2629 706 
Q 2900 1003 2900 1516 
L 2900 3500 
L 3475 3500 
L 3475 0 
L 2900 0 
L 2900 538 
Q 2691 219 2414 64 
Q 2138 -91 1772 -91 
Q 1169 -91 856 284 
Q 544 659 544 1381 
z
M 1991 3584 
L 1991 3584 
z
" transform="scale(0.015625)"/>
       <path id="DejaVuSans-74" d="M 1172 4494 
L 1172 3500 
L 2356 3500 
L 2356 3053 
L 1172 3053 
L 1172 1153 
Q 1172 725 1289 603 
Q 1406 481 1766 481 
L 2356 481 
L 2356 0 
L 1766 0 
Q 1100 0 847 248 
Q 594 497 594 1153 
L 594 3053 
L 172 3053 
L 172 3500 
L 594 3500 
L 594 4494 
L 1172 4494 
z
" transform="scale(0.015625)"/>
       <path id="DejaVuSans-69" d="M 603 3500 
L 1178 3500 
L 1178 0 
L 603 0 
L 603 3500 
z
M 603 4863 
L 1178 4863 
L 1178 4134 
L 603 4134 
L 603 4863 
z
" transform="scale(0.015625)"/>
       <path id="DejaVuSans-6e" d="M 3513 2113 
L 3513 0 
L 2938 0 
L 2938 2094 
Q 2938 2591 2744 2837 
Q 2550 3084 2163 3084 
Q 1697 3084 1428 2787 
Q 1159 2491 1159 1978 
L 1159 0 
L 581 0 
L 581 3500 
L 1159 3500 
L 1159 2956 
Q 1366 3272 1645 3428 
Q 1925 3584 2291 3584 
Q 2894 3584 3203 3211 
Q 3513 2838 3513 2113 
z
" transform="scale(0.015625)"/>
       <path id="DejaVuSans-73" d="M 2834 3397 
L 2834 2853 
Q 2591 2978 2328 3040 
Q 2066 3103 1784 3103 
Q 1356 3103 1142 2972 
Q 928 2841 928 2578 
Q 928 2378 1081 2264 
Q 1234 2150 1697 2047 
L 1894 2003 
Q 2506 1872 2764 1633 
Q 3022 1394 3022 966 
Q 3022 478 2636 193 
Q 2250 -91 1575 -91 
Q 1294 -91 989 -36 
Q 684 19 347 128 
L 347 722 
Q 666 556 975 473 
Q 1284 391 1588 391 
Q 1994 391 2212 530 
Q 2431 669 2431 922 
Q 2431 1156 2273 1281 
Q 2116 1406 1581 1522 
L 1381 1569 
Q 847 1681 609 1914 
Q 372 2147 372 2553 
Q 372 3047 722 3315 
Q 1072 3584 1716 3584 
Q 2034 3584 2315 3537 
Q 2597 3491 2834 3397 
z
" transform="scale(0.015625)"/>
       <path id="DejaVuSans-3d" d="M 678 2906 
L 4684 2906 
L 4684 2381 
L 678 2381 
L 678 2906 
z
M 678 1631 
L 4684 1631 
L 4684 1100 
L 678 1100 
L 678 1631 
z
" transform="scale(0.015625)"/>
      </defs>
      <use xlink:href="#DejaVuSans-4e"/>
      <use xlink:href="#DejaVuSans-20" transform="translate(74.804688 0)"/>
      <use xlink:href="#DejaVuSans-6d" transform="translate(106.591797 0)"/>
      <use xlink:href="#DejaVuSans-75" transform="translate(204.003906 0)"/>
      <use xlink:href="#DejaVuSans-74" transform="translate(267.382812 0)"/>
      <use xlink:href="#DejaVuSans-61" transform="translate(306.591797 0)"/>
      <use xlink:href="#DejaVuSans-74" transform="translate(367.871094 0)"/>
      <use xlink:href="#DejaVuSans-69" transform="translate(407.080078 0)"/>
      <use xlink:href="#DejaVuSans-6f" transform="translate(434.863281 0)"/>
      <use xlink:href="#DejaVuSans-6e" transform="translate(496.044922 0)"/>
      <use xlink:href="#DejaVuSans-73" transform="translate(559.423828 0)"/>
      <use xlink:href="#DejaVuSans-20" transform="translate(611.523438 0)"/>
      <use xlink:href="#DejaVuSans-3d" transform="translate(643.310547 0)"/>
      <use xlink:href="#DejaVuSans-20" transform="translate(727.099609 0)"/>
      <use xlink:href="#DejaVuSans-30" transform="translate(758.886719 0)"/>
     </g>
    </g>
    <g id="line2d_40">
     <path d="M 123.449137 38.576563 
L 133.449137 38.576563 
L 143.449137 38.576563 
" style="fill: none; stroke: #481a6c; stroke-width: 2; stroke-linecap: square"/>
    </g>
    <g id="text_13">
     <!-- N mutations = 2 -->
     <g transform="translate(151.449137 42.076563) scale(0.1 -0.1)">
      <use xlink:href="#DejaVuSans-4e"/>
      <use xlink:href="#DejaVuSans-20" transform="translate(74.804688 0)"/>
      <use xlink:href="#DejaVuSans-6d" transform="translate(106.591797 0)"/>
      <use xlink:href="#DejaVuSans-75" transform="translate(204.003906 0)"/>
      <use xlink:href="#DejaVuSans-74" transform="translate(267.382812 0)"/>
      <use xlink:href="#DejaVuSans-61" transform="translate(306.591797 0)"/>
      <use xlink:href="#DejaVuSans-74" transform="translate(367.871094 0)"/>
      <use xlink:href="#DejaVuSans-69" transform="translate(407.080078 0)"/>
      <use xlink:href="#DejaVuSans-6f" transform="translate(434.863281 0)"/>
      <use xlink:href="#DejaVuSans-6e" transform="translate(496.044922 0)"/>
      <use xlink:href="#DejaVuSans-73" transform="translate(559.423828 0)"/>
      <use xlink:href="#DejaVuSans-20" transform="translate(611.523438 0)"/>
      <use xlink:href="#DejaVuSans-3d" transform="translate(643.310547 0)"/>
      <use xlink:href="#DejaVuSans-20" transform="translate(727.099609 0)"/>
      <use xlink:href="#DejaVuSans-32" transform="translate(758.886719 0)"/>
     </g>
    </g>
    <g id="line2d_41">
     <path d="M 123.449137 53.254687 
L 133.449137 53.254687 
L 143.449137 53.254687 
" style="fill: none; stroke: #3d4d8a; stroke-width: 2; stroke-linecap: square"/>
    </g>
    <g id="text_14">
     <!-- N mutations = 7 -->
     <g transform="translate(151.449137 56.754687) scale(0.1 -0.1)">
      <defs>
       <path id="DejaVuSans-37" d="M 525 4666 
L 3525 4666 
L 3525 4397 
L 1831 0 
L 1172 0 
L 2766 4134 
L 525 4134 
L 525 4666 
z
" transform="scale(0.015625)"/>
      </defs>
      <use xlink:href="#DejaVuSans-4e"/>
      <use xlink:href="#DejaVuSans-20" transform="translate(74.804688 0)"/>
      <use xlink:href="#DejaVuSans-6d" transform="translate(106.591797 0)"/>
      <use xlink:href="#DejaVuSans-75" transform="translate(204.003906 0)"/>
      <use xlink:href="#DejaVuSans-74" transform="translate(267.382812 0)"/>
      <use xlink:href="#DejaVuSans-61" transform="translate(306.591797 0)"/>
      <use xlink:href="#DejaVuSans-74" transform="translate(367.871094 0)"/>
      <use xlink:href="#DejaVuSans-69" transform="translate(407.080078 0)"/>
      <use xlink:href="#DejaVuSans-6f" transform="translate(434.863281 0)"/>
      <use xlink:href="#DejaVuSans-6e" transform="translate(496.044922 0)"/>
      <use xlink:href="#DejaVuSans-73" transform="translate(559.423828 0)"/>
      <use xlink:href="#DejaVuSans-20" transform="translate(611.523438 0)"/>
      <use xlink:href="#DejaVuSans-3d" transform="translate(643.310547 0)"/>
      <use xlink:href="#DejaVuSans-20" transform="translate(727.099609 0)"/>
      <use xlink:href="#DejaVuSans-37" transform="translate(758.886719 0)"/>
     </g>
    </g>
    <g id="line2d_42">
     <path d="M 123.449137 67.932813 
L 133.449137 67.932813 
L 143.449137 67.932813 
" style="fill: none; stroke: #21918c; stroke-width: 2; stroke-linecap: square"/>
    </g>
    <g id="text_15">
     <!-- N mutations = 15 -->
     <g transform="translate(151.449137 71.432813) scale(0.1 -0.1)">
      <use xlink:href="#DejaVuSans-4e"/>
      <use xlink:href="#DejaVuSans-20" transform="translate(74.804688 0)"/>
      <use xlink:href="#DejaVuSans-6d" transform="translate(106.591797 0)"/>
      <use xlink:href="#DejaVuSans-75" transform="translate(204.003906 0)"/>
      <use xlink:href="#DejaVuSans-74" transform="translate(267.382812 0)"/>
      <use xlink:href="#DejaVuSans-61" transform="translate(306.591797 0)"/>
      <use xlink:href="#DejaVuSans-74" transform="translate(367.871094 0)"/>
      <use xlink:href="#DejaVuSans-69" transform="translate(407.080078 0)"/>
      <use xlink:href="#DejaVuSans-6f" transform="translate(434.863281 0)"/>
      <use xlink:href="#DejaVuSans-6e" transform="translate(496.044922 0)"/>
      <use xlink:href="#DejaVuSans-73" transform="translate(559.423828 0)"/>
      <use xlink:href="#DejaVuSans-20" transform="translate(611.523438 0)"/>
      <use xlink:href="#DejaVuSans-3d" transform="translate(643.310547 0)"/>
      <use xlink:href="#DejaVuSans-20" transform="translate(727.099609 0)"/>
      <use xlink:href="#DejaVuSans-31" transform="translate(758.886719 0)"/>
      <use xlink:href="#DejaVuSans-35" transform="translate(822.509766 0)"/>
     </g>
    </g>
    <g id="line2d_43">
     <path d="M 123.449137 82.610937 
L 133.449137 82.610937 
L 143.449137 82.610937 
" style="fill: none; stroke: #54c568; stroke-width: 2; stroke-linecap: square"/>
    </g>
    <g id="text_16">
     <!-- N mutations = 22 -->
     <g transform="translate(151.449137 86.110937) scale(0.1 -0.1)">
      <use xlink:href="#DejaVuSans-4e"/>
      <use xlink:href="#DejaVuSans-20" transform="translate(74.804688 0)"/>
      <use xlink:href="#DejaVuSans-6d" transform="translate(106.591797 0)"/>
      <use xlink:href="#DejaVuSans-75" transform="translate(204.003906 0)"/>
      <use xlink:href="#DejaVuSans-74" transform="translate(267.382812 0)"/>
      <use xlink:href="#DejaVuSans-61" transform="translate(306.591797 0)"/>
      <use xlink:href="#DejaVuSans-74" transform="translate(367.871094 0)"/>
      <use xlink:href="#DejaVuSans-69" transform="translate(407.080078 0)"/>
      <use xlink:href="#DejaVuSans-6f" transform="translate(434.863281 0)"/>
      <use xlink:href="#DejaVuSans-6e" transform="translate(496.044922 0)"/>
      <use xlink:href="#DejaVuSans-73" transform="translate(559.423828 0)"/>
      <use xlink:href="#DejaVuSans-20" transform="translate(611.523438 0)"/>
      <use xlink:href="#DejaVuSans-3d" transform="translate(643.310547 0)"/>
      <use xlink:href="#DejaVuSans-20" transform="translate(727.099609 0)"/>
      <use xlink:href="#DejaVuSans-32" transform="translate(758.886719 0)"/>
      <use xlink:href="#DejaVuSans-32" transform="translate(822.509766 0)"/>
     </g>
    </g>
    <g id="line2d_44">
     <path d="M 123.449137 97.289062 
L 133.449137 97.289062 
L 143.449137 97.289062 
" style="fill: none; stroke: #fde725; stroke-width: 2; stroke-linecap: square"/>
    </g>
    <g id="text_17">
     <!-- N mutations = 30 -->
     <g transform="translate(151.449137 100.789062) scale(0.1 -0.1)">
      <use xlink:href="#DejaVuSans-4e"/>
      <use xlink:href="#DejaVuSans-20" transform="translate(74.804688 0)"/>
      <use xlink:href="#DejaVuSans-6d" transform="translate(106.591797 0)"/>
      <use xlink:href="#DejaVuSans-75" transform="translate(204.003906 0)"/>
      <use xlink:href="#DejaVuSans-74" transform="translate(267.382812 0)"/>
      <use xlink:href="#DejaVuSans-61" transform="translate(306.591797 0)"/>
      <use xlink:href="#DejaVuSans-74" transform="translate(367.871094 0)"/>
      <use xlink:href="#DejaVuSans-69" transform="translate(407.080078 0)"/>
      <use xlink:href="#DejaVuSans-6f" transform="translate(434.863281 0)"/>
      <use xlink:href="#DejaVuSans-6e" transform="translate(496.044922 0)"/>
      <use xlink:href="#DejaVuSans-73" transform="translate(559.423828 0)"/>
      <use xlink:href="#DejaVuSans-20" transform="translate(611.523438 0)"/>
      <use xlink:href="#DejaVuSans-3d" transform="translate(643.310547 0)"/>
      <use xlink:href="#DejaVuSans-20" transform="translate(727.099609 0)"/>
      <use xlink:href="#DejaVuSans-33" transform="translate(758.886719 0)"/>
      <use xlink:href="#DejaVuSans-30" transform="translate(822.509766 0)"/>
     </g>
    </g>
   </g>
  </g>
  <g id="axes_2">
   <g id="patch_8">
    <path d="M 310.829 386.62675 
L 489.270075 386.62675 
L 489.270075 10.8 
L 310.829 10.8 
z
" style="fill: #ffffff"/>
   </g>
   <g id="matplotlib.axis_3">
    <g id="xtick_27">
     <g id="line2d_45">
      <g>
       <use xlink:href="#m8b831c29a9" x="351.38379" y="386.62675" style="stroke: #000000; stroke-width: 0.8"/>
      </g>
     </g>
     <g id="text_18">
      <!-- $\mathdefault{10^{-5}}$ -->
      <g transform="translate(339.63379 401.225188) scale(0.1 -0.1)">
       <use xlink:href="#DejaVuSans-31" transform="translate(0 0.684375)"/>
       <use xlink:href="#DejaVuSans-30" transform="translate(63.623047 0.684375)"/>
       <use xlink:href="#DejaVuSans-2212" transform="translate(128.203125 38.965625) scale(0.7)"/>
       <use xlink:href="#DejaVuSans-35" transform="translate(186.855469 38.965625) scale(0.7)"/>
      </g>
     </g>
    </g>
    <g id="xtick_28">
     <g id="line2d_46">
      <g>
       <use xlink:href="#m8b831c29a9" x="416.271453" y="386.62675" style="stroke: #000000; stroke-width: 0.8"/>
      </g>
     </g>
     <g id="text_19">
      <!-- $\mathdefault{10^{-4}}$ -->
      <g transform="translate(404.521453 401.225188) scale(0.1 -0.1)">
       <use xlink:href="#DejaVuSans-31" transform="translate(0 0.684375)"/>
       <use xlink:href="#DejaVuSans-30" transform="translate(63.623047 0.684375)"/>
       <use xlink:href="#DejaVuSans-2212" transform="translate(128.203125 38.965625) scale(0.7)"/>
       <use xlink:href="#DejaVuSans-34" transform="translate(186.855469 38.965625) scale(0.7)"/>
      </g>
     </g>
    </g>
    <g id="xtick_29">
     <g id="line2d_47">
      <g>
       <use xlink:href="#m8b831c29a9" x="481.159117" y="386.62675" style="stroke: #000000; stroke-width: 0.8"/>
      </g>
     </g>
     <g id="text_20">
      <!-- $\mathdefault{10^{-3}}$ -->
      <g transform="translate(469.409117 401.225188) scale(0.1 -0.1)">
       <use xlink:href="#DejaVuSans-31" transform="translate(0 0.765625)"/>
       <use xlink:href="#DejaVuSans-30" transform="translate(63.623047 0.765625)"/>
       <use xlink:href="#DejaVuSans-2212" transform="translate(128.203125 39.046875) scale(0.7)"/>
       <use xlink:href="#DejaVuSans-33" transform="translate(186.855469 39.046875) scale(0.7)"/>
      </g>
     </g>
    </g>
    <g id="xtick_30">
     <g id="line2d_48">
      <g>
       <use xlink:href="#mf7346437a2" x="317.45541" y="386.62675" style="stroke: #000000; stroke-width: 0.6"/>
      </g>
     </g>
    </g>
    <g id="xtick_31">
     <g id="line2d_49">
      <g>
       <use xlink:href="#mf7346437a2" x="325.562392" y="386.62675" style="stroke: #000000; stroke-width: 0.6"/>
      </g>
     </g>
    </g>
    <g id="xtick_32">
     <g id="line2d_50">
      <g>
       <use xlink:href="#mf7346437a2" x="331.850657" y="386.62675" style="stroke: #000000; stroke-width: 0.6"/>
      </g>
     </g>
    </g>
    <g id="xtick_33">
     <g id="line2d_51">
      <g>
       <use xlink:href="#mf7346437a2" x="336.988543" y="386.62675" style="stroke: #000000; stroke-width: 0.6"/>
      </g>
     </g>
    </g>
    <g id="xtick_34">
     <g id="line2d_52">
      <g>
       <use xlink:href="#mf7346437a2" x="341.332563" y="386.62675" style="stroke: #000000; stroke-width: 0.6"/>
      </g>
     </g>
    </g>
    <g id="xtick_35">
     <g id="line2d_53">
      <g>
       <use xlink:href="#mf7346437a2" x="345.095525" y="386.62675" style="stroke: #000000; stroke-width: 0.6"/>
      </g>
     </g>
    </g>
    <g id="xtick_36">
     <g id="line2d_54">
      <g>
       <use xlink:href="#mf7346437a2" x="348.414693" y="386.62675" style="stroke: #000000; stroke-width: 0.6"/>
      </g>
     </g>
    </g>
    <g id="xtick_37">
     <g id="line2d_55">
      <g>
       <use xlink:href="#mf7346437a2" x="370.916923" y="386.62675" style="stroke: #000000; stroke-width: 0.6"/>
      </g>
     </g>
    </g>
    <g id="xtick_38">
     <g id="line2d_56">
      <g>
       <use xlink:href="#mf7346437a2" x="382.343073" y="386.62675" style="stroke: #000000; stroke-width: 0.6"/>
      </g>
     </g>
    </g>
    <g id="xtick_39">
     <g id="line2d_57">
      <g>
       <use xlink:href="#mf7346437a2" x="390.450056" y="386.62675" style="stroke: #000000; stroke-width: 0.6"/>
      </g>
     </g>
    </g>
    <g id="xtick_40">
     <g id="line2d_58">
      <g>
       <use xlink:href="#mf7346437a2" x="396.73832" y="386.62675" style="stroke: #000000; stroke-width: 0.6"/>
      </g>
     </g>
    </g>
    <g id="xtick_41">
     <g id="line2d_59">
      <g>
       <use xlink:href="#mf7346437a2" x="401.876206" y="386.62675" style="stroke: #000000; stroke-width: 0.6"/>
      </g>
     </g>
    </g>
    <g id="xtick_42">
     <g id="line2d_60">
      <g>
       <use xlink:href="#mf7346437a2" x="406.220227" y="386.62675" style="stroke: #000000; stroke-width: 0.6"/>
      </g>
     </g>
    </g>
    <g id="xtick_43">
     <g id="line2d_61">
      <g>
       <use xlink:href="#mf7346437a2" x="409.983189" y="386.62675" style="stroke: #000000; stroke-width: 0.6"/>
      </g>
     </g>
    </g>
    <g id="xtick_44">
     <g id="line2d_62">
      <g>
       <use xlink:href="#mf7346437a2" x="413.302357" y="386.62675" style="stroke: #000000; stroke-width: 0.6"/>
      </g>
     </g>
    </g>
    <g id="xtick_45">
     <g id="line2d_63">
      <g>
       <use xlink:href="#mf7346437a2" x="435.804586" y="386.62675" style="stroke: #000000; stroke-width: 0.6"/>
      </g>
     </g>
    </g>
    <g id="xtick_46">
     <g id="line2d_64">
      <g>
       <use xlink:href="#mf7346437a2" x="447.230737" y="386.62675" style="stroke: #000000; stroke-width: 0.6"/>
      </g>
     </g>
    </g>
    <g id="xtick_47">
     <g id="line2d_65">
      <g>
       <use xlink:href="#mf7346437a2" x="455.33772" y="386.62675" style="stroke: #000000; stroke-width: 0.6"/>
      </g>
     </g>
    </g>
    <g id="xtick_48">
     <g id="line2d_66">
      <g>
       <use xlink:href="#mf7346437a2" x="461.625984" y="386.62675" style="stroke: #000000; stroke-width: 0.6"/>
      </g>
     </g>
    </g>
    <g id="xtick_49">
     <g id="line2d_67">
      <g>
       <use xlink:href="#mf7346437a2" x="466.76387" y="386.62675" style="stroke: #000000; stroke-width: 0.6"/>
      </g>
     </g>
    </g>
    <g id="xtick_50">
     <g id="line2d_68">
      <g>
       <use xlink:href="#mf7346437a2" x="471.107891" y="386.62675" style="stroke: #000000; stroke-width: 0.6"/>
      </g>
     </g>
    </g>
    <g id="xtick_51">
     <g id="line2d_69">
      <g>
       <use xlink:href="#mf7346437a2" x="474.870853" y="386.62675" style="stroke: #000000; stroke-width: 0.6"/>
      </g>
     </g>
    </g>
    <g id="xtick_52">
     <g id="line2d_70">
      <g>
       <use xlink:href="#mf7346437a2" x="478.19002" y="386.62675" style="stroke: #000000; stroke-width: 0.6"/>
      </g>
     </g>
    </g>
    <g id="text_21">
     <!-- alpha_0 -->
     <g transform="translate(380.508131 414.903313) scale(0.1 -0.1)">
      <use xlink:href="#DejaVuSans-61"/>
      <use xlink:href="#DejaVuSans-6c" transform="translate(61.279297 0)"/>
      <use xlink:href="#DejaVuSans-70" transform="translate(89.0625 0)"/>
      <use xlink:href="#DejaVuSans-68" transform="translate(152.539062 0)"/>
      <use xlink:href="#DejaVuSans-61" transform="translate(215.917969 0)"/>
      <use xlink:href="#DejaVuSans-5f" transform="translate(277.197266 0)"/>
      <use xlink:href="#DejaVuSans-30" transform="translate(327.197266 0)"/>
     </g>
    </g>
   </g>
   <g id="matplotlib.axis_4">
    <g id="ytick_7">
     <g id="line2d_71">
      <g>
       <use xlink:href="#mb715955341" x="310.829" y="355.507782" style="stroke: #000000; stroke-width: 0.8"/>
      </g>
     </g>
     <g id="text_22">
      <!-- 5 -->
      <g transform="translate(297.4665 359.307001) scale(0.1 -0.1)">
       <use xlink:href="#DejaVuSans-35"/>
      </g>
     </g>
    </g>
    <g id="ytick_8">
     <g id="line2d_72">
      <g>
       <use xlink:href="#mb715955341" x="310.829" y="277.110578" style="stroke: #000000; stroke-width: 0.8"/>
      </g>
     </g>
     <g id="text_23">
      <!-- 10 -->
      <g transform="translate(291.104 280.909797) scale(0.1 -0.1)">
       <use xlink:href="#DejaVuSans-31"/>
       <use xlink:href="#DejaVuSans-30" transform="translate(63.623047 0)"/>
      </g>
     </g>
    </g>
    <g id="ytick_9">
     <g id="line2d_73">
      <g>
       <use xlink:href="#mb715955341" x="310.829" y="198.713375" style="stroke: #000000; stroke-width: 0.8"/>
      </g>
     </g>
     <g id="text_24">
      <!-- 15 -->
      <g transform="translate(291.104 202.512594) scale(0.1 -0.1)">
       <use xlink:href="#DejaVuSans-31"/>
       <use xlink:href="#DejaVuSans-35" transform="translate(63.623047 0)"/>
      </g>
     </g>
    </g>
    <g id="ytick_10">
     <g id="line2d_74">
      <g>
       <use xlink:href="#mb715955341" x="310.829" y="120.316172" style="stroke: #000000; stroke-width: 0.8"/>
      </g>
     </g>
     <g id="text_25">
      <!-- 20 -->
      <g transform="translate(291.104 124.11539) scale(0.1 -0.1)">
       <use xlink:href="#DejaVuSans-32"/>
       <use xlink:href="#DejaVuSans-30" transform="translate(63.623047 0)"/>
      </g>
     </g>
    </g>
    <g id="ytick_11">
     <g id="line2d_75">
      <g>
       <use xlink:href="#mb715955341" x="310.829" y="41.918968" style="stroke: #000000; stroke-width: 0.8"/>
      </g>
     </g>
     <g id="text_26">
      <!-- 25 -->
      <g transform="translate(291.104 45.718187) scale(0.1 -0.1)">
       <use xlink:href="#DejaVuSans-32"/>
       <use xlink:href="#DejaVuSans-35" transform="translate(63.623047 0)"/>
      </g>
     </g>
    </g>
    <g id="text_27">
     <!-- freq. coverage $\sum_i H_i f_i$ -->
     <g transform="translate(277.104 249.063375) rotate(-90) scale(0.1 -0.1)">
      <defs>
       <path id="DejaVuSans-66" d="M 2375 4863 
L 2375 4384 
L 1825 4384 
Q 1516 4384 1395 4259 
Q 1275 4134 1275 3809 
L 1275 3500 
L 2222 3500 
L 2222 3053 
L 1275 3053 
L 1275 0 
L 697 0 
L 697 3053 
L 147 3053 
L 147 3500 
L 697 3500 
L 697 3744 
Q 697 4328 969 4595 
Q 1241 4863 1831 4863 
L 2375 4863 
z
" transform="scale(0.015625)"/>
       <path id="DejaVuSans-71" d="M 947 1747 
Q 947 1113 1208 752 
Q 1469 391 1925 391 
Q 2381 391 2643 752 
Q 2906 1113 2906 1747 
Q 2906 2381 2643 2742 
Q 2381 3103 1925 3103 
Q 1469 3103 1208 2742 
Q 947 2381 947 1747 
z
M 2906 525 
Q 2725 213 2448 61 
Q 2172 -91 1784 -91 
Q 1150 -91 751 415 
Q 353 922 353 1747 
Q 353 2572 751 3078 
Q 1150 3584 1784 3584 
Q 2172 3584 2448 3432 
Q 2725 3281 2906 2969 
L 2906 3500 
L 3481 3500 
L 3481 -1331 
L 2906 -1331 
L 2906 525 
z
" transform="scale(0.015625)"/>
       <path id="DejaVuSans-2e" d="M 684 794 
L 1344 794 
L 1344 0 
L 684 0 
L 684 794 
z
" transform="scale(0.015625)"/>
       <path id="DejaVuSans-Oblique-66" d="M 3059 4863 
L 2969 4384 
L 2419 4384 
Q 2106 4384 1964 4261 
Q 1822 4138 1753 3809 
L 1691 3500 
L 2638 3500 
L 2553 3053 
L 1606 3053 
L 1013 0 
L 434 0 
L 1031 3053 
L 481 3053 
L 563 3500 
L 1113 3500 
L 1159 3744 
Q 1278 4363 1576 4613 
Q 1875 4863 2516 4863 
L 3059 4863 
z
" transform="scale(0.015625)"/>
      </defs>
      <use xlink:href="#DejaVuSans-66" transform="translate(0 0.296875)"/>
      <use xlink:href="#DejaVuSans-72" transform="translate(35.205078 0.296875)"/>
      <use xlink:href="#DejaVuSans-65" transform="translate(76.318359 0.296875)"/>
      <use xlink:href="#DejaVuSans-71" transform="translate(137.841797 0.296875)"/>
      <use xlink:href="#DejaVuSans-2e" transform="translate(201.318359 0.296875)"/>
      <use xlink:href="#DejaVuSans-20" transform="translate(233.105469 0.296875)"/>
      <use xlink:href="#DejaVuSans-63" transform="translate(264.892578 0.296875)"/>
      <use xlink:href="#DejaVuSans-6f" transform="translate(319.873047 0.296875)"/>
      <use xlink:href="#DejaVuSans-76" transform="translate(381.054688 0.296875)"/>
      <use xlink:href="#DejaVuSans-65" transform="translate(440.234375 0.296875)"/>
      <use xlink:href="#DejaVuSans-72" transform="translate(501.757812 0.296875)"/>
      <use xlink:href="#DejaVuSans-61" transform="translate(542.871094 0.296875)"/>
      <use xlink:href="#DejaVuSans-67" transform="translate(604.150391 0.296875)"/>
      <use xlink:href="#DejaVuSans-65" transform="translate(667.626953 0.296875)"/>
      <use xlink:href="#DejaVuSans-20" transform="translate(729.150391 0.296875)"/>
      <use xlink:href="#DejaVuSansDisplay-2211" transform="translate(760.9375 0.296875)"/>
      <use xlink:href="#DejaVuSans-Oblique-69" transform="translate(797.9375 -98.798438) scale(0.7)"/>
      <use xlink:href="#DejaVuSans-Oblique-48" transform="translate(851.703125 0.296875)"/>
      <use xlink:href="#DejaVuSans-Oblique-69" transform="translate(926.898438 -16.109375) scale(0.7)"/>
      <use xlink:href="#DejaVuSans-Oblique-66" transform="translate(949.081055 0.296875)"/>
      <use xlink:href="#DejaVuSans-Oblique-69" transform="translate(984.286133 -16.109375) scale(0.7)"/>
     </g>
    </g>
   </g>
   <g id="line2d_76">
    <path d="M 318.939958 29.075872 
L 322.250553 28.151002 
L 325.561148 28.060007 
L 328.871743 27.883034 
L 332.182338 28.814828 
L 335.492933 28.298353 
L 338.803528 28.833987 
L 342.114124 28.734539 
L 345.424719 28.644945 
L 348.735314 28.339352 
L 352.045909 29.676654 
L 355.356504 29.717083 
L 358.667099 29.768914 
L 361.977694 29.754043 
L 365.288289 30.281899 
L 368.598884 30.732836 
L 371.909479 31.047815 
L 375.220074 31.408377 
L 378.530669 31.401182 
L 381.841264 32.509905 
L 385.15186 32.499482 
L 388.462455 33.205621 
L 391.77305 34.002566 
L 395.083645 34.292676 
L 398.39424 35.098717 
L 401.704835 35.566588 
L 405.01543 36.275567 
L 408.326025 36.640215 
L 411.63662 38.016949 
L 414.947215 38.794612 
L 418.25781 39.560581 
L 421.568405 40.640689 
L 424.879001 41.24606 
L 428.189596 42.161991 
L 431.500191 43.050385 
L 434.810786 43.871258 
L 438.121381 45.29602 
L 441.431976 45.863924 
L 444.742571 47.0226 
L 448.053166 48.639465 
L 451.363761 49.420953 
L 454.674356 50.385441 
L 457.984951 51.55472 
L 461.295546 53.401574 
L 464.606142 54.515455 
L 467.916737 55.291786 
L 471.227332 56.773917 
L 474.537927 57.892599 
L 477.848522 59.515889 
L 481.159117 60.626158 
" clip-path="url(#p9c05cf8732)" style="fill: none; stroke: #440154; stroke-width: 2; stroke-linecap: square"/>
   </g>
   <g id="line2d_77">
    <path d="M 318.939958 51.740154 
L 322.250553 50.539729 
L 325.561148 50.590972 
L 328.871743 51.039149 
L 332.182338 52.291602 
L 335.492933 51.25904 
L 338.803528 51.668159 
L 342.114124 51.922639 
L 345.424719 51.151361 
L 348.735314 51.041019 
L 352.045909 51.945132 
L 355.356504 52.800869 
L 358.667099 52.618028 
L 361.977694 52.048219 
L 365.288289 52.895531 
L 368.598884 53.929437 
L 371.909479 53.532494 
L 375.220074 53.610238 
L 378.530669 53.935145 
L 381.841264 54.668552 
L 385.15186 54.914702 
L 388.462455 56.177931 
L 391.77305 56.483881 
L 395.083645 56.248757 
L 398.39424 57.297565 
L 401.704835 57.199643 
L 405.01543 58.118624 
L 408.326025 58.513863 
L 411.63662 59.978194 
L 414.947215 60.324975 
L 418.25781 61.225806 
L 421.568405 61.978948 
L 424.879001 62.579777 
L 428.189596 63.405466 
L 431.500191 64.052953 
L 434.810786 64.922346 
L 438.121381 65.902028 
L 441.431976 66.42195 
L 444.742571 67.574617 
L 448.053166 68.961223 
L 451.363761 69.36822 
L 454.674356 70.406146 
L 457.984951 71.207339 
L 461.295546 72.848159 
L 464.606142 73.858697 
L 467.916737 74.56899 
L 471.227332 75.990535 
L 474.537927 76.830242 
L 477.848522 78.166722 
L 481.159117 78.867084 
" clip-path="url(#p9c05cf8732)" style="fill: none; stroke: #481a6c; stroke-width: 2; stroke-linecap: square"/>
   </g>
   <g id="line2d_78">
    <path d="M 318.939958 107.620524 
L 322.250553 107.911125 
L 325.561148 107.258755 
L 328.871743 107.763855 
L 332.182338 109.114348 
L 335.492933 108.270373 
L 338.803528 108.134955 
L 342.114124 109.277228 
L 345.424719 107.861458 
L 348.735314 107.845788 
L 352.045909 108.798589 
L 355.356504 108.892088 
L 358.667099 108.993083 
L 361.977694 108.308983 
L 365.288289 109.078735 
L 368.598884 109.215909 
L 371.909479 109.437368 
L 375.220074 110.124246 
L 378.530669 110.019972 
L 381.841264 109.994971 
L 385.15186 110.003422 
L 388.462455 111.350272 
L 391.77305 111.591454 
L 395.083645 111.30221 
L 398.39424 111.981308 
L 401.704835 112.084938 
L 405.01543 112.317695 
L 408.326025 112.743678 
L 411.63662 113.002712 
L 414.947215 113.911545 
L 418.25781 114.719505 
L 421.568405 114.951451 
L 424.879001 114.621514 
L 428.189596 115.431398 
L 431.500191 115.879676 
L 434.810786 116.512668 
L 438.121381 116.276128 
L 441.431976 117.164211 
L 444.742571 117.736042 
L 448.053166 118.831401 
L 451.363761 119.378302 
L 454.674356 119.946382 
L 457.984951 120.283486 
L 461.295546 121.124819 
L 464.606142 121.685319 
L 467.916737 122.342147 
L 471.227332 123.367648 
L 474.537927 123.789501 
L 477.848522 123.790598 
L 481.159117 124.655263 
" clip-path="url(#p9c05cf8732)" style="fill: none; stroke: #3d4d8a; stroke-width: 2; stroke-linecap: square"/>
   </g>
   <g id="line2d_79">
    <path d="M 318.939958 198.682508 
L 322.250553 198.633764 
L 325.561148 197.862827 
L 328.871743 199.170562 
L 332.182338 199.863725 
L 335.492933 199.572896 
L 338.803528 198.640182 
L 342.114124 200.649154 
L 345.424719 199.264812 
L 348.735314 199.267412 
L 352.045909 199.157194 
L 355.356504 199.774669 
L 358.667099 198.906602 
L 361.977694 199.313947 
L 365.288289 199.150522 
L 368.598884 199.188471 
L 371.909479 199.307546 
L 375.220074 198.943149 
L 378.530669 199.935458 
L 381.841264 199.426254 
L 385.15186 199.662604 
L 388.462455 199.80934 
L 391.77305 199.534109 
L 395.083645 200.130416 
L 398.39424 199.120463 
L 401.704835 199.187993 
L 405.01543 199.638395 
L 408.326025 198.950719 
L 411.63662 199.287964 
L 414.947215 199.146554 
L 418.25781 199.25469 
L 421.568405 199.061093 
L 424.879001 198.635994 
L 428.189596 199.266911 
L 431.500191 199.197582 
L 434.810786 199.007855 
L 438.121381 198.723156 
L 441.431976 198.600244 
L 444.742571 198.776652 
L 448.053166 198.557925 
L 451.363761 198.701458 
L 454.674356 198.979319 
L 457.984951 198.591981 
L 461.295546 198.584593 
L 464.606142 198.669418 
L 467.916737 199.118544 
L 471.227332 199.573689 
L 474.537927 198.807822 
L 477.848522 198.234546 
L 481.159117 198.476229 
" clip-path="url(#p9c05cf8732)" style="fill: none; stroke: #21918c; stroke-width: 2; stroke-linecap: square"/>
   </g>
   <g id="line2d_80">
    <path d="M 318.939958 277.826242 
L 322.250553 278.385722 
L 325.561148 277.788359 
L 328.871743 278.55365 
L 332.182338 278.388534 
L 335.492933 278.699903 
L 338.803528 277.377138 
L 342.114124 278.751218 
L 345.424719 278.535651 
L 348.735314 278.207668 
L 352.045909 277.755468 
L 355.356504 278.305556 
L 358.667099 277.367625 
L 361.977694 278.036747 
L 365.288289 277.318834 
L 368.598884 277.361089 
L 371.909479 277.037175 
L 375.220074 276.739654 
L 378.530669 277.810277 
L 381.841264 276.787827 
L 385.15186 276.933194 
L 388.462455 276.080958 
L 391.77305 275.729062 
L 395.083645 276.191381 
L 398.39424 275.42293 
L 401.704835 275.405141 
L 405.01543 275.446223 
L 408.326025 274.470978 
L 411.63662 274.159561 
L 414.947215 274.148259 
L 418.25781 272.947804 
L 421.568405 272.427138 
L 424.879001 271.879629 
L 428.189596 272.392951 
L 431.500191 271.560791 
L 434.810786 270.970329 
L 438.121381 269.965188 
L 441.431976 269.706672 
L 444.742571 269.435977 
L 448.053166 268.414137 
L 451.363761 268.581458 
L 454.674356 268.220098 
L 457.984951 267.3282 
L 461.295546 266.476278 
L 464.606142 266.17564 
L 467.916737 265.952172 
L 471.227332 265.378061 
L 474.537927 264.068374 
L 477.848522 263.61583 
L 481.159117 262.65987 
" clip-path="url(#p9c05cf8732)" style="fill: none; stroke: #54c568; stroke-width: 2; stroke-linecap: square"/>
   </g>
   <g id="line2d_81">
    <path d="M 318.939958 368.350878 
L 322.250553 369.275748 
L 325.561148 369.366743 
L 328.871743 369.543716 
L 332.182338 368.611922 
L 335.492933 369.128397 
L 338.803528 368.592763 
L 342.114124 368.692211 
L 345.424719 368.781805 
L 348.735314 369.087398 
L 352.045909 367.750096 
L 355.356504 367.709667 
L 358.667099 367.657836 
L 361.977694 367.672707 
L 365.288289 367.144851 
L 368.598884 366.693914 
L 371.909479 366.378935 
L 375.220074 366.018373 
L 378.530669 366.025568 
L 381.841264 364.916845 
L 385.15186 364.927268 
L 388.462455 364.221129 
L 391.77305 363.424184 
L 395.083645 363.134074 
L 398.39424 362.328033 
L 401.704835 361.860162 
L 405.01543 361.151183 
L 408.326025 360.786535 
L 411.63662 359.409801 
L 414.947215 358.632138 
L 418.25781 357.866169 
L 421.568405 356.786061 
L 424.879001 356.18069 
L 428.189596 355.264759 
L 431.500191 354.376365 
L 434.810786 353.555492 
L 438.121381 352.13073 
L 441.431976 351.562826 
L 444.742571 350.40415 
L 448.053166 348.787285 
L 451.363761 348.005797 
L 454.674356 347.041309 
L 457.984951 345.87203 
L 461.295546 344.025176 
L 464.606142 342.911295 
L 467.916737 342.134964 
L 471.227332 340.652833 
L 474.537927 339.534151 
L 477.848522 337.910861 
L 481.159117 336.800592 
" clip-path="url(#p9c05cf8732)" style="fill: none; stroke: #fde725; stroke-width: 2; stroke-linecap: square"/>
   </g>
   <g id="patch_9">
    <path d="M 310.829 386.62675 
L 310.829 10.8 
" style="fill: none; stroke: #000000; stroke-width: 0.8; stroke-linejoin: miter; stroke-linecap: square"/>
   </g>
   <g id="patch_10">
    <path d="M 489.270075 386.62675 
L 489.270075 10.8 
" style="fill: none; stroke: #000000; stroke-width: 0.8; stroke-linejoin: miter; stroke-linecap: square"/>
   </g>
   <g id="patch_11">
    <path d="M 310.829 386.62675 
L 489.270075 386.62675 
" style="fill: none; stroke: #000000; stroke-width: 0.8; stroke-linejoin: miter; stroke-linecap: square"/>
   </g>
   <g id="patch_12">
    <path d="M 310.829 10.8 
L 489.270075 10.8 
" style="fill: none; stroke: #000000; stroke-width: 0.8; stroke-linejoin: miter; stroke-linecap: square"/>
   </g>
  </g>
 </g>
 <defs>
  <clipPath id="p4c58b82b81">
   <rect x="70.619" y="10.8" width="178.441075" height="375.82675"/>
  </clipPath>
  <clipPath id="p9c05cf8732">
   <rect x="310.829" y="10.8" width="178.441075" height="375.82675"/>
  </clipPath>
 </defs>
</svg>
