<?xml version="1.0" encoding="utf-8" standalone="no"?>
<!DOCTYPE svg PUBLIC "-//W3C//DTD SVG 1.1//EN"
  "http://www.w3.org/Graphics/SVG/1.1/DTD/svg11.dtd">
<svg xmlns:xlink="http://www.w3.org/1999/xlink" width="504pt" height="432pt" viewBox="0 0 504 432" xmlns="http://www.w3.org/2000/svg" version="1.1">
 <metadata>
  <rdf:RDF xmlns:dc="http://purl.org/dc/elements/1.1/" xmlns:cc="http://creativecommons.org/ns#" xmlns:rdf="http://www.w3.org/1999/02/22-rdf-syntax-ns#">
   <cc:Work>
    <dc:type rdf:resource="http://purl.org/dc/dcmitype/StillImage"/>
    <dc:date>2026-02-18T15:01:17.979238</dc:date>
    <dc:format>image/svg+xml</dc:format>
    <dc:creator>
     <cc:Agent>
      <dc:title>Matplotlib v3.10.8, https://matplotlib.org/</dc:title>
     </cc:Agent>
    </dc:creator>
   </cc:Work>
  </rdf:RDF>
 </metadata>
 <defs>
  <style type="text/css">*{stroke-linejoin: round; stroke-linecap: butt}</style>
 </defs>
 <g id="figure_1">
  <g id="patch_1">
   <path d="M 0 432 
L 504 432 
L 504 0 
L 0 0 
z
" style="fill: #ffffff"/>
  </g>
  <g id="axes_1">
   <g id="patch_2">
    <path d="M 54.398 386.62675 
L 239.070075 386.62675 
L 239.070075 10.8 
L 54.398 10.8 
z
" style="fill: #ffffff"/>
   </g>
   <g id="matplotlib.axis_1">
    <g id="xtick_1">
     <g id="line2d_1">
      <defs>
       <path id="m4326e4de49" d="M 0 0 
L 0 3.5 
" style="stroke: #000000; stroke-width: 0.8"/>
      </defs>
      <g>
       <use xlink:href="#m4326e4de49" x="96.368926" y="386.62675" style="stroke: #000000; stroke-width: 0.8"/>
      </g>
     </g>
     <g id="text_1">
      <!-- $\mathdefault{10^{-5}}$ -->
      <g transform="translate(84.618926 401.225188) scale(0.1 -0.1)">
       <defs>
        <path id="DejaVuSans-31" d="M 794 531 
L 1825 531 
L 1825 4091 
L 703 3866 
L 703 4441 
L 1819 4666 
L 2450 4666 
L 2450 531 
L 3481 531 
L 3481 0 
L 794 0 
L 794 531 
z
" transform="scale(0.015625)"/>
        <path id="DejaVuSans-30" d="M 2034 4250 
Q 1547 4250 1301 3770 
Q 1056 3291 1056 2328 
Q 1056 1369 1301 889 
Q 1547 409 2034 409 
Q 2525 409 2770 889 
Q 3016 1369 3016 2328 
Q 3016 3291 2770 3770 
Q 2525 4250 2034 4250 
z
M 2034 4750 
Q 2819 4750 3233 4129 
Q 3647 3509 3647 2328 
Q 3647 1150 3233 529 
Q 2819 -91 2034 -91 
Q 1250 -91 836 529 
Q 422 1150 422 2328 
Q 422 3509 836 4129 
Q 1250 4750 2034 4750 
z
" transform="scale(0.015625)"/>
        <path id="DejaVuSans-2212" d="M 678 2272 
L 4684 2272 
L 4684 1741 
L 678 1741 
L 678 2272 
z
" transform="scale(0.015625)"/>
        <path id="DejaVuSans-35" d="M 691 4666 
L 3169 4666 
L 3169 4134 
L 1269 4134 
L 1269 2991 
Q 1406 3038 1543 3061 
Q 1681 3084 1819 3084 
Q 2600 3084 3056 2656 
Q 3513 2228 3513 1497 
Q 3513 744 3044 326 
Q 2575 -91 1722 -91 
Q 1428 -91 1123 -41 
Q 819 9 494 109 
L 494 744 
Q 775 591 1075 516 
Q 1375 441 1709 441 
Q 2250 441 2565 725 
Q 2881 1009 2881 1497 
Q 2881 1984 2565 2268 
Q 2250 2553 1709 2553 
Q 1456 2553 1204 2497 
Q 953 2441 691 2322 
L 691 4666 
z
" transform="scale(0.015625)"/>
       </defs>
       <use xlink:href="#DejaVuSans-31" transform="translate(0 0.684375)"/>
       <use xlink:href="#DejaVuSans-30" transform="translate(63.623047 0.684375)"/>
       <use xlink:href="#DejaVuSans-2212" transform="translate(128.203125 38.965625) scale(0.7)"/>
       <use xlink:href="#DejaVuSans-35" transform="translate(186.855469 38.965625) scale(0.7)"/>
      </g>
     </g>
    </g>
    <g id="xtick_2">
     <g id="line2d_2">
      <g>
       <use xlink:href="#m4326e4de49" x="163.522408" y="386.62675" style="stroke: #000000; stroke-width: 0.8"/>
      </g>
     </g>
     <g id="text_2">
      <!-- $\mathdefault{10^{-4}}$ -->
      <g transform="translate(151.772408 401.225188) scale(0.1 -0.1)">
       <defs>
        <path id="DejaVuSans-34" d="M 2419 4116 
L 825 1625 
L 2419 1625 
L 2419 4116 
z
M 2253 4666 
L 3047 4666 
L 3047 1625 
L 3713 1625 
L 3713 1100 
L 3047 1100 
L 3047 0 
L 2419 0 
L 2419 1100 
L 313 1100 
L 313 1709 
L 2253 4666 
z
" transform="scale(0.015625)"/>
       </defs>
       <use xlink:href="#DejaVuSans-31" transform="translate(0 0.684375)"/>
       <use xlink:href="#DejaVuSans-30" transform="translate(63.623047 0.684375)"/>
       <use xlink:href="#DejaVuSans-2212" transform="translate(128.203125 38.965625) scale(0.7)"/>
       <use xlink:href="#DejaVuSans-34" transform="translate(186.855469 38.965625) scale(0.7)"/>
      </g>
     </g>
    </g>
    <g id="xtick_3">
     <g id="line2d_3">
      <g>
       <use xlink:href="#m4326e4de49" x="230.67589" y="386.62675" style="stroke: #000000; stroke-width: 0.8"/>
      </g>
     </g>
     <g id="text_3">
      <!-- $\mathdefault{10^{-3}}$ -->
      <g transform="translate(218.92589 401.225188) scale(0.1 -0.1)">
       <defs>
        <path id="DejaVuSans-33" d="M 2597 2516 
Q 3050 2419 3304 2112 
Q 3559 1806 3559 1356 
Q 3559 666 3084 287 
Q 2609 -91 1734 -91 
Q 1441 -91 1130 -33 
Q 819 25 488 141 
L 488 750 
Q 750 597 1062 519 
Q 1375 441 1716 441 
Q 2309 441 2620 675 
Q 2931 909 2931 1356 
Q 2931 1769 2642 2001 
Q 2353 2234 1838 2234 
L 1294 2234 
L 1294 2753 
L 1863 2753 
Q 2328 2753 2575 2939 
Q 2822 3125 2822 3475 
Q 2822 3834 2567 4026 
Q 2313 4219 1838 4219 
Q 1578 4219 1281 4162 
Q 984 4106 628 3988 
L 628 4550 
Q 988 4650 1302 4700 
Q 1616 4750 1894 4750 
Q 2613 4750 3031 4423 
Q 3450 4097 3450 3541 
Q 3450 3153 3228 2886 
Q 3006 2619 2597 2516 
z
" transform="scale(0.015625)"/>
       </defs>
       <use xlink:href="#DejaVuSans-31" transform="translate(0 0.765625)"/>
       <use xlink:href="#DejaVuSans-30" transform="translate(63.623047 0.765625)"/>
       <use xlink:href="#DejaVuSans-2212" transform="translate(128.203125 39.046875) scale(0.7)"/>
       <use xlink:href="#DejaVuSans-33" transform="translate(186.855469 39.046875) scale(0.7)"/>
      </g>
     </g>
    </g>
    <g id="xtick_4">
     <g id="line2d_4">
      <defs>
       <path id="md9cdd50c29" d="M 0 0 
L 0 2 
" style="stroke: #000000; stroke-width: 0.6"/>
      </defs>
      <g>
       <use xlink:href="#md9cdd50c29" x="61.255798" y="386.62675" style="stroke: #000000; stroke-width: 0.6"/>
      </g>
     </g>
    </g>
    <g id="xtick_5">
     <g id="line2d_5">
      <g>
       <use xlink:href="#md9cdd50c29" x="69.645869" y="386.62675" style="stroke: #000000; stroke-width: 0.6"/>
      </g>
     </g>
    </g>
    <g id="xtick_6">
     <g id="line2d_6">
      <g>
       <use xlink:href="#md9cdd50c29" x="76.153714" y="386.62675" style="stroke: #000000; stroke-width: 0.6"/>
      </g>
     </g>
    </g>
    <g id="xtick_7">
     <g id="line2d_7">
      <g>
       <use xlink:href="#md9cdd50c29" x="81.47101" y="386.62675" style="stroke: #000000; stroke-width: 0.6"/>
      </g>
     </g>
    </g>
    <g id="xtick_8">
     <g id="line2d_8">
      <g>
       <use xlink:href="#md9cdd50c29" x="85.96672" y="386.62675" style="stroke: #000000; stroke-width: 0.6"/>
      </g>
     </g>
    </g>
    <g id="xtick_9">
     <g id="line2d_9">
      <g>
       <use xlink:href="#md9cdd50c29" x="89.861081" y="386.62675" style="stroke: #000000; stroke-width: 0.6"/>
      </g>
     </g>
    </g>
    <g id="xtick_10">
     <g id="line2d_10">
      <g>
       <use xlink:href="#md9cdd50c29" x="93.296151" y="386.62675" style="stroke: #000000; stroke-width: 0.6"/>
      </g>
     </g>
    </g>
    <g id="xtick_11">
     <g id="line2d_11">
      <g>
       <use xlink:href="#md9cdd50c29" x="116.584138" y="386.62675" style="stroke: #000000; stroke-width: 0.6"/>
      </g>
     </g>
    </g>
    <g id="xtick_12">
     <g id="line2d_12">
      <g>
       <use xlink:href="#md9cdd50c29" x="128.40928" y="386.62675" style="stroke: #000000; stroke-width: 0.6"/>
      </g>
     </g>
    </g>
    <g id="xtick_13">
     <g id="line2d_13">
      <g>
       <use xlink:href="#md9cdd50c29" x="136.799351" y="386.62675" style="stroke: #000000; stroke-width: 0.6"/>
      </g>
     </g>
    </g>
    <g id="xtick_14">
     <g id="line2d_14">
      <g>
       <use xlink:href="#md9cdd50c29" x="143.307196" y="386.62675" style="stroke: #000000; stroke-width: 0.6"/>
      </g>
     </g>
    </g>
    <g id="xtick_15">
     <g id="line2d_15">
      <g>
       <use xlink:href="#md9cdd50c29" x="148.624492" y="386.62675" style="stroke: #000000; stroke-width: 0.6"/>
      </g>
     </g>
    </g>
    <g id="xtick_16">
     <g id="line2d_16">
      <g>
       <use xlink:href="#md9cdd50c29" x="153.120202" y="386.62675" style="stroke: #000000; stroke-width: 0.6"/>
      </g>
     </g>
    </g>
    <g id="xtick_17">
     <g id="line2d_17">
      <g>
       <use xlink:href="#md9cdd50c29" x="157.014563" y="386.62675" style="stroke: #000000; stroke-width: 0.6"/>
      </g>
     </g>
    </g>
    <g id="xtick_18">
     <g id="line2d_18">
      <g>
       <use xlink:href="#md9cdd50c29" x="160.449633" y="386.62675" style="stroke: #000000; stroke-width: 0.6"/>
      </g>
     </g>
    </g>
    <g id="xtick_19">
     <g id="line2d_19">
      <g>
       <use xlink:href="#md9cdd50c29" x="183.73762" y="386.62675" style="stroke: #000000; stroke-width: 0.6"/>
      </g>
     </g>
    </g>
    <g id="xtick_20">
     <g id="line2d_20">
      <g>
       <use xlink:href="#md9cdd50c29" x="195.562761" y="386.62675" style="stroke: #000000; stroke-width: 0.6"/>
      </g>
     </g>
    </g>
    <g id="xtick_21">
     <g id="line2d_21">
      <g>
       <use xlink:href="#md9cdd50c29" x="203.952833" y="386.62675" style="stroke: #000000; stroke-width: 0.6"/>
      </g>
     </g>
    </g>
    <g id="xtick_22">
     <g id="line2d_22">
      <g>
       <use xlink:href="#md9cdd50c29" x="210.460677" y="386.62675" style="stroke: #000000; stroke-width: 0.6"/>
      </g>
     </g>
    </g>
    <g id="xtick_23">
     <g id="line2d_23">
      <g>
       <use xlink:href="#md9cdd50c29" x="215.777974" y="386.62675" style="stroke: #000000; stroke-width: 0.6"/>
      </g>
     </g>
    </g>
    <g id="xtick_24">
     <g id="line2d_24">
      <g>
       <use xlink:href="#md9cdd50c29" x="220.273684" y="386.62675" style="stroke: #000000; stroke-width: 0.6"/>
      </g>
     </g>
    </g>
    <g id="xtick_25">
     <g id="line2d_25">
      <g>
       <use xlink:href="#md9cdd50c29" x="224.168045" y="386.62675" style="stroke: #000000; stroke-width: 0.6"/>
      </g>
     </g>
    </g>
    <g id="xtick_26">
     <g id="line2d_26">
      <g>
       <use xlink:href="#md9cdd50c29" x="227.603115" y="386.62675" style="stroke: #000000; stroke-width: 0.6"/>
      </g>
     </g>
    </g>
    <g id="text_4">
     <!-- alpha_0 -->
     <g transform="translate(127.192631 414.903313) scale(0.1 -0.1)">
      <defs>
       <path id="DejaVuSans-61" d="M 2194 1759 
Q 1497 1759 1228 1600 
Q 959 1441 959 1056 
Q 959 750 1161 570 
Q 1363 391 1709 391 
Q 2188 391 2477 730 
Q 2766 1069 2766 1631 
L 2766 1759 
L 2194 1759 
z
M 3341 1997 
L 3341 0 
L 2766 0 
L 2766 531 
Q 2569 213 2275 61 
Q 1981 -91 1556 -91 
Q 1019 -91 701 211 
Q 384 513 384 1019 
Q 384 1609 779 1909 
Q 1175 2209 1959 2209 
L 2766 2209 
L 2766 2266 
Q 2766 2663 2505 2880 
Q 2244 3097 1772 3097 
Q 1472 3097 1187 3025 
Q 903 2953 641 2809 
L 641 3341 
Q 956 3463 1253 3523 
Q 1550 3584 1831 3584 
Q 2591 3584 2966 3190 
Q 3341 2797 3341 1997 
z
" transform="scale(0.015625)"/>
       <path id="DejaVuSans-6c" d="M 603 4863 
L 1178 4863 
L 1178 0 
L 603 0 
L 603 4863 
z
" transform="scale(0.015625)"/>
       <path id="DejaVuSans-70" d="M 1159 525 
L 1159 -1331 
L 581 -1331 
L 581 3500 
L 1159 3500 
L 1159 2969 
Q 1341 3281 1617 3432 
Q 1894 3584 2278 3584 
Q 2916 3584 3314 3078 
Q 3713 2572 3713 1747 
Q 3713 922 3314 415 
Q 2916 -91 2278 -91 
Q 1894 -91 1617 61 
Q 1341 213 1159 525 
z
M 3116 1747 
Q 3116 2381 2855 2742 
Q 2594 3103 2138 3103 
Q 1681 3103 1420 2742 
Q 1159 2381 1159 1747 
Q 1159 1113 1420 752 
Q 1681 391 2138 391 
Q 2594 391 2855 752 
Q 3116 1113 3116 1747 
z
" transform="scale(0.015625)"/>
       <path id="DejaVuSans-68" d="M 3513 2113 
L 3513 0 
L 2938 0 
L 2938 2094 
Q 2938 2591 2744 2837 
Q 2550 3084 2163 3084 
Q 1697 3084 1428 2787 
Q 1159 2491 1159 1978 
L 1159 0 
L 581 0 
L 581 4863 
L 1159 4863 
L 1159 2956 
Q 1366 3272 1645 3428 
Q 1925 3584 2291 3584 
Q 2894 3584 3203 3211 
Q 3513 2838 3513 2113 
z
" transform="scale(0.015625)"/>
       <path id="DejaVuSans-5f" d="M 3263 -1063 
L 3263 -1509 
L -63 -1509 
L -63 -1063 
L 3263 -1063 
z
" transform="scale(0.015625)"/>
      </defs>
      <use xlink:href="#DejaVuSans-61"/>
      <use xlink:href="#DejaVuSans-6c" transform="translate(61.279297 0)"/>
      <use xlink:href="#DejaVuSans-70" transform="translate(89.0625 0)"/>
      <use xlink:href="#DejaVuSans-68" transform="translate(152.539062 0)"/>
      <use xlink:href="#DejaVuSans-61" transform="translate(215.917969 0)"/>
      <use xlink:href="#DejaVuSans-5f" transform="translate(277.197266 0)"/>
      <use xlink:href="#DejaVuSans-30" transform="translate(327.197266 0)"/>
     </g>
    </g>
   </g>
   <g id="matplotlib.axis_2">
    <g id="ytick_1">
     <g id="line2d_27">
      <defs>
       <path id="mf13ddaf94d" d="M 0 0 
L -3.5 0 
" style="stroke: #000000; stroke-width: 0.8"/>
      </defs>
      <g>
       <use xlink:href="#mf13ddaf94d" x="54.398" y="358.712212" style="stroke: #000000; stroke-width: 0.8"/>
      </g>
     </g>
     <g id="text_5">
      <!-- 5 -->
      <g transform="translate(41.0355 362.511431) scale(0.1 -0.1)">
       <use xlink:href="#DejaVuSans-35"/>
      </g>
     </g>
    </g>
    <g id="ytick_2">
     <g id="line2d_28">
      <g>
       <use xlink:href="#mf13ddaf94d" x="54.398" y="314.681711" style="stroke: #000000; stroke-width: 0.8"/>
      </g>
     </g>
     <g id="text_6">
      <!-- 6 -->
      <g transform="translate(41.0355 318.48093) scale(0.1 -0.1)">
       <defs>
        <path id="DejaVuSans-36" d="M 2113 2584 
Q 1688 2584 1439 2293 
Q 1191 2003 1191 1497 
Q 1191 994 1439 701 
Q 1688 409 2113 409 
Q 2538 409 2786 701 
Q 3034 994 3034 1497 
Q 3034 2003 2786 2293 
Q 2538 2584 2113 2584 
z
M 3366 4563 
L 3366 3988 
Q 3128 4100 2886 4159 
Q 2644 4219 2406 4219 
Q 1781 4219 1451 3797 
Q 1122 3375 1075 2522 
Q 1259 2794 1537 2939 
Q 1816 3084 2150 3084 
Q 2853 3084 3261 2657 
Q 3669 2231 3669 1497 
Q 3669 778 3244 343 
Q 2819 -91 2113 -91 
Q 1303 -91 875 529 
Q 447 1150 447 2328 
Q 447 3434 972 4092 
Q 1497 4750 2381 4750 
Q 2619 4750 2861 4703 
Q 3103 4656 3366 4563 
z
" transform="scale(0.015625)"/>
       </defs>
       <use xlink:href="#DejaVuSans-36"/>
      </g>
     </g>
    </g>
    <g id="ytick_3">
     <g id="line2d_29">
      <g>
       <use xlink:href="#mf13ddaf94d" x="54.398" y="270.651209" style="stroke: #000000; stroke-width: 0.8"/>
      </g>
     </g>
     <g id="text_7">
      <!-- 7 -->
      <g transform="translate(41.0355 274.450428) scale(0.1 -0.1)">
       <defs>
        <path id="DejaVuSans-37" d="M 525 4666 
L 3525 4666 
L 3525 4397 
L 1831 0 
L 1172 0 
L 2766 4134 
L 525 4134 
L 525 4666 
z
" transform="scale(0.015625)"/>
       </defs>
       <use xlink:href="#DejaVuSans-37"/>
      </g>
     </g>
    </g>
    <g id="ytick_4">
     <g id="line2d_30">
      <g>
       <use xlink:href="#mf13ddaf94d" x="54.398" y="226.620708" style="stroke: #000000; stroke-width: 0.8"/>
      </g>
     </g>
     <g id="text_8">
      <!-- 8 -->
      <g transform="translate(41.0355 230.419926) scale(0.1 -0.1)">
       <defs>
        <path id="DejaVuSans-38" d="M 2034 2216 
Q 1584 2216 1326 1975 
Q 1069 1734 1069 1313 
Q 1069 891 1326 650 
Q 1584 409 2034 409 
Q 2484 409 2743 651 
Q 3003 894 3003 1313 
Q 3003 1734 2745 1975 
Q 2488 2216 2034 2216 
z
M 1403 2484 
Q 997 2584 770 2862 
Q 544 3141 544 3541 
Q 544 4100 942 4425 
Q 1341 4750 2034 4750 
Q 2731 4750 3128 4425 
Q 3525 4100 3525 3541 
Q 3525 3141 3298 2862 
Q 3072 2584 2669 2484 
Q 3125 2378 3379 2068 
Q 3634 1759 3634 1313 
Q 3634 634 3220 271 
Q 2806 -91 2034 -91 
Q 1263 -91 848 271 
Q 434 634 434 1313 
Q 434 1759 690 2068 
Q 947 2378 1403 2484 
z
M 1172 3481 
Q 1172 3119 1398 2916 
Q 1625 2713 2034 2713 
Q 2441 2713 2670 2916 
Q 2900 3119 2900 3481 
Q 2900 3844 2670 4047 
Q 2441 4250 2034 4250 
Q 1625 4250 1398 4047 
Q 1172 3844 1172 3481 
z
" transform="scale(0.015625)"/>
       </defs>
       <use xlink:href="#DejaVuSans-38"/>
      </g>
     </g>
    </g>
    <g id="ytick_5">
     <g id="line2d_31">
      <g>
       <use xlink:href="#mf13ddaf94d" x="54.398" y="182.590206" style="stroke: #000000; stroke-width: 0.8"/>
      </g>
     </g>
     <g id="text_9">
      <!-- 9 -->
      <g transform="translate(41.0355 186.389425) scale(0.1 -0.1)">
       <defs>
        <path id="DejaVuSans-39" d="M 703 97 
L 703 672 
Q 941 559 1184 500 
Q 1428 441 1663 441 
Q 2288 441 2617 861 
Q 2947 1281 2994 2138 
Q 2813 1869 2534 1725 
Q 2256 1581 1919 1581 
Q 1219 1581 811 2004 
Q 403 2428 403 3163 
Q 403 3881 828 4315 
Q 1253 4750 1959 4750 
Q 2769 4750 3195 4129 
Q 3622 3509 3622 2328 
Q 3622 1225 3098 567 
Q 2575 -91 1691 -91 
Q 1453 -91 1209 -44 
Q 966 3 703 97 
z
M 1959 2075 
Q 2384 2075 2632 2365 
Q 2881 2656 2881 3163 
Q 2881 3666 2632 3958 
Q 2384 4250 1959 4250 
Q 1534 4250 1286 3958 
Q 1038 3666 1038 3163 
Q 1038 2656 1286 2365 
Q 1534 2075 1959 2075 
z
" transform="scale(0.015625)"/>
       </defs>
       <use xlink:href="#DejaVuSans-39"/>
      </g>
     </g>
    </g>
    <g id="ytick_6">
     <g id="line2d_32">
      <g>
       <use xlink:href="#mf13ddaf94d" x="54.398" y="138.559704" style="stroke: #000000; stroke-width: 0.8"/>
      </g>
     </g>
     <g id="text_10">
      <!-- 10 -->
      <g transform="translate(34.673 142.358923) scale(0.1 -0.1)">
       <use xlink:href="#DejaVuSans-31"/>
       <use xlink:href="#DejaVuSans-30" transform="translate(63.623047 0)"/>
      </g>
     </g>
    </g>
    <g id="ytick_7">
     <g id="line2d_33">
      <g>
       <use xlink:href="#mf13ddaf94d" x="54.398" y="94.529203" style="stroke: #000000; stroke-width: 0.8"/>
      </g>
     </g>
     <g id="text_11">
      <!-- 11 -->
      <g transform="translate(34.673 98.328421) scale(0.1 -0.1)">
       <use xlink:href="#DejaVuSans-31"/>
       <use xlink:href="#DejaVuSans-31" transform="translate(63.623047 0)"/>
      </g>
     </g>
    </g>
    <g id="ytick_8">
     <g id="line2d_34">
      <g>
       <use xlink:href="#mf13ddaf94d" x="54.398" y="50.498701" style="stroke: #000000; stroke-width: 0.8"/>
      </g>
     </g>
     <g id="text_12">
      <!-- 12 -->
      <g transform="translate(34.673 54.29792) scale(0.1 -0.1)">
       <defs>
        <path id="DejaVuSans-32" d="M 1228 531 
L 3431 531 
L 3431 0 
L 469 0 
L 469 531 
Q 828 903 1448 1529 
Q 2069 2156 2228 2338 
Q 2531 2678 2651 2914 
Q 2772 3150 2772 3378 
Q 2772 3750 2511 3984 
Q 2250 4219 1831 4219 
Q 1534 4219 1204 4116 
Q 875 4013 500 3803 
L 500 4441 
Q 881 4594 1212 4672 
Q 1544 4750 1819 4750 
Q 2544 4750 2975 4387 
Q 3406 4025 3406 3419 
Q 3406 3131 3298 2873 
Q 3191 2616 2906 2266 
Q 2828 2175 2409 1742 
Q 1991 1309 1228 531 
z
" transform="scale(0.015625)"/>
       </defs>
       <use xlink:href="#DejaVuSans-31"/>
       <use xlink:href="#DejaVuSans-32" transform="translate(63.623047 0)"/>
      </g>
     </g>
    </g>
    <g id="text_13">
     <!-- closest H: $\min_i (H_i)$, for $T_i &gt; 1$ -->
     <g transform="translate(22.033 283.013375) rotate(-90) scale(0.12 -0.12)">
      <defs>
       <path id="DejaVuSans-63" d="M 3122 3366 
L 3122 2828 
Q 2878 2963 2633 3030 
Q 2388 3097 2138 3097 
Q 1578 3097 1268 2742 
Q 959 2388 959 1747 
Q 959 1106 1268 751 
Q 1578 397 2138 397 
Q 2388 397 2633 464 
Q 2878 531 3122 666 
L 3122 134 
Q 2881 22 2623 -34 
Q 2366 -91 2075 -91 
Q 1284 -91 818 406 
Q 353 903 353 1747 
Q 353 2603 823 3093 
Q 1294 3584 2113 3584 
Q 2378 3584 2631 3529 
Q 2884 3475 3122 3366 
z
" transform="scale(0.015625)"/>
       <path id="DejaVuSans-6f" d="M 1959 3097 
Q 1497 3097 1228 2736 
Q 959 2375 959 1747 
Q 959 1119 1226 758 
Q 1494 397 1959 397 
Q 2419 397 2687 759 
Q 2956 1122 2956 1747 
Q 2956 2369 2687 2733 
Q 2419 3097 1959 3097 
z
M 1959 3584 
Q 2709 3584 3137 3096 
Q 3566 2609 3566 1747 
Q 3566 888 3137 398 
Q 2709 -91 1959 -91 
Q 1206 -91 779 398 
Q 353 888 353 1747 
Q 353 2609 779 3096 
Q 1206 3584 1959 3584 
z
" transform="scale(0.015625)"/>
       <path id="DejaVuSans-73" d="M 2834 3397 
L 2834 2853 
Q 2591 2978 2328 3040 
Q 2066 3103 1784 3103 
Q 1356 3103 1142 2972 
Q 928 2841 928 2578 
Q 928 2378 1081 2264 
Q 1234 2150 1697 2047 
L 1894 2003 
Q 2506 1872 2764 1633 
Q 3022 1394 3022 966 
Q 3022 478 2636 193 
Q 2250 -91 1575 -91 
Q 1294 -91 989 -36 
Q 684 19 347 128 
L 347 722 
Q 666 556 975 473 
Q 1284 391 1588 391 
Q 1994 391 2212 530 
Q 2431 669 2431 922 
Q 2431 1156 2273 1281 
Q 2116 1406 1581 1522 
L 1381 1569 
Q 847 1681 609 1914 
Q 372 2147 372 2553 
Q 372 3047 722 3315 
Q 1072 3584 1716 3584 
Q 2034 3584 2315 3537 
Q 2597 3491 2834 3397 
z
" transform="scale(0.015625)"/>
       <path id="DejaVuSans-65" d="M 3597 1894 
L 3597 1613 
L 953 1613 
Q 991 1019 1311 708 
Q 1631 397 2203 397 
Q 2534 397 2845 478 
Q 3156 559 3463 722 
L 3463 178 
Q 3153 47 2828 -22 
Q 2503 -91 2169 -91 
Q 1331 -91 842 396 
Q 353 884 353 1716 
Q 353 2575 817 3079 
Q 1281 3584 2069 3584 
Q 2775 3584 3186 3129 
Q 3597 2675 3597 1894 
z
M 3022 2063 
Q 3016 2534 2758 2815 
Q 2500 3097 2075 3097 
Q 1594 3097 1305 2825 
Q 1016 2553 972 2059 
L 3022 2063 
z
" transform="scale(0.015625)"/>
       <path id="DejaVuSans-74" d="M 1172 4494 
L 1172 3500 
L 2356 3500 
L 2356 3053 
L 1172 3053 
L 1172 1153 
Q 1172 725 1289 603 
Q 1406 481 1766 481 
L 2356 481 
L 2356 0 
L 1766 0 
Q 1100 0 847 248 
Q 594 497 594 1153 
L 594 3053 
L 172 3053 
L 172 3500 
L 594 3500 
L 594 4494 
L 1172 4494 
z
" transform="scale(0.015625)"/>
       <path id="DejaVuSans-20" transform="scale(0.015625)"/>
       <path id="DejaVuSans-48" d="M 628 4666 
L 1259 4666 
L 1259 2753 
L 3553 2753 
L 3553 4666 
L 4184 4666 
L 4184 0 
L 3553 0 
L 3553 2222 
L 1259 2222 
L 1259 0 
L 628 0 
L 628 4666 
z
" transform="scale(0.015625)"/>
       <path id="DejaVuSans-3a" d="M 750 794 
L 1409 794 
L 1409 0 
L 750 0 
L 750 794 
z
M 750 3309 
L 1409 3309 
L 1409 2516 
L 750 2516 
L 750 3309 
z
" transform="scale(0.015625)"/>
       <path id="DejaVuSans-6d" d="M 3328 2828 
Q 3544 3216 3844 3400 
Q 4144 3584 4550 3584 
Q 5097 3584 5394 3201 
Q 5691 2819 5691 2113 
L 5691 0 
L 5113 0 
L 5113 2094 
Q 5113 2597 4934 2840 
Q 4756 3084 4391 3084 
Q 3944 3084 3684 2787 
Q 3425 2491 3425 1978 
L 3425 0 
L 2847 0 
L 2847 2094 
Q 2847 2600 2669 2842 
Q 2491 3084 2119 3084 
Q 1678 3084 1418 2786 
Q 1159 2488 1159 1978 
L 1159 0 
L 581 0 
L 581 3500 
L 1159 3500 
L 1159 2956 
Q 1356 3278 1631 3431 
Q 1906 3584 2284 3584 
Q 2666 3584 2933 3390 
Q 3200 3197 3328 2828 
z
" transform="scale(0.015625)"/>
       <path id="DejaVuSans-69" d="M 603 3500 
L 1178 3500 
L 1178 0 
L 603 0 
L 603 3500 
z
M 603 4863 
L 1178 4863 
L 1178 4134 
L 603 4134 
L 603 4863 
z
" transform="scale(0.015625)"/>
       <path id="DejaVuSans-6e" d="M 3513 2113 
L 3513 0 
L 2938 0 
L 2938 2094 
Q 2938 2591 2744 2837 
Q 2550 3084 2163 3084 
Q 1697 3084 1428 2787 
Q 1159 2491 1159 1978 
L 1159 0 
L 581 0 
L 581 3500 
L 1159 3500 
L 1159 2956 
Q 1366 3272 1645 3428 
Q 1925 3584 2291 3584 
Q 2894 3584 3203 3211 
Q 3513 2838 3513 2113 
z
" transform="scale(0.015625)"/>
       <path id="DejaVuSans-Oblique-69" d="M 1172 4863 
L 1747 4863 
L 1606 4134 
L 1031 4134 
L 1172 4863 
z
M 909 3500 
L 1484 3500 
L 800 0 
L 225 0 
L 909 3500 
z
" transform="scale(0.015625)"/>
       <path id="DejaVuSans-28" d="M 1984 4856 
Q 1566 4138 1362 3434 
Q 1159 2731 1159 2009 
Q 1159 1288 1364 580 
Q 1569 -128 1984 -844 
L 1484 -844 
Q 1016 -109 783 600 
Q 550 1309 550 2009 
Q 550 2706 781 3412 
Q 1013 4119 1484 4856 
L 1984 4856 
z
" transform="scale(0.015625)"/>
       <path id="DejaVuSans-Oblique-48" d="M 1081 4666 
L 1716 4666 
L 1344 2753 
L 3634 2753 
L 4006 4666 
L 4641 4666 
L 3731 0 
L 3097 0 
L 3531 2222 
L 1241 2222 
L 806 0 
L 172 0 
L 1081 4666 
z
" transform="scale(0.015625)"/>
       <path id="DejaVuSans-29" d="M 513 4856 
L 1013 4856 
Q 1481 4119 1714 3412 
Q 1947 2706 1947 2009 
Q 1947 1309 1714 600 
Q 1481 -109 1013 -844 
L 513 -844 
Q 928 -128 1133 580 
Q 1338 1288 1338 2009 
Q 1338 2731 1133 3434 
Q 928 4138 513 4856 
z
" transform="scale(0.015625)"/>
       <path id="DejaVuSans-2c" d="M 750 794 
L 1409 794 
L 1409 256 
L 897 -744 
L 494 -744 
L 750 256 
L 750 794 
z
" transform="scale(0.015625)"/>
       <path id="DejaVuSans-66" d="M 2375 4863 
L 2375 4384 
L 1825 4384 
Q 1516 4384 1395 4259 
Q 1275 4134 1275 3809 
L 1275 3500 
L 2222 3500 
L 2222 3053 
L 1275 3053 
L 1275 0 
L 697 0 
L 697 3053 
L 147 3053 
L 147 3500 
L 697 3500 
L 697 3744 
Q 697 4328 969 4595 
Q 1241 4863 1831 4863 
L 2375 4863 
z
" transform="scale(0.015625)"/>
       <path id="DejaVuSans-72" d="M 2631 2963 
Q 2534 3019 2420 3045 
Q 2306 3072 2169 3072 
Q 1681 3072 1420 2755 
Q 1159 2438 1159 1844 
L 1159 0 
L 581 0 
L 581 3500 
L 1159 3500 
L 1159 2956 
Q 1341 3275 1631 3429 
Q 1922 3584 2338 3584 
Q 2397 3584 2469 3576 
Q 2541 3569 2628 3553 
L 2631 2963 
z
" transform="scale(0.015625)"/>
       <path id="DejaVuSans-Oblique-54" d="M 378 4666 
L 4325 4666 
L 4225 4134 
L 2559 4134 
L 1759 0 
L 1125 0 
L 1925 4134 
L 275 4134 
L 378 4666 
z
" transform="scale(0.015625)"/>
       <path id="DejaVuSans-3e" d="M 678 3150 
L 678 3719 
L 4684 2266 
L 4684 1747 
L 678 294 
L 678 863 
L 3897 2003 
L 678 3150 
z
" transform="scale(0.015625)"/>
      </defs>
      <use xlink:href="#DejaVuSans-63" transform="translate(0 0.015625)"/>
      <use xlink:href="#DejaVuSans-6c" transform="translate(54.980469 0.015625)"/>
      <use xlink:href="#DejaVuSans-6f" transform="translate(82.763672 0.015625)"/>
      <use xlink:href="#DejaVuSans-73" transform="translate(143.945312 0.015625)"/>
      <use xlink:href="#DejaVuSans-65" transform="translate(196.044922 0.015625)"/>
      <use xlink:href="#DejaVuSans-73" transform="translate(257.568359 0.015625)"/>
      <use xlink:href="#DejaVuSans-74" transform="translate(309.667969 0.015625)"/>
      <use xlink:href="#DejaVuSans-20" transform="translate(348.876953 0.015625)"/>
      <use xlink:href="#DejaVuSans-48" transform="translate(380.664062 0.015625)"/>
      <use xlink:href="#DejaVuSans-3a" transform="translate(455.859375 0.015625)"/>
      <use xlink:href="#DejaVuSans-20" transform="translate(489.550781 0.015625)"/>
      <use xlink:href="#DejaVuSans-6d" transform="translate(521.337891 0.015625)"/>
      <use xlink:href="#DejaVuSans-69" transform="translate(618.75 0.015625)"/>
      <use xlink:href="#DejaVuSans-6e" transform="translate(646.533203 0.015625)"/>
      <use xlink:href="#DejaVuSans-Oblique-69" transform="translate(607.337891 -71.923438) scale(0.7)"/>
      <use xlink:href="#DejaVuSans-28" transform="translate(709.912109 0.015625)"/>
      <use xlink:href="#DejaVuSans-Oblique-48" transform="translate(748.925781 0.015625)"/>
      <use xlink:href="#DejaVuSans-Oblique-69" transform="translate(824.121094 -16.390625) scale(0.7)"/>
      <use xlink:href="#DejaVuSans-29" transform="translate(862.539387 0.015625)"/>
      <use xlink:href="#DejaVuSans-2c" transform="translate(901.553059 0.015625)"/>
      <use xlink:href="#DejaVuSans-20" transform="translate(933.340168 0.015625)"/>
      <use xlink:href="#DejaVuSans-66" transform="translate(965.127278 0.015625)"/>
      <use xlink:href="#DejaVuSans-6f" transform="translate(1000.332356 0.015625)"/>
      <use xlink:href="#DejaVuSans-72" transform="translate(1061.513997 0.015625)"/>
      <use xlink:href="#DejaVuSans-20" transform="translate(1102.627278 0.015625)"/>
      <use xlink:href="#DejaVuSans-Oblique-54" transform="translate(1134.414387 0.015625)"/>
      <use xlink:href="#DejaVuSans-Oblique-69" transform="translate(1195.498372 -16.390625) scale(0.7)"/>
      <use xlink:href="#DejaVuSans-3e" transform="translate(1237.163411 0.015625)"/>
      <use xlink:href="#DejaVuSans-31" transform="translate(1340.434895 0.015625)"/>
     </g>
    </g>
   </g>
   <g id="line2d_35">
    <path d="M 62.792185 368.619075 
L 67.729941 368.046679 
L 72.667697 369.235502 
L 77.605453 369.191472 
L 82.543209 366.945916 
L 87.480965 367.518313 
L 92.418721 368.442953 
L 97.356477 367.29816 
L 102.294233 367.078008 
L 107.231989 368.266831 
L 112.169745 369.543716 
L 117.107501 368.046679 
L 122.045257 366.065306 
L 126.983013 366.461581 
L 131.920769 363.599598 
L 136.858525 363.203324 
L 141.796281 362.102561 
L 146.734037 358.668182 
L 151.671793 352.768095 
L 156.609549 346.956069 
L 161.547305 332.646156 
L 166.485061 320.449707 
L 171.422817 309.221929 
L 176.360574 283.90439 
L 181.29833 263.650359 
L 186.236086 246.610555 
L 191.173842 218.431034 
L 196.111598 197.252363 
L 201.049354 193.289618 
L 205.98711 185.364127 
L 210.924866 182.94245 
L 215.862622 182.722297 
L 220.800378 182.590206 
L 225.738134 182.590206 
L 230.67589 182.590206 
" clip-path="url(#p6dd77a2d42)" style="fill: none; stroke: #440154; stroke-width: 2; stroke-linecap: square"/>
   </g>
   <g id="line2d_36">
    <path d="M 62.792185 344.502369 
L 67.729941 344.054058 
L 72.667697 343.345567 
L 77.605453 343.49367 
L 82.543209 341.9486 
L 87.480965 343.149432 
L 92.418721 341.700428 
L 97.356477 342.773171 
L 102.294233 342.565027 
L 107.231989 342.504985 
L 112.169745 343.621759 
L 117.107501 341.980622 
L 122.045257 342.625068 
L 126.983013 342.116716 
L 131.920769 340.839832 
L 136.858525 340.283446 
L 141.796281 340.863848 
L 146.734037 339.434858 
L 151.671793 336.680951 
L 156.609549 334.779633 
L 161.547305 330.940974 
L 166.485061 325.329087 
L 171.422817 321.342325 
L 176.360574 308.049116 
L 181.29833 298.098223 
L 186.236086 288.719726 
L 191.173842 270.359007 
L 196.111598 256.777598 
L 201.049354 243.588462 
L 205.98711 236.971878 
L 210.924866 236.011213 
L 215.862622 235.430811 
L 220.800378 235.654966 
L 225.738134 234.041848 
L 230.67589 235.546891 
" clip-path="url(#p6dd77a2d42)" style="fill: none; stroke: #472f7d; stroke-width: 2; stroke-linecap: square"/>
   </g>
   <g id="line2d_37">
    <path d="M 62.792185 297.922101 
L 67.729941 297.133555 
L 72.667697 298.870758 
L 77.605453 296.437072 
L 82.543209 296.497114 
L 87.480965 296.685244 
L 92.418721 296.264953 
L 97.356477 296.076822 
L 102.294233 297.21361 
L 107.231989 298.470481 
L 112.169745 299.23501 
L 117.107501 296.99746 
L 122.045257 298.926797 
L 126.983013 297.433763 
L 131.920769 295.484412 
L 136.858525 296.657225 
L 141.796281 295.756601 
L 146.734037 295.024093 
L 151.671793 295.136171 
L 156.609549 293.483026 
L 161.547305 291.705795 
L 166.485061 289.051956 
L 171.422817 288.467551 
L 176.360574 281.706868 
L 181.29833 273.665297 
L 186.236086 267.653132 
L 191.173842 251.686071 
L 196.111598 240.822546 
L 201.049354 221.393086 
L 205.98711 214.156073 
L 210.924866 212.971252 
L 215.862622 211.506237 
L 220.800378 212.955241 
L 225.738134 211.32211 
L 230.67589 213.611696 
" clip-path="url(#p6dd77a2d42)" style="fill: none; stroke: #31688e; stroke-width: 2; stroke-linecap: square"/>
   </g>
   <g id="line2d_38">
    <path d="M 62.792185 204.453351 
L 67.729941 205.253906 
L 72.667697 204.733545 
L 77.605453 201.899582 
L 82.543209 204.389307 
L 87.480965 204.305249 
L 92.418721 202.672117 
L 97.356477 203.020359 
L 102.294233 206.130513 
L 107.231989 204.845623 
L 112.169745 207.211262 
L 117.107501 204.001038 
L 122.045257 205.554114 
L 126.983013 206.851012 
L 131.920769 205.954391 
L 136.858525 204.749557 
L 141.796281 204.001038 
L 146.734037 203.332575 
L 151.671793 204.553421 
L 156.609549 204.021052 
L 161.547305 203.724847 
L 166.485061 201.219111 
L 171.422817 201.327186 
L 176.360574 200.586673 
L 181.29833 193.461737 
L 186.236086 188.306166 
L 191.173842 178.487364 
L 196.111598 168.772634 
L 201.049354 139.136103 
L 205.98711 132.623592 
L 210.924866 133.716349 
L 215.862622 132.4915 
L 220.800378 132.047193 
L 225.738134 133.80441 
L 230.67589 134.532915 
" clip-path="url(#p6dd77a2d42)" style="fill: none; stroke: #35b779; stroke-width: 2; stroke-linecap: square"/>
   </g>
   <g id="line2d_39">
    <path d="M 62.792185 91.106832 
L 67.729941 91.415045 
L 72.667697 90.878674 
L 77.605453 89.281567 
L 82.543209 93.172263 
L 87.480965 88.797232 
L 92.418721 89.101442 
L 97.356477 88.509032 
L 102.294233 90.97474 
L 107.231989 90.722566 
L 112.169745 90.374324 
L 117.107501 91.258937 
L 122.045257 90.894685 
L 126.983013 91.547137 
L 131.920769 89.649822 
L 136.858525 92.972124 
L 141.796281 90.606485 
L 146.734037 91.59517 
L 151.671793 90.370321 
L 156.609549 89.173492 
L 161.547305 89.805931 
L 166.485061 87.972661 
L 171.422817 90.85866 
L 176.360574 88.376941 
L 181.29833 86.339529 
L 186.236086 83.429513 
L 191.173842 75.984356 
L 196.111598 68.655279 
L 201.049354 35.544341 
L 205.98711 29.24798 
L 210.924866 28.431414 
L 215.862622 28.371372 
L 220.800378 27.883034 
L 225.738134 28.915749 
L 230.67589 30.725003 
" clip-path="url(#p6dd77a2d42)" style="fill: none; stroke: #fde725; stroke-width: 2; stroke-linecap: square"/>
   </g>
   <g id="patch_3">
    <path d="M 54.398 386.62675 
L 54.398 10.8 
" style="fill: none; stroke: #000000; stroke-width: 0.8; stroke-linejoin: miter; stroke-linecap: square"/>
   </g>
   <g id="patch_4">
    <path d="M 239.070075 386.62675 
L 239.070075 10.8 
" style="fill: none; stroke: #000000; stroke-width: 0.8; stroke-linejoin: miter; stroke-linecap: square"/>
   </g>
   <g id="patch_5">
    <path d="M 54.398 386.62675 
L 239.070075 386.62675 
" style="fill: none; stroke: #000000; stroke-width: 0.8; stroke-linejoin: miter; stroke-linecap: square"/>
   </g>
   <g id="patch_6">
    <path d="M 54.398 10.8 
L 239.070075 10.8 
" style="fill: none; stroke: #000000; stroke-width: 0.8; stroke-linejoin: miter; stroke-linecap: square"/>
   </g>
  </g>
  <g id="axes_2">
   <g id="patch_7">
    <path d="M 304.598 386.62675 
L 489.270075 386.62675 
L 489.270075 10.8 
L 304.598 10.8 
z
" style="fill: #ffffff"/>
   </g>
   <g id="matplotlib.axis_3">
    <g id="xtick_27">
     <g id="line2d_40">
      <g>
       <use xlink:href="#m4326e4de49" x="346.568926" y="386.62675" style="stroke: #000000; stroke-width: 0.8"/>
      </g>
     </g>
     <g id="text_14">
      <!-- $\mathdefault{10^{-5}}$ -->
      <g transform="translate(334.818926 401.225188) scale(0.1 -0.1)">
       <use xlink:href="#DejaVuSans-31" transform="translate(0 0.684375)"/>
       <use xlink:href="#DejaVuSans-30" transform="translate(63.623047 0.684375)"/>
       <use xlink:href="#DejaVuSans-2212" transform="translate(128.203125 38.965625) scale(0.7)"/>
       <use xlink:href="#DejaVuSans-35" transform="translate(186.855469 38.965625) scale(0.7)"/>
      </g>
     </g>
    </g>
    <g id="xtick_28">
     <g id="line2d_41">
      <g>
       <use xlink:href="#m4326e4de49" x="413.722408" y="386.62675" style="stroke: #000000; stroke-width: 0.8"/>
      </g>
     </g>
     <g id="text_15">
      <!-- $\mathdefault{10^{-4}}$ -->
      <g transform="translate(401.972408 401.225188) scale(0.1 -0.1)">
       <use xlink:href="#DejaVuSans-31" transform="translate(0 0.684375)"/>
       <use xlink:href="#DejaVuSans-30" transform="translate(63.623047 0.684375)"/>
       <use xlink:href="#DejaVuSans-2212" transform="translate(128.203125 38.965625) scale(0.7)"/>
       <use xlink:href="#DejaVuSans-34" transform="translate(186.855469 38.965625) scale(0.7)"/>
      </g>
     </g>
    </g>
    <g id="xtick_29">
     <g id="line2d_42">
      <g>
       <use xlink:href="#m4326e4de49" x="480.87589" y="386.62675" style="stroke: #000000; stroke-width: 0.8"/>
      </g>
     </g>
     <g id="text_16">
      <!-- $\mathdefault{10^{-3}}$ -->
      <g transform="translate(469.12589 401.225188) scale(0.1 -0.1)">
       <use xlink:href="#DejaVuSans-31" transform="translate(0 0.765625)"/>
       <use xlink:href="#DejaVuSans-30" transform="translate(63.623047 0.765625)"/>
       <use xlink:href="#DejaVuSans-2212" transform="translate(128.203125 39.046875) scale(0.7)"/>
       <use xlink:href="#DejaVuSans-33" transform="translate(186.855469 39.046875) scale(0.7)"/>
      </g>
     </g>
    </g>
    <g id="xtick_30">
     <g id="line2d_43">
      <g>
       <use xlink:href="#md9cdd50c29" x="311.455798" y="386.62675" style="stroke: #000000; stroke-width: 0.6"/>
      </g>
     </g>
    </g>
    <g id="xtick_31">
     <g id="line2d_44">
      <g>
       <use xlink:href="#md9cdd50c29" x="319.845869" y="386.62675" style="stroke: #000000; stroke-width: 0.6"/>
      </g>
     </g>
    </g>
    <g id="xtick_32">
     <g id="line2d_45">
      <g>
       <use xlink:href="#md9cdd50c29" x="326.353714" y="386.62675" style="stroke: #000000; stroke-width: 0.6"/>
      </g>
     </g>
    </g>
    <g id="xtick_33">
     <g id="line2d_46">
      <g>
       <use xlink:href="#md9cdd50c29" x="331.67101" y="386.62675" style="stroke: #000000; stroke-width: 0.6"/>
      </g>
     </g>
    </g>
    <g id="xtick_34">
     <g id="line2d_47">
      <g>
       <use xlink:href="#md9cdd50c29" x="336.16672" y="386.62675" style="stroke: #000000; stroke-width: 0.6"/>
      </g>
     </g>
    </g>
    <g id="xtick_35">
     <g id="line2d_48">
      <g>
       <use xlink:href="#md9cdd50c29" x="340.061081" y="386.62675" style="stroke: #000000; stroke-width: 0.6"/>
      </g>
     </g>
    </g>
    <g id="xtick_36">
     <g id="line2d_49">
      <g>
       <use xlink:href="#md9cdd50c29" x="343.496151" y="386.62675" style="stroke: #000000; stroke-width: 0.6"/>
      </g>
     </g>
    </g>
    <g id="xtick_37">
     <g id="line2d_50">
      <g>
       <use xlink:href="#md9cdd50c29" x="366.784138" y="386.62675" style="stroke: #000000; stroke-width: 0.6"/>
      </g>
     </g>
    </g>
    <g id="xtick_38">
     <g id="line2d_51">
      <g>
       <use xlink:href="#md9cdd50c29" x="378.60928" y="386.62675" style="stroke: #000000; stroke-width: 0.6"/>
      </g>
     </g>
    </g>
    <g id="xtick_39">
     <g id="line2d_52">
      <g>
       <use xlink:href="#md9cdd50c29" x="386.999351" y="386.62675" style="stroke: #000000; stroke-width: 0.6"/>
      </g>
     </g>
    </g>
    <g id="xtick_40">
     <g id="line2d_53">
      <g>
       <use xlink:href="#md9cdd50c29" x="393.507196" y="386.62675" style="stroke: #000000; stroke-width: 0.6"/>
      </g>
     </g>
    </g>
    <g id="xtick_41">
     <g id="line2d_54">
      <g>
       <use xlink:href="#md9cdd50c29" x="398.824492" y="386.62675" style="stroke: #000000; stroke-width: 0.6"/>
      </g>
     </g>
    </g>
    <g id="xtick_42">
     <g id="line2d_55">
      <g>
       <use xlink:href="#md9cdd50c29" x="403.320202" y="386.62675" style="stroke: #000000; stroke-width: 0.6"/>
      </g>
     </g>
    </g>
    <g id="xtick_43">
     <g id="line2d_56">
      <g>
       <use xlink:href="#md9cdd50c29" x="407.214563" y="386.62675" style="stroke: #000000; stroke-width: 0.6"/>
      </g>
     </g>
    </g>
    <g id="xtick_44">
     <g id="line2d_57">
      <g>
       <use xlink:href="#md9cdd50c29" x="410.649633" y="386.62675" style="stroke: #000000; stroke-width: 0.6"/>
      </g>
     </g>
    </g>
    <g id="xtick_45">
     <g id="line2d_58">
      <g>
       <use xlink:href="#md9cdd50c29" x="433.93762" y="386.62675" style="stroke: #000000; stroke-width: 0.6"/>
      </g>
     </g>
    </g>
    <g id="xtick_46">
     <g id="line2d_59">
      <g>
       <use xlink:href="#md9cdd50c29" x="445.762761" y="386.62675" style="stroke: #000000; stroke-width: 0.6"/>
      </g>
     </g>
    </g>
    <g id="xtick_47">
     <g id="line2d_60">
      <g>
       <use xlink:href="#md9cdd50c29" x="454.152833" y="386.62675" style="stroke: #000000; stroke-width: 0.6"/>
      </g>
     </g>
    </g>
    <g id="xtick_48">
     <g id="line2d_61">
      <g>
       <use xlink:href="#md9cdd50c29" x="460.660677" y="386.62675" style="stroke: #000000; stroke-width: 0.6"/>
      </g>
     </g>
    </g>
    <g id="xtick_49">
     <g id="line2d_62">
      <g>
       <use xlink:href="#md9cdd50c29" x="465.977974" y="386.62675" style="stroke: #000000; stroke-width: 0.6"/>
      </g>
     </g>
    </g>
    <g id="xtick_50">
     <g id="line2d_63">
      <g>
       <use xlink:href="#md9cdd50c29" x="470.473684" y="386.62675" style="stroke: #000000; stroke-width: 0.6"/>
      </g>
     </g>
    </g>
    <g id="xtick_51">
     <g id="line2d_64">
      <g>
       <use xlink:href="#md9cdd50c29" x="474.368045" y="386.62675" style="stroke: #000000; stroke-width: 0.6"/>
      </g>
     </g>
    </g>
    <g id="xtick_52">
     <g id="line2d_65">
      <g>
       <use xlink:href="#md9cdd50c29" x="477.803115" y="386.62675" style="stroke: #000000; stroke-width: 0.6"/>
      </g>
     </g>
    </g>
    <g id="text_17">
     <!-- alpha_0 -->
     <g transform="translate(377.392631 414.903313) scale(0.1 -0.1)">
      <use xlink:href="#DejaVuSans-61"/>
      <use xlink:href="#DejaVuSans-6c" transform="translate(61.279297 0)"/>
      <use xlink:href="#DejaVuSans-70" transform="translate(89.0625 0)"/>
      <use xlink:href="#DejaVuSans-68" transform="translate(152.539062 0)"/>
      <use xlink:href="#DejaVuSans-61" transform="translate(215.917969 0)"/>
      <use xlink:href="#DejaVuSans-5f" transform="translate(277.197266 0)"/>
      <use xlink:href="#DejaVuSans-30" transform="translate(327.197266 0)"/>
     </g>
    </g>
   </g>
   <g id="matplotlib.axis_4">
    <g id="ytick_9">
     <g id="line2d_66">
      <g>
       <use xlink:href="#mf13ddaf94d" x="304.598" y="363.291585" style="stroke: #000000; stroke-width: 0.8"/>
      </g>
     </g>
     <g id="text_18">
      <!-- 8 -->
      <g transform="translate(291.2355 367.090804) scale(0.1 -0.1)">
       <use xlink:href="#DejaVuSans-38"/>
      </g>
     </g>
    </g>
    <g id="ytick_10">
     <g id="line2d_67">
      <g>
       <use xlink:href="#mf13ddaf94d" x="304.598" y="291.685781" style="stroke: #000000; stroke-width: 0.8"/>
      </g>
     </g>
     <g id="text_19">
      <!-- 10 -->
      <g transform="translate(284.873 295.484999) scale(0.1 -0.1)">
       <use xlink:href="#DejaVuSans-31"/>
       <use xlink:href="#DejaVuSans-30" transform="translate(63.623047 0)"/>
      </g>
     </g>
    </g>
    <g id="ytick_11">
     <g id="line2d_68">
      <g>
       <use xlink:href="#mf13ddaf94d" x="304.598" y="220.079976" style="stroke: #000000; stroke-width: 0.8"/>
      </g>
     </g>
     <g id="text_20">
      <!-- 12 -->
      <g transform="translate(284.873 223.879195) scale(0.1 -0.1)">
       <use xlink:href="#DejaVuSans-31"/>
       <use xlink:href="#DejaVuSans-32" transform="translate(63.623047 0)"/>
      </g>
     </g>
    </g>
    <g id="ytick_12">
     <g id="line2d_69">
      <g>
       <use xlink:href="#mf13ddaf94d" x="304.598" y="148.474171" style="stroke: #000000; stroke-width: 0.8"/>
      </g>
     </g>
     <g id="text_21">
      <!-- 14 -->
      <g transform="translate(284.873 152.27339) scale(0.1 -0.1)">
       <use xlink:href="#DejaVuSans-31"/>
       <use xlink:href="#DejaVuSans-34" transform="translate(63.623047 0)"/>
      </g>
     </g>
    </g>
    <g id="ytick_13">
     <g id="line2d_70">
      <g>
       <use xlink:href="#mf13ddaf94d" x="304.598" y="76.868367" style="stroke: #000000; stroke-width: 0.8"/>
      </g>
     </g>
     <g id="text_22">
      <!-- 16 -->
      <g transform="translate(284.873 80.667586) scale(0.1 -0.1)">
       <use xlink:href="#DejaVuSans-31"/>
       <use xlink:href="#DejaVuSans-36" transform="translate(63.623047 0)"/>
      </g>
     </g>
    </g>
    <g id="text_23">
     <!-- mean H: $\sum_i H_i f_i$, for $T_i &gt; 1$ -->
     <g transform="translate(268.873 271.013375) rotate(-90) scale(0.12 -0.12)">
      <defs>
       <path id="DejaVuSansDisplay-2211" d="M 244 6509 
L 5803 6509 
L 5803 5656 
L 1566 5656 
L 4534 2488 
L 1469 -888 
L 5919 -888 
L 5919 -1738 
L 109 -1738 
L 109 -1078 
L 3316 2463 
L 244 5728 
L 244 6509 
z
" transform="scale(0.015625)"/>
       <path id="DejaVuSans-Oblique-66" d="M 3059 4863 
L 2969 4384 
L 2419 4384 
Q 2106 4384 1964 4261 
Q 1822 4138 1753 3809 
L 1691 3500 
L 2638 3500 
L 2553 3053 
L 1606 3053 
L 1013 0 
L 434 0 
L 1031 3053 
L 481 3053 
L 563 3500 
L 1113 3500 
L 1159 3744 
Q 1278 4363 1576 4613 
Q 1875 4863 2516 4863 
L 3059 4863 
z
" transform="scale(0.015625)"/>
      </defs>
      <use xlink:href="#DejaVuSans-6d" transform="translate(0 0.296875)"/>
      <use xlink:href="#DejaVuSans-65" transform="translate(97.412109 0.296875)"/>
      <use xlink:href="#DejaVuSans-61" transform="translate(158.935547 0.296875)"/>
      <use xlink:href="#DejaVuSans-6e" transform="translate(220.214844 0.296875)"/>
      <use xlink:href="#DejaVuSans-20" transform="translate(283.59375 0.296875)"/>
      <use xlink:href="#DejaVuSans-48" transform="translate(315.380859 0.296875)"/>
      <use xlink:href="#DejaVuSans-3a" transform="translate(390.576172 0.296875)"/>
      <use xlink:href="#DejaVuSans-20" transform="translate(424.267578 0.296875)"/>
      <use xlink:href="#DejaVuSansDisplay-2211" transform="translate(456.054688 0.296875)"/>
      <use xlink:href="#DejaVuSans-Oblique-69" transform="translate(493.054688 -98.798438) scale(0.7)"/>
      <use xlink:href="#DejaVuSans-Oblique-48" transform="translate(546.820312 0.296875)"/>
      <use xlink:href="#DejaVuSans-Oblique-69" transform="translate(622.015625 -16.109375) scale(0.7)"/>
      <use xlink:href="#DejaVuSans-Oblique-66" transform="translate(644.198242 0.296875)"/>
      <use xlink:href="#DejaVuSans-Oblique-69" transform="translate(679.40332 -16.109375) scale(0.7)"/>
      <use xlink:href="#DejaVuSans-2c" transform="translate(701.585938 0.296875)"/>
      <use xlink:href="#DejaVuSans-20" transform="translate(733.373047 0.296875)"/>
      <use xlink:href="#DejaVuSans-66" transform="translate(765.160156 0.296875)"/>
      <use xlink:href="#DejaVuSans-6f" transform="translate(800.365234 0.296875)"/>
      <use xlink:href="#DejaVuSans-72" transform="translate(861.546875 0.296875)"/>
      <use xlink:href="#DejaVuSans-20" transform="translate(902.660156 0.296875)"/>
      <use xlink:href="#DejaVuSans-Oblique-54" transform="translate(934.447266 0.296875)"/>
      <use xlink:href="#DejaVuSans-Oblique-69" transform="translate(995.53125 -16.109375) scale(0.7)"/>
      <use xlink:href="#DejaVuSans-3e" transform="translate(1037.196289 0.296875)"/>
      <use xlink:href="#DejaVuSans-31" transform="translate(1140.467773 0.296875)"/>
     </g>
    </g>
   </g>
   <g id="line2d_71">
    <path d="M 312.992185 369.543716 
L 317.929941 368.950643 
L 322.867697 368.671026 
L 327.805453 367.616045 
L 332.743209 366.880146 
L 337.680965 366.171647 
L 342.618721 365.005737 
L 347.556477 363.781639 
L 352.494233 362.419611 
L 357.431989 360.834695 
L 362.369745 359.735924 
L 367.307501 357.622329 
L 372.245257 355.989489 
L 377.183013 353.902454 
L 382.120769 351.192403 
L 387.058525 349.242784 
L 391.996281 347.23476 
L 396.934037 345.611493 
L 401.871793 343.813219 
L 406.809549 341.704399 
L 411.747305 339.946 
L 416.685061 338.253625 
L 421.622817 336.764122 
L 426.560574 333.849928 
L 431.49833 329.988626 
L 436.436086 325.671178 
L 441.373842 318.810624 
L 446.311598 312.158364 
L 451.249354 329.999759 
L 456.18711 327.972799 
L 461.124866 327.312807 
L 466.062622 327.262785 
L 471.000378 327.087623 
L 475.938134 326.984477 
L 480.87589 326.684621 
" clip-path="url(#p78ad13d029)" style="fill: none; stroke: #440154; stroke-width: 2; stroke-linecap: square"/>
   </g>
   <g id="line2d_72">
    <path d="M 312.992185 325.89792 
L 317.929941 325.22614 
L 322.867697 325.015996 
L 327.805453 324.125276 
L 332.743209 323.48111 
L 337.680965 322.785159 
L 342.618721 321.536775 
L 347.556477 320.487964 
L 352.494233 319.424962 
L 357.431989 317.863629 
L 362.369745 316.993585 
L 367.307501 315.125524 
L 372.245257 313.565862 
L 377.183013 311.510356 
L 382.120769 309.054876 
L 387.058525 307.786645 
L 391.996281 305.893742 
L 396.934037 304.230874 
L 401.871793 302.544241 
L 406.809549 300.611974 
L 411.747305 299.053526 
L 416.685061 297.622141 
L 421.622817 296.480354 
L 426.560574 293.686072 
L 431.49833 290.161092 
L 436.436086 286.32422 
L 441.373842 280.012589 
L 446.311598 274.20357 
L 451.249354 290.176816 
L 456.18711 288.570523 
L 461.124866 288.376742 
L 466.062622 287.968979 
L 471.000378 287.71198 
L 475.938134 287.384779 
L 480.87589 287.407617 
" clip-path="url(#p78ad13d029)" style="fill: none; stroke: #472f7d; stroke-width: 2; stroke-linecap: square"/>
   </g>
   <g id="line2d_73">
    <path d="M 312.992185 260.549224 
L 317.929941 259.713399 
L 322.867697 259.920151 
L 327.805453 259.019589 
L 332.743209 258.560945 
L 337.680965 257.796473 
L 342.618721 256.770473 
L 347.556477 255.923255 
L 352.494233 255.053621 
L 357.431989 254.102435 
L 362.369745 253.349716 
L 367.307501 251.710819 
L 372.245257 250.590654 
L 377.183013 248.535769 
L 382.120769 246.296777 
L 387.058525 245.792562 
L 391.996281 244.404365 
L 396.934037 242.318646 
L 401.871793 241.381107 
L 406.809549 239.76966 
L 411.747305 238.085265 
L 416.685061 236.934849 
L 421.622817 236.36039 
L 426.560574 233.971175 
L 431.49833 230.610684 
L 436.436086 227.495953 
L 441.373842 222.219393 
L 446.311598 217.324551 
L 451.249354 231.096003 
L 456.18711 229.329436 
L 461.124866 229.622345 
L 466.062622 229.516774 
L 471.000378 229.110679 
L 475.938134 228.463546 
L 480.87589 229.197714 
" clip-path="url(#p78ad13d029)" style="fill: none; stroke: #31688e; stroke-width: 2; stroke-linecap: square"/>
   </g>
   <g id="line2d_74">
    <path d="M 312.992185 151.426892 
L 317.929941 150.697989 
L 322.867697 151.067152 
L 327.805453 150.014903 
L 332.743209 150.402112 
L 337.680965 149.761958 
L 342.618721 148.542127 
L 347.556477 148.112518 
L 352.494233 147.940109 
L 357.431989 147.334919 
L 362.369745 147.058158 
L 367.307501 145.779047 
L 372.245257 144.548415 
L 377.183013 142.90887 
L 382.120769 141.933186 
L 387.058525 141.70707 
L 391.996281 140.677944 
L 396.934037 139.316063 
L 401.871793 138.656432 
L 406.809549 137.566986 
L 411.747305 136.635867 
L 416.685061 135.418606 
L 421.622817 135.288701 
L 426.560574 133.696882 
L 431.49833 131.473907 
L 436.436086 128.946064 
L 441.373842 125.872083 
L 446.311598 122.836884 
L 451.249354 131.777678 
L 456.18711 129.913952 
L 461.124866 130.181848 
L 466.062622 130.797598 
L 471.000378 130.282499 
L 475.938134 129.608442 
L 480.87589 130.622149 
" clip-path="url(#p78ad13d029)" style="fill: none; stroke: #35b779; stroke-width: 2; stroke-linecap: square"/>
   </g>
   <g id="line2d_75">
    <path d="M 312.992185 42.719902 
L 317.929941 41.892204 
L 322.867697 42.214466 
L 327.805453 41.846969 
L 332.743209 42.06362 
L 337.680965 41.560003 
L 342.618721 40.610419 
L 347.556477 40.068002 
L 352.494233 40.509343 
L 357.431989 40.319918 
L 362.369745 40.445594 
L 367.307501 39.756595 
L 372.245257 38.522009 
L 377.183013 37.345861 
L 382.120769 37.408587 
L 387.058525 37.822665 
L 391.996281 37.087856 
L 396.934037 36.020648 
L 401.871793 35.796657 
L 406.809549 35.218856 
L 411.747305 34.789515 
L 416.685061 34.121601 
L 421.622817 34.448165 
L 426.560574 33.253773 
L 431.49833 32.589884 
L 436.436086 31.22701 
L 441.373842 28.936076 
L 446.311598 27.883034 
L 451.249354 32.232388 
L 456.18711 30.714818 
L 461.124866 31.303516 
L 466.062622 31.161337 
L 471.000378 31.391664 
L 475.938134 30.643927 
L 480.87589 32.805394 
" clip-path="url(#p78ad13d029)" style="fill: none; stroke: #fde725; stroke-width: 2; stroke-linecap: square"/>
   </g>
   <g id="patch_8">
    <path d="M 304.598 386.62675 
L 304.598 10.8 
" style="fill: none; stroke: #000000; stroke-width: 0.8; stroke-linejoin: miter; stroke-linecap: square"/>
   </g>
   <g id="patch_9">
    <path d="M 489.270075 386.62675 
L 489.270075 10.8 
" style="fill: none; stroke: #000000; stroke-width: 0.8; stroke-linejoin: miter; stroke-linecap: square"/>
   </g>
   <g id="patch_10">
    <path d="M 304.598 386.62675 
L 489.270075 386.62675 
" style="fill: none; stroke: #000000; stroke-width: 0.8; stroke-linejoin: miter; stroke-linecap: square"/>
   </g>
   <g id="patch_11">
    <path d="M 304.598 10.8 
L 489.270075 10.8 
" style="fill: none; stroke: #000000; stroke-width: 0.8; stroke-linejoin: miter; stroke-linecap: square"/>
   </g>
   <g id="legend_1">
    <g id="patch_12">
     <path d="M 311.598 236.908688 
L 432.208938 236.908688 
Q 434.208938 236.908688 434.208938 234.908688 
L 434.208938 162.518063 
Q 434.208938 160.518063 432.208938 160.518063 
L 311.598 160.518063 
Q 309.598 160.518063 309.598 162.518063 
L 309.598 234.908688 
Q 309.598 236.908688 311.598 236.908688 
z
" style="fill: #ffffff; opacity: 0.8; stroke: #cccccc; stroke-linejoin: miter"/>
    </g>
    <g id="line2d_76">
     <path d="M 313.598 168.6165 
L 323.598 168.6165 
L 333.598 168.6165 
" style="fill: none; stroke: #440154; stroke-width: 2; stroke-linecap: square"/>
    </g>
    <g id="text_24">
     <!-- N mutations = 0 -->
     <g transform="translate(341.598 172.1165) scale(0.1 -0.1)">
      <defs>
       <path id="DejaVuSans-4e" d="M 628 4666 
L 1478 4666 
L 3547 763 
L 3547 4666 
L 4159 4666 
L 4159 0 
L 3309 0 
L 1241 3903 
L 1241 0 
L 628 0 
L 628 4666 
z
" transform="scale(0.015625)"/>
       <path id="DejaVuSans-75" d="M 544 1381 
L 544 3500 
L 1119 3500 
L 1119 1403 
Q 1119 906 1312 657 
Q 1506 409 1894 409 
Q 2359 409 2629 706 
Q 2900 1003 2900 1516 
L 2900 3500 
L 3475 3500 
L 3475 0 
L 2900 0 
L 2900 538 
Q 2691 219 2414 64 
Q 2138 -91 1772 -91 
Q 1169 -91 856 284 
Q 544 659 544 1381 
z
M 1991 3584 
L 1991 3584 
z
" transform="scale(0.015625)"/>
       <path id="DejaVuSans-3d" d="M 678 2906 
L 4684 2906 
L 4684 2381 
L 678 2381 
L 678 2906 
z
M 678 1631 
L 4684 1631 
L 4684 1100 
L 678 1100 
L 678 1631 
z
" transform="scale(0.015625)"/>
      </defs>
      <use xlink:href="#DejaVuSans-4e"/>
      <use xlink:href="#DejaVuSans-20" transform="translate(74.804688 0)"/>
      <use xlink:href="#DejaVuSans-6d" transform="translate(106.591797 0)"/>
      <use xlink:href="#DejaVuSans-75" transform="translate(204.003906 0)"/>
      <use xlink:href="#DejaVuSans-74" transform="translate(267.382812 0)"/>
      <use xlink:href="#DejaVuSans-61" transform="translate(306.591797 0)"/>
      <use xlink:href="#DejaVuSans-74" transform="translate(367.871094 0)"/>
      <use xlink:href="#DejaVuSans-69" transform="translate(407.080078 0)"/>
      <use xlink:href="#DejaVuSans-6f" transform="translate(434.863281 0)"/>
      <use xlink:href="#DejaVuSans-6e" transform="translate(496.044922 0)"/>
      <use xlink:href="#DejaVuSans-73" transform="translate(559.423828 0)"/>
      <use xlink:href="#DejaVuSans-20" transform="translate(611.523438 0)"/>
      <use xlink:href="#DejaVuSans-3d" transform="translate(643.310547 0)"/>
      <use xlink:href="#DejaVuSans-20" transform="translate(727.099609 0)"/>
      <use xlink:href="#DejaVuSans-30" transform="translate(758.886719 0)"/>
     </g>
    </g>
    <g id="line2d_77">
     <path d="M 313.598 183.294625 
L 323.598 183.294625 
L 333.598 183.294625 
" style="fill: none; stroke: #472f7d; stroke-width: 2; stroke-linecap: square"/>
    </g>
    <g id="text_25">
     <!-- N mutations = 2 -->
     <g transform="translate(341.598 186.794625) scale(0.1 -0.1)">
      <use xlink:href="#DejaVuSans-4e"/>
      <use xlink:href="#DejaVuSans-20" transform="translate(74.804688 0)"/>
      <use xlink:href="#DejaVuSans-6d" transform="translate(106.591797 0)"/>
      <use xlink:href="#DejaVuSans-75" transform="translate(204.003906 0)"/>
      <use xlink:href="#DejaVuSans-74" transform="translate(267.382812 0)"/>
      <use xlink:href="#DejaVuSans-61" transform="translate(306.591797 0)"/>
      <use xlink:href="#DejaVuSans-74" transform="translate(367.871094 0)"/>
      <use xlink:href="#DejaVuSans-69" transform="translate(407.080078 0)"/>
      <use xlink:href="#DejaVuSans-6f" transform="translate(434.863281 0)"/>
      <use xlink:href="#DejaVuSans-6e" transform="translate(496.044922 0)"/>
      <use xlink:href="#DejaVuSans-73" transform="translate(559.423828 0)"/>
      <use xlink:href="#DejaVuSans-20" transform="translate(611.523438 0)"/>
      <use xlink:href="#DejaVuSans-3d" transform="translate(643.310547 0)"/>
      <use xlink:href="#DejaVuSans-20" transform="translate(727.099609 0)"/>
      <use xlink:href="#DejaVuSans-32" transform="translate(758.886719 0)"/>
     </g>
    </g>
    <g id="line2d_78">
     <path d="M 313.598 197.97275 
L 323.598 197.97275 
L 333.598 197.97275 
" style="fill: none; stroke: #31688e; stroke-width: 2; stroke-linecap: square"/>
    </g>
    <g id="text_26">
     <!-- N mutations = 5 -->
     <g transform="translate(341.598 201.47275) scale(0.1 -0.1)">
      <use xlink:href="#DejaVuSans-4e"/>
      <use xlink:href="#DejaVuSans-20" transform="translate(74.804688 0)"/>
      <use xlink:href="#DejaVuSans-6d" transform="translate(106.591797 0)"/>
      <use xlink:href="#DejaVuSans-75" transform="translate(204.003906 0)"/>
      <use xlink:href="#DejaVuSans-74" transform="translate(267.382812 0)"/>
      <use xlink:href="#DejaVuSans-61" transform="translate(306.591797 0)"/>
      <use xlink:href="#DejaVuSans-74" transform="translate(367.871094 0)"/>
      <use xlink:href="#DejaVuSans-69" transform="translate(407.080078 0)"/>
      <use xlink:href="#DejaVuSans-6f" transform="translate(434.863281 0)"/>
      <use xlink:href="#DejaVuSans-6e" transform="translate(496.044922 0)"/>
      <use xlink:href="#DejaVuSans-73" transform="translate(559.423828 0)"/>
      <use xlink:href="#DejaVuSans-20" transform="translate(611.523438 0)"/>
      <use xlink:href="#DejaVuSans-3d" transform="translate(643.310547 0)"/>
      <use xlink:href="#DejaVuSans-20" transform="translate(727.099609 0)"/>
      <use xlink:href="#DejaVuSans-35" transform="translate(758.886719 0)"/>
     </g>
    </g>
    <g id="line2d_79">
     <path d="M 313.598 212.650875 
L 323.598 212.650875 
L 333.598 212.650875 
" style="fill: none; stroke: #35b779; stroke-width: 2; stroke-linecap: square"/>
    </g>
    <g id="text_27">
     <!-- N mutations = 10 -->
     <g transform="translate(341.598 216.150875) scale(0.1 -0.1)">
      <use xlink:href="#DejaVuSans-4e"/>
      <use xlink:href="#DejaVuSans-20" transform="translate(74.804688 0)"/>
      <use xlink:href="#DejaVuSans-6d" transform="translate(106.591797 0)"/>
      <use xlink:href="#DejaVuSans-75" transform="translate(204.003906 0)"/>
      <use xlink:href="#DejaVuSans-74" transform="translate(267.382812 0)"/>
      <use xlink:href="#DejaVuSans-61" transform="translate(306.591797 0)"/>
      <use xlink:href="#DejaVuSans-74" transform="translate(367.871094 0)"/>
      <use xlink:href="#DejaVuSans-69" transform="translate(407.080078 0)"/>
      <use xlink:href="#DejaVuSans-6f" transform="translate(434.863281 0)"/>
      <use xlink:href="#DejaVuSans-6e" transform="translate(496.044922 0)"/>
      <use xlink:href="#DejaVuSans-73" transform="translate(559.423828 0)"/>
      <use xlink:href="#DejaVuSans-20" transform="translate(611.523438 0)"/>
      <use xlink:href="#DejaVuSans-3d" transform="translate(643.310547 0)"/>
      <use xlink:href="#DejaVuSans-20" transform="translate(727.099609 0)"/>
      <use xlink:href="#DejaVuSans-31" transform="translate(758.886719 0)"/>
      <use xlink:href="#DejaVuSans-30" transform="translate(822.509766 0)"/>
     </g>
    </g>
    <g id="line2d_80">
     <path d="M 313.598 227.329 
L 323.598 227.329 
L 333.598 227.329 
" style="fill: none; stroke: #fde725; stroke-width: 2; stroke-linecap: square"/>
    </g>
    <g id="text_28">
     <!-- N mutations = 15 -->
     <g transform="translate(341.598 230.829) scale(0.1 -0.1)">
      <use xlink:href="#DejaVuSans-4e"/>
      <use xlink:href="#DejaVuSans-20" transform="translate(74.804688 0)"/>
      <use xlink:href="#DejaVuSans-6d" transform="translate(106.591797 0)"/>
      <use xlink:href="#DejaVuSans-75" transform="translate(204.003906 0)"/>
      <use xlink:href="#DejaVuSans-74" transform="translate(267.382812 0)"/>
      <use xlink:href="#DejaVuSans-61" transform="translate(306.591797 0)"/>
      <use xlink:href="#DejaVuSans-74" transform="translate(367.871094 0)"/>
      <use xlink:href="#DejaVuSans-69" transform="translate(407.080078 0)"/>
      <use xlink:href="#DejaVuSans-6f" transform="translate(434.863281 0)"/>
      <use xlink:href="#DejaVuSans-6e" transform="translate(496.044922 0)"/>
      <use xlink:href="#DejaVuSans-73" transform="translate(559.423828 0)"/>
      <use xlink:href="#DejaVuSans-20" transform="translate(611.523438 0)"/>
      <use xlink:href="#DejaVuSans-3d" transform="translate(643.310547 0)"/>
      <use xlink:href="#DejaVuSans-20" transform="translate(727.099609 0)"/>
      <use xlink:href="#DejaVuSans-31" transform="translate(758.886719 0)"/>
      <use xlink:href="#DejaVuSans-35" transform="translate(822.509766 0)"/>
     </g>
    </g>
   </g>
  </g>
 </g>
 <defs>
  <clipPath id="p6dd77a2d42">
   <rect x="54.398" y="10.8" width="184.672075" height="375.82675"/>
  </clipPath>
  <clipPath id="p78ad13d029">
   <rect x="304.598" y="10.8" width="184.672075" height="375.82675"/>
  </clipPath>
 </defs>
</svg>
