<?xml version="1.0" encoding="utf-8" standalone="no"?>
<!DOCTYPE svg PUBLIC "-//W3C//DTD SVG 1.1//EN"
  "http://www.w3.org/Graphics/SVG/1.1/DTD/svg11.dtd">
<svg xmlns:xlink="http://www.w3.org/1999/xlink" width="576pt" height="252pt" viewBox="0 0 576 252" xmlns="http://www.w3.org/2000/svg" version="1.1">
 <metadata>
  <rdf:RDF xmlns:dc="http://purl.org/dc/elements/1.1/" xmlns:cc="http://creativecommons.org/ns#" xmlns:rdf="http://www.w3.org/1999/02/22-rdf-syntax-ns#">
   <cc:Work>
    <dc:type rdf:resource="http://purl.org/dc/dcmitype/StillImage"/>
    <dc:date>2026-02-19T10:12:14.331643</dc:date>
    <dc:format>image/svg+xml</dc:format>
    <dc:creator>
     <cc:Agent>
      <dc:title>Matplotlib v3.10.8, https://matplotlib.org/</dc:title>
     </cc:Agent>
    </dc:creator>
   </cc:Work>
  </rdf:RDF>
 </metadata>
 <defs>
  <style type="text/css">*{stroke-linejoin: round; stroke-linecap: butt}</style>
 </defs>
 <g id="figure_1">
  <g id="patch_1">
   <path d="M 0 252 
L 576 252 
L 576 0 
L 0 0 
z
" style="fill: #ffffff"/>
  </g>
  <g id="axes_1">
   <g id="patch_2">
    <path d="M 50.105209 206.728 
L 283.747605 206.728 
L 283.747605 10.8 
L 50.105209 10.8 
z
" style="fill: #ffffff"/>
   </g>
   <g id="matplotlib.axis_1">
    <g id="xtick_1">
     <g id="line2d_1">
      <defs>
       <path id="m3e41a6cf9f" d="M 0 0 
L 0 3.5 
" style="stroke: #000000; stroke-width: 0.8"/>
      </defs>
      <g>
       <use xlink:href="#m3e41a6cf9f" x="60.725318" y="206.728" style="stroke: #000000; stroke-width: 0.8"/>
      </g>
     </g>
     <g id="text_1">
      <!-- $\mathdefault{10^{0}}$ -->
      <g transform="translate(51.925318 221.326437) scale(0.1 -0.1)">
       <defs>
        <path id="DejaVuSans-31" d="M 794 531 
L 1825 531 
L 1825 4091 
L 703 3866 
L 703 4441 
L 1819 4666 
L 2450 4666 
L 2450 531 
L 3481 531 
L 3481 0 
L 794 0 
L 794 531 
z
" transform="scale(0.015625)"/>
        <path id="DejaVuSans-30" d="M 2034 4250 
Q 1547 4250 1301 3770 
Q 1056 3291 1056 2328 
Q 1056 1369 1301 889 
Q 1547 409 2034 409 
Q 2525 409 2770 889 
Q 3016 1369 3016 2328 
Q 3016 3291 2770 3770 
Q 2525 4250 2034 4250 
z
M 2034 4750 
Q 2819 4750 3233 4129 
Q 3647 3509 3647 2328 
Q 3647 1150 3233 529 
Q 2819 -91 2034 -91 
Q 1250 -91 836 529 
Q 422 1150 422 2328 
Q 422 3509 836 4129 
Q 1250 4750 2034 4750 
z
" transform="scale(0.015625)"/>
       </defs>
       <use xlink:href="#DejaVuSans-31" transform="translate(0 0.765625)"/>
       <use xlink:href="#DejaVuSans-30" transform="translate(63.623047 0.765625)"/>
       <use xlink:href="#DejaVuSans-30" transform="translate(128.203125 39.046875) scale(0.7)"/>
      </g>
     </g>
    </g>
    <g id="xtick_2">
     <g id="line2d_2">
      <g>
       <use xlink:href="#m3e41a6cf9f" x="180.668812" y="206.728" style="stroke: #000000; stroke-width: 0.8"/>
      </g>
     </g>
     <g id="text_2">
      <!-- $\mathdefault{10^{1}}$ -->
      <g transform="translate(171.868812 221.326437) scale(0.1 -0.1)">
       <use xlink:href="#DejaVuSans-31" transform="translate(0 0.684375)"/>
       <use xlink:href="#DejaVuSans-30" transform="translate(63.623047 0.684375)"/>
       <use xlink:href="#DejaVuSans-31" transform="translate(128.203125 38.965625) scale(0.7)"/>
      </g>
     </g>
    </g>
    <g id="xtick_3">
     <g id="line2d_3">
      <defs>
       <path id="m120a19bf03" d="M 0 0 
L 0 2 
" style="stroke: #000000; stroke-width: 0.6"/>
      </defs>
      <g>
       <use xlink:href="#m120a19bf03" x="55.237005" y="206.728" style="stroke: #000000; stroke-width: 0.6"/>
      </g>
     </g>
    </g>
    <g id="xtick_4">
     <g id="line2d_4">
      <g>
       <use xlink:href="#m120a19bf03" x="96.831908" y="206.728" style="stroke: #000000; stroke-width: 0.6"/>
      </g>
     </g>
    </g>
    <g id="xtick_5">
     <g id="line2d_5">
      <g>
       <use xlink:href="#m120a19bf03" x="117.952908" y="206.728" style="stroke: #000000; stroke-width: 0.6"/>
      </g>
     </g>
    </g>
    <g id="xtick_6">
     <g id="line2d_6">
      <g>
       <use xlink:href="#m120a19bf03" x="132.938497" y="206.728" style="stroke: #000000; stroke-width: 0.6"/>
      </g>
     </g>
    </g>
    <g id="xtick_7">
     <g id="line2d_7">
      <g>
       <use xlink:href="#m120a19bf03" x="144.562223" y="206.728" style="stroke: #000000; stroke-width: 0.6"/>
      </g>
     </g>
    </g>
    <g id="xtick_8">
     <g id="line2d_8">
      <g>
       <use xlink:href="#m120a19bf03" x="154.059498" y="206.728" style="stroke: #000000; stroke-width: 0.6"/>
      </g>
     </g>
    </g>
    <g id="xtick_9">
     <g id="line2d_9">
      <g>
       <use xlink:href="#m120a19bf03" x="162.08933" y="206.728" style="stroke: #000000; stroke-width: 0.6"/>
      </g>
     </g>
    </g>
    <g id="xtick_10">
     <g id="line2d_10">
      <g>
       <use xlink:href="#m120a19bf03" x="169.045087" y="206.728" style="stroke: #000000; stroke-width: 0.6"/>
      </g>
     </g>
    </g>
    <g id="xtick_11">
     <g id="line2d_11">
      <g>
       <use xlink:href="#m120a19bf03" x="175.180499" y="206.728" style="stroke: #000000; stroke-width: 0.6"/>
      </g>
     </g>
    </g>
    <g id="xtick_12">
     <g id="line2d_12">
      <g>
       <use xlink:href="#m120a19bf03" x="216.775402" y="206.728" style="stroke: #000000; stroke-width: 0.6"/>
      </g>
     </g>
    </g>
    <g id="xtick_13">
     <g id="line2d_13">
      <g>
       <use xlink:href="#m120a19bf03" x="237.896402" y="206.728" style="stroke: #000000; stroke-width: 0.6"/>
      </g>
     </g>
    </g>
    <g id="xtick_14">
     <g id="line2d_14">
      <g>
       <use xlink:href="#m120a19bf03" x="252.881991" y="206.728" style="stroke: #000000; stroke-width: 0.6"/>
      </g>
     </g>
    </g>
    <g id="xtick_15">
     <g id="line2d_15">
      <g>
       <use xlink:href="#m120a19bf03" x="264.505717" y="206.728" style="stroke: #000000; stroke-width: 0.6"/>
      </g>
     </g>
    </g>
    <g id="xtick_16">
     <g id="line2d_16">
      <g>
       <use xlink:href="#m120a19bf03" x="274.002992" y="206.728" style="stroke: #000000; stroke-width: 0.6"/>
      </g>
     </g>
    </g>
    <g id="xtick_17">
     <g id="line2d_17">
      <g>
       <use xlink:href="#m120a19bf03" x="282.032824" y="206.728" style="stroke: #000000; stroke-width: 0.6"/>
      </g>
     </g>
    </g>
    <g id="text_3">
     <!-- abundance rank -->
     <g transform="translate(126.345157 235.004562) scale(0.1 -0.1)">
      <defs>
       <path id="DejaVuSans-61" d="M 2194 1759 
Q 1497 1759 1228 1600 
Q 959 1441 959 1056 
Q 959 750 1161 570 
Q 1363 391 1709 391 
Q 2188 391 2477 730 
Q 2766 1069 2766 1631 
L 2766 1759 
L 2194 1759 
z
M 3341 1997 
L 3341 0 
L 2766 0 
L 2766 531 
Q 2569 213 2275 61 
Q 1981 -91 1556 -91 
Q 1019 -91 701 211 
Q 384 513 384 1019 
Q 384 1609 779 1909 
Q 1175 2209 1959 2209 
L 2766 2209 
L 2766 2266 
Q 2766 2663 2505 2880 
Q 2244 3097 1772 3097 
Q 1472 3097 1187 3025 
Q 903 2953 641 2809 
L 641 3341 
Q 956 3463 1253 3523 
Q 1550 3584 1831 3584 
Q 2591 3584 2966 3190 
Q 3341 2797 3341 1997 
z
" transform="scale(0.015625)"/>
       <path id="DejaVuSans-62" d="M 3116 1747 
Q 3116 2381 2855 2742 
Q 2594 3103 2138 3103 
Q 1681 3103 1420 2742 
Q 1159 2381 1159 1747 
Q 1159 1113 1420 752 
Q 1681 391 2138 391 
Q 2594 391 2855 752 
Q 3116 1113 3116 1747 
z
M 1159 2969 
Q 1341 3281 1617 3432 
Q 1894 3584 2278 3584 
Q 2916 3584 3314 3078 
Q 3713 2572 3713 1747 
Q 3713 922 3314 415 
Q 2916 -91 2278 -91 
Q 1894 -91 1617 61 
Q 1341 213 1159 525 
L 1159 0 
L 581 0 
L 581 4863 
L 1159 4863 
L 1159 2969 
z
" transform="scale(0.015625)"/>
       <path id="DejaVuSans-75" d="M 544 1381 
L 544 3500 
L 1119 3500 
L 1119 1403 
Q 1119 906 1312 657 
Q 1506 409 1894 409 
Q 2359 409 2629 706 
Q 2900 1003 2900 1516 
L 2900 3500 
L 3475 3500 
L 3475 0 
L 2900 0 
L 2900 538 
Q 2691 219 2414 64 
Q 2138 -91 1772 -91 
Q 1169 -91 856 284 
Q 544 659 544 1381 
z
M 1991 3584 
L 1991 3584 
z
" transform="scale(0.015625)"/>
       <path id="DejaVuSans-6e" d="M 3513 2113 
L 3513 0 
L 2938 0 
L 2938 2094 
Q 2938 2591 2744 2837 
Q 2550 3084 2163 3084 
Q 1697 3084 1428 2787 
Q 1159 2491 1159 1978 
L 1159 0 
L 581 0 
L 581 3500 
L 1159 3500 
L 1159 2956 
Q 1366 3272 1645 3428 
Q 1925 3584 2291 3584 
Q 2894 3584 3203 3211 
Q 3513 2838 3513 2113 
z
" transform="scale(0.015625)"/>
       <path id="DejaVuSans-64" d="M 2906 2969 
L 2906 4863 
L 3481 4863 
L 3481 0 
L 2906 0 
L 2906 525 
Q 2725 213 2448 61 
Q 2172 -91 1784 -91 
Q 1150 -91 751 415 
Q 353 922 353 1747 
Q 353 2572 751 3078 
Q 1150 3584 1784 3584 
Q 2172 3584 2448 3432 
Q 2725 3281 2906 2969 
z
M 947 1747 
Q 947 1113 1208 752 
Q 1469 391 1925 391 
Q 2381 391 2643 752 
Q 2906 1113 2906 1747 
Q 2906 2381 2643 2742 
Q 2381 3103 1925 3103 
Q 1469 3103 1208 2742 
Q 947 2381 947 1747 
z
" transform="scale(0.015625)"/>
       <path id="DejaVuSans-63" d="M 3122 3366 
L 3122 2828 
Q 2878 2963 2633 3030 
Q 2388 3097 2138 3097 
Q 1578 3097 1268 2742 
Q 959 2388 959 1747 
Q 959 1106 1268 751 
Q 1578 397 2138 397 
Q 2388 397 2633 464 
Q 2878 531 3122 666 
L 3122 134 
Q 2881 22 2623 -34 
Q 2366 -91 2075 -91 
Q 1284 -91 818 406 
Q 353 903 353 1747 
Q 353 2603 823 3093 
Q 1294 3584 2113 3584 
Q 2378 3584 2631 3529 
Q 2884 3475 3122 3366 
z
" transform="scale(0.015625)"/>
       <path id="DejaVuSans-65" d="M 3597 1894 
L 3597 1613 
L 953 1613 
Q 991 1019 1311 708 
Q 1631 397 2203 397 
Q 2534 397 2845 478 
Q 3156 559 3463 722 
L 3463 178 
Q 3153 47 2828 -22 
Q 2503 -91 2169 -91 
Q 1331 -91 842 396 
Q 353 884 353 1716 
Q 353 2575 817 3079 
Q 1281 3584 2069 3584 
Q 2775 3584 3186 3129 
Q 3597 2675 3597 1894 
z
M 3022 2063 
Q 3016 2534 2758 2815 
Q 2500 3097 2075 3097 
Q 1594 3097 1305 2825 
Q 1016 2553 972 2059 
L 3022 2063 
z
" transform="scale(0.015625)"/>
       <path id="DejaVuSans-20" transform="scale(0.015625)"/>
       <path id="DejaVuSans-72" d="M 2631 2963 
Q 2534 3019 2420 3045 
Q 2306 3072 2169 3072 
Q 1681 3072 1420 2755 
Q 1159 2438 1159 1844 
L 1159 0 
L 581 0 
L 581 3500 
L 1159 3500 
L 1159 2956 
Q 1341 3275 1631 3429 
Q 1922 3584 2338 3584 
Q 2397 3584 2469 3576 
Q 2541 3569 2628 3553 
L 2631 2963 
z
" transform="scale(0.015625)"/>
       <path id="DejaVuSans-6b" d="M 581 4863 
L 1159 4863 
L 1159 1991 
L 2875 3500 
L 3609 3500 
L 1753 1863 
L 3688 0 
L 2938 0 
L 1159 1709 
L 1159 0 
L 581 0 
L 581 4863 
z
" transform="scale(0.015625)"/>
      </defs>
      <use xlink:href="#DejaVuSans-61"/>
      <use xlink:href="#DejaVuSans-62" transform="translate(61.279297 0)"/>
      <use xlink:href="#DejaVuSans-75" transform="translate(124.755859 0)"/>
      <use xlink:href="#DejaVuSans-6e" transform="translate(188.134766 0)"/>
      <use xlink:href="#DejaVuSans-64" transform="translate(251.513672 0)"/>
      <use xlink:href="#DejaVuSans-61" transform="translate(314.990234 0)"/>
      <use xlink:href="#DejaVuSans-6e" transform="translate(376.269531 0)"/>
      <use xlink:href="#DejaVuSans-63" transform="translate(439.648438 0)"/>
      <use xlink:href="#DejaVuSans-65" transform="translate(494.628906 0)"/>
      <use xlink:href="#DejaVuSans-20" transform="translate(556.152344 0)"/>
      <use xlink:href="#DejaVuSans-72" transform="translate(587.939453 0)"/>
      <use xlink:href="#DejaVuSans-61" transform="translate(629.052734 0)"/>
      <use xlink:href="#DejaVuSans-6e" transform="translate(690.332031 0)"/>
      <use xlink:href="#DejaVuSans-6b" transform="translate(753.710938 0)"/>
     </g>
    </g>
   </g>
   <g id="matplotlib.axis_2">
    <g id="ytick_1">
     <g id="line2d_18">
      <defs>
       <path id="m9eeddade10" d="M 0 0 
L -3.5 0 
" style="stroke: #000000; stroke-width: 0.8"/>
      </defs>
      <g>
       <use xlink:href="#m9eeddade10" x="50.105209" y="162.509998" style="stroke: #000000; stroke-width: 0.8"/>
      </g>
     </g>
     <g id="text_4">
      <!-- $\mathdefault{10^{0}}$ -->
      <g transform="translate(25.505209 166.309217) scale(0.1 -0.1)">
       <use xlink:href="#DejaVuSans-31" transform="translate(0 0.765625)"/>
       <use xlink:href="#DejaVuSans-30" transform="translate(63.623047 0.765625)"/>
       <use xlink:href="#DejaVuSans-30" transform="translate(128.203125 39.046875) scale(0.7)"/>
      </g>
     </g>
    </g>
    <g id="ytick_2">
     <g id="line2d_19">
      <defs>
       <path id="m16f39585d0" d="M 0 0 
L -2 0 
" style="stroke: #000000; stroke-width: 0.6"/>
      </defs>
      <g>
       <use xlink:href="#m16f39585d0" x="50.105209" y="196.24399" style="stroke: #000000; stroke-width: 0.6"/>
      </g>
     </g>
    </g>
    <g id="ytick_3">
     <g id="line2d_20">
      <g>
       <use xlink:href="#m16f39585d0" x="50.105209" y="186.06416" style="stroke: #000000; stroke-width: 0.6"/>
      </g>
     </g>
    </g>
    <g id="ytick_4">
     <g id="line2d_21">
      <g>
       <use xlink:href="#m16f39585d0" x="50.105209" y="177.245991" style="stroke: #000000; stroke-width: 0.6"/>
      </g>
     </g>
    </g>
    <g id="ytick_5">
     <g id="line2d_22">
      <g>
       <use xlink:href="#m16f39585d0" x="50.105209" y="169.467814" style="stroke: #000000; stroke-width: 0.6"/>
      </g>
     </g>
    </g>
    <g id="ytick_6">
     <g id="line2d_23">
      <g>
       <use xlink:href="#m16f39585d0" x="50.105209" y="116.735824" style="stroke: #000000; stroke-width: 0.6"/>
      </g>
     </g>
    </g>
    <g id="ytick_7">
     <g id="line2d_24">
      <g>
       <use xlink:href="#m16f39585d0" x="50.105209" y="89.959649" style="stroke: #000000; stroke-width: 0.6"/>
      </g>
     </g>
    </g>
    <g id="ytick_8">
     <g id="line2d_25">
      <g>
       <use xlink:href="#m16f39585d0" x="50.105209" y="70.961651" style="stroke: #000000; stroke-width: 0.6"/>
      </g>
     </g>
    </g>
    <g id="ytick_9">
     <g id="line2d_26">
      <g>
       <use xlink:href="#m16f39585d0" x="50.105209" y="56.225658" style="stroke: #000000; stroke-width: 0.6"/>
      </g>
     </g>
    </g>
    <g id="ytick_10">
     <g id="line2d_27">
      <g>
       <use xlink:href="#m16f39585d0" x="50.105209" y="44.185475" style="stroke: #000000; stroke-width: 0.6"/>
      </g>
     </g>
    </g>
    <g id="ytick_11">
     <g id="line2d_28">
      <g>
       <use xlink:href="#m16f39585d0" x="50.105209" y="34.005646" style="stroke: #000000; stroke-width: 0.6"/>
      </g>
     </g>
    </g>
    <g id="ytick_12">
     <g id="line2d_29">
      <g>
       <use xlink:href="#m16f39585d0" x="50.105209" y="25.187477" style="stroke: #000000; stroke-width: 0.6"/>
      </g>
     </g>
    </g>
    <g id="ytick_13">
     <g id="line2d_30">
      <g>
       <use xlink:href="#m16f39585d0" x="50.105209" y="17.4093" style="stroke: #000000; stroke-width: 0.6"/>
      </g>
     </g>
    </g>
    <g id="text_5">
     <!-- abundance -->
     <g transform="translate(19.425522 136.572594) rotate(-90) scale(0.1 -0.1)">
      <use xlink:href="#DejaVuSans-61"/>
      <use xlink:href="#DejaVuSans-62" transform="translate(61.279297 0)"/>
      <use xlink:href="#DejaVuSans-75" transform="translate(124.755859 0)"/>
      <use xlink:href="#DejaVuSans-6e" transform="translate(188.134766 0)"/>
      <use xlink:href="#DejaVuSans-64" transform="translate(251.513672 0)"/>
      <use xlink:href="#DejaVuSans-61" transform="translate(314.990234 0)"/>
      <use xlink:href="#DejaVuSans-6e" transform="translate(376.269531 0)"/>
      <use xlink:href="#DejaVuSans-63" transform="translate(439.648438 0)"/>
      <use xlink:href="#DejaVuSans-65" transform="translate(494.628906 0)"/>
     </g>
    </g>
   </g>
   <g id="line2d_31">
    <path d="M -1 21.416688 
L 60.725318 21.417569 
L 96.831908 23.821771 
L 117.952908 25.940057 
L 132.938497 27.788216 
L 144.562223 28.913409 
L 154.059498 30.388248 
L 162.08933 32.226949 
L 169.045087 34.298166 
L 175.180499 36.921847 
L 180.668812 40.151823 
L 185.633595 43.448591 
L 190.166087 46.888667 
L 194.335576 50.129639 
L 198.195919 53.190777 
L 201.789813 55.070078 
L 205.151676 57.23402 
L 208.309661 58.764721 
L 211.287088 59.944557 
L 214.103493 60.7806 
L 216.775402 61.683137 
L 219.31692 62.504828 
L 221.740185 63.766396 
L 224.055713 64.668243 
L 226.272677 66.629146 
L 228.399127 68.736189 
L 230.442165 71.249047 
L 232.408089 74.137759 
L 234.302509 77.130166 
L 236.130444 81.105039 
L 237.896402 84.786518 
L 239.60445 88.865157 
L 241.258265 93.932783 
L 242.861186 97.883509 
L 244.41625 101.652873 
L 245.926234 105.181358 
L 247.393678 108.137395 
L 248.820912 110.346287 
L 250.210082 112.226874 
L 251.563166 113.665644 
L 252.881991 115.422026 
L 254.168249 117.083317 
L 255.42351 119.087862 
L 256.649232 120.370884 
L 257.846774 121.565747 
L 259.017403 122.742433 
L 260.162302 123.437004 
L 261.282577 125.083666 
L 262.379266 125.852563 
L 263.453341 127.871217 
L 264.505717 129.729238 
L 265.537251 131.878315 
L 266.548755 134.883215 
L 267.54099 136.954934 
L 268.514679 140.301757 
L 269.4705 143.639123 
L 270.409098 147.225196 
L 271.331083 151.298515 
L 272.237033 154.882787 
L 273.127496 160.071602 
" clip-path="url(#p547971dbcd)" style="fill: none; stroke: #1f77b4; stroke-width: 2; stroke-linecap: square"/>
   </g>
   <g id="line2d_32">
    <path d="M -1 94.73043 
L 60.725318 94.73043 
L 96.831908 94.73043 
L 117.952908 94.73043 
L 132.938497 94.74093 
L 144.562223 94.74093 
L 154.059498 94.74093 
L 162.08933 94.785105 
L 169.045087 94.785105 
L 175.180499 94.876127 
L 180.668812 94.9708 
L 185.633595 95.191717 
L 190.166087 95.425685 
L 194.335576 95.785703 
L 198.195919 96.180802 
L 201.789813 96.980352 
L 205.151676 97.710859 
L 208.309661 98.529125 
L 211.287088 99.427653 
L 214.103493 100.209335 
L 216.775402 100.984446 
L 219.31692 101.572837 
L 221.740185 102.160996 
L 224.055713 102.750937 
L 226.272677 103.11474 
L 228.399127 103.310669 
L 230.442165 103.527 
L 232.408089 103.623093 
L 234.302509 103.747433 
L 236.130444 103.81694 
L 237.896402 103.877832 
L 239.60445 103.946543 
L 241.258265 104.163057 
L 242.861186 104.233877 
L 244.41625 104.556887 
L 245.926234 104.710232 
L 247.393678 105.070578 
L 248.820912 105.462909 
L 250.210082 105.918219 
L 251.563166 106.380679 
L 252.881991 107.195369 
L 254.168249 107.924817 
L 255.42351 109.007046 
L 256.649232 110.104826 
L 257.846774 111.023299 
L 259.017403 112.319995 
L 260.162302 113.815766 
L 261.282577 115.620513 
L 262.379266 117.706018 
L 263.453341 119.892749 
L 264.505717 122.054402 
L 265.537251 124.320926 
L 266.548755 126.534591 
L 267.54099 128.822398 
L 268.514679 131.507292 
L 269.4705 134.535173 
L 270.409098 137.456239 
L 271.331083 140.481172 
L 272.237033 143.245857 
L 273.127496 146.357515 
" clip-path="url(#p547971dbcd)" style="fill: none; stroke: #ff7f0e; stroke-width: 2; stroke-linecap: square"/>
   </g>
   <g id="line2d_33">
    <path d="M -1 149.204858 
L 60.725318 149.204858 
L 96.831908 149.204858 
L 117.952908 149.204858 
L 132.938497 149.204858 
L 144.562223 149.204858 
L 154.059498 149.204858 
L 162.08933 149.204858 
L 169.045087 149.204858 
L 175.180499 149.204858 
L 180.668812 149.204858 
L 185.633595 149.241965 
L 190.166087 149.241965 
L 194.335576 149.262878 
L 198.195919 149.289507 
L 201.789813 149.295205 
L 205.151676 149.382457 
L 208.309661 149.636636 
L 211.287088 149.881564 
L 214.103493 150.605441 
L 216.775402 151.179067 
L 219.31692 151.767686 
L 221.740185 152.463615 
L 224.055713 153.859723 
L 226.272677 154.790044 
L 228.399127 155.929466 
L 230.442165 157.161367 
L 232.408089 158.588786 
L 234.302509 159.505773 
L 236.130444 160.525174 
L 237.896402 161.52701 
L 239.60445 162.31585 
L 241.258265 162.883263 
L 242.861186 163.413306 
L 244.41625 164.114761 
L 245.926234 164.651555 
L 247.393678 165.407924 
L 248.820912 165.80081 
L 250.210082 166.308609 
L 251.563166 166.993152 
L 252.881991 167.905474 
L 254.168249 168.862195 
L 255.42351 169.894672 
L 256.649232 171.162969 
L 257.846774 172.234954 
L 259.017403 173.441127 
L 260.162302 174.532701 
L 261.282577 176.135938 
L 262.379266 177.538323 
L 263.453341 179.160108 
L 264.505717 180.667571 
L 265.537251 182.53434 
L 266.548755 183.901602 
L 267.54099 186.0138 
L 268.514679 188.045248 
L 269.4705 189.896426 
L 270.409098 192.135942 
L 271.331083 194.25937 
L 272.237033 196.105742 
L 273.127496 197.822182 
" clip-path="url(#p547971dbcd)" style="fill: none; stroke: #2ca02c; stroke-width: 2; stroke-linecap: square"/>
   </g>
   <g id="patch_3">
    <path d="M 50.105209 206.728 
L 50.105209 10.8 
" style="fill: none; stroke: #000000; stroke-width: 0.8; stroke-linejoin: miter; stroke-linecap: square"/>
   </g>
   <g id="patch_4">
    <path d="M 283.747605 206.728 
L 283.747605 10.8 
" style="fill: none; stroke: #000000; stroke-width: 0.8; stroke-linejoin: miter; stroke-linecap: square"/>
   </g>
   <g id="patch_5">
    <path d="M 50.105209 206.728 
L 283.747605 206.728 
" style="fill: none; stroke: #000000; stroke-width: 0.8; stroke-linejoin: miter; stroke-linecap: square"/>
   </g>
   <g id="patch_6">
    <path d="M 50.105209 10.8 
L 283.747605 10.8 
" style="fill: none; stroke: #000000; stroke-width: 0.8; stroke-linejoin: miter; stroke-linecap: square"/>
   </g>
   <g id="legend_1">
    <g id="patch_7">
     <path d="M 57.105209 201.728 
L 160.905209 201.728 
Q 162.905209 201.728 162.905209 199.728 
L 162.905209 156.628 
Q 162.905209 154.628 160.905209 154.628 
L 57.105209 154.628 
Q 55.105209 154.628 55.105209 156.628 
L 55.105209 199.728 
Q 55.105209 201.728 57.105209 201.728 
z
" style="fill: #ffffff; opacity: 0.8; stroke: #cccccc; stroke-linejoin: miter"/>
    </g>
    <g id="line2d_34">
     <path d="M 59.105209 162.728 
L 69.105209 162.728 
L 79.105209 162.728 
" style="fill: none; stroke: #1f77b4; stroke-width: 2; stroke-linecap: square"/>
    </g>
    <g id="text_6">
     <!-- $\log_{10}\alpha_0$=-5.50 -->
     <g transform="translate(87.105209 166.228) scale(0.1 -0.1)">
      <defs>
       <path id="DejaVuSans-6c" d="M 603 4863 
L 1178 4863 
L 1178 0 
L 603 0 
L 603 4863 
z
" transform="scale(0.015625)"/>
       <path id="DejaVuSans-6f" d="M 1959 3097 
Q 1497 3097 1228 2736 
Q 959 2375 959 1747 
Q 959 1119 1226 758 
Q 1494 397 1959 397 
Q 2419 397 2687 759 
Q 2956 1122 2956 1747 
Q 2956 2369 2687 2733 
Q 2419 3097 1959 3097 
z
M 1959 3584 
Q 2709 3584 3137 3096 
Q 3566 2609 3566 1747 
Q 3566 888 3137 398 
Q 2709 -91 1959 -91 
Q 1206 -91 779 398 
Q 353 888 353 1747 
Q 353 2609 779 3096 
Q 1206 3584 1959 3584 
z
" transform="scale(0.015625)"/>
       <path id="DejaVuSans-67" d="M 2906 1791 
Q 2906 2416 2648 2759 
Q 2391 3103 1925 3103 
Q 1463 3103 1205 2759 
Q 947 2416 947 1791 
Q 947 1169 1205 825 
Q 1463 481 1925 481 
Q 2391 481 2648 825 
Q 2906 1169 2906 1791 
z
M 3481 434 
Q 3481 -459 3084 -895 
Q 2688 -1331 1869 -1331 
Q 1566 -1331 1297 -1286 
Q 1028 -1241 775 -1147 
L 775 -588 
Q 1028 -725 1275 -790 
Q 1522 -856 1778 -856 
Q 2344 -856 2625 -561 
Q 2906 -266 2906 331 
L 2906 616 
Q 2728 306 2450 153 
Q 2172 0 1784 0 
Q 1141 0 747 490 
Q 353 981 353 1791 
Q 353 2603 747 3093 
Q 1141 3584 1784 3584 
Q 2172 3584 2450 3431 
Q 2728 3278 2906 2969 
L 2906 3500 
L 3481 3500 
L 3481 434 
z
" transform="scale(0.015625)"/>
       <path id="DejaVuSans-Oblique-3b1" d="M 2619 1628 
L 2622 2350 
Q 2625 3088 2069 3091 
Q 1653 3094 1394 2747 
Q 1069 2319 959 1747 
Q 825 1059 994 731 
Q 1169 397 1547 397 
Q 1966 397 2319 1063 
L 2619 1628 
z
M 2166 3578 
Q 3141 3594 3128 2584 
Q 3128 2584 3616 3500 
L 4128 3500 
L 3119 1603 
L 3109 919 
Q 3109 766 3194 638 
Q 3291 488 3391 488 
L 3669 488 
L 3575 0 
L 3228 0 
Q 2934 0 2722 263 
Q 2622 394 2619 669 
Q 2416 334 2066 50 
Q 1900 -81 1453 -78 
Q 722 -72 456 397 
Q 184 884 353 1747 
Q 534 2675 1009 3097 
Q 1544 3569 2166 3578 
z
" transform="scale(0.015625)"/>
       <path id="DejaVuSans-3d" d="M 678 2906 
L 4684 2906 
L 4684 2381 
L 678 2381 
L 678 2906 
z
M 678 1631 
L 4684 1631 
L 4684 1100 
L 678 1100 
L 678 1631 
z
" transform="scale(0.015625)"/>
       <path id="DejaVuSans-2d" d="M 313 2009 
L 1997 2009 
L 1997 1497 
L 313 1497 
L 313 2009 
z
" transform="scale(0.015625)"/>
       <path id="DejaVuSans-35" d="M 691 4666 
L 3169 4666 
L 3169 4134 
L 1269 4134 
L 1269 2991 
Q 1406 3038 1543 3061 
Q 1681 3084 1819 3084 
Q 2600 3084 3056 2656 
Q 3513 2228 3513 1497 
Q 3513 744 3044 326 
Q 2575 -91 1722 -91 
Q 1428 -91 1123 -41 
Q 819 9 494 109 
L 494 744 
Q 775 591 1075 516 
Q 1375 441 1709 441 
Q 2250 441 2565 725 
Q 2881 1009 2881 1497 
Q 2881 1984 2565 2268 
Q 2250 2553 1709 2553 
Q 1456 2553 1204 2497 
Q 953 2441 691 2322 
L 691 4666 
z
" transform="scale(0.015625)"/>
       <path id="DejaVuSans-2e" d="M 684 794 
L 1344 794 
L 1344 0 
L 684 0 
L 684 794 
z
" transform="scale(0.015625)"/>
      </defs>
      <use xlink:href="#DejaVuSans-6c" transform="translate(0 0.015625)"/>
      <use xlink:href="#DejaVuSans-6f" transform="translate(27.783203 0.015625)"/>
      <use xlink:href="#DejaVuSans-67" transform="translate(88.964844 0.015625)"/>
      <use xlink:href="#DejaVuSans-31" transform="translate(153.398438 -16.390625) scale(0.7)"/>
      <use xlink:href="#DejaVuSans-30" transform="translate(197.93457 -16.390625) scale(0.7)"/>
      <use xlink:href="#DejaVuSans-Oblique-3b1" transform="translate(261.440754 0.015625)"/>
      <use xlink:href="#DejaVuSans-30" transform="translate(327.358723 -16.390625) scale(0.7)"/>
      <use xlink:href="#DejaVuSans-3d" transform="translate(374.629231 0.015625)"/>
      <use xlink:href="#DejaVuSans-2d" transform="translate(458.418293 0.015625)"/>
      <use xlink:href="#DejaVuSans-35" transform="translate(494.502278 0.015625)"/>
      <use xlink:href="#DejaVuSans-2e" transform="translate(558.125325 0.015625)"/>
      <use xlink:href="#DejaVuSans-35" transform="translate(589.912434 0.015625)"/>
      <use xlink:href="#DejaVuSans-30" transform="translate(653.535481 0.015625)"/>
     </g>
    </g>
    <g id="line2d_35">
     <path d="M 59.105209 177.428 
L 69.105209 177.428 
L 79.105209 177.428 
" style="fill: none; stroke: #ff7f0e; stroke-width: 2; stroke-linecap: square"/>
    </g>
    <g id="text_7">
     <!-- $\log_{10}\alpha_0$=-3.96 -->
     <g transform="translate(87.105209 180.928) scale(0.1 -0.1)">
      <defs>
       <path id="DejaVuSans-33" d="M 2597 2516 
Q 3050 2419 3304 2112 
Q 3559 1806 3559 1356 
Q 3559 666 3084 287 
Q 2609 -91 1734 -91 
Q 1441 -91 1130 -33 
Q 819 25 488 141 
L 488 750 
Q 750 597 1062 519 
Q 1375 441 1716 441 
Q 2309 441 2620 675 
Q 2931 909 2931 1356 
Q 2931 1769 2642 2001 
Q 2353 2234 1838 2234 
L 1294 2234 
L 1294 2753 
L 1863 2753 
Q 2328 2753 2575 2939 
Q 2822 3125 2822 3475 
Q 2822 3834 2567 4026 
Q 2313 4219 1838 4219 
Q 1578 4219 1281 4162 
Q 984 4106 628 3988 
L 628 4550 
Q 988 4650 1302 4700 
Q 1616 4750 1894 4750 
Q 2613 4750 3031 4423 
Q 3450 4097 3450 3541 
Q 3450 3153 3228 2886 
Q 3006 2619 2597 2516 
z
" transform="scale(0.015625)"/>
       <path id="DejaVuSans-39" d="M 703 97 
L 703 672 
Q 941 559 1184 500 
Q 1428 441 1663 441 
Q 2288 441 2617 861 
Q 2947 1281 2994 2138 
Q 2813 1869 2534 1725 
Q 2256 1581 1919 1581 
Q 1219 1581 811 2004 
Q 403 2428 403 3163 
Q 403 3881 828 4315 
Q 1253 4750 1959 4750 
Q 2769 4750 3195 4129 
Q 3622 3509 3622 2328 
Q 3622 1225 3098 567 
Q 2575 -91 1691 -91 
Q 1453 -91 1209 -44 
Q 966 3 703 97 
z
M 1959 2075 
Q 2384 2075 2632 2365 
Q 2881 2656 2881 3163 
Q 2881 3666 2632 3958 
Q 2384 4250 1959 4250 
Q 1534 4250 1286 3958 
Q 1038 3666 1038 3163 
Q 1038 2656 1286 2365 
Q 1534 2075 1959 2075 
z
" transform="scale(0.015625)"/>
       <path id="DejaVuSans-36" d="M 2113 2584 
Q 1688 2584 1439 2293 
Q 1191 2003 1191 1497 
Q 1191 994 1439 701 
Q 1688 409 2113 409 
Q 2538 409 2786 701 
Q 3034 994 3034 1497 
Q 3034 2003 2786 2293 
Q 2538 2584 2113 2584 
z
M 3366 4563 
L 3366 3988 
Q 3128 4100 2886 4159 
Q 2644 4219 2406 4219 
Q 1781 4219 1451 3797 
Q 1122 3375 1075 2522 
Q 1259 2794 1537 2939 
Q 1816 3084 2150 3084 
Q 2853 3084 3261 2657 
Q 3669 2231 3669 1497 
Q 3669 778 3244 343 
Q 2819 -91 2113 -91 
Q 1303 -91 875 529 
Q 447 1150 447 2328 
Q 447 3434 972 4092 
Q 1497 4750 2381 4750 
Q 2619 4750 2861 4703 
Q 3103 4656 3366 4563 
z
" transform="scale(0.015625)"/>
      </defs>
      <use xlink:href="#DejaVuSans-6c" transform="translate(0 0.015625)"/>
      <use xlink:href="#DejaVuSans-6f" transform="translate(27.783203 0.015625)"/>
      <use xlink:href="#DejaVuSans-67" transform="translate(88.964844 0.015625)"/>
      <use xlink:href="#DejaVuSans-31" transform="translate(153.398438 -16.390625) scale(0.7)"/>
      <use xlink:href="#DejaVuSans-30" transform="translate(197.93457 -16.390625) scale(0.7)"/>
      <use xlink:href="#DejaVuSans-Oblique-3b1" transform="translate(261.440754 0.015625)"/>
      <use xlink:href="#DejaVuSans-30" transform="translate(327.358723 -16.390625) scale(0.7)"/>
      <use xlink:href="#DejaVuSans-3d" transform="translate(374.629231 0.015625)"/>
      <use xlink:href="#DejaVuSans-2d" transform="translate(458.418293 0.015625)"/>
      <use xlink:href="#DejaVuSans-33" transform="translate(494.502278 0.015625)"/>
      <use xlink:href="#DejaVuSans-2e" transform="translate(558.125325 0.015625)"/>
      <use xlink:href="#DejaVuSans-39" transform="translate(589.912434 0.015625)"/>
      <use xlink:href="#DejaVuSans-36" transform="translate(653.535481 0.015625)"/>
     </g>
    </g>
    <g id="line2d_36">
     <path d="M 59.105209 192.128 
L 69.105209 192.128 
L 79.105209 192.128 
" style="fill: none; stroke: #2ca02c; stroke-width: 2; stroke-linecap: square"/>
    </g>
    <g id="text_8">
     <!-- $\log_{10}\alpha_0$=-3.07 -->
     <g transform="translate(87.105209 195.628) scale(0.1 -0.1)">
      <defs>
       <path id="DejaVuSans-37" d="M 525 4666 
L 3525 4666 
L 3525 4397 
L 1831 0 
L 1172 0 
L 2766 4134 
L 525 4134 
L 525 4666 
z
" transform="scale(0.015625)"/>
      </defs>
      <use xlink:href="#DejaVuSans-6c" transform="translate(0 0.015625)"/>
      <use xlink:href="#DejaVuSans-6f" transform="translate(27.783203 0.015625)"/>
      <use xlink:href="#DejaVuSans-67" transform="translate(88.964844 0.015625)"/>
      <use xlink:href="#DejaVuSans-31" transform="translate(153.398438 -16.390625) scale(0.7)"/>
      <use xlink:href="#DejaVuSans-30" transform="translate(197.93457 -16.390625) scale(0.7)"/>
      <use xlink:href="#DejaVuSans-Oblique-3b1" transform="translate(261.440754 0.015625)"/>
      <use xlink:href="#DejaVuSans-30" transform="translate(327.358723 -16.390625) scale(0.7)"/>
      <use xlink:href="#DejaVuSans-3d" transform="translate(374.629231 0.015625)"/>
      <use xlink:href="#DejaVuSans-2d" transform="translate(458.418293 0.015625)"/>
      <use xlink:href="#DejaVuSans-33" transform="translate(494.502278 0.015625)"/>
      <use xlink:href="#DejaVuSans-2e" transform="translate(558.125325 0.015625)"/>
      <use xlink:href="#DejaVuSans-30" transform="translate(589.912434 0.015625)"/>
      <use xlink:href="#DejaVuSans-37" transform="translate(653.535481 0.015625)"/>
     </g>
    </g>
   </g>
  </g>
  <g id="axes_2">
   <g id="patch_8">
    <path d="M 331.557605 206.728 
L 565.2 206.728 
L 565.2 10.8 
L 331.557605 10.8 
z
" style="fill: #ffffff"/>
   </g>
   <g id="matplotlib.axis_3">
    <g id="xtick_18">
     <g id="line2d_37">
      <g>
       <use xlink:href="#m3e41a6cf9f" x="342.177713" y="206.728" style="stroke: #000000; stroke-width: 0.8"/>
      </g>
     </g>
     <g id="text_9">
      <!-- $\mathdefault{10^{0}}$ -->
      <g transform="translate(333.377713 221.326437) scale(0.1 -0.1)">
       <use xlink:href="#DejaVuSans-31" transform="translate(0 0.765625)"/>
       <use xlink:href="#DejaVuSans-30" transform="translate(63.623047 0.765625)"/>
       <use xlink:href="#DejaVuSans-30" transform="translate(128.203125 39.046875) scale(0.7)"/>
      </g>
     </g>
    </g>
    <g id="xtick_19">
     <g id="line2d_38">
      <g>
       <use xlink:href="#m3e41a6cf9f" x="462.121207" y="206.728" style="stroke: #000000; stroke-width: 0.8"/>
      </g>
     </g>
     <g id="text_10">
      <!-- $\mathdefault{10^{1}}$ -->
      <g transform="translate(453.321207 221.326437) scale(0.1 -0.1)">
       <use xlink:href="#DejaVuSans-31" transform="translate(0 0.684375)"/>
       <use xlink:href="#DejaVuSans-30" transform="translate(63.623047 0.684375)"/>
       <use xlink:href="#DejaVuSans-31" transform="translate(128.203125 38.965625) scale(0.7)"/>
      </g>
     </g>
    </g>
    <g id="xtick_20">
     <g id="line2d_39">
      <g>
       <use xlink:href="#m120a19bf03" x="336.6894" y="206.728" style="stroke: #000000; stroke-width: 0.6"/>
      </g>
     </g>
    </g>
    <g id="xtick_21">
     <g id="line2d_40">
      <g>
       <use xlink:href="#m120a19bf03" x="378.284303" y="206.728" style="stroke: #000000; stroke-width: 0.6"/>
      </g>
     </g>
    </g>
    <g id="xtick_22">
     <g id="line2d_41">
      <g>
       <use xlink:href="#m120a19bf03" x="399.405304" y="206.728" style="stroke: #000000; stroke-width: 0.6"/>
      </g>
     </g>
    </g>
    <g id="xtick_23">
     <g id="line2d_42">
      <g>
       <use xlink:href="#m120a19bf03" x="414.390892" y="206.728" style="stroke: #000000; stroke-width: 0.6"/>
      </g>
     </g>
    </g>
    <g id="xtick_24">
     <g id="line2d_43">
      <g>
       <use xlink:href="#m120a19bf03" x="426.014618" y="206.728" style="stroke: #000000; stroke-width: 0.6"/>
      </g>
     </g>
    </g>
    <g id="xtick_25">
     <g id="line2d_44">
      <g>
       <use xlink:href="#m120a19bf03" x="435.511893" y="206.728" style="stroke: #000000; stroke-width: 0.6"/>
      </g>
     </g>
    </g>
    <g id="xtick_26">
     <g id="line2d_45">
      <g>
       <use xlink:href="#m120a19bf03" x="443.541725" y="206.728" style="stroke: #000000; stroke-width: 0.6"/>
      </g>
     </g>
    </g>
    <g id="xtick_27">
     <g id="line2d_46">
      <g>
       <use xlink:href="#m120a19bf03" x="450.497482" y="206.728" style="stroke: #000000; stroke-width: 0.6"/>
      </g>
     </g>
    </g>
    <g id="xtick_28">
     <g id="line2d_47">
      <g>
       <use xlink:href="#m120a19bf03" x="456.632894" y="206.728" style="stroke: #000000; stroke-width: 0.6"/>
      </g>
     </g>
    </g>
    <g id="xtick_29">
     <g id="line2d_48">
      <g>
       <use xlink:href="#m120a19bf03" x="498.227797" y="206.728" style="stroke: #000000; stroke-width: 0.6"/>
      </g>
     </g>
    </g>
    <g id="xtick_30">
     <g id="line2d_49">
      <g>
       <use xlink:href="#m120a19bf03" x="519.348798" y="206.728" style="stroke: #000000; stroke-width: 0.6"/>
      </g>
     </g>
    </g>
    <g id="xtick_31">
     <g id="line2d_50">
      <g>
       <use xlink:href="#m120a19bf03" x="534.334386" y="206.728" style="stroke: #000000; stroke-width: 0.6"/>
      </g>
     </g>
    </g>
    <g id="xtick_32">
     <g id="line2d_51">
      <g>
       <use xlink:href="#m120a19bf03" x="545.958112" y="206.728" style="stroke: #000000; stroke-width: 0.6"/>
      </g>
     </g>
    </g>
    <g id="xtick_33">
     <g id="line2d_52">
      <g>
       <use xlink:href="#m120a19bf03" x="555.455387" y="206.728" style="stroke: #000000; stroke-width: 0.6"/>
      </g>
     </g>
    </g>
    <g id="xtick_34">
     <g id="line2d_53">
      <g>
       <use xlink:href="#m120a19bf03" x="563.485219" y="206.728" style="stroke: #000000; stroke-width: 0.6"/>
      </g>
     </g>
    </g>
    <g id="text_11">
     <!-- abundance rank -->
     <g transform="translate(407.797552 235.004562) scale(0.1 -0.1)">
      <use xlink:href="#DejaVuSans-61"/>
      <use xlink:href="#DejaVuSans-62" transform="translate(61.279297 0)"/>
      <use xlink:href="#DejaVuSans-75" transform="translate(124.755859 0)"/>
      <use xlink:href="#DejaVuSans-6e" transform="translate(188.134766 0)"/>
      <use xlink:href="#DejaVuSans-64" transform="translate(251.513672 0)"/>
      <use xlink:href="#DejaVuSans-61" transform="translate(314.990234 0)"/>
      <use xlink:href="#DejaVuSans-6e" transform="translate(376.269531 0)"/>
      <use xlink:href="#DejaVuSans-63" transform="translate(439.648438 0)"/>
      <use xlink:href="#DejaVuSans-65" transform="translate(494.628906 0)"/>
      <use xlink:href="#DejaVuSans-20" transform="translate(556.152344 0)"/>
      <use xlink:href="#DejaVuSans-72" transform="translate(587.939453 0)"/>
      <use xlink:href="#DejaVuSans-61" transform="translate(629.052734 0)"/>
      <use xlink:href="#DejaVuSans-6e" transform="translate(690.332031 0)"/>
      <use xlink:href="#DejaVuSans-6b" transform="translate(753.710938 0)"/>
     </g>
    </g>
   </g>
   <g id="matplotlib.axis_4">
    <g id="ytick_14">
     <g id="line2d_54">
      <g>
       <use xlink:href="#m9eeddade10" x="331.557605" y="194.700692" style="stroke: #000000; stroke-width: 0.8"/>
      </g>
     </g>
     <g id="text_12">
      <!-- 0.0 -->
      <g transform="translate(308.65448 198.499911) scale(0.1 -0.1)">
       <use xlink:href="#DejaVuSans-30"/>
       <use xlink:href="#DejaVuSans-2e" transform="translate(63.623047 0)"/>
       <use xlink:href="#DejaVuSans-30" transform="translate(95.410156 0)"/>
      </g>
     </g>
    </g>
    <g id="ytick_15">
     <g id="line2d_55">
      <g>
       <use xlink:href="#m9eeddade10" x="331.557605" y="165.331061" style="stroke: #000000; stroke-width: 0.8"/>
      </g>
     </g>
     <g id="text_13">
      <!-- 0.5 -->
      <g transform="translate(308.65448 169.13028) scale(0.1 -0.1)">
       <use xlink:href="#DejaVuSans-30"/>
       <use xlink:href="#DejaVuSans-2e" transform="translate(63.623047 0)"/>
       <use xlink:href="#DejaVuSans-35" transform="translate(95.410156 0)"/>
      </g>
     </g>
    </g>
    <g id="ytick_16">
     <g id="line2d_56">
      <g>
       <use xlink:href="#m9eeddade10" x="331.557605" y="135.96143" style="stroke: #000000; stroke-width: 0.8"/>
      </g>
     </g>
     <g id="text_14">
      <!-- 1.0 -->
      <g transform="translate(308.65448 139.760649) scale(0.1 -0.1)">
       <use xlink:href="#DejaVuSans-31"/>
       <use xlink:href="#DejaVuSans-2e" transform="translate(63.623047 0)"/>
       <use xlink:href="#DejaVuSans-30" transform="translate(95.410156 0)"/>
      </g>
     </g>
    </g>
    <g id="ytick_17">
     <g id="line2d_57">
      <g>
       <use xlink:href="#m9eeddade10" x="331.557605" y="106.5918" style="stroke: #000000; stroke-width: 0.8"/>
      </g>
     </g>
     <g id="text_15">
      <!-- 1.5 -->
      <g transform="translate(308.65448 110.391018) scale(0.1 -0.1)">
       <use xlink:href="#DejaVuSans-31"/>
       <use xlink:href="#DejaVuSans-2e" transform="translate(63.623047 0)"/>
       <use xlink:href="#DejaVuSans-35" transform="translate(95.410156 0)"/>
      </g>
     </g>
    </g>
    <g id="ytick_18">
     <g id="line2d_58">
      <g>
       <use xlink:href="#m9eeddade10" x="331.557605" y="77.222169" style="stroke: #000000; stroke-width: 0.8"/>
      </g>
     </g>
     <g id="text_16">
      <!-- 2.0 -->
      <g transform="translate(308.65448 81.021387) scale(0.1 -0.1)">
       <defs>
        <path id="DejaVuSans-32" d="M 1228 531 
L 3431 531 
L 3431 0 
L 469 0 
L 469 531 
Q 828 903 1448 1529 
Q 2069 2156 2228 2338 
Q 2531 2678 2651 2914 
Q 2772 3150 2772 3378 
Q 2772 3750 2511 3984 
Q 2250 4219 1831 4219 
Q 1534 4219 1204 4116 
Q 875 4013 500 3803 
L 500 4441 
Q 881 4594 1212 4672 
Q 1544 4750 1819 4750 
Q 2544 4750 2975 4387 
Q 3406 4025 3406 3419 
Q 3406 3131 3298 2873 
Q 3191 2616 2906 2266 
Q 2828 2175 2409 1742 
Q 1991 1309 1228 531 
z
" transform="scale(0.015625)"/>
       </defs>
       <use xlink:href="#DejaVuSans-32"/>
       <use xlink:href="#DejaVuSans-2e" transform="translate(63.623047 0)"/>
       <use xlink:href="#DejaVuSans-30" transform="translate(95.410156 0)"/>
      </g>
     </g>
    </g>
    <g id="ytick_19">
     <g id="line2d_59">
      <g>
       <use xlink:href="#m9eeddade10" x="331.557605" y="47.852538" style="stroke: #000000; stroke-width: 0.8"/>
      </g>
     </g>
     <g id="text_17">
      <!-- 2.5 -->
      <g transform="translate(308.65448 51.651757) scale(0.1 -0.1)">
       <use xlink:href="#DejaVuSans-32"/>
       <use xlink:href="#DejaVuSans-2e" transform="translate(63.623047 0)"/>
       <use xlink:href="#DejaVuSans-35" transform="translate(95.410156 0)"/>
      </g>
     </g>
    </g>
    <g id="ytick_20">
     <g id="line2d_60">
      <g>
       <use xlink:href="#m9eeddade10" x="331.557605" y="18.482907" style="stroke: #000000; stroke-width: 0.8"/>
      </g>
     </g>
     <g id="text_18">
      <!-- 3.0 -->
      <g transform="translate(308.65448 22.282126) scale(0.1 -0.1)">
       <use xlink:href="#DejaVuSans-33"/>
       <use xlink:href="#DejaVuSans-2e" transform="translate(63.623047 0)"/>
       <use xlink:href="#DejaVuSans-30" transform="translate(95.410156 0)"/>
      </g>
     </g>
    </g>
    <g id="text_19">
     <!-- log tau -->
     <g transform="translate(302.574792 126.168687) rotate(-90) scale(0.1 -0.1)">
      <defs>
       <path id="DejaVuSans-74" d="M 1172 4494 
L 1172 3500 
L 2356 3500 
L 2356 3053 
L 1172 3053 
L 1172 1153 
Q 1172 725 1289 603 
Q 1406 481 1766 481 
L 2356 481 
L 2356 0 
L 1766 0 
Q 1100 0 847 248 
Q 594 497 594 1153 
L 594 3053 
L 172 3053 
L 172 3500 
L 594 3500 
L 594 4494 
L 1172 4494 
z
" transform="scale(0.015625)"/>
      </defs>
      <use xlink:href="#DejaVuSans-6c"/>
      <use xlink:href="#DejaVuSans-6f" transform="translate(27.783203 0)"/>
      <use xlink:href="#DejaVuSans-67" transform="translate(88.964844 0)"/>
      <use xlink:href="#DejaVuSans-20" transform="translate(152.441406 0)"/>
      <use xlink:href="#DejaVuSans-74" transform="translate(184.228516 0)"/>
      <use xlink:href="#DejaVuSans-61" transform="translate(223.4375 0)"/>
      <use xlink:href="#DejaVuSans-75" transform="translate(284.716797 0)"/>
     </g>
    </g>
   </g>
   <g id="line2d_61">
    <path d="M -1 21.326676 
L 342.177713 21.331327 
L 378.284303 28.769261 
L 399.405304 40.492628 
L 414.390892 52.166737 
L 426.014618 59.506156 
L 435.511893 65.36784 
L 443.541725 72.21468 
L 450.497482 75.120893 
L 456.632894 78.864489 
L 462.121207 84.726172 
L 467.085991 88.469768 
L 471.618483 95.021062 
L 475.787971 100.53794 
L 479.648315 105.11892 
L 483.242208 109.059547 
L 486.604071 112.606112 
L 489.762056 114.428652 
L 492.739484 117.039318 
L 495.555888 118.073733 
L 498.227797 119.009632 
L 500.769316 119.797757 
L 503.19258 120.339593 
L 505.508108 121.965102 
L 507.725072 123.8369 
L 509.851523 125.314636 
L 511.894561 128.220848 
L 513.860485 130.634483 
L 515.754904 133.688469 
L 517.582839 137.333549 
L 519.348798 140.633825 
L 521.056846 144.131132 
L 522.710661 147.726955 
L 524.313581 151.372035 
L 525.868646 154.22899 
L 527.37863 156.839656 
L 528.846073 159.007001 
L 530.273308 160.583252 
L 531.662478 161.962471 
L 533.015562 162.996886 
L 534.334386 164.27759 
L 535.620644 165.459778 
L 536.875905 166.937514 
L 538.101627 167.922671 
L 539.29917 168.907827 
L 540.469799 169.843726 
L 541.614697 170.434821 
L 542.734973 171.81404 
L 543.831662 172.454392 
L 544.905737 174.178417 
L 545.958112 175.754668 
L 546.989647 177.52795 
L 548.00115 179.941584 
L 548.993386 181.567093 
L 549.967074 184.128501 
L 550.922895 186.689909 
L 551.861494 189.251317 
L 552.783479 192.15753 
L 553.689428 194.521906 
L 554.579891 197.822182 
" clip-path="url(#p4aa54051a3)" style="fill: none; stroke: #1f77b4; stroke-width: 2; stroke-linecap: square"/>
   </g>
   <g id="line2d_62">
    <path d="M -1 117.876701 
L 342.177713 117.876701 
L 378.284303 117.876701 
L 399.405304 117.876701 
L 414.390892 117.925959 
L 426.014618 117.925959 
L 435.511893 117.925959 
L 443.541725 118.024475 
L 450.497482 118.024475 
L 456.632894 118.36928 
L 462.121207 118.763342 
L 467.085991 119.600726 
L 471.618483 120.63514 
L 475.787971 122.408423 
L 479.648315 124.280221 
L 483.242208 128.023817 
L 486.604071 131.816671 
L 489.762056 136.052846 
L 492.739484 140.633825 
L 495.555888 145.067031 
L 498.227797 149.352463 
L 500.769316 152.899028 
L 503.19258 156.150046 
L 505.508108 159.893642 
L 507.725072 162.159503 
L 509.851523 163.095402 
L 511.894561 164.425364 
L 513.860485 165.016458 
L 515.754904 165.65681 
L 517.582839 166.050872 
L 519.348798 166.297162 
L 521.056846 165.952357 
L 522.710661 164.9672 
L 524.313581 164.474621 
L 525.868646 162.356534 
L 527.37863 161.913214 
L 528.846073 160.139931 
L 530.273308 158.465165 
L 531.662478 155.706725 
L 533.015562 152.603481 
L 534.334386 147.431407 
L 535.620644 143.49078 
L 536.875905 138.515738 
L 538.101627 131.915187 
L 539.29917 130.535967 
L 540.469799 125.757956 
L 541.614697 119.896273 
L 542.734973 116.201934 
L 543.831662 112.803143 
L 544.905737 109.995446 
L 545.958112 109.355094 
L 546.989647 108.813258 
L 548.00115 110.783572 
L 548.993386 113.689784 
L 549.967074 114.871973 
L 550.922895 118.960374 
L 551.861494 127.580496 
L 552.783479 134.378079 
L 553.689428 140.633825 
L 554.579891 148.810627 
" clip-path="url(#p4aa54051a3)" style="fill: none; stroke: #ff7f0e; stroke-width: 2; stroke-linecap: square"/>
   </g>
   <g id="line2d_63">
    <path d="M -1 167.134545 
L 342.177713 167.134545 
L 378.284303 167.134545 
L 399.405304 167.134545 
L 414.390892 167.134545 
L 426.014618 167.134545 
L 435.511893 167.134545 
L 443.541725 167.134545 
L 450.497482 167.134545 
L 456.632894 167.134545 
L 462.121207 167.134545 
L 467.085991 167.036029 
L 471.618483 167.036029 
L 475.787971 166.986772 
L 479.648315 166.888256 
L 483.242208 166.838998 
L 486.604071 166.592709 
L 489.762056 165.853841 
L 492.739484 165.114973 
L 495.555888 162.89837 
L 498.227797 161.07583 
L 500.769316 159.25329 
L 503.19258 156.987429 
L 505.508108 152.701997 
L 507.725072 149.746526 
L 509.851523 146.052188 
L 511.894561 141.865271 
L 513.860485 137.185776 
L 515.754904 134.328821 
L 517.582839 131.028545 
L 519.348798 127.826786 
L 521.056846 125.314636 
L 522.710661 123.344322 
L 524.313581 121.472524 
L 525.868646 119.058889 
L 527.37863 117.482638 
L 528.846073 115.906387 
L 530.273308 114.47791 
L 531.662478 113.295722 
L 533.015562 111.128377 
L 534.334386 108.07439 
L 535.620644 104.774115 
L 536.875905 101.523097 
L 538.101627 99.996104 
L 539.29917 99.306494 
L 540.469799 98.173564 
L 541.614697 95.070319 
L 542.734973 94.774772 
L 543.831662 93.346295 
L 544.905737 94.38071 
L 545.958112 96.597313 
L 546.989647 99.897588 
L 548.00115 101.473839 
L 548.993386 108.025132 
L 549.967074 116.30045 
L 550.922895 121.226235 
L 551.861494 130.437451 
L 552.783479 138.121675 
L 553.689428 147.332892 
L 554.579891 151.71684 
" clip-path="url(#p4aa54051a3)" style="fill: none; stroke: #2ca02c; stroke-width: 2; stroke-linecap: square"/>
   </g>
   <g id="patch_9">
    <path d="M 331.557605 206.728 
L 331.557605 10.8 
" style="fill: none; stroke: #000000; stroke-width: 0.8; stroke-linejoin: miter; stroke-linecap: square"/>
   </g>
   <g id="patch_10">
    <path d="M 565.2 206.728 
L 565.2 10.8 
" style="fill: none; stroke: #000000; stroke-width: 0.8; stroke-linejoin: miter; stroke-linecap: square"/>
   </g>
   <g id="patch_11">
    <path d="M 331.557605 206.728 
L 565.2 206.728 
" style="fill: none; stroke: #000000; stroke-width: 0.8; stroke-linejoin: miter; stroke-linecap: square"/>
   </g>
   <g id="patch_12">
    <path d="M 331.557605 10.8 
L 565.2 10.8 
" style="fill: none; stroke: #000000; stroke-width: 0.8; stroke-linejoin: miter; stroke-linecap: square"/>
   </g>
  </g>
 </g>
 <defs>
  <clipPath id="p547971dbcd">
   <rect x="50.105209" y="10.8" width="233.642395" height="195.928"/>
  </clipPath>
  <clipPath id="p4aa54051a3">
   <rect x="331.557605" y="10.8" width="233.642395" height="195.928"/>
  </clipPath>
 </defs>
</svg>
