<?xml version="1.0" encoding="utf-8" standalone="no"?>
<!DOCTYPE svg PUBLIC "-//W3C//DTD SVG 1.1//EN"
  "http://www.w3.org/Graphics/SVG/1.1/DTD/svg11.dtd">
<svg xmlns:xlink="http://www.w3.org/1999/xlink" width="504pt" height="432pt" viewBox="0 0 504 432" xmlns="http://www.w3.org/2000/svg" version="1.1">
 <metadata>
  <rdf:RDF xmlns:dc="http://purl.org/dc/elements/1.1/" xmlns:cc="http://creativecommons.org/ns#" xmlns:rdf="http://www.w3.org/1999/02/22-rdf-syntax-ns#">
   <cc:Work>
    <dc:type rdf:resource="http://purl.org/dc/dcmitype/StillImage"/>
    <dc:date>2026-02-19T09:56:21.467695</dc:date>
    <dc:format>image/svg+xml</dc:format>
    <dc:creator>
     <cc:Agent>
      <dc:title>Matplotlib v3.10.8, https://matplotlib.org/</dc:title>
     </cc:Agent>
    </dc:creator>
   </cc:Work>
  </rdf:RDF>
 </metadata>
 <defs>
  <style type="text/css">*{stroke-linejoin: round; stroke-linecap: butt}</style>
 </defs>
 <g id="figure_1">
  <g id="patch_1">
   <path d="M 0 432 
L 504 432 
L 504 0 
L 0 0 
z
" style="fill: #ffffff"/>
  </g>
  <g id="axes_1">
   <g id="patch_2">
    <path d="M 54.398 386.62675 
L 236.443095 386.62675 
L 236.443095 10.8 
L 54.398 10.8 
z
" style="fill: #ffffff"/>
   </g>
   <g id="matplotlib.axis_1">
    <g id="xtick_1">
     <g id="line2d_1">
      <defs>
       <path id="m35c8a89fc4" d="M 0 0 
L 0 3.5 
" style="stroke: #000000; stroke-width: 0.8"/>
      </defs>
      <g>
       <use xlink:href="#m35c8a89fc4" x="95.771885" y="386.62675" style="stroke: #000000; stroke-width: 0.8"/>
      </g>
     </g>
     <g id="text_1">
      <!-- $\mathdefault{10^{-5}}$ -->
      <g transform="translate(84.021885 401.225188) scale(0.1 -0.1)">
       <defs>
        <path id="DejaVuSans-31" d="M 794 531 
L 1825 531 
L 1825 4091 
L 703 3866 
L 703 4441 
L 1819 4666 
L 2450 4666 
L 2450 531 
L 3481 531 
L 3481 0 
L 794 0 
L 794 531 
z
" transform="scale(0.015625)"/>
        <path id="DejaVuSans-30" d="M 2034 4250 
Q 1547 4250 1301 3770 
Q 1056 3291 1056 2328 
Q 1056 1369 1301 889 
Q 1547 409 2034 409 
Q 2525 409 2770 889 
Q 3016 1369 3016 2328 
Q 3016 3291 2770 3770 
Q 2525 4250 2034 4250 
z
M 2034 4750 
Q 2819 4750 3233 4129 
Q 3647 3509 3647 2328 
Q 3647 1150 3233 529 
Q 2819 -91 2034 -91 
Q 1250 -91 836 529 
Q 422 1150 422 2328 
Q 422 3509 836 4129 
Q 1250 4750 2034 4750 
z
" transform="scale(0.015625)"/>
        <path id="DejaVuSans-2212" d="M 678 2272 
L 4684 2272 
L 4684 1741 
L 678 1741 
L 678 2272 
z
" transform="scale(0.015625)"/>
        <path id="DejaVuSans-35" d="M 691 4666 
L 3169 4666 
L 3169 4134 
L 1269 4134 
L 1269 2991 
Q 1406 3038 1543 3061 
Q 1681 3084 1819 3084 
Q 2600 3084 3056 2656 
Q 3513 2228 3513 1497 
Q 3513 744 3044 326 
Q 2575 -91 1722 -91 
Q 1428 -91 1123 -41 
Q 819 9 494 109 
L 494 744 
Q 775 591 1075 516 
Q 1375 441 1709 441 
Q 2250 441 2565 725 
Q 2881 1009 2881 1497 
Q 2881 1984 2565 2268 
Q 2250 2553 1709 2553 
Q 1456 2553 1204 2497 
Q 953 2441 691 2322 
L 691 4666 
z
" transform="scale(0.015625)"/>
       </defs>
       <use xlink:href="#DejaVuSans-31" transform="translate(0 0.684375)"/>
       <use xlink:href="#DejaVuSans-30" transform="translate(63.623047 0.684375)"/>
       <use xlink:href="#DejaVuSans-2212" transform="translate(128.203125 38.965625) scale(0.7)"/>
       <use xlink:href="#DejaVuSans-35" transform="translate(186.855469 38.965625) scale(0.7)"/>
      </g>
     </g>
    </g>
    <g id="xtick_2">
     <g id="line2d_2">
      <g>
       <use xlink:href="#m35c8a89fc4" x="161.970102" y="386.62675" style="stroke: #000000; stroke-width: 0.8"/>
      </g>
     </g>
     <g id="text_2">
      <!-- $\mathdefault{10^{-4}}$ -->
      <g transform="translate(150.220102 401.225188) scale(0.1 -0.1)">
       <defs>
        <path id="DejaVuSans-34" d="M 2419 4116 
L 825 1625 
L 2419 1625 
L 2419 4116 
z
M 2253 4666 
L 3047 4666 
L 3047 1625 
L 3713 1625 
L 3713 1100 
L 3047 1100 
L 3047 0 
L 2419 0 
L 2419 1100 
L 313 1100 
L 313 1709 
L 2253 4666 
z
" transform="scale(0.015625)"/>
       </defs>
       <use xlink:href="#DejaVuSans-31" transform="translate(0 0.684375)"/>
       <use xlink:href="#DejaVuSans-30" transform="translate(63.623047 0.684375)"/>
       <use xlink:href="#DejaVuSans-2212" transform="translate(128.203125 38.965625) scale(0.7)"/>
       <use xlink:href="#DejaVuSans-34" transform="translate(186.855469 38.965625) scale(0.7)"/>
      </g>
     </g>
    </g>
    <g id="xtick_3">
     <g id="line2d_3">
      <g>
       <use xlink:href="#m35c8a89fc4" x="228.168318" y="386.62675" style="stroke: #000000; stroke-width: 0.8"/>
      </g>
     </g>
     <g id="text_3">
      <!-- $\mathdefault{10^{-3}}$ -->
      <g transform="translate(216.418318 401.225188) scale(0.1 -0.1)">
       <defs>
        <path id="DejaVuSans-33" d="M 2597 2516 
Q 3050 2419 3304 2112 
Q 3559 1806 3559 1356 
Q 3559 666 3084 287 
Q 2609 -91 1734 -91 
Q 1441 -91 1130 -33 
Q 819 25 488 141 
L 488 750 
Q 750 597 1062 519 
Q 1375 441 1716 441 
Q 2309 441 2620 675 
Q 2931 909 2931 1356 
Q 2931 1769 2642 2001 
Q 2353 2234 1838 2234 
L 1294 2234 
L 1294 2753 
L 1863 2753 
Q 2328 2753 2575 2939 
Q 2822 3125 2822 3475 
Q 2822 3834 2567 4026 
Q 2313 4219 1838 4219 
Q 1578 4219 1281 4162 
Q 984 4106 628 3988 
L 628 4550 
Q 988 4650 1302 4700 
Q 1616 4750 1894 4750 
Q 2613 4750 3031 4423 
Q 3450 4097 3450 3541 
Q 3450 3153 3228 2886 
Q 3006 2619 2597 2516 
z
" transform="scale(0.015625)"/>
       </defs>
       <use xlink:href="#DejaVuSans-31" transform="translate(0 0.765625)"/>
       <use xlink:href="#DejaVuSans-30" transform="translate(63.623047 0.765625)"/>
       <use xlink:href="#DejaVuSans-2212" transform="translate(128.203125 39.046875) scale(0.7)"/>
       <use xlink:href="#DejaVuSans-33" transform="translate(186.855469 39.046875) scale(0.7)"/>
      </g>
     </g>
    </g>
    <g id="xtick_4">
     <g id="line2d_4">
      <defs>
       <path id="m3b44cf45be" d="M 0 0 
L 0 2 
" style="stroke: #000000; stroke-width: 0.6"/>
      </defs>
      <g>
       <use xlink:href="#m3b44cf45be" x="61.158245" y="386.62675" style="stroke: #000000; stroke-width: 0.6"/>
      </g>
     </g>
    </g>
    <g id="xtick_5">
     <g id="line2d_5">
      <g>
       <use xlink:href="#m3b44cf45be" x="69.428966" y="386.62675" style="stroke: #000000; stroke-width: 0.6"/>
      </g>
     </g>
    </g>
    <g id="xtick_6">
     <g id="line2d_6">
      <g>
       <use xlink:href="#m3b44cf45be" x="75.844236" y="386.62675" style="stroke: #000000; stroke-width: 0.6"/>
      </g>
     </g>
    </g>
    <g id="xtick_7">
     <g id="line2d_7">
      <g>
       <use xlink:href="#m3b44cf45be" x="81.085894" y="386.62675" style="stroke: #000000; stroke-width: 0.6"/>
      </g>
     </g>
    </g>
    <g id="xtick_8">
     <g id="line2d_8">
      <g>
       <use xlink:href="#m3b44cf45be" x="85.517652" y="386.62675" style="stroke: #000000; stroke-width: 0.6"/>
      </g>
     </g>
    </g>
    <g id="xtick_9">
     <g id="line2d_9">
      <g>
       <use xlink:href="#m3b44cf45be" x="89.356615" y="386.62675" style="stroke: #000000; stroke-width: 0.6"/>
      </g>
     </g>
    </g>
    <g id="xtick_10">
     <g id="line2d_10">
      <g>
       <use xlink:href="#m3b44cf45be" x="92.742821" y="386.62675" style="stroke: #000000; stroke-width: 0.6"/>
      </g>
     </g>
    </g>
    <g id="xtick_11">
     <g id="line2d_11">
      <g>
       <use xlink:href="#m3b44cf45be" x="115.699534" y="386.62675" style="stroke: #000000; stroke-width: 0.6"/>
      </g>
     </g>
    </g>
    <g id="xtick_12">
     <g id="line2d_12">
      <g>
       <use xlink:href="#m3b44cf45be" x="127.356461" y="386.62675" style="stroke: #000000; stroke-width: 0.6"/>
      </g>
     </g>
    </g>
    <g id="xtick_13">
     <g id="line2d_13">
      <g>
       <use xlink:href="#m3b44cf45be" x="135.627183" y="386.62675" style="stroke: #000000; stroke-width: 0.6"/>
      </g>
     </g>
    </g>
    <g id="xtick_14">
     <g id="line2d_14">
      <g>
       <use xlink:href="#m3b44cf45be" x="142.042453" y="386.62675" style="stroke: #000000; stroke-width: 0.6"/>
      </g>
     </g>
    </g>
    <g id="xtick_15">
     <g id="line2d_15">
      <g>
       <use xlink:href="#m3b44cf45be" x="147.28411" y="386.62675" style="stroke: #000000; stroke-width: 0.6"/>
      </g>
     </g>
    </g>
    <g id="xtick_16">
     <g id="line2d_16">
      <g>
       <use xlink:href="#m3b44cf45be" x="151.715868" y="386.62675" style="stroke: #000000; stroke-width: 0.6"/>
      </g>
     </g>
    </g>
    <g id="xtick_17">
     <g id="line2d_17">
      <g>
       <use xlink:href="#m3b44cf45be" x="155.554832" y="386.62675" style="stroke: #000000; stroke-width: 0.6"/>
      </g>
     </g>
    </g>
    <g id="xtick_18">
     <g id="line2d_18">
      <g>
       <use xlink:href="#m3b44cf45be" x="158.941037" y="386.62675" style="stroke: #000000; stroke-width: 0.6"/>
      </g>
     </g>
    </g>
    <g id="xtick_19">
     <g id="line2d_19">
      <g>
       <use xlink:href="#m3b44cf45be" x="181.897751" y="386.62675" style="stroke: #000000; stroke-width: 0.6"/>
      </g>
     </g>
    </g>
    <g id="xtick_20">
     <g id="line2d_20">
      <g>
       <use xlink:href="#m3b44cf45be" x="193.554678" y="386.62675" style="stroke: #000000; stroke-width: 0.6"/>
      </g>
     </g>
    </g>
    <g id="xtick_21">
     <g id="line2d_21">
      <g>
       <use xlink:href="#m3b44cf45be" x="201.825399" y="386.62675" style="stroke: #000000; stroke-width: 0.6"/>
      </g>
     </g>
    </g>
    <g id="xtick_22">
     <g id="line2d_22">
      <g>
       <use xlink:href="#m3b44cf45be" x="208.240669" y="386.62675" style="stroke: #000000; stroke-width: 0.6"/>
      </g>
     </g>
    </g>
    <g id="xtick_23">
     <g id="line2d_23">
      <g>
       <use xlink:href="#m3b44cf45be" x="213.482327" y="386.62675" style="stroke: #000000; stroke-width: 0.6"/>
      </g>
     </g>
    </g>
    <g id="xtick_24">
     <g id="line2d_24">
      <g>
       <use xlink:href="#m3b44cf45be" x="217.914085" y="386.62675" style="stroke: #000000; stroke-width: 0.6"/>
      </g>
     </g>
    </g>
    <g id="xtick_25">
     <g id="line2d_25">
      <g>
       <use xlink:href="#m3b44cf45be" x="221.753048" y="386.62675" style="stroke: #000000; stroke-width: 0.6"/>
      </g>
     </g>
    </g>
    <g id="xtick_26">
     <g id="line2d_26">
      <g>
       <use xlink:href="#m3b44cf45be" x="225.139254" y="386.62675" style="stroke: #000000; stroke-width: 0.6"/>
      </g>
     </g>
    </g>
    <g id="text_4">
     <!-- alpha_0 -->
     <g transform="translate(125.879141 414.903313) scale(0.1 -0.1)">
      <defs>
       <path id="DejaVuSans-61" d="M 2194 1759 
Q 1497 1759 1228 1600 
Q 959 1441 959 1056 
Q 959 750 1161 570 
Q 1363 391 1709 391 
Q 2188 391 2477 730 
Q 2766 1069 2766 1631 
L 2766 1759 
L 2194 1759 
z
M 3341 1997 
L 3341 0 
L 2766 0 
L 2766 531 
Q 2569 213 2275 61 
Q 1981 -91 1556 -91 
Q 1019 -91 701 211 
Q 384 513 384 1019 
Q 384 1609 779 1909 
Q 1175 2209 1959 2209 
L 2766 2209 
L 2766 2266 
Q 2766 2663 2505 2880 
Q 2244 3097 1772 3097 
Q 1472 3097 1187 3025 
Q 903 2953 641 2809 
L 641 3341 
Q 956 3463 1253 3523 
Q 1550 3584 1831 3584 
Q 2591 3584 2966 3190 
Q 3341 2797 3341 1997 
z
" transform="scale(0.015625)"/>
       <path id="DejaVuSans-6c" d="M 603 4863 
L 1178 4863 
L 1178 0 
L 603 0 
L 603 4863 
z
" transform="scale(0.015625)"/>
       <path id="DejaVuSans-70" d="M 1159 525 
L 1159 -1331 
L 581 -1331 
L 581 3500 
L 1159 3500 
L 1159 2969 
Q 1341 3281 1617 3432 
Q 1894 3584 2278 3584 
Q 2916 3584 3314 3078 
Q 3713 2572 3713 1747 
Q 3713 922 3314 415 
Q 2916 -91 2278 -91 
Q 1894 -91 1617 61 
Q 1341 213 1159 525 
z
M 3116 1747 
Q 3116 2381 2855 2742 
Q 2594 3103 2138 3103 
Q 1681 3103 1420 2742 
Q 1159 2381 1159 1747 
Q 1159 1113 1420 752 
Q 1681 391 2138 391 
Q 2594 391 2855 752 
Q 3116 1113 3116 1747 
z
" transform="scale(0.015625)"/>
       <path id="DejaVuSans-68" d="M 3513 2113 
L 3513 0 
L 2938 0 
L 2938 2094 
Q 2938 2591 2744 2837 
Q 2550 3084 2163 3084 
Q 1697 3084 1428 2787 
Q 1159 2491 1159 1978 
L 1159 0 
L 581 0 
L 581 4863 
L 1159 4863 
L 1159 2956 
Q 1366 3272 1645 3428 
Q 1925 3584 2291 3584 
Q 2894 3584 3203 3211 
Q 3513 2838 3513 2113 
z
" transform="scale(0.015625)"/>
       <path id="DejaVuSans-5f" d="M 3263 -1063 
L 3263 -1509 
L -63 -1509 
L -63 -1063 
L 3263 -1063 
z
" transform="scale(0.015625)"/>
      </defs>
      <use xlink:href="#DejaVuSans-61"/>
      <use xlink:href="#DejaVuSans-6c" transform="translate(61.279297 0)"/>
      <use xlink:href="#DejaVuSans-70" transform="translate(89.0625 0)"/>
      <use xlink:href="#DejaVuSans-68" transform="translate(152.539062 0)"/>
      <use xlink:href="#DejaVuSans-61" transform="translate(215.917969 0)"/>
      <use xlink:href="#DejaVuSans-5f" transform="translate(277.197266 0)"/>
      <use xlink:href="#DejaVuSans-30" transform="translate(327.197266 0)"/>
     </g>
    </g>
   </g>
   <g id="matplotlib.axis_2">
    <g id="ytick_1">
     <g id="line2d_27">
      <defs>
       <path id="m7d00f1134e" d="M 0 0 
L -3.5 0 
" style="stroke: #000000; stroke-width: 0.8"/>
      </defs>
      <g>
       <use xlink:href="#m7d00f1134e" x="54.398" y="343.561405" style="stroke: #000000; stroke-width: 0.8"/>
      </g>
     </g>
     <g id="text_5">
      <!-- 5 -->
      <g transform="translate(41.0355 347.360624) scale(0.1 -0.1)">
       <use xlink:href="#DejaVuSans-35"/>
      </g>
     </g>
    </g>
    <g id="ytick_2">
     <g id="line2d_28">
      <g>
       <use xlink:href="#m7d00f1134e" x="54.398" y="298.84142" style="stroke: #000000; stroke-width: 0.8"/>
      </g>
     </g>
     <g id="text_6">
      <!-- 6 -->
      <g transform="translate(41.0355 302.640639) scale(0.1 -0.1)">
       <defs>
        <path id="DejaVuSans-36" d="M 2113 2584 
Q 1688 2584 1439 2293 
Q 1191 2003 1191 1497 
Q 1191 994 1439 701 
Q 1688 409 2113 409 
Q 2538 409 2786 701 
Q 3034 994 3034 1497 
Q 3034 2003 2786 2293 
Q 2538 2584 2113 2584 
z
M 3366 4563 
L 3366 3988 
Q 3128 4100 2886 4159 
Q 2644 4219 2406 4219 
Q 1781 4219 1451 3797 
Q 1122 3375 1075 2522 
Q 1259 2794 1537 2939 
Q 1816 3084 2150 3084 
Q 2853 3084 3261 2657 
Q 3669 2231 3669 1497 
Q 3669 778 3244 343 
Q 2819 -91 2113 -91 
Q 1303 -91 875 529 
Q 447 1150 447 2328 
Q 447 3434 972 4092 
Q 1497 4750 2381 4750 
Q 2619 4750 2861 4703 
Q 3103 4656 3366 4563 
z
" transform="scale(0.015625)"/>
       </defs>
       <use xlink:href="#DejaVuSans-36"/>
      </g>
     </g>
    </g>
    <g id="ytick_3">
     <g id="line2d_29">
      <g>
       <use xlink:href="#m7d00f1134e" x="54.398" y="254.121436" style="stroke: #000000; stroke-width: 0.8"/>
      </g>
     </g>
     <g id="text_7">
      <!-- 7 -->
      <g transform="translate(41.0355 257.920655) scale(0.1 -0.1)">
       <defs>
        <path id="DejaVuSans-37" d="M 525 4666 
L 3525 4666 
L 3525 4397 
L 1831 0 
L 1172 0 
L 2766 4134 
L 525 4134 
L 525 4666 
z
" transform="scale(0.015625)"/>
       </defs>
       <use xlink:href="#DejaVuSans-37"/>
      </g>
     </g>
    </g>
    <g id="ytick_4">
     <g id="line2d_30">
      <g>
       <use xlink:href="#m7d00f1134e" x="54.398" y="209.401451" style="stroke: #000000; stroke-width: 0.8"/>
      </g>
     </g>
     <g id="text_8">
      <!-- 8 -->
      <g transform="translate(41.0355 213.20067) scale(0.1 -0.1)">
       <defs>
        <path id="DejaVuSans-38" d="M 2034 2216 
Q 1584 2216 1326 1975 
Q 1069 1734 1069 1313 
Q 1069 891 1326 650 
Q 1584 409 2034 409 
Q 2484 409 2743 651 
Q 3003 894 3003 1313 
Q 3003 1734 2745 1975 
Q 2488 2216 2034 2216 
z
M 1403 2484 
Q 997 2584 770 2862 
Q 544 3141 544 3541 
Q 544 4100 942 4425 
Q 1341 4750 2034 4750 
Q 2731 4750 3128 4425 
Q 3525 4100 3525 3541 
Q 3525 3141 3298 2862 
Q 3072 2584 2669 2484 
Q 3125 2378 3379 2068 
Q 3634 1759 3634 1313 
Q 3634 634 3220 271 
Q 2806 -91 2034 -91 
Q 1263 -91 848 271 
Q 434 634 434 1313 
Q 434 1759 690 2068 
Q 947 2378 1403 2484 
z
M 1172 3481 
Q 1172 3119 1398 2916 
Q 1625 2713 2034 2713 
Q 2441 2713 2670 2916 
Q 2900 3119 2900 3481 
Q 2900 3844 2670 4047 
Q 2441 4250 2034 4250 
Q 1625 4250 1398 4047 
Q 1172 3844 1172 3481 
z
" transform="scale(0.015625)"/>
       </defs>
       <use xlink:href="#DejaVuSans-38"/>
      </g>
     </g>
    </g>
    <g id="ytick_5">
     <g id="line2d_31">
      <g>
       <use xlink:href="#m7d00f1134e" x="54.398" y="164.681467" style="stroke: #000000; stroke-width: 0.8"/>
      </g>
     </g>
     <g id="text_9">
      <!-- 9 -->
      <g transform="translate(41.0355 168.480686) scale(0.1 -0.1)">
       <defs>
        <path id="DejaVuSans-39" d="M 703 97 
L 703 672 
Q 941 559 1184 500 
Q 1428 441 1663 441 
Q 2288 441 2617 861 
Q 2947 1281 2994 2138 
Q 2813 1869 2534 1725 
Q 2256 1581 1919 1581 
Q 1219 1581 811 2004 
Q 403 2428 403 3163 
Q 403 3881 828 4315 
Q 1253 4750 1959 4750 
Q 2769 4750 3195 4129 
Q 3622 3509 3622 2328 
Q 3622 1225 3098 567 
Q 2575 -91 1691 -91 
Q 1453 -91 1209 -44 
Q 966 3 703 97 
z
M 1959 2075 
Q 2384 2075 2632 2365 
Q 2881 2656 2881 3163 
Q 2881 3666 2632 3958 
Q 2384 4250 1959 4250 
Q 1534 4250 1286 3958 
Q 1038 3666 1038 3163 
Q 1038 2656 1286 2365 
Q 1534 2075 1959 2075 
z
" transform="scale(0.015625)"/>
       </defs>
       <use xlink:href="#DejaVuSans-39"/>
      </g>
     </g>
    </g>
    <g id="ytick_6">
     <g id="line2d_32">
      <g>
       <use xlink:href="#m7d00f1134e" x="54.398" y="119.961482" style="stroke: #000000; stroke-width: 0.8"/>
      </g>
     </g>
     <g id="text_10">
      <!-- 10 -->
      <g transform="translate(34.673 123.760701) scale(0.1 -0.1)">
       <use xlink:href="#DejaVuSans-31"/>
       <use xlink:href="#DejaVuSans-30" transform="translate(63.623047 0)"/>
      </g>
     </g>
    </g>
    <g id="ytick_7">
     <g id="line2d_33">
      <g>
       <use xlink:href="#m7d00f1134e" x="54.398" y="75.241498" style="stroke: #000000; stroke-width: 0.8"/>
      </g>
     </g>
     <g id="text_11">
      <!-- 11 -->
      <g transform="translate(34.673 79.040716) scale(0.1 -0.1)">
       <use xlink:href="#DejaVuSans-31"/>
       <use xlink:href="#DejaVuSans-31" transform="translate(63.623047 0)"/>
      </g>
     </g>
    </g>
    <g id="ytick_8">
     <g id="line2d_34">
      <g>
       <use xlink:href="#m7d00f1134e" x="54.398" y="30.521513" style="stroke: #000000; stroke-width: 0.8"/>
      </g>
     </g>
     <g id="text_12">
      <!-- 12 -->
      <g transform="translate(34.673 34.320732) scale(0.1 -0.1)">
       <defs>
        <path id="DejaVuSans-32" d="M 1228 531 
L 3431 531 
L 3431 0 
L 469 0 
L 469 531 
Q 828 903 1448 1529 
Q 2069 2156 2228 2338 
Q 2531 2678 2651 2914 
Q 2772 3150 2772 3378 
Q 2772 3750 2511 3984 
Q 2250 4219 1831 4219 
Q 1534 4219 1204 4116 
Q 875 4013 500 3803 
L 500 4441 
Q 881 4594 1212 4672 
Q 1544 4750 1819 4750 
Q 2544 4750 2975 4387 
Q 3406 4025 3406 3419 
Q 3406 3131 3298 2873 
Q 3191 2616 2906 2266 
Q 2828 2175 2409 1742 
Q 1991 1309 1228 531 
z
" transform="scale(0.015625)"/>
       </defs>
       <use xlink:href="#DejaVuSans-31"/>
       <use xlink:href="#DejaVuSans-32" transform="translate(63.623047 0)"/>
      </g>
     </g>
    </g>
    <g id="text_13">
     <!-- closest H: $\min_i (H_i)$, for $T_i &gt; 1$ -->
     <g transform="translate(22.033 283.013375) rotate(-90) scale(0.12 -0.12)">
      <defs>
       <path id="DejaVuSans-63" d="M 3122 3366 
L 3122 2828 
Q 2878 2963 2633 3030 
Q 2388 3097 2138 3097 
Q 1578 3097 1268 2742 
Q 959 2388 959 1747 
Q 959 1106 1268 751 
Q 1578 397 2138 397 
Q 2388 397 2633 464 
Q 2878 531 3122 666 
L 3122 134 
Q 2881 22 2623 -34 
Q 2366 -91 2075 -91 
Q 1284 -91 818 406 
Q 353 903 353 1747 
Q 353 2603 823 3093 
Q 1294 3584 2113 3584 
Q 2378 3584 2631 3529 
Q 2884 3475 3122 3366 
z
" transform="scale(0.015625)"/>
       <path id="DejaVuSans-6f" d="M 1959 3097 
Q 1497 3097 1228 2736 
Q 959 2375 959 1747 
Q 959 1119 1226 758 
Q 1494 397 1959 397 
Q 2419 397 2687 759 
Q 2956 1122 2956 1747 
Q 2956 2369 2687 2733 
Q 2419 3097 1959 3097 
z
M 1959 3584 
Q 2709 3584 3137 3096 
Q 3566 2609 3566 1747 
Q 3566 888 3137 398 
Q 2709 -91 1959 -91 
Q 1206 -91 779 398 
Q 353 888 353 1747 
Q 353 2609 779 3096 
Q 1206 3584 1959 3584 
z
" transform="scale(0.015625)"/>
       <path id="DejaVuSans-73" d="M 2834 3397 
L 2834 2853 
Q 2591 2978 2328 3040 
Q 2066 3103 1784 3103 
Q 1356 3103 1142 2972 
Q 928 2841 928 2578 
Q 928 2378 1081 2264 
Q 1234 2150 1697 2047 
L 1894 2003 
Q 2506 1872 2764 1633 
Q 3022 1394 3022 966 
Q 3022 478 2636 193 
Q 2250 -91 1575 -91 
Q 1294 -91 989 -36 
Q 684 19 347 128 
L 347 722 
Q 666 556 975 473 
Q 1284 391 1588 391 
Q 1994 391 2212 530 
Q 2431 669 2431 922 
Q 2431 1156 2273 1281 
Q 2116 1406 1581 1522 
L 1381 1569 
Q 847 1681 609 1914 
Q 372 2147 372 2553 
Q 372 3047 722 3315 
Q 1072 3584 1716 3584 
Q 2034 3584 2315 3537 
Q 2597 3491 2834 3397 
z
" transform="scale(0.015625)"/>
       <path id="DejaVuSans-65" d="M 3597 1894 
L 3597 1613 
L 953 1613 
Q 991 1019 1311 708 
Q 1631 397 2203 397 
Q 2534 397 2845 478 
Q 3156 559 3463 722 
L 3463 178 
Q 3153 47 2828 -22 
Q 2503 -91 2169 -91 
Q 1331 -91 842 396 
Q 353 884 353 1716 
Q 353 2575 817 3079 
Q 1281 3584 2069 3584 
Q 2775 3584 3186 3129 
Q 3597 2675 3597 1894 
z
M 3022 2063 
Q 3016 2534 2758 2815 
Q 2500 3097 2075 3097 
Q 1594 3097 1305 2825 
Q 1016 2553 972 2059 
L 3022 2063 
z
" transform="scale(0.015625)"/>
       <path id="DejaVuSans-74" d="M 1172 4494 
L 1172 3500 
L 2356 3500 
L 2356 3053 
L 1172 3053 
L 1172 1153 
Q 1172 725 1289 603 
Q 1406 481 1766 481 
L 2356 481 
L 2356 0 
L 1766 0 
Q 1100 0 847 248 
Q 594 497 594 1153 
L 594 3053 
L 172 3053 
L 172 3500 
L 594 3500 
L 594 4494 
L 1172 4494 
z
" transform="scale(0.015625)"/>
       <path id="DejaVuSans-20" transform="scale(0.015625)"/>
       <path id="DejaVuSans-48" d="M 628 4666 
L 1259 4666 
L 1259 2753 
L 3553 2753 
L 3553 4666 
L 4184 4666 
L 4184 0 
L 3553 0 
L 3553 2222 
L 1259 2222 
L 1259 0 
L 628 0 
L 628 4666 
z
" transform="scale(0.015625)"/>
       <path id="DejaVuSans-3a" d="M 750 794 
L 1409 794 
L 1409 0 
L 750 0 
L 750 794 
z
M 750 3309 
L 1409 3309 
L 1409 2516 
L 750 2516 
L 750 3309 
z
" transform="scale(0.015625)"/>
       <path id="DejaVuSans-6d" d="M 3328 2828 
Q 3544 3216 3844 3400 
Q 4144 3584 4550 3584 
Q 5097 3584 5394 3201 
Q 5691 2819 5691 2113 
L 5691 0 
L 5113 0 
L 5113 2094 
Q 5113 2597 4934 2840 
Q 4756 3084 4391 3084 
Q 3944 3084 3684 2787 
Q 3425 2491 3425 1978 
L 3425 0 
L 2847 0 
L 2847 2094 
Q 2847 2600 2669 2842 
Q 2491 3084 2119 3084 
Q 1678 3084 1418 2786 
Q 1159 2488 1159 1978 
L 1159 0 
L 581 0 
L 581 3500 
L 1159 3500 
L 1159 2956 
Q 1356 3278 1631 3431 
Q 1906 3584 2284 3584 
Q 2666 3584 2933 3390 
Q 3200 3197 3328 2828 
z
" transform="scale(0.015625)"/>
       <path id="DejaVuSans-69" d="M 603 3500 
L 1178 3500 
L 1178 0 
L 603 0 
L 603 3500 
z
M 603 4863 
L 1178 4863 
L 1178 4134 
L 603 4134 
L 603 4863 
z
" transform="scale(0.015625)"/>
       <path id="DejaVuSans-6e" d="M 3513 2113 
L 3513 0 
L 2938 0 
L 2938 2094 
Q 2938 2591 2744 2837 
Q 2550 3084 2163 3084 
Q 1697 3084 1428 2787 
Q 1159 2491 1159 1978 
L 1159 0 
L 581 0 
L 581 3500 
L 1159 3500 
L 1159 2956 
Q 1366 3272 1645 3428 
Q 1925 3584 2291 3584 
Q 2894 3584 3203 3211 
Q 3513 2838 3513 2113 
z
" transform="scale(0.015625)"/>
       <path id="DejaVuSans-Oblique-69" d="M 1172 4863 
L 1747 4863 
L 1606 4134 
L 1031 4134 
L 1172 4863 
z
M 909 3500 
L 1484 3500 
L 800 0 
L 225 0 
L 909 3500 
z
" transform="scale(0.015625)"/>
       <path id="DejaVuSans-28" d="M 1984 4856 
Q 1566 4138 1362 3434 
Q 1159 2731 1159 2009 
Q 1159 1288 1364 580 
Q 1569 -128 1984 -844 
L 1484 -844 
Q 1016 -109 783 600 
Q 550 1309 550 2009 
Q 550 2706 781 3412 
Q 1013 4119 1484 4856 
L 1984 4856 
z
" transform="scale(0.015625)"/>
       <path id="DejaVuSans-Oblique-48" d="M 1081 4666 
L 1716 4666 
L 1344 2753 
L 3634 2753 
L 4006 4666 
L 4641 4666 
L 3731 0 
L 3097 0 
L 3531 2222 
L 1241 2222 
L 806 0 
L 172 0 
L 1081 4666 
z
" transform="scale(0.015625)"/>
       <path id="DejaVuSans-29" d="M 513 4856 
L 1013 4856 
Q 1481 4119 1714 3412 
Q 1947 2706 1947 2009 
Q 1947 1309 1714 600 
Q 1481 -109 1013 -844 
L 513 -844 
Q 928 -128 1133 580 
Q 1338 1288 1338 2009 
Q 1338 2731 1133 3434 
Q 928 4138 513 4856 
z
" transform="scale(0.015625)"/>
       <path id="DejaVuSans-2c" d="M 750 794 
L 1409 794 
L 1409 256 
L 897 -744 
L 494 -744 
L 750 256 
L 750 794 
z
" transform="scale(0.015625)"/>
       <path id="DejaVuSans-66" d="M 2375 4863 
L 2375 4384 
L 1825 4384 
Q 1516 4384 1395 4259 
Q 1275 4134 1275 3809 
L 1275 3500 
L 2222 3500 
L 2222 3053 
L 1275 3053 
L 1275 0 
L 697 0 
L 697 3053 
L 147 3053 
L 147 3500 
L 697 3500 
L 697 3744 
Q 697 4328 969 4595 
Q 1241 4863 1831 4863 
L 2375 4863 
z
" transform="scale(0.015625)"/>
       <path id="DejaVuSans-72" d="M 2631 2963 
Q 2534 3019 2420 3045 
Q 2306 3072 2169 3072 
Q 1681 3072 1420 2755 
Q 1159 2438 1159 1844 
L 1159 0 
L 581 0 
L 581 3500 
L 1159 3500 
L 1159 2956 
Q 1341 3275 1631 3429 
Q 1922 3584 2338 3584 
Q 2397 3584 2469 3576 
Q 2541 3569 2628 3553 
L 2631 2963 
z
" transform="scale(0.015625)"/>
       <path id="DejaVuSans-Oblique-54" d="M 378 4666 
L 4325 4666 
L 4225 4134 
L 2559 4134 
L 1759 0 
L 1125 0 
L 1925 4134 
L 275 4134 
L 378 4666 
z
" transform="scale(0.015625)"/>
       <path id="DejaVuSans-3e" d="M 678 3150 
L 678 3719 
L 4684 2266 
L 4684 1747 
L 678 294 
L 678 863 
L 3897 2003 
L 678 3150 
z
" transform="scale(0.015625)"/>
      </defs>
      <use xlink:href="#DejaVuSans-63" transform="translate(0 0.015625)"/>
      <use xlink:href="#DejaVuSans-6c" transform="translate(54.980469 0.015625)"/>
      <use xlink:href="#DejaVuSans-6f" transform="translate(82.763672 0.015625)"/>
      <use xlink:href="#DejaVuSans-73" transform="translate(143.945312 0.015625)"/>
      <use xlink:href="#DejaVuSans-65" transform="translate(196.044922 0.015625)"/>
      <use xlink:href="#DejaVuSans-73" transform="translate(257.568359 0.015625)"/>
      <use xlink:href="#DejaVuSans-74" transform="translate(309.667969 0.015625)"/>
      <use xlink:href="#DejaVuSans-20" transform="translate(348.876953 0.015625)"/>
      <use xlink:href="#DejaVuSans-48" transform="translate(380.664062 0.015625)"/>
      <use xlink:href="#DejaVuSans-3a" transform="translate(455.859375 0.015625)"/>
      <use xlink:href="#DejaVuSans-20" transform="translate(489.550781 0.015625)"/>
      <use xlink:href="#DejaVuSans-6d" transform="translate(521.337891 0.015625)"/>
      <use xlink:href="#DejaVuSans-69" transform="translate(618.75 0.015625)"/>
      <use xlink:href="#DejaVuSans-6e" transform="translate(646.533203 0.015625)"/>
      <use xlink:href="#DejaVuSans-Oblique-69" transform="translate(607.337891 -71.923438) scale(0.7)"/>
      <use xlink:href="#DejaVuSans-28" transform="translate(709.912109 0.015625)"/>
      <use xlink:href="#DejaVuSans-Oblique-48" transform="translate(748.925781 0.015625)"/>
      <use xlink:href="#DejaVuSans-Oblique-69" transform="translate(824.121094 -16.390625) scale(0.7)"/>
      <use xlink:href="#DejaVuSans-29" transform="translate(862.539387 0.015625)"/>
      <use xlink:href="#DejaVuSans-2c" transform="translate(901.553059 0.015625)"/>
      <use xlink:href="#DejaVuSans-20" transform="translate(933.340168 0.015625)"/>
      <use xlink:href="#DejaVuSans-66" transform="translate(965.127278 0.015625)"/>
      <use xlink:href="#DejaVuSans-6f" transform="translate(1000.332356 0.015625)"/>
      <use xlink:href="#DejaVuSans-72" transform="translate(1061.513997 0.015625)"/>
      <use xlink:href="#DejaVuSans-20" transform="translate(1102.627278 0.015625)"/>
      <use xlink:href="#DejaVuSans-Oblique-54" transform="translate(1134.414387 0.015625)"/>
      <use xlink:href="#DejaVuSans-Oblique-69" transform="translate(1195.498372 -16.390625) scale(0.7)"/>
      <use xlink:href="#DejaVuSans-3e" transform="translate(1237.163411 0.015625)"/>
      <use xlink:href="#DejaVuSans-31" transform="translate(1340.434895 0.015625)"/>
     </g>
    </g>
   </g>
   <g id="line2d_35">
    <path d="M 62.672777 368.783476 
L 67.540293 369.543716 
L 72.407809 365.518917 
L 77.275325 365.697797 
L 82.142841 365.563637 
L 87.010357 367.039397 
L 91.877873 367.710197 
L 96.745388 369.230676 
L 101.612904 366.592197 
L 106.48042 366.949957 
L 111.347936 366.279157 
L 116.215452 366.726357 
L 121.082968 366.547477 
L 125.950484 368.425716 
L 130.818 366.234437 
L 135.685516 367.218277 
L 140.553032 365.742517 
L 145.420548 363.282918 
L 150.288064 362.925158 
L 155.155579 360.957479 
L 160.023095 361.807159 
L 164.890611 351.789882 
L 169.758127 343.963885 
L 174.625643 339.983806 
L 179.493159 326.970291 
L 184.360675 307.695977 
L 189.228191 294.637742 
L 194.095707 274.245429 
L 198.963223 255.507755 
L 203.830739 235.204882 
L 208.698255 221.252247 
L 213.56577 248.218398 
L 218.433286 233.550243 
L 223.300802 222.414967 
L 228.168318 214.678409 
" clip-path="url(#p93e5a19ac5)" style="fill: none; stroke: #440154; stroke-width: 2; stroke-linecap: square"/>
   </g>
   <g id="line2d_36">
    <path d="M 62.672777 350.165056 
L 67.540293 350.045803 
L 72.407809 349.360096 
L 77.275325 347.973777 
L 82.142841 348.078123 
L 87.010357 349.628416 
L 91.877873 349.16631 
L 96.745388 350.343936 
L 101.612904 348.67439 
L 106.48042 350.209776 
L 111.347936 348.793643 
L 116.215452 347.452044 
L 121.082968 347.809803 
L 125.950484 349.822203 
L 130.818 348.570043 
L 135.685516 348.465697 
L 140.553032 348.31663 
L 145.420548 347.571297 
L 150.288064 348.107937 
L 155.155579 347.675643 
L 160.023095 346.736524 
L 164.890611 345.409831 
L 169.758127 342.204899 
L 174.625643 341.399939 
L 179.493159 336.823594 
L 184.360675 330.518076 
L 189.228191 324.510691 
L 194.095707 315.849921 
L 198.963223 302.225233 
L 203.830739 285.753372 
L 208.698255 275.363428 
L 213.56577 300.645126 
L 218.433286 286.573238 
L 223.300802 274.662815 
L 228.168318 266.985885 
" clip-path="url(#p93e5a19ac5)" style="fill: none; stroke: #472f7d; stroke-width: 2; stroke-linecap: square"/>
   </g>
   <g id="line2d_37">
    <path d="M 62.672777 301.554433 
L 67.540293 303.074912 
L 72.407809 301.942006 
L 77.275325 301.375553 
L 82.142841 300.734566 
L 87.010357 303.850059 
L 91.877873 300.89854 
L 96.745388 300.824006 
L 101.612904 301.16686 
L 106.48042 304.014032 
L 111.347936 301.778033 
L 116.215452 300.242647 
L 121.082968 301.30102 
L 125.950484 300.958166 
L 130.818 301.0327 
L 135.685516 299.64638 
L 140.553032 301.464993 
L 145.420548 299.482407 
L 150.288064 303.551925 
L 155.155579 302.523366 
L 160.023095 302.821499 
L 164.890611 302.165606 
L 169.758127 301.673686 
L 174.625643 300.838913 
L 179.493159 295.159475 
L 184.360675 294.339609 
L 189.228191 290.329717 
L 194.095707 282.295026 
L 198.963223 269.54983 
L 203.830739 257.371088 
L 208.698255 245.654452 
L 213.56577 270.190817 
L 218.433286 255.463035 
L 223.300802 243.105413 
L 228.168318 239.334028 
" clip-path="url(#p93e5a19ac5)" style="fill: none; stroke: #31688e; stroke-width: 2; stroke-linecap: square"/>
   </g>
   <g id="line2d_38">
    <path d="M 62.672777 191.349484 
L 67.540293 193.660017 
L 72.407809 192.92959 
L 77.275325 191.051351 
L 82.142841 193.093564 
L 87.010357 192.914684 
L 91.877873 191.453831 
L 96.745388 193.838897 
L 101.612904 193.33207 
L 106.48042 194.166843 
L 111.347936 193.809083 
L 116.215452 193.168097 
L 121.082968 192.407857 
L 125.950484 191.930844 
L 130.818 192.333324 
L 135.685516 192.88487 
L 140.553032 195.240123 
L 145.420548 190.827751 
L 150.288064 191.975564 
L 155.155579 195.12087 
L 160.023095 197.640095 
L 164.890611 197.729535 
L 169.758127 200.755588 
L 174.625643 198.117109 
L 179.493159 191.125884 
L 184.360675 189.098578 
L 189.228191 187.369406 
L 194.095707 183.448954 
L 198.963223 172.254051 
L 203.830739 161.208215 
L 208.698255 155.677843 
L 213.56577 172.626717 
L 218.433286 161.715041 
L 223.300802 150.773552 
L 228.168318 146.94254 
" clip-path="url(#p93e5a19ac5)" style="fill: none; stroke: #35b779; stroke-width: 2; stroke-linecap: square"/>
   </g>
   <g id="line2d_39">
    <path d="M 62.672777 65.567074 
L 67.540293 66.297501 
L 72.407809 66.550914 
L 77.275325 64.016782 
L 82.142841 64.106222 
L 87.010357 65.298754 
L 91.877873 66.267687 
L 96.745388 66.118621 
L 101.612904 63.509955 
L 106.48042 67.59438 
L 111.347936 66.327314 
L 116.215452 64.493795 
L 121.082968 65.090061 
L 125.950484 64.016782 
L 130.818 65.149688 
L 135.685516 65.403101 
L 140.553032 67.698727 
L 145.420548 65.060248 
L 150.288064 63.793182 
L 155.155579 68.13102 
L 160.023095 71.708619 
L 164.890611 76.806697 
L 169.758127 78.774376 
L 174.625643 73.094938 
L 179.493159 64.613048 
L 184.360675 63.614302 
L 189.228191 65.104968 
L 194.095707 59.395717 
L 198.963223 50.13868 
L 203.830739 43.609562 
L 208.698255 35.008418 
L 213.56577 49.527507 
L 218.433286 41.701509 
L 223.300802 33.726445 
L 228.168318 27.883034 
" clip-path="url(#p93e5a19ac5)" style="fill: none; stroke: #fde725; stroke-width: 2; stroke-linecap: square"/>
   </g>
   <g id="patch_3">
    <path d="M 54.398 386.62675 
L 54.398 10.8 
" style="fill: none; stroke: #000000; stroke-width: 0.8; stroke-linejoin: miter; stroke-linecap: square"/>
   </g>
   <g id="patch_4">
    <path d="M 236.443095 386.62675 
L 236.443095 10.8 
" style="fill: none; stroke: #000000; stroke-width: 0.8; stroke-linejoin: miter; stroke-linecap: square"/>
   </g>
   <g id="patch_5">
    <path d="M 54.398 386.62675 
L 236.443095 386.62675 
" style="fill: none; stroke: #000000; stroke-width: 0.8; stroke-linejoin: miter; stroke-linecap: square"/>
   </g>
   <g id="patch_6">
    <path d="M 54.398 10.8 
L 236.443095 10.8 
" style="fill: none; stroke: #000000; stroke-width: 0.8; stroke-linejoin: miter; stroke-linecap: square"/>
   </g>
  </g>
  <g id="axes_2">
   <g id="patch_7">
    <path d="M 307.22498 386.62675 
L 489.270075 386.62675 
L 489.270075 10.8 
L 307.22498 10.8 
z
" style="fill: #ffffff"/>
   </g>
   <g id="matplotlib.axis_3">
    <g id="xtick_27">
     <g id="line2d_40">
      <g>
       <use xlink:href="#m35c8a89fc4" x="348.598865" y="386.62675" style="stroke: #000000; stroke-width: 0.8"/>
      </g>
     </g>
     <g id="text_14">
      <!-- $\mathdefault{10^{-5}}$ -->
      <g transform="translate(336.848865 401.225188) scale(0.1 -0.1)">
       <use xlink:href="#DejaVuSans-31" transform="translate(0 0.684375)"/>
       <use xlink:href="#DejaVuSans-30" transform="translate(63.623047 0.684375)"/>
       <use xlink:href="#DejaVuSans-2212" transform="translate(128.203125 38.965625) scale(0.7)"/>
       <use xlink:href="#DejaVuSans-35" transform="translate(186.855469 38.965625) scale(0.7)"/>
      </g>
     </g>
    </g>
    <g id="xtick_28">
     <g id="line2d_41">
      <g>
       <use xlink:href="#m35c8a89fc4" x="414.797081" y="386.62675" style="stroke: #000000; stroke-width: 0.8"/>
      </g>
     </g>
     <g id="text_15">
      <!-- $\mathdefault{10^{-4}}$ -->
      <g transform="translate(403.047081 401.225188) scale(0.1 -0.1)">
       <use xlink:href="#DejaVuSans-31" transform="translate(0 0.684375)"/>
       <use xlink:href="#DejaVuSans-30" transform="translate(63.623047 0.684375)"/>
       <use xlink:href="#DejaVuSans-2212" transform="translate(128.203125 38.965625) scale(0.7)"/>
       <use xlink:href="#DejaVuSans-34" transform="translate(186.855469 38.965625) scale(0.7)"/>
      </g>
     </g>
    </g>
    <g id="xtick_29">
     <g id="line2d_42">
      <g>
       <use xlink:href="#m35c8a89fc4" x="480.995298" y="386.62675" style="stroke: #000000; stroke-width: 0.8"/>
      </g>
     </g>
     <g id="text_16">
      <!-- $\mathdefault{10^{-3}}$ -->
      <g transform="translate(469.245298 401.225188) scale(0.1 -0.1)">
       <use xlink:href="#DejaVuSans-31" transform="translate(0 0.765625)"/>
       <use xlink:href="#DejaVuSans-30" transform="translate(63.623047 0.765625)"/>
       <use xlink:href="#DejaVuSans-2212" transform="translate(128.203125 39.046875) scale(0.7)"/>
       <use xlink:href="#DejaVuSans-33" transform="translate(186.855469 39.046875) scale(0.7)"/>
      </g>
     </g>
    </g>
    <g id="xtick_30">
     <g id="line2d_43">
      <g>
       <use xlink:href="#m3b44cf45be" x="313.985225" y="386.62675" style="stroke: #000000; stroke-width: 0.6"/>
      </g>
     </g>
    </g>
    <g id="xtick_31">
     <g id="line2d_44">
      <g>
       <use xlink:href="#m3b44cf45be" x="322.255946" y="386.62675" style="stroke: #000000; stroke-width: 0.6"/>
      </g>
     </g>
    </g>
    <g id="xtick_32">
     <g id="line2d_45">
      <g>
       <use xlink:href="#m3b44cf45be" x="328.671216" y="386.62675" style="stroke: #000000; stroke-width: 0.6"/>
      </g>
     </g>
    </g>
    <g id="xtick_33">
     <g id="line2d_46">
      <g>
       <use xlink:href="#m3b44cf45be" x="333.912873" y="386.62675" style="stroke: #000000; stroke-width: 0.6"/>
      </g>
     </g>
    </g>
    <g id="xtick_34">
     <g id="line2d_47">
      <g>
       <use xlink:href="#m3b44cf45be" x="338.344631" y="386.62675" style="stroke: #000000; stroke-width: 0.6"/>
      </g>
     </g>
    </g>
    <g id="xtick_35">
     <g id="line2d_48">
      <g>
       <use xlink:href="#m3b44cf45be" x="342.183595" y="386.62675" style="stroke: #000000; stroke-width: 0.6"/>
      </g>
     </g>
    </g>
    <g id="xtick_36">
     <g id="line2d_49">
      <g>
       <use xlink:href="#m3b44cf45be" x="345.569801" y="386.62675" style="stroke: #000000; stroke-width: 0.6"/>
      </g>
     </g>
    </g>
    <g id="xtick_37">
     <g id="line2d_50">
      <g>
       <use xlink:href="#m3b44cf45be" x="368.526514" y="386.62675" style="stroke: #000000; stroke-width: 0.6"/>
      </g>
     </g>
    </g>
    <g id="xtick_38">
     <g id="line2d_51">
      <g>
       <use xlink:href="#m3b44cf45be" x="380.183441" y="386.62675" style="stroke: #000000; stroke-width: 0.6"/>
      </g>
     </g>
    </g>
    <g id="xtick_39">
     <g id="line2d_52">
      <g>
       <use xlink:href="#m3b44cf45be" x="388.454163" y="386.62675" style="stroke: #000000; stroke-width: 0.6"/>
      </g>
     </g>
    </g>
    <g id="xtick_40">
     <g id="line2d_53">
      <g>
       <use xlink:href="#m3b44cf45be" x="394.869433" y="386.62675" style="stroke: #000000; stroke-width: 0.6"/>
      </g>
     </g>
    </g>
    <g id="xtick_41">
     <g id="line2d_54">
      <g>
       <use xlink:href="#m3b44cf45be" x="400.11109" y="386.62675" style="stroke: #000000; stroke-width: 0.6"/>
      </g>
     </g>
    </g>
    <g id="xtick_42">
     <g id="line2d_55">
      <g>
       <use xlink:href="#m3b44cf45be" x="404.542848" y="386.62675" style="stroke: #000000; stroke-width: 0.6"/>
      </g>
     </g>
    </g>
    <g id="xtick_43">
     <g id="line2d_56">
      <g>
       <use xlink:href="#m3b44cf45be" x="408.381811" y="386.62675" style="stroke: #000000; stroke-width: 0.6"/>
      </g>
     </g>
    </g>
    <g id="xtick_44">
     <g id="line2d_57">
      <g>
       <use xlink:href="#m3b44cf45be" x="411.768017" y="386.62675" style="stroke: #000000; stroke-width: 0.6"/>
      </g>
     </g>
    </g>
    <g id="xtick_45">
     <g id="line2d_58">
      <g>
       <use xlink:href="#m3b44cf45be" x="434.72473" y="386.62675" style="stroke: #000000; stroke-width: 0.6"/>
      </g>
     </g>
    </g>
    <g id="xtick_46">
     <g id="line2d_59">
      <g>
       <use xlink:href="#m3b44cf45be" x="446.381657" y="386.62675" style="stroke: #000000; stroke-width: 0.6"/>
      </g>
     </g>
    </g>
    <g id="xtick_47">
     <g id="line2d_60">
      <g>
       <use xlink:href="#m3b44cf45be" x="454.652379" y="386.62675" style="stroke: #000000; stroke-width: 0.6"/>
      </g>
     </g>
    </g>
    <g id="xtick_48">
     <g id="line2d_61">
      <g>
       <use xlink:href="#m3b44cf45be" x="461.067649" y="386.62675" style="stroke: #000000; stroke-width: 0.6"/>
      </g>
     </g>
    </g>
    <g id="xtick_49">
     <g id="line2d_62">
      <g>
       <use xlink:href="#m3b44cf45be" x="466.309306" y="386.62675" style="stroke: #000000; stroke-width: 0.6"/>
      </g>
     </g>
    </g>
    <g id="xtick_50">
     <g id="line2d_63">
      <g>
       <use xlink:href="#m3b44cf45be" x="470.741064" y="386.62675" style="stroke: #000000; stroke-width: 0.6"/>
      </g>
     </g>
    </g>
    <g id="xtick_51">
     <g id="line2d_64">
      <g>
       <use xlink:href="#m3b44cf45be" x="474.580028" y="386.62675" style="stroke: #000000; stroke-width: 0.6"/>
      </g>
     </g>
    </g>
    <g id="xtick_52">
     <g id="line2d_65">
      <g>
       <use xlink:href="#m3b44cf45be" x="477.966234" y="386.62675" style="stroke: #000000; stroke-width: 0.6"/>
      </g>
     </g>
    </g>
    <g id="text_17">
     <!-- alpha_0 -->
     <g transform="translate(378.706121 414.903313) scale(0.1 -0.1)">
      <use xlink:href="#DejaVuSans-61"/>
      <use xlink:href="#DejaVuSans-6c" transform="translate(61.279297 0)"/>
      <use xlink:href="#DejaVuSans-70" transform="translate(89.0625 0)"/>
      <use xlink:href="#DejaVuSans-68" transform="translate(152.539062 0)"/>
      <use xlink:href="#DejaVuSans-61" transform="translate(215.917969 0)"/>
      <use xlink:href="#DejaVuSans-5f" transform="translate(277.197266 0)"/>
      <use xlink:href="#DejaVuSans-30" transform="translate(327.197266 0)"/>
     </g>
    </g>
   </g>
   <g id="matplotlib.axis_4">
    <g id="ytick_9">
     <g id="line2d_66">
      <g>
       <use xlink:href="#m7d00f1134e" x="307.22498" y="221.742476" style="stroke: #000000; stroke-width: 0.8"/>
      </g>
     </g>
     <g id="text_18">
      <!-- $\mathdefault{10^{1}}$ -->
      <g transform="translate(282.62498 225.541695) scale(0.1 -0.1)">
       <use xlink:href="#DejaVuSans-31" transform="translate(0 0.684375)"/>
       <use xlink:href="#DejaVuSans-30" transform="translate(63.623047 0.684375)"/>
       <use xlink:href="#DejaVuSans-31" transform="translate(128.203125 38.965625) scale(0.7)"/>
      </g>
     </g>
    </g>
    <g id="ytick_10">
     <g id="line2d_67">
      <defs>
       <path id="me97de0c52d" d="M 0 0 
L -2 0 
" style="stroke: #000000; stroke-width: 0.6"/>
      </defs>
      <g>
       <use xlink:href="#me97de0c52d" x="307.22498" y="352.320301" style="stroke: #000000; stroke-width: 0.6"/>
      </g>
     </g>
    </g>
    <g id="ytick_11">
     <g id="line2d_68">
      <g>
       <use xlink:href="#me97de0c52d" x="307.22498" y="303.434785" style="stroke: #000000; stroke-width: 0.6"/>
      </g>
     </g>
    </g>
    <g id="ytick_12">
     <g id="line2d_69">
      <g>
       <use xlink:href="#me97de0c52d" x="307.22498" y="260.314704" style="stroke: #000000; stroke-width: 0.6"/>
      </g>
     </g>
    </g>
    <g id="text_19">
     <!-- mean H: $\sum_i H_i f_i$, for $T_i &gt; 1$ -->
     <g transform="translate(266.62498 271.013375) rotate(-90) scale(0.12 -0.12)">
      <defs>
       <path id="DejaVuSansDisplay-2211" d="M 244 6509 
L 5803 6509 
L 5803 5656 
L 1566 5656 
L 4534 2488 
L 1469 -888 
L 5919 -888 
L 5919 -1738 
L 109 -1738 
L 109 -1078 
L 3316 2463 
L 244 5728 
L 244 6509 
z
" transform="scale(0.015625)"/>
       <path id="DejaVuSans-Oblique-66" d="M 3059 4863 
L 2969 4384 
L 2419 4384 
Q 2106 4384 1964 4261 
Q 1822 4138 1753 3809 
L 1691 3500 
L 2638 3500 
L 2553 3053 
L 1606 3053 
L 1013 0 
L 434 0 
L 1031 3053 
L 481 3053 
L 563 3500 
L 1113 3500 
L 1159 3744 
Q 1278 4363 1576 4613 
Q 1875 4863 2516 4863 
L 3059 4863 
z
" transform="scale(0.015625)"/>
      </defs>
      <use xlink:href="#DejaVuSans-6d" transform="translate(0 0.296875)"/>
      <use xlink:href="#DejaVuSans-65" transform="translate(97.412109 0.296875)"/>
      <use xlink:href="#DejaVuSans-61" transform="translate(158.935547 0.296875)"/>
      <use xlink:href="#DejaVuSans-6e" transform="translate(220.214844 0.296875)"/>
      <use xlink:href="#DejaVuSans-20" transform="translate(283.59375 0.296875)"/>
      <use xlink:href="#DejaVuSans-48" transform="translate(315.380859 0.296875)"/>
      <use xlink:href="#DejaVuSans-3a" transform="translate(390.576172 0.296875)"/>
      <use xlink:href="#DejaVuSans-20" transform="translate(424.267578 0.296875)"/>
      <use xlink:href="#DejaVuSansDisplay-2211" transform="translate(456.054688 0.296875)"/>
      <use xlink:href="#DejaVuSans-Oblique-69" transform="translate(493.054688 -98.798438) scale(0.7)"/>
      <use xlink:href="#DejaVuSans-Oblique-48" transform="translate(546.820312 0.296875)"/>
      <use xlink:href="#DejaVuSans-Oblique-69" transform="translate(622.015625 -16.109375) scale(0.7)"/>
      <use xlink:href="#DejaVuSans-Oblique-66" transform="translate(644.198242 0.296875)"/>
      <use xlink:href="#DejaVuSans-Oblique-69" transform="translate(679.40332 -16.109375) scale(0.7)"/>
      <use xlink:href="#DejaVuSans-2c" transform="translate(701.585938 0.296875)"/>
      <use xlink:href="#DejaVuSans-20" transform="translate(733.373047 0.296875)"/>
      <use xlink:href="#DejaVuSans-66" transform="translate(765.160156 0.296875)"/>
      <use xlink:href="#DejaVuSans-6f" transform="translate(800.365234 0.296875)"/>
      <use xlink:href="#DejaVuSans-72" transform="translate(861.546875 0.296875)"/>
      <use xlink:href="#DejaVuSans-20" transform="translate(902.660156 0.296875)"/>
      <use xlink:href="#DejaVuSans-Oblique-54" transform="translate(934.447266 0.296875)"/>
      <use xlink:href="#DejaVuSans-Oblique-69" transform="translate(995.53125 -16.109375) scale(0.7)"/>
      <use xlink:href="#DejaVuSans-3e" transform="translate(1037.196289 0.296875)"/>
      <use xlink:href="#DejaVuSans-31" transform="translate(1140.467773 0.296875)"/>
     </g>
    </g>
   </g>
   <g id="line2d_70">
    <path d="M 315.499757 369.543716 
L 320.367273 368.967427 
L 325.234788 368.103893 
L 330.102304 367.453637 
L 334.96982 366.485866 
L 339.837336 365.698713 
L 344.704852 364.260247 
L 349.572368 363.93513 
L 354.439884 362.029546 
L 359.3074 361.163864 
L 364.174916 358.659623 
L 369.042432 357.062059 
L 373.909948 355.178419 
L 378.777464 353.437206 
L 383.644979 351.318775 
L 388.512495 349.181492 
L 393.380011 346.926244 
L 398.247527 344.98278 
L 403.115043 343.08533 
L 407.982559 340.593479 
L 412.850075 333.902788 
L 417.717591 328.703626 
L 422.585107 325.899384 
L 427.452623 329.068975 
L 432.320139 335.236903 
L 437.187655 333.459973 
L 442.05517 331.366135 
L 446.922686 325.445464 
L 451.790202 320.062887 
L 456.657718 312.546894 
L 461.525234 307.037871 
L 466.39275 318.421886 
L 471.260266 311.928312 
L 476.127782 307.564201 
L 480.995298 304.963851 
" clip-path="url(#p2d12c06e9e)" style="fill: none; stroke: #440154; stroke-width: 2; stroke-linecap: square"/>
   </g>
   <g id="line2d_71">
    <path d="M 315.499757 303.311635 
L 320.367273 302.939866 
L 325.234788 302.132786 
L 330.102304 301.480687 
L 334.96982 301.046967 
L 339.837336 300.2847 
L 344.704852 299.202806 
L 349.572368 299.392502 
L 354.439884 297.317646 
L 359.3074 296.872991 
L 364.174916 294.966289 
L 369.042432 293.522217 
L 373.909948 292.197027 
L 378.777464 290.822665 
L 383.644979 289.445192 
L 388.512495 287.497609 
L 393.380011 286.006736 
L 398.247527 284.353508 
L 403.115043 283.025079 
L 407.982559 281.294919 
L 412.850075 276.300486 
L 417.717591 272.175271 
L 422.585107 269.982274 
L 427.452623 272.241755 
L 432.320139 276.930703 
L 437.187655 275.903265 
L 442.05517 274.181751 
L 446.922686 269.619813 
L 451.790202 265.319895 
L 456.657718 259.261018 
L 461.525234 255.348841 
L 466.39275 264.442597 
L 471.260266 258.957733 
L 476.127782 255.061237 
L 480.995298 253.345986 
" clip-path="url(#p2d12c06e9e)" style="fill: none; stroke: #472f7d; stroke-width: 2; stroke-linecap: square"/>
   </g>
   <g id="line2d_72">
    <path d="M 315.499757 221.857938 
L 320.367273 221.871538 
L 325.234788 221.175404 
L 330.102304 220.847211 
L 334.96982 220.409131 
L 339.837336 219.894869 
L 344.704852 218.999589 
L 349.572368 219.58268 
L 354.439884 217.673723 
L 359.3074 217.941518 
L 364.174916 216.341584 
L 369.042432 215.215234 
L 373.909948 214.230959 
L 378.777464 213.292098 
L 383.644979 212.699881 
L 388.512495 211.08927 
L 393.380011 210.17714 
L 398.247527 208.699622 
L 403.115043 208.334728 
L 407.982559 206.996148 
L 412.850075 203.689333 
L 417.717591 200.833677 
L 422.585107 199.467077 
L 427.452623 200.820891 
L 432.320139 203.847439 
L 437.187655 203.515603 
L 442.05517 202.097442 
L 446.922686 199.07958 
L 451.790202 195.954802 
L 456.657718 192.001226 
L 461.525234 189.118808 
L 466.39275 195.61077 
L 471.260266 191.373877 
L 476.127782 188.683457 
L 480.995298 187.536813 
" clip-path="url(#p2d12c06e9e)" style="fill: none; stroke: #31688e; stroke-width: 2; stroke-linecap: square"/>
   </g>
   <g id="line2d_73">
    <path d="M 315.499757 116.685305 
L 320.367273 116.720853 
L 325.234788 116.397202 
L 330.102304 115.836268 
L 334.96982 115.966131 
L 339.837336 115.672383 
L 344.704852 114.802312 
L 349.572368 115.811347 
L 354.439884 114.535248 
L 359.3074 114.983405 
L 364.174916 113.79616 
L 369.042432 113.552078 
L 373.909948 112.823557 
L 378.777464 112.259471 
L 383.644979 112.183543 
L 388.512495 111.057241 
L 393.380011 110.686064 
L 398.247527 109.800397 
L 403.115043 110.013136 
L 407.982559 109.177674 
L 412.850075 107.504336 
L 417.717591 105.952327 
L 422.585107 105.443694 
L 427.452623 105.961002 
L 432.320139 107.692007 
L 437.187655 107.532061 
L 442.05517 106.645849 
L 446.922686 105.159817 
L 451.790202 103.443511 
L 456.657718 101.848483 
L 461.525234 100.472951 
L 466.39275 103.181438 
L 471.260266 101.009769 
L 476.127782 99.741932 
L 480.995298 99.386149 
" clip-path="url(#p2d12c06e9e)" style="fill: none; stroke: #35b779; stroke-width: 2; stroke-linecap: square"/>
   </g>
   <g id="line2d_74">
    <path d="M 315.499757 35.338514 
L 320.367273 35.302845 
L 325.234788 34.884475 
L 330.102304 34.726202 
L 334.96982 34.654135 
L 339.837336 34.420161 
L 344.704852 34.040759 
L 349.572368 34.947212 
L 354.439884 33.993191 
L 359.3074 34.535897 
L 364.174916 33.676531 
L 369.042432 33.766693 
L 373.909948 33.537296 
L 378.777464 33.093133 
L 383.644979 33.218985 
L 388.512495 32.606937 
L 393.380011 32.53117 
L 398.247527 32.117241 
L 403.115043 32.227694 
L 407.982559 32.316123 
L 412.850075 31.501714 
L 417.717591 30.65696 
L 422.585107 30.506465 
L 427.452623 30.536815 
L 432.320139 31.416716 
L 437.187655 31.370146 
L 442.05517 31.108099 
L 446.922686 30.497131 
L 451.790202 29.653889 
L 456.657718 29.342227 
L 461.525234 28.738458 
L 466.39275 29.437553 
L 471.260266 28.498778 
L 476.127782 28.158537 
L 480.995298 27.883034 
" clip-path="url(#p2d12c06e9e)" style="fill: none; stroke: #fde725; stroke-width: 2; stroke-linecap: square"/>
   </g>
   <g id="patch_8">
    <path d="M 307.22498 386.62675 
L 307.22498 10.8 
" style="fill: none; stroke: #000000; stroke-width: 0.8; stroke-linejoin: miter; stroke-linecap: square"/>
   </g>
   <g id="patch_9">
    <path d="M 489.270075 386.62675 
L 489.270075 10.8 
" style="fill: none; stroke: #000000; stroke-width: 0.8; stroke-linejoin: miter; stroke-linecap: square"/>
   </g>
   <g id="patch_10">
    <path d="M 307.22498 386.62675 
L 489.270075 386.62675 
" style="fill: none; stroke: #000000; stroke-width: 0.8; stroke-linejoin: miter; stroke-linecap: square"/>
   </g>
   <g id="patch_11">
    <path d="M 307.22498 10.8 
L 489.270075 10.8 
" style="fill: none; stroke: #000000; stroke-width: 0.8; stroke-linejoin: miter; stroke-linecap: square"/>
   </g>
   <g id="legend_1">
    <g id="patch_12">
     <path d="M 361.659137 381.62675 
L 482.270075 381.62675 
Q 484.270075 381.62675 484.270075 379.62675 
L 484.270075 307.236125 
Q 484.270075 305.236125 482.270075 305.236125 
L 361.659137 305.236125 
Q 359.659137 305.236125 359.659137 307.236125 
L 359.659137 379.62675 
Q 359.659137 381.62675 361.659137 381.62675 
z
" style="fill: #ffffff; opacity: 0.8; stroke: #cccccc; stroke-linejoin: miter"/>
    </g>
    <g id="line2d_75">
     <path d="M 363.659137 313.334563 
L 373.659137 313.334563 
L 383.659137 313.334563 
" style="fill: none; stroke: #440154; stroke-width: 2; stroke-linecap: square"/>
    </g>
    <g id="text_20">
     <!-- N mutations = 0 -->
     <g transform="translate(391.659137 316.834563) scale(0.1 -0.1)">
      <defs>
       <path id="DejaVuSans-4e" d="M 628 4666 
L 1478 4666 
L 3547 763 
L 3547 4666 
L 4159 4666 
L 4159 0 
L 3309 0 
L 1241 3903 
L 1241 0 
L 628 0 
L 628 4666 
z
" transform="scale(0.015625)"/>
       <path id="DejaVuSans-75" d="M 544 1381 
L 544 3500 
L 1119 3500 
L 1119 1403 
Q 1119 906 1312 657 
Q 1506 409 1894 409 
Q 2359 409 2629 706 
Q 2900 1003 2900 1516 
L 2900 3500 
L 3475 3500 
L 3475 0 
L 2900 0 
L 2900 538 
Q 2691 219 2414 64 
Q 2138 -91 1772 -91 
Q 1169 -91 856 284 
Q 544 659 544 1381 
z
M 1991 3584 
L 1991 3584 
z
" transform="scale(0.015625)"/>
       <path id="DejaVuSans-3d" d="M 678 2906 
L 4684 2906 
L 4684 2381 
L 678 2381 
L 678 2906 
z
M 678 1631 
L 4684 1631 
L 4684 1100 
L 678 1100 
L 678 1631 
z
" transform="scale(0.015625)"/>
      </defs>
      <use xlink:href="#DejaVuSans-4e"/>
      <use xlink:href="#DejaVuSans-20" transform="translate(74.804688 0)"/>
      <use xlink:href="#DejaVuSans-6d" transform="translate(106.591797 0)"/>
      <use xlink:href="#DejaVuSans-75" transform="translate(204.003906 0)"/>
      <use xlink:href="#DejaVuSans-74" transform="translate(267.382812 0)"/>
      <use xlink:href="#DejaVuSans-61" transform="translate(306.591797 0)"/>
      <use xlink:href="#DejaVuSans-74" transform="translate(367.871094 0)"/>
      <use xlink:href="#DejaVuSans-69" transform="translate(407.080078 0)"/>
      <use xlink:href="#DejaVuSans-6f" transform="translate(434.863281 0)"/>
      <use xlink:href="#DejaVuSans-6e" transform="translate(496.044922 0)"/>
      <use xlink:href="#DejaVuSans-73" transform="translate(559.423828 0)"/>
      <use xlink:href="#DejaVuSans-20" transform="translate(611.523438 0)"/>
      <use xlink:href="#DejaVuSans-3d" transform="translate(643.310547 0)"/>
      <use xlink:href="#DejaVuSans-20" transform="translate(727.099609 0)"/>
      <use xlink:href="#DejaVuSans-30" transform="translate(758.886719 0)"/>
     </g>
    </g>
    <g id="line2d_76">
     <path d="M 363.659137 328.012687 
L 373.659137 328.012687 
L 383.659137 328.012687 
" style="fill: none; stroke: #472f7d; stroke-width: 2; stroke-linecap: square"/>
    </g>
    <g id="text_21">
     <!-- N mutations = 2 -->
     <g transform="translate(391.659137 331.512687) scale(0.1 -0.1)">
      <use xlink:href="#DejaVuSans-4e"/>
      <use xlink:href="#DejaVuSans-20" transform="translate(74.804688 0)"/>
      <use xlink:href="#DejaVuSans-6d" transform="translate(106.591797 0)"/>
      <use xlink:href="#DejaVuSans-75" transform="translate(204.003906 0)"/>
      <use xlink:href="#DejaVuSans-74" transform="translate(267.382812 0)"/>
      <use xlink:href="#DejaVuSans-61" transform="translate(306.591797 0)"/>
      <use xlink:href="#DejaVuSans-74" transform="translate(367.871094 0)"/>
      <use xlink:href="#DejaVuSans-69" transform="translate(407.080078 0)"/>
      <use xlink:href="#DejaVuSans-6f" transform="translate(434.863281 0)"/>
      <use xlink:href="#DejaVuSans-6e" transform="translate(496.044922 0)"/>
      <use xlink:href="#DejaVuSans-73" transform="translate(559.423828 0)"/>
      <use xlink:href="#DejaVuSans-20" transform="translate(611.523438 0)"/>
      <use xlink:href="#DejaVuSans-3d" transform="translate(643.310547 0)"/>
      <use xlink:href="#DejaVuSans-20" transform="translate(727.099609 0)"/>
      <use xlink:href="#DejaVuSans-32" transform="translate(758.886719 0)"/>
     </g>
    </g>
    <g id="line2d_77">
     <path d="M 363.659137 342.690812 
L 373.659137 342.690812 
L 383.659137 342.690812 
" style="fill: none; stroke: #31688e; stroke-width: 2; stroke-linecap: square"/>
    </g>
    <g id="text_22">
     <!-- N mutations = 5 -->
     <g transform="translate(391.659137 346.190812) scale(0.1 -0.1)">
      <use xlink:href="#DejaVuSans-4e"/>
      <use xlink:href="#DejaVuSans-20" transform="translate(74.804688 0)"/>
      <use xlink:href="#DejaVuSans-6d" transform="translate(106.591797 0)"/>
      <use xlink:href="#DejaVuSans-75" transform="translate(204.003906 0)"/>
      <use xlink:href="#DejaVuSans-74" transform="translate(267.382812 0)"/>
      <use xlink:href="#DejaVuSans-61" transform="translate(306.591797 0)"/>
      <use xlink:href="#DejaVuSans-74" transform="translate(367.871094 0)"/>
      <use xlink:href="#DejaVuSans-69" transform="translate(407.080078 0)"/>
      <use xlink:href="#DejaVuSans-6f" transform="translate(434.863281 0)"/>
      <use xlink:href="#DejaVuSans-6e" transform="translate(496.044922 0)"/>
      <use xlink:href="#DejaVuSans-73" transform="translate(559.423828 0)"/>
      <use xlink:href="#DejaVuSans-20" transform="translate(611.523438 0)"/>
      <use xlink:href="#DejaVuSans-3d" transform="translate(643.310547 0)"/>
      <use xlink:href="#DejaVuSans-20" transform="translate(727.099609 0)"/>
      <use xlink:href="#DejaVuSans-35" transform="translate(758.886719 0)"/>
     </g>
    </g>
    <g id="line2d_78">
     <path d="M 363.659137 357.368938 
L 373.659137 357.368938 
L 383.659137 357.368938 
" style="fill: none; stroke: #35b779; stroke-width: 2; stroke-linecap: square"/>
    </g>
    <g id="text_23">
     <!-- N mutations = 10 -->
     <g transform="translate(391.659137 360.868938) scale(0.1 -0.1)">
      <use xlink:href="#DejaVuSans-4e"/>
      <use xlink:href="#DejaVuSans-20" transform="translate(74.804688 0)"/>
      <use xlink:href="#DejaVuSans-6d" transform="translate(106.591797 0)"/>
      <use xlink:href="#DejaVuSans-75" transform="translate(204.003906 0)"/>
      <use xlink:href="#DejaVuSans-74" transform="translate(267.382812 0)"/>
      <use xlink:href="#DejaVuSans-61" transform="translate(306.591797 0)"/>
      <use xlink:href="#DejaVuSans-74" transform="translate(367.871094 0)"/>
      <use xlink:href="#DejaVuSans-69" transform="translate(407.080078 0)"/>
      <use xlink:href="#DejaVuSans-6f" transform="translate(434.863281 0)"/>
      <use xlink:href="#DejaVuSans-6e" transform="translate(496.044922 0)"/>
      <use xlink:href="#DejaVuSans-73" transform="translate(559.423828 0)"/>
      <use xlink:href="#DejaVuSans-20" transform="translate(611.523438 0)"/>
      <use xlink:href="#DejaVuSans-3d" transform="translate(643.310547 0)"/>
      <use xlink:href="#DejaVuSans-20" transform="translate(727.099609 0)"/>
      <use xlink:href="#DejaVuSans-31" transform="translate(758.886719 0)"/>
      <use xlink:href="#DejaVuSans-30" transform="translate(822.509766 0)"/>
     </g>
    </g>
    <g id="line2d_79">
     <path d="M 363.659137 372.047063 
L 373.659137 372.047063 
L 383.659137 372.047063 
" style="fill: none; stroke: #fde725; stroke-width: 2; stroke-linecap: square"/>
    </g>
    <g id="text_24">
     <!-- N mutations = 15 -->
     <g transform="translate(391.659137 375.547063) scale(0.1 -0.1)">
      <use xlink:href="#DejaVuSans-4e"/>
      <use xlink:href="#DejaVuSans-20" transform="translate(74.804688 0)"/>
      <use xlink:href="#DejaVuSans-6d" transform="translate(106.591797 0)"/>
      <use xlink:href="#DejaVuSans-75" transform="translate(204.003906 0)"/>
      <use xlink:href="#DejaVuSans-74" transform="translate(267.382812 0)"/>
      <use xlink:href="#DejaVuSans-61" transform="translate(306.591797 0)"/>
      <use xlink:href="#DejaVuSans-74" transform="translate(367.871094 0)"/>
      <use xlink:href="#DejaVuSans-69" transform="translate(407.080078 0)"/>
      <use xlink:href="#DejaVuSans-6f" transform="translate(434.863281 0)"/>
      <use xlink:href="#DejaVuSans-6e" transform="translate(496.044922 0)"/>
      <use xlink:href="#DejaVuSans-73" transform="translate(559.423828 0)"/>
      <use xlink:href="#DejaVuSans-20" transform="translate(611.523438 0)"/>
      <use xlink:href="#DejaVuSans-3d" transform="translate(643.310547 0)"/>
      <use xlink:href="#DejaVuSans-20" transform="translate(727.099609 0)"/>
      <use xlink:href="#DejaVuSans-31" transform="translate(758.886719 0)"/>
      <use xlink:href="#DejaVuSans-35" transform="translate(822.509766 0)"/>
     </g>
    </g>
   </g>
  </g>
 </g>
 <defs>
  <clipPath id="p93e5a19ac5">
   <rect x="54.398" y="10.8" width="182.045095" height="375.82675"/>
  </clipPath>
  <clipPath id="p2d12c06e9e">
   <rect x="307.22498" y="10.8" width="182.045095" height="375.82675"/>
  </clipPath>
 </defs>
</svg>
