<?xml version="1.0" encoding="UTF-8" standalone="no"?>
<svg
   width="256.00125pt"
   height="190.68425pt"
   viewBox="0 0 256.00125 190.68425"
   version="1.1"
   id="svg524"
   sodipodi:docname="alpha0_dependency.svg"
   inkscape:version="1.2.2 (b0a8486541, 2022-12-01)"
   xmlns:inkscape="http://www.inkscape.org/namespaces/inkscape"
   xmlns:sodipodi="http://sodipodi.sourceforge.net/DTD/sodipodi-0.dtd"
   xmlns:xlink="http://www.w3.org/1999/xlink"
   xmlns="http://www.w3.org/2000/svg"
   xmlns:svg="http://www.w3.org/2000/svg"
   xmlns:rdf="http://www.w3.org/1999/02/22-rdf-syntax-ns#"
   xmlns:cc="http://creativecommons.org/ns#"
   xmlns:dc="http://purl.org/dc/elements/1.1/">
  <sodipodi:namedview
     id="namedview526"
     pagecolor="#ffffff"
     bordercolor="#999999"
     borderopacity="1"
     inkscape:showpageshadow="0"
     inkscape:pageopacity="0"
     inkscape:pagecheckerboard="0"
     inkscape:deskcolor="#d1d1d1"
     inkscape:document-units="pt"
     showgrid="false"
     inkscape:zoom="1.4618056"
     inkscape:cx="187.43943"
     inkscape:cy="147.42043"
     inkscape:window-width="1854"
     inkscape:window-height="1011"
     inkscape:window-x="66"
     inkscape:window-y="32"
     inkscape:window-maximized="1"
     inkscape:current-layer="svg524" />
  <metadata
     id="metadata2">
    <rdf:RDF>
      <cc:Work>
        <dc:type
           rdf:resource="http://purl.org/dc/dcmitype/StillImage" />
        <dc:date>2026-02-03T10:02:21.892528</dc:date>
        <dc:format>image/svg+xml</dc:format>
        <dc:creator>
          <cc:Agent>
            <dc:title>Matplotlib v3.10.8, https://matplotlib.org/</dc:title>
          </cc:Agent>
        </dc:creator>
      </cc:Work>
    </rdf:RDF>
  </metadata>
  <defs
     id="defs6">
    <style
       type="text/css"
       id="style4">*{stroke-linejoin: round; stroke-linecap: butt}</style>
  </defs>
  <g
     id="axes_1"
     transform="translate(-11.229375,-10.4)">
    <g
       id="patch_2">
      <path
         d="M 38.27,170.728 H 240.19 V 10.8 H 38.27 Z"
         style="fill:#ffffff"
         id="path11" />
    </g>
    <g
       id="patch_3">
      <path
         d="m 38.27,170.728 h 65.93306 V 10.8 H 38.27 Z"
         clip-path="url(#p383d65d52c)"
         style="opacity:1;fill:#000000;fill-opacity:1"
         id="path14" />
    </g>
    <g
       id="matplotlib.axis_1">
      <g
         id="xtick_1">
        <g
           id="line2d_1">
          <defs
             id="defs18">
            <path
               id="m1956bf9893"
               d="M 0,0 V 3.5"
               style="stroke:#000000;stroke-width:0.8" />
          </defs>
          <g
             id="g22">
            <use
               xlink:href="#m1956bf9893"
               x="38.27"
               y="170.728"
               style="stroke:#000000;stroke-width:0.8"
               id="use20" />
          </g>
        </g>
        <g
           id="text_1">
          <!-- $\mathdefault{10^{-6}}$ -->
          <g
             transform="matrix(0.1,0,0,-0.1,26.52,185.32644)"
             id="g39">
            <defs
               id="defs29">
              <path
                 id="DejaVuSans-31"
                 d="M 794,531 H 1825 V 4091 L 703,3866 v 575 l 1116,225 h 631 V 531 H 3481 V 0 H 794 Z"
                 transform="scale(0.015625)" />
              <path
                 id="DejaVuSans-30"
                 d="m 2034,4250 q -487,0 -733,-480 -245,-479 -245,-1442 0,-959 245,-1439 246,-480 733,-480 491,0 736,480 246,480 246,1439 0,963 -246,1442 -245,480 -736,480 z m 0,500 q 785,0 1199,-621 414,-620 414,-1801 0,-1178 -414,-1799 -414,-620 -1199,-620 -784,0 -1198,620 -414,621 -414,1799 0,1181 414,1801 414,621 1198,621 z"
                 transform="scale(0.015625)" />
              <path
                 id="DejaVuSans-2212"
                 d="M 678,2272 H 4684 V 1741 H 678 Z"
                 transform="scale(0.015625)" />
              <path
                 id="DejaVuSans-36"
                 d="m 2113,2584 q -425,0 -674,-291 -248,-290 -248,-796 0,-503 248,-796 249,-292 674,-292 425,0 673,292 248,293 248,796 0,506 -248,796 -248,291 -673,291 z m 1253,1979 v -575 q -238,112 -480,171 -242,60 -480,60 -625,0 -955,-422 -329,-422 -376,-1275 184,272 462,417 279,145 613,145 703,0 1111,-427 408,-426 408,-1160 0,-719 -425,-1154 -425,-434 -1131,-434 -810,0 -1238,620 -428,621 -428,1799 0,1106 525,1764 525,658 1409,658 238,0 480,-47 242,-47 505,-140 z"
                 transform="scale(0.015625)" />
            </defs>
            <use
               xlink:href="#DejaVuSans-31"
               transform="translate(0,0.765625)"
               id="use31" />
            <use
               xlink:href="#DejaVuSans-30"
               transform="translate(63.623047,0.765625)"
               id="use33" />
            <use
               xlink:href="#DejaVuSans-2212"
               transform="matrix(0.7,0,0,0.7,128.20312,39.046875)"
               id="use35" />
            <use
               xlink:href="#DejaVuSans-36"
               transform="matrix(0.7,0,0,0.7,186.85547,39.046875)"
               id="use37" />
          </g>
        </g>
      </g>
      <g
         id="xtick_2">
        <g
           id="line2d_2">
          <g
             id="g45">
            <use
               xlink:href="#m1956bf9893"
               x="105.57667"
               y="170.728"
               style="stroke:#000000;stroke-width:0.8"
               id="use43" />
          </g>
        </g>
        <g
           id="text_2">
          <!-- $\mathdefault{10^{-5}}$ -->
          <g
             transform="matrix(0.1,0,0,-0.1,93.826667,185.32644)"
             id="g59">
            <defs
               id="defs49">
              <path
                 id="DejaVuSans-35"
                 d="M 691,4666 H 3169 V 4134 H 1269 V 2991 q 137,47 274,70 138,23 276,23 781,0 1237,-428 457,-428 457,-1159 Q 3513,744 3044,326 2575,-91 1722,-91 1428,-91 1123,-41 819,9 494,109 v 635 q 281,-153 581,-228 300,-75 634,-75 541,0 856,284 316,284 316,772 0,487 -316,771 -315,285 -856,285 -253,0 -505,-56 -251,-56 -513,-175 z"
                 transform="scale(0.015625)" />
            </defs>
            <use
               xlink:href="#DejaVuSans-31"
               transform="translate(0,0.684375)"
               id="use51" />
            <use
               xlink:href="#DejaVuSans-30"
               transform="translate(63.623047,0.684375)"
               id="use53" />
            <use
               xlink:href="#DejaVuSans-2212"
               transform="matrix(0.7,0,0,0.7,128.20312,38.965625)"
               id="use55" />
            <use
               xlink:href="#DejaVuSans-35"
               transform="matrix(0.7,0,0,0.7,186.85547,38.965625)"
               id="use57" />
          </g>
        </g>
      </g>
      <g
         id="xtick_3">
        <g
           id="line2d_3">
          <g
             id="g65">
            <use
               xlink:href="#m1956bf9893"
               x="172.88333"
               y="170.728"
               style="stroke:#000000;stroke-width:0.8"
               id="use63" />
          </g>
        </g>
        <g
           id="text_3">
          <!-- $\mathdefault{10^{-4}}$ -->
          <g
             transform="matrix(0.1,0,0,-0.1,161.13333,185.32644)"
             id="g79">
            <defs
               id="defs69">
              <path
                 id="DejaVuSans-34"
                 d="M 2419,4116 825,1625 h 1594 z m -166,550 h 794 V 1625 h 666 V 1100 H 3047 V 0 H 2419 V 1100 H 313 v 609 z"
                 transform="scale(0.015625)" />
            </defs>
            <use
               xlink:href="#DejaVuSans-31"
               transform="translate(0,0.684375)"
               id="use71" />
            <use
               xlink:href="#DejaVuSans-30"
               transform="translate(63.623047,0.684375)"
               id="use73" />
            <use
               xlink:href="#DejaVuSans-2212"
               transform="matrix(0.7,0,0,0.7,128.20312,38.965625)"
               id="use75" />
            <use
               xlink:href="#DejaVuSans-34"
               transform="matrix(0.7,0,0,0.7,186.85547,38.965625)"
               id="use77" />
          </g>
        </g>
      </g>
      <g
         id="xtick_4">
        <g
           id="line2d_4">
          <g
             id="g85">
            <use
               xlink:href="#m1956bf9893"
               x="240.19"
               y="170.728"
               style="stroke:#000000;stroke-width:0.8"
               id="use83" />
          </g>
        </g>
        <g
           id="text_4">
          <!-- $\mathdefault{10^{-3}}$ -->
          <g
             transform="matrix(0.1,0,0,-0.1,228.44,185.32644)"
             id="g99">
            <defs
               id="defs89">
              <path
                 id="DejaVuSans-33"
                 d="m 2597,2516 q 453,-97 707,-404 255,-306 255,-756 0,-690 -475,-1069 -475,-378 -1350,-378 -293,0 -604,58 -311,58 -642,174 v 609 q 262,-153 574,-231 313,-78 654,-78 593,0 904,234 311,234 311,681 0,413 -289,645 -289,233 -804,233 h -544 v 519 h 569 q 465,0 712,186 247,186 247,536 0,359 -255,551 -254,193 -729,193 -260,0 -557,-57 -297,-56 -653,-174 v 562 q 360,100 674,150 314,50 592,50 719,0 1137,-327 419,-326 419,-882 0,-388 -222,-655 -222,-267 -631,-370 z"
                 transform="scale(0.015625)" />
            </defs>
            <use
               xlink:href="#DejaVuSans-31"
               transform="translate(0,0.765625)"
               id="use91" />
            <use
               xlink:href="#DejaVuSans-30"
               transform="translate(63.623047,0.765625)"
               id="use93" />
            <use
               xlink:href="#DejaVuSans-2212"
               transform="matrix(0.7,0,0,0.7,128.20312,39.046875)"
               id="use95" />
            <use
               xlink:href="#DejaVuSans-33"
               transform="matrix(0.7,0,0,0.7,186.85547,39.046875)"
               id="use97" />
          </g>
        </g>
      </g>
      <g
         id="xtick_5">
        <g
           id="line2d_5">
          <defs
             id="defs104">
            <path
               id="m7c691e13f4"
               d="M 0,0 V 2"
               style="stroke:#000000;stroke-width:0.6" />
          </defs>
          <g
             id="g108">
            <use
               xlink:href="#m7c691e13f4"
               x="58.531326"
               y="170.728"
               style="stroke:#000000;stroke-width:0.6"
               id="use106" />
          </g>
        </g>
      </g>
      <g
         id="xtick_6">
        <g
           id="line2d_6">
          <g
             id="g114">
            <use
               xlink:href="#m7c691e13f4"
               x="70.383438"
               y="170.728"
               style="stroke:#000000;stroke-width:0.6"
               id="use112" />
          </g>
        </g>
      </g>
      <g
         id="xtick_7">
        <g
           id="line2d_7">
          <g
             id="g120">
            <use
               xlink:href="#m7c691e13f4"
               x="78.792648"
               y="170.728"
               style="stroke:#000000;stroke-width:0.6"
               id="use118" />
          </g>
        </g>
      </g>
      <g
         id="xtick_8">
        <g
           id="line2d_8">
          <g
             id="g126">
            <use
               xlink:href="#m7c691e13f4"
               x="85.315338"
               y="170.728"
               style="stroke:#000000;stroke-width:0.6"
               id="use124" />
          </g>
        </g>
      </g>
      <g
         id="xtick_9">
        <g
           id="line2d_9">
          <g
             id="g132">
            <use
               xlink:href="#m7c691e13f4"
               x="90.644768"
               y="170.728"
               style="stroke:#000000;stroke-width:0.6"
               id="use130" />
          </g>
        </g>
      </g>
      <g
         id="xtick_10">
        <g
           id="line2d_10">
          <g
             id="g138">
            <use
               xlink:href="#m7c691e13f4"
               x="95.150734"
               y="170.728"
               style="stroke:#000000;stroke-width:0.6"
               id="use136" />
          </g>
        </g>
      </g>
      <g
         id="xtick_11">
        <g
           id="line2d_11">
          <g
             id="g144">
            <use
               xlink:href="#m7c691e13f4"
               x="99.053978"
               y="170.728"
               style="stroke:#000000;stroke-width:0.6"
               id="use142" />
          </g>
        </g>
      </g>
      <g
         id="xtick_12">
        <g
           id="line2d_12">
          <g
             id="g150">
            <use
               xlink:href="#m7c691e13f4"
               x="102.49688"
               y="170.728"
               style="stroke:#000000;stroke-width:0.6"
               id="use148" />
          </g>
        </g>
      </g>
      <g
         id="xtick_13">
        <g
           id="line2d_13">
          <g
             id="g156">
            <use
               xlink:href="#m7c691e13f4"
               x="125.83799"
               y="170.728"
               style="stroke:#000000;stroke-width:0.6"
               id="use154" />
          </g>
        </g>
      </g>
      <g
         id="xtick_14">
        <g
           id="line2d_14">
          <g
             id="g162">
            <use
               xlink:href="#m7c691e13f4"
               x="137.69011"
               y="170.728"
               style="stroke:#000000;stroke-width:0.6"
               id="use160" />
          </g>
        </g>
      </g>
      <g
         id="xtick_15">
        <g
           id="line2d_15">
          <g
             id="g168">
            <use
               xlink:href="#m7c691e13f4"
               x="146.09932"
               y="170.728"
               style="stroke:#000000;stroke-width:0.6"
               id="use166" />
          </g>
        </g>
      </g>
      <g
         id="xtick_16">
        <g
           id="line2d_16">
          <g
             id="g174">
            <use
               xlink:href="#m7c691e13f4"
               x="152.62201"
               y="170.728"
               style="stroke:#000000;stroke-width:0.6"
               id="use172" />
          </g>
        </g>
      </g>
      <g
         id="xtick_17">
        <g
           id="line2d_17">
          <g
             id="g180">
            <use
               xlink:href="#m7c691e13f4"
               x="157.95143"
               y="170.728"
               style="stroke:#000000;stroke-width:0.6"
               id="use178" />
          </g>
        </g>
      </g>
      <g
         id="xtick_18">
        <g
           id="line2d_18">
          <g
             id="g186">
            <use
               xlink:href="#m7c691e13f4"
               x="162.4574"
               y="170.728"
               style="stroke:#000000;stroke-width:0.6"
               id="use184" />
          </g>
        </g>
      </g>
      <g
         id="xtick_19">
        <g
           id="line2d_19">
          <g
             id="g192">
            <use
               xlink:href="#m7c691e13f4"
               x="166.36064"
               y="170.728"
               style="stroke:#000000;stroke-width:0.6"
               id="use190" />
          </g>
        </g>
      </g>
      <g
         id="xtick_20">
        <g
           id="line2d_20">
          <g
             id="g198">
            <use
               xlink:href="#m7c691e13f4"
               x="169.80354"
               y="170.728"
               style="stroke:#000000;stroke-width:0.6"
               id="use196" />
          </g>
        </g>
      </g>
      <g
         id="xtick_21">
        <g
           id="line2d_21">
          <g
             id="g204">
            <use
               xlink:href="#m7c691e13f4"
               x="193.14465"
               y="170.728"
               style="stroke:#000000;stroke-width:0.6"
               id="use202" />
          </g>
        </g>
      </g>
      <g
         id="xtick_22">
        <g
           id="line2d_22">
          <g
             id="g210">
            <use
               xlink:href="#m7c691e13f4"
               x="204.99678"
               y="170.728"
               style="stroke:#000000;stroke-width:0.6"
               id="use208" />
          </g>
        </g>
      </g>
      <g
         id="xtick_23">
        <g
           id="line2d_23">
          <g
             id="g216">
            <use
               xlink:href="#m7c691e13f4"
               x="213.40599"
               y="170.728"
               style="stroke:#000000;stroke-width:0.6"
               id="use214" />
          </g>
        </g>
      </g>
      <g
         id="xtick_24">
        <g
           id="line2d_24">
          <g
             id="g222">
            <use
               xlink:href="#m7c691e13f4"
               x="219.92868"
               y="170.728"
               style="stroke:#000000;stroke-width:0.6"
               id="use220" />
          </g>
        </g>
      </g>
      <g
         id="xtick_25">
        <g
           id="line2d_25">
          <g
             id="g228">
            <use
               xlink:href="#m7c691e13f4"
               x="225.2581"
               y="170.728"
               style="stroke:#000000;stroke-width:0.6"
               id="use226" />
          </g>
        </g>
      </g>
      <g
         id="xtick_26">
        <g
           id="line2d_26">
          <g
             id="g234">
            <use
               xlink:href="#m7c691e13f4"
               x="229.76407"
               y="170.728"
               style="stroke:#000000;stroke-width:0.6"
               id="use232" />
          </g>
        </g>
      </g>
      <g
         id="xtick_27">
        <g
           id="line2d_27">
          <g
             id="g240">
            <use
               xlink:href="#m7c691e13f4"
               x="233.66731"
               y="170.728"
               style="stroke:#000000;stroke-width:0.6"
               id="use238" />
          </g>
        </g>
      </g>
      <g
         id="xtick_28">
        <g
           id="line2d_28">
          <g
             id="g246">
            <use
               xlink:href="#m7c691e13f4"
               x="237.11021"
               y="170.728"
               style="stroke:#000000;stroke-width:0.6"
               id="use244" />
          </g>
        </g>
      </g>
      <g
         id="text_5">
        <!-- alpha0 -->
        <g
           transform="matrix(0.1,0,0,-0.1,122.18859,199.00456)"
           id="g268">
          <defs
             id="defs254">
            <path
               id="DejaVuSans-61"
               d="m 2194,1759 q -697,0 -966,-159 -269,-159 -269,-544 0,-306 202,-486 202,-179 548,-179 479,0 768,339 289,339 289,901 v 128 z m 1147,238 V 0 H 2766 V 531 Q 2569,213 2275,61 1981,-91 1556,-91 q -537,0 -855,302 -317,302 -317,808 0,590 395,890 396,300 1180,300 h 807 v 57 q 0,397 -261,614 -261,217 -733,217 -300,0 -585,-72 -284,-72 -546,-216 v 532 q 315,122 612,182 297,61 578,61 760,0 1135,-394 375,-393 375,-1193 z"
               transform="scale(0.015625)" />
            <path
               id="DejaVuSans-6c"
               d="m 603,4863 h 575 V 0 H 603 Z"
               transform="scale(0.015625)" />
            <path
               id="DejaVuSans-70"
               d="M 1159,525 V -1331 H 581 v 4831 h 578 v -531 q 182,312 458,463 277,152 661,152 638,0 1036,-506 399,-506 399,-1331 0,-825 -399,-1332 -398,-506 -1036,-506 -384,0 -661,152 -276,152 -458,464 z m 1957,1222 q 0,634 -261,995 -261,361 -717,361 -457,0 -718,-361 -261,-361 -261,-995 0,-634 261,-995 261,-361 718,-361 456,0 717,361 261,361 261,995 z"
               transform="scale(0.015625)" />
            <path
               id="DejaVuSans-68"
               d="M 3513,2113 V 0 h -575 v 2094 q 0,497 -194,743 -194,247 -581,247 -466,0 -735,-297 -269,-296 -269,-809 V 0 H 581 v 4863 h 578 V 2956 q 207,316 486,472 280,156 646,156 603,0 912,-373 310,-373 310,-1098 z"
               transform="scale(0.015625)" />
          </defs>
          <use
             xlink:href="#DejaVuSans-61"
             id="use256" />
          <use
             xlink:href="#DejaVuSans-6c"
             transform="translate(61.279297)"
             id="use258" />
          <use
             xlink:href="#DejaVuSans-70"
             transform="translate(89.0625)"
             id="use260" />
          <use
             xlink:href="#DejaVuSans-68"
             transform="translate(152.53906)"
             id="use262" />
          <use
             xlink:href="#DejaVuSans-61"
             transform="translate(215.91797)"
             id="use264" />
          <use
             xlink:href="#DejaVuSans-30"
             transform="translate(277.19727)"
             id="use266" />
        </g>
      </g>
    </g>
    <g
       id="matplotlib.axis_2">
      <g
         id="ytick_1">
        <g
           id="line2d_29">
          <defs
             id="defs273">
            <path
               id="md9766d4775"
               d="M 0,0 H -3.5"
               style="stroke:#000000;stroke-width:0.8" />
          </defs>
          <g
             id="g277">
            <use
               xlink:href="#md9766d4775"
               x="38.27"
               y="170.728"
               style="stroke:#000000;stroke-width:0.8"
               id="use275" />
          </g>
        </g>
        <g
           id="text_6">
          <!-- 1 -->
          <g
             transform="matrix(0.1,0,0,-0.1,24.9075,174.52722)"
             id="g282">
            <use
               xlink:href="#DejaVuSans-31"
               id="use280" />
          </g>
        </g>
      </g>
      <g
         id="ytick_2">
        <g
           id="line2d_30">
          <g
             id="g288">
            <use
               xlink:href="#md9766d4775"
               x="38.27"
               y="142.68773"
               style="stroke:#000000;stroke-width:0.8"
               id="use286" />
          </g>
        </g>
        <g
           id="text_7">
          <!-- 2 -->
          <g
             transform="matrix(0.1,0,0,-0.1,24.9075,146.48695)"
             id="g296">
            <defs
               id="defs292">
              <path
                 id="DejaVuSans-32"
                 d="M 1228,531 H 3431 V 0 H 469 v 531 q 359,372 979,998 621,627 780,809 303,340 423,576 121,236 121,464 0,372 -261,606 -261,235 -680,235 -297,0 -627,-103 -329,-103 -704,-313 v 638 q 381,153 712,231 332,78 607,78 725,0 1156,-363 431,-362 431,-968 0,-288 -108,-546 -107,-257 -392,-607 -78,-91 -497,-524 Q 1991,1309 1228,531 Z"
                 transform="scale(0.015625)" />
            </defs>
            <use
               xlink:href="#DejaVuSans-32"
               id="use294" />
          </g>
        </g>
      </g>
      <g
         id="ytick_3">
        <g
           id="line2d_31">
          <g
             id="g302">
            <use
               xlink:href="#md9766d4775"
               x="38.27"
               y="114.64747"
               style="stroke:#000000;stroke-width:0.8"
               id="use300" />
          </g>
        </g>
        <g
           id="text_8">
          <!-- 3 -->
          <g
             transform="matrix(0.1,0,0,-0.1,24.9075,118.44669)"
             id="g307">
            <use
               xlink:href="#DejaVuSans-33"
               id="use305" />
          </g>
        </g>
      </g>
      <g
         id="ytick_4">
        <g
           id="line2d_32">
          <g
             id="g313">
            <use
               xlink:href="#md9766d4775"
               x="38.27"
               y="86.607201"
               style="stroke:#000000;stroke-width:0.8"
               id="use311" />
          </g>
        </g>
        <g
           id="text_9">
          <!-- 4 -->
          <g
             transform="matrix(0.1,0,0,-0.1,24.9075,90.406418)"
             id="g318">
            <use
               xlink:href="#DejaVuSans-34"
               id="use316" />
          </g>
        </g>
      </g>
      <g
         id="ytick_5">
        <g
           id="line2d_33">
          <g
             id="g324">
            <use
               xlink:href="#md9766d4775"
               x="38.27"
               y="58.566933"
               style="stroke:#000000;stroke-width:0.8"
               id="use322" />
          </g>
        </g>
        <g
           id="text_10">
          <!-- 5 -->
          <g
             transform="matrix(0.1,0,0,-0.1,24.9075,62.366152)"
             id="g329">
            <use
               xlink:href="#DejaVuSans-35"
               id="use327" />
          </g>
        </g>
      </g>
      <g
         id="ytick_6">
        <g
           id="line2d_34">
          <g
             id="g335">
            <use
               xlink:href="#md9766d4775"
               x="38.27"
               y="30.526667"
               style="stroke:#000000;stroke-width:0.8"
               id="use333" />
          </g>
        </g>
        <g
           id="text_11">
          <!-- 6 -->
          <g
             transform="matrix(0.1,0,0,-0.1,24.9075,34.325885)"
             id="g340">
            <use
               xlink:href="#DejaVuSans-36"
               id="use338" />
          </g>
        </g>
      </g>
      <g
         id="text_12">
        <!-- max expansion factor -->
        <g
           style="fill:#154406"
           transform="matrix(0,-0.1,-0.1,0,18.827813,145.06166)"
           id="g398">
          <defs
             id="defs356">
            <path
               id="DejaVuSans-6d"
               d="m 3328,2828 q 216,388 516,572 300,184 706,184 547,0 844,-383 297,-382 297,-1088 V 0 h -578 v 2094 q 0,503 -179,746 -178,244 -543,244 -447,0 -707,-297 -259,-296 -259,-809 V 0 h -578 v 2094 q 0,506 -178,748 -178,242 -550,242 -441,0 -701,-298 -259,-298 -259,-808 V 0 H 581 v 3500 h 578 v -544 q 197,322 472,475 275,153 653,153 382,0 649,-194 267,-193 395,-562 z"
               transform="scale(0.015625)" />
            <path
               id="DejaVuSans-78"
               d="M 3513,3500 2247,1797 3578,0 H 2900 L 1881,1375 863,0 H 184 L 1544,1831 300,3500 h 678 l 928,-1247 928,1247 z"
               transform="scale(0.015625)" />
            <path
               id="DejaVuSans-20"
               transform="scale(0.015625)"
               d="" />
            <path
               id="DejaVuSans-65"
               d="M 3597,1894 V 1613 H 953 q 38,-594 358,-905 320,-311 892,-311 331,0 642,81 311,81 618,244 V 178 Q 3153,47 2828,-22 2503,-91 2169,-91 1331,-91 842,396 353,884 353,1716 q 0,859 464,1363 464,505 1252,505 706,0 1117,-455 411,-454 411,-1235 z m -575,169 q -6,471 -264,752 -258,282 -683,282 -481,0 -770,-272 -289,-272 -333,-766 z"
               transform="scale(0.015625)" />
            <path
               id="DejaVuSans-6e"
               d="M 3513,2113 V 0 h -575 v 2094 q 0,497 -194,743 -194,247 -581,247 -466,0 -735,-297 -269,-296 -269,-809 V 0 H 581 v 3500 h 578 v -544 q 207,316 486,472 280,156 646,156 603,0 912,-373 310,-373 310,-1098 z"
               transform="scale(0.015625)" />
            <path
               id="DejaVuSans-73"
               d="m 2834,3397 v -544 q -243,125 -506,187 -262,63 -544,63 -428,0 -642,-131 -214,-131 -214,-394 0,-200 153,-314 153,-114 616,-217 l 197,-44 q 612,-131 870,-370 258,-239 258,-667 0,-488 -386,-773 Q 2250,-91 1575,-91 1294,-91 989,-36 684,19 347,128 v 594 q 319,-166 628,-249 309,-82 613,-82 406,0 624,139 219,139 219,392 0,234 -158,359 -157,125 -692,241 l -200,47 q -534,112 -772,345 -237,233 -237,639 0,494 350,762 350,269 994,269 318,0 599,-47 282,-46 519,-140 z"
               transform="scale(0.015625)" />
            <path
               id="DejaVuSans-69"
               d="m 603,3500 h 575 V 0 H 603 Z m 0,1363 h 575 V 4134 H 603 Z"
               transform="scale(0.015625)" />
            <path
               id="DejaVuSans-6f"
               d="m 1959,3097 q -462,0 -731,-361 -269,-361 -269,-989 0,-628 267,-989 268,-361 733,-361 460,0 728,362 269,363 269,988 0,622 -269,986 -268,364 -728,364 z m 0,487 q 750,0 1178,-488 429,-487 429,-1349 Q 3566,888 3137,398 2709,-91 1959,-91 1206,-91 779,398 353,888 353,1747 q 0,862 426,1349 427,488 1180,488 z"
               transform="scale(0.015625)" />
            <path
               id="DejaVuSans-66"
               d="m 2375,4863 v -479 h -550 q -309,0 -430,-125 -120,-125 -120,-450 v -309 h 947 V 3053 H 1275 V 0 H 697 V 3053 H 147 v 447 h 550 v 244 q 0,584 272,851 272,268 862,268 z"
               transform="scale(0.015625)" />
            <path
               id="DejaVuSans-63"
               d="m 3122,3366 v -538 q -244,135 -489,202 -245,67 -495,67 -560,0 -870,-355 -309,-354 -309,-995 0,-641 309,-996 310,-354 870,-354 250,0 495,67 245,67 489,202 V 134 Q 2881,22 2623,-34 2366,-91 2075,-91 1284,-91 818,406 353,903 353,1747 q 0,856 470,1346 471,491 1290,491 265,0 518,-55 253,-54 491,-163 z"
               transform="scale(0.015625)" />
            <path
               id="DejaVuSans-74"
               d="M 1172,4494 V 3500 H 2356 V 3053 H 1172 V 1153 q 0,-428 117,-550 117,-122 477,-122 h 590 V 0 H 1766 Q 1100,0 847,248 594,497 594,1153 V 3053 H 172 v 447 h 422 v 994 z"
               transform="scale(0.015625)" />
            <path
               id="DejaVuSans-72"
               d="m 2631,2963 q -97,56 -211,82 -114,27 -251,27 -488,0 -749,-317 -261,-317 -261,-911 V 0 H 581 v 3500 h 578 v -544 q 182,319 472,473 291,155 707,155 59,0 131,-8 72,-7 159,-23 z"
               transform="scale(0.015625)" />
          </defs>
          <use
             xlink:href="#DejaVuSans-6d"
             id="use358" />
          <use
             xlink:href="#DejaVuSans-61"
             transform="translate(97.412109)"
             id="use360" />
          <use
             xlink:href="#DejaVuSans-78"
             transform="translate(158.69141)"
             id="use362" />
          <use
             xlink:href="#DejaVuSans-20"
             transform="translate(217.87109)"
             id="use364" />
          <use
             xlink:href="#DejaVuSans-65"
             transform="translate(249.6582)"
             id="use366" />
          <use
             xlink:href="#DejaVuSans-78"
             transform="translate(309.43164)"
             id="use368" />
          <use
             xlink:href="#DejaVuSans-70"
             transform="translate(368.61133)"
             id="use370" />
          <use
             xlink:href="#DejaVuSans-61"
             transform="translate(432.08789)"
             id="use372" />
          <use
             xlink:href="#DejaVuSans-6e"
             transform="translate(493.36719)"
             id="use374" />
          <use
             xlink:href="#DejaVuSans-73"
             transform="translate(556.74609)"
             id="use376" />
          <use
             xlink:href="#DejaVuSans-69"
             transform="translate(608.8457)"
             id="use378" />
          <use
             xlink:href="#DejaVuSans-6f"
             transform="translate(636.62891)"
             id="use380" />
          <use
             xlink:href="#DejaVuSans-6e"
             transform="translate(697.81055)"
             id="use382" />
          <use
             xlink:href="#DejaVuSans-20"
             transform="translate(761.18945)"
             id="use384" />
          <use
             xlink:href="#DejaVuSans-66"
             transform="translate(792.97656)"
             id="use386" />
          <use
             xlink:href="#DejaVuSans-61"
             transform="translate(828.18164)"
             id="use388" />
          <use
             xlink:href="#DejaVuSans-63"
             transform="translate(889.46094)"
             id="use390" />
          <use
             xlink:href="#DejaVuSans-74"
             transform="translate(944.44141)"
             id="use392" />
          <use
             xlink:href="#DejaVuSans-6f"
             transform="translate(983.65039)"
             id="use394" />
          <use
             xlink:href="#DejaVuSans-72"
             transform="translate(1044.832)"
             id="use396" />
        </g>
      </g>
    </g>
    <g
       id="line2d_35">
      <path
         d="m 38.27,16.740762 4.120816,-0.193888 4.120817,-0.138821 4.120816,0.821551 4.120816,-0.582834 4.120817,0.745108 4.120816,-0.400593 4.120816,-0.311385 4.120817,0.853806 4.120816,1.374646 4.120816,-0.622167 4.120817,0.845536 4.120816,-0.180688 4.120816,1.341623 4.120817,0.595295 4.120821,0.104316 4.12081,0.726453 4.12082,0.279314 4.12081,2.119611 4.12082,0.666103 4.12082,1.357864 4.12081,1.306248 4.12082,2.325461 4.12082,-9.071768 4.12081,12.690306 4.12082,-8.98248 4.12081,2.975505 4.12082,2.101063 4.12082,3.304538 4.12081,2.949758 4.12082,4.703502 4.12082,3.577152 4.12081,16.00668 4.12082,5.240863 4.12081,-5.9162 4.12082,5.919782 4.12082,5.819042 4.12081,6.642194 4.12082,16.29561 4.12082,5.345444 4.12081,5.482128 4.12082,14.73071 4.12082,4.79 4.12081,4.20919 4.12082,11.60044 4.12081,9.97145 4.12082,2.33244 4.12082,10.35158 4.12081,1.20227 4.12082,0.9773"
         clip-path="url(#p383d65d52c)"
         style="fill:none;stroke:#277e0b;stroke-width:2;stroke-linecap:square;stroke-opacity:1"
         id="path402" />
    </g>
    <g
       id="patch_4">
      <path
         d="M 38.27,170.728 V 10.8"
         style="fill:none;stroke:#000000;stroke-width:0.8;stroke-linecap:square;stroke-linejoin:miter"
         id="path405" />
    </g>
    <g
       id="patch_5">
      <path
         d="M 240.19,170.728 V 10.8"
         style="fill:none;stroke:#000000;stroke-width:0.8;stroke-linecap:square;stroke-linejoin:miter"
         id="path408" />
    </g>
    <g
       id="patch_6">
      <path
         d="M 38.27,170.728 H 240.19"
         style="fill:none;stroke:#000000;stroke-width:0.8;stroke-linecap:square;stroke-linejoin:miter"
         id="path411" />
    </g>
    <g
       id="patch_7">
      <path
         d="M 38.27,10.8 H 240.19"
         style="fill:none;stroke:#000000;stroke-width:0.8;stroke-linecap:square;stroke-linejoin:miter"
         id="path414" />
    </g>
  </g>
  <g
     id="axes_2"
     transform="translate(-11.229375,-10.4)">
    <g
       id="matplotlib.axis_3">
      <g
         id="ytick_7">
        <g
           id="line2d_36">
          <defs
             id="defs419">
            <path
               id="m8e898371ba"
               d="M 0,0 H 3.5"
               style="stroke:#000000;stroke-width:0.8" />
          </defs>
          <g
             id="g423">
            <use
               xlink:href="#m8e898371ba"
               x="240.19"
               y="169.80569"
               style="stroke:#000000;stroke-width:0.8"
               id="use421" />
          </g>
        </g>
        <g
           id="text_13">
          <!-- 3 -->
          <g
             transform="matrix(0.1,0,0,-0.1,247.19,173.60491)"
             id="g428">
            <use
               xlink:href="#DejaVuSans-33"
               id="use426" />
          </g>
        </g>
      </g>
      <g
         id="ytick_8">
        <g
           id="line2d_37">
          <g
             id="g434">
            <use
               xlink:href="#m8e898371ba"
               x="240.19"
               y="125.66691"
               style="stroke:#000000;stroke-width:0.8"
               id="use432" />
          </g>
        </g>
        <g
           id="text_14">
          <!-- 4 -->
          <g
             transform="matrix(0.1,0,0,-0.1,247.19,129.46612)"
             id="g439">
            <use
               xlink:href="#DejaVuSans-34"
               id="use437" />
          </g>
        </g>
      </g>
      <g
         id="ytick_9">
        <g
           id="line2d_38">
          <g
             id="g445">
            <use
               xlink:href="#m8e898371ba"
               x="240.19"
               y="81.528122"
               style="stroke:#000000;stroke-width:0.8"
               id="use443" />
          </g>
        </g>
        <g
           id="text_15">
          <!-- 5 -->
          <g
             transform="matrix(0.1,0,0,-0.1,247.19,85.327338)"
             id="g450">
            <use
               xlink:href="#DejaVuSans-35"
               id="use448" />
          </g>
        </g>
      </g>
      <g
         id="ytick_10">
        <g
           id="line2d_39">
          <g
             id="g456">
            <use
               xlink:href="#m8e898371ba"
               x="240.19"
               y="37.389336"
               style="stroke:#000000;stroke-width:0.8"
               id="use454" />
          </g>
        </g>
        <g
           id="text_16">
          <!-- 6 -->
          <g
             transform="matrix(0.1,0,0,-0.1,247.19,41.188553)"
             id="g461">
            <use
               xlink:href="#DejaVuSans-36"
               id="use459" />
          </g>
        </g>
      </g>
      <g
         id="text_17">
        <!-- inverse simpson -->
        <g
           style="fill:#ff0000"
           transform="matrix(0,-0.1,-0.1,0,265.15094,131.55462)"
           id="g498">
          <defs
             id="defs466">
            <path
               id="DejaVuSans-76"
               d="M 191,3500 H 800 L 1894,563 2988,3500 h 609 L 2284,0 h -781 z"
               transform="scale(0.015625)" />
          </defs>
          <use
             xlink:href="#DejaVuSans-69"
             id="use468" />
          <use
             xlink:href="#DejaVuSans-6e"
             transform="translate(27.783203)"
             id="use470" />
          <use
             xlink:href="#DejaVuSans-76"
             transform="translate(91.162109)"
             id="use472" />
          <use
             xlink:href="#DejaVuSans-65"
             transform="translate(150.3418)"
             id="use474" />
          <use
             xlink:href="#DejaVuSans-72"
             transform="translate(211.86523)"
             id="use476" />
          <use
             xlink:href="#DejaVuSans-73"
             transform="translate(252.97852)"
             id="use478" />
          <use
             xlink:href="#DejaVuSans-65"
             transform="translate(305.07812)"
             id="use480" />
          <use
             xlink:href="#DejaVuSans-20"
             transform="translate(366.60156)"
             id="use482" />
          <use
             xlink:href="#DejaVuSans-73"
             transform="translate(398.38867)"
             id="use484" />
          <use
             xlink:href="#DejaVuSans-69"
             transform="translate(450.48828)"
             id="use486" />
          <use
             xlink:href="#DejaVuSans-6d"
             transform="translate(478.27148)"
             id="use488" />
          <use
             xlink:href="#DejaVuSans-70"
             transform="translate(575.68359)"
             id="use490" />
          <use
             xlink:href="#DejaVuSans-73"
             transform="translate(639.16016)"
             id="use492" />
          <use
             xlink:href="#DejaVuSans-6f"
             transform="translate(691.25977)"
             id="use494" />
          <use
             xlink:href="#DejaVuSans-6e"
             transform="translate(752.44141)"
             id="use496" />
        </g>
      </g>
    </g>
    <g
       id="line2d_40">
      <path
         d="m 38.27,162.11139 4.120816,0.95681 4.120817,-0.50418 4.120816,0.89452 4.120816,-2.77542 4.120817,1.39823 4.120816,0.34887 4.120816,-5.13849 4.120817,1.94158 4.120816,1.6286 4.120816,-3.48667 4.120817,-0.0968 4.120816,1.49347 4.120816,-2.15201 4.120817,0.44111 4.120821,-2.46517 4.12081,1.16036 4.12082,-3.02623 4.12081,-2.50996 4.12082,-0.67068 4.12082,-3.17068 4.12081,2.42819 4.12082,-2.85973 4.12082,-4.74719 4.12081,-4.32493 4.12082,-2.76637 4.12081,-3.85614 4.12082,-3.81218 4.12082,-4.67569 4.12081,-5.72719 4.12082,-7.39315 4.12082,-6.87481 4.12081,-11.073781 4.12082,-4.904974 4.12081,-5.24826 4.12082,-4.576172 4.12082,-7.557255 4.12081,-4.663397 4.12082,-9.88168 4.12082,-10.233315 4.12081,-3.805957 4.12082,-3.81477 4.12082,-4.400737 4.12081,-11.093546 4.12082,-1.45955 4.12081,2.108446 4.12082,-3.095067 4.12082,15.367736 4.12081,5.442516 4.12082,12.980997"
         clip-path="url(#p383d65d52c)"
         style="fill:none;stroke:#ff0000;stroke-width:2;stroke-linecap:square"
         id="path502" />
    </g>
    <g
       id="patch_8">
      <path
         d="M 38.27,170.728 V 10.8"
         style="fill:none;stroke:#000000;stroke-width:0.8;stroke-linecap:square;stroke-linejoin:miter"
         id="path505" />
    </g>
    <g
       id="patch_9">
      <path
         d="M 240.19,170.728 V 10.8"
         style="fill:none;stroke:#000000;stroke-width:0.8;stroke-linecap:square;stroke-linejoin:miter"
         id="path508" />
    </g>
    <g
       id="patch_10">
      <path
         d="M 38.27,170.728 H 240.19"
         style="fill:none;stroke:#000000;stroke-width:0.8;stroke-linecap:square;stroke-linejoin:miter"
         id="path511" />
    </g>
    <g
       id="patch_11">
      <path
         d="M 38.27,10.8 H 240.19"
         style="fill:none;stroke:#000000;stroke-width:0.8;stroke-linecap:square;stroke-linejoin:miter"
         id="path514" />
    </g>
  </g>
  <defs
     id="defs522">
    <clipPath
       id="p383d65d52c">
      <rect
         x="38.27"
         y="10.8"
         width="201.92"
         height="159.92799"
         id="rect519" />
    </clipPath>
  </defs>
  <text
     xml:space="preserve"
     style="font-weight:bold;font-size:12px;font-family:sans-serif;-inkscape-font-specification:'sans-serif Bold';fill:#ffffff;fill-opacity:1;stroke-width:0.75"
     x="-165.96793"
     y="122.00462"
     id="text809"
     transform="rotate(-90)"><tspan
       sodipodi:role="line"
       id="tspan807"
       style="font-style:normal;font-variant:normal;font-weight:normal;font-stretch:normal;font-size:12px;font-family:sans-serif;-inkscape-font-specification:sans-serif;fill:#ffffff;fill-opacity:1;stroke-width:0.75"
       x="-165.96793"
       y="122.00462">only increasing phase</tspan></text>
</svg>
